<?xml version="1.0" encoding="utf-8" standalone="no"?>
<!DOCTYPE svg PUBLIC "-//W3C//DTD SVG 1.1//EN"
  "http://www.w3.org/Graphics/SVG/1.1/DTD/svg11.dtd">
<svg xmlns:xlink="http://www.w3.org/1999/xlink" width="864pt" height="432pt" viewBox="0 0 864 432" xmlns="http://www.w3.org/2000/svg" version="1.1">
 <metadata>
  <rdf:RDF xmlns:dc="http://purl.org/dc/elements/1.1/" xmlns:cc="http://creativecommons.org/ns#" xmlns:rdf="http://www.w3.org/1999/02/22-rdf-syntax-ns#">
   <cc:Work>
    <dc:type rdf:resource="http://purl.org/dc/dcmitype/StillImage"/>
    <dc:date>2024-12-11T14:34:56.912232</dc:date>
    <dc:format>image/svg+xml</dc:format>
    <dc:creator>
     <cc:Agent>
      <dc:title>Matplotlib v3.9.2, https://matplotlib.org/</dc:title>
     </cc:Agent>
    </dc:creator>
   </cc:Work>
  </rdf:RDF>
 </metadata>
 <defs>
  <style type="text/css">*{stroke-linejoin: round; stroke-linecap: butt}</style>
 </defs>
 <g id="figure_1">
  <g id="patch_1">
   <path d="M 0 432 
L 864 432 
L 864 0 
L 0 0 
z
" style="fill: #ffffff"/>
  </g>
  <g id="axes_1">
   <g id="patch_2">
    <path d="M 56.9 387.16 
L 714.01 387.16 
L 714.01 27.6 
L 56.9 27.6 
z
" style="fill: #ffffff"/>
   </g>
   <g id="patch_3">
    <path d="M 86.768636 387.16 
L 90.549476 387.16 
L 90.549476 362.960071 
L 86.768636 362.960071 
z
" clip-path="url(#p72dee06bfd)" style="fill: #1f77b4"/>
   </g>
   <g id="patch_4">
    <path d="M 124.577037 387.16 
L 128.357877 387.16 
L 128.357877 319.47298 
L 124.577037 319.47298 
z
" clip-path="url(#p72dee06bfd)" style="fill: #1f77b4"/>
   </g>
   <g id="patch_5">
    <path d="M 162.385437 387.16 
L 166.166277 387.16 
L 166.166277 287.449014 
L 162.385437 287.449014 
z
" clip-path="url(#p72dee06bfd)" style="fill: #1f77b4"/>
   </g>
   <g id="patch_6">
    <path d="M 200.193838 387.16 
L 203.974678 387.16 
L 203.974678 284.901653 
L 200.193838 284.901653 
z
" clip-path="url(#p72dee06bfd)" style="fill: #1f77b4"/>
   </g>
   <g id="patch_7">
    <path d="M 238.002238 387.16 
L 241.783078 387.16 
L 241.783078 271.073122 
L 238.002238 271.073122 
z
" clip-path="url(#p72dee06bfd)" style="fill: #1f77b4"/>
   </g>
   <g id="patch_8">
    <path d="M 275.810639 387.16 
L 279.591479 387.16 
L 279.591479 264.158856 
L 275.810639 264.158856 
z
" clip-path="url(#p72dee06bfd)" style="fill: #1f77b4"/>
   </g>
   <g id="patch_9">
    <path d="M 313.619039 387.16 
L 317.399879 387.16 
L 317.399879 261.429541 
L 313.619039 261.429541 
z
" clip-path="url(#p72dee06bfd)" style="fill: #1f77b4"/>
   </g>
   <g id="patch_10">
    <path d="M 351.42744 387.16 
L 355.20828 387.16 
L 355.20828 255.788956 
L 351.42744 255.788956 
z
" clip-path="url(#p72dee06bfd)" style="fill: #1f77b4"/>
   </g>
   <g id="patch_11">
    <path d="M 389.23584 387.16 
L 393.01668 387.16 
L 393.01668 243.598014 
L 389.23584 243.598014 
z
" clip-path="url(#p72dee06bfd)" style="fill: #1f77b4"/>
   </g>
   <g id="patch_12">
    <path d="M 427.044241 387.16 
L 430.825081 387.16 
L 430.825081 225.948442 
L 427.044241 225.948442 
z
" clip-path="url(#p72dee06bfd)" style="fill: #1f77b4"/>
   </g>
   <g id="patch_13">
    <path d="M 464.852641 387.16 
L 468.633481 387.16 
L 468.633481 200.110924 
L 464.852641 200.110924 
z
" clip-path="url(#p72dee06bfd)" style="fill: #1f77b4"/>
   </g>
   <g id="patch_14">
    <path d="M 502.661041 387.16 
L 506.441881 387.16 
L 506.441881 140.975758 
L 502.661041 140.975758 
z
" clip-path="url(#p72dee06bfd)" style="fill: #1f77b4"/>
   </g>
   <g id="patch_15">
    <path d="M 540.469442 387.16 
L 544.250282 387.16 
L 544.250282 246.509284 
L 540.469442 246.509284 
z
" clip-path="url(#p72dee06bfd)" style="fill: #1f77b4"/>
   </g>
   <g id="patch_16">
    <path d="M 578.277842 387.16 
L 582.058682 387.16 
L 582.058682 162.264418 
L 578.277842 162.264418 
z
" clip-path="url(#p72dee06bfd)" style="fill: #1f77b4"/>
   </g>
   <g id="patch_17">
    <path d="M 616.086243 387.16 
L 619.867083 387.16 
L 619.867083 133.151721 
L 616.086243 133.151721 
z
" clip-path="url(#p72dee06bfd)" style="fill: #1f77b4"/>
   </g>
   <g id="patch_18">
    <path d="M 653.894643 387.16 
L 657.675483 387.16 
L 657.675483 137.882534 
L 653.894643 137.882534 
z
" clip-path="url(#p72dee06bfd)" style="fill: #1f77b4"/>
   </g>
   <g id="patch_19">
    <path d="M 90.549476 387.16 
L 94.330316 387.16 
L 94.330316 376.606647 
L 90.549476 376.606647 
z
" clip-path="url(#p72dee06bfd)" style="fill: #ff7f0e"/>
   </g>
   <g id="patch_20">
    <path d="M 128.357877 387.16 
L 132.138717 387.16 
L 132.138717 321.292524 
L 128.357877 321.292524 
z
" clip-path="url(#p72dee06bfd)" style="fill: #ff7f0e"/>
   </g>
   <g id="patch_21">
    <path d="M 166.166277 387.16 
L 169.947117 387.16 
L 169.947117 291.633964 
L 166.166277 291.633964 
z
" clip-path="url(#p72dee06bfd)" style="fill: #ff7f0e"/>
   </g>
   <g id="patch_22">
    <path d="M 203.974678 387.16 
L 207.755518 387.16 
L 207.755518 285.811425 
L 203.974678 285.811425 
z
" clip-path="url(#p72dee06bfd)" style="fill: #ff7f0e"/>
   </g>
   <g id="patch_23">
    <path d="M 241.783078 387.16 
L 245.563918 387.16 
L 245.563918 275.621981 
L 241.783078 275.621981 
z
" clip-path="url(#p72dee06bfd)" style="fill: #ff7f0e"/>
   </g>
   <g id="patch_24">
    <path d="M 279.591479 387.16 
L 283.372319 387.16 
L 283.372319 268.525761 
L 279.591479 268.525761 
z
" clip-path="url(#p72dee06bfd)" style="fill: #ff7f0e"/>
   </g>
   <g id="patch_25">
    <path d="M 317.399879 387.16 
L 321.180719 387.16 
L 321.180719 257.972408 
L 317.399879 257.972408 
z
" clip-path="url(#p72dee06bfd)" style="fill: #ff7f0e"/>
   </g>
   <g id="patch_26">
    <path d="M 355.20828 387.16 
L 358.98912 387.16 
L 358.98912 259.791952 
L 355.20828 259.791952 
z
" clip-path="url(#p72dee06bfd)" style="fill: #ff7f0e"/>
   </g>
   <g id="patch_27">
    <path d="M 393.01668 387.16 
L 396.79752 387.16 
L 396.79752 241.050653 
L 393.01668 241.050653 
z
" clip-path="url(#p72dee06bfd)" style="fill: #ff7f0e"/>
   </g>
   <g id="patch_28">
    <path d="M 430.825081 387.16 
L 434.605921 387.16 
L 434.605921 223.037172 
L 430.825081 223.037172 
z
" clip-path="url(#p72dee06bfd)" style="fill: #ff7f0e"/>
   </g>
   <g id="patch_29">
    <path d="M 468.633481 387.16 
L 472.414321 387.16 
L 472.414321 196.471836 
L 468.633481 196.471836 
z
" clip-path="url(#p72dee06bfd)" style="fill: #ff7f0e"/>
   </g>
   <g id="patch_30">
    <path d="M 506.441881 387.16 
L 510.222722 387.16 
L 510.222722 146.252435 
L 506.441881 146.252435 
z
" clip-path="url(#p72dee06bfd)" style="fill: #ff7f0e"/>
   </g>
   <g id="patch_31">
    <path d="M 544.250282 387.16 
L 548.031122 387.16 
L 548.031122 249.784462 
L 544.250282 249.784462 
z
" clip-path="url(#p72dee06bfd)" style="fill: #ff7f0e"/>
   </g>
   <g id="patch_32">
    <path d="M 582.058682 387.16 
L 585.839522 387.16 
L 585.839522 161.354646 
L 582.058682 161.354646 
z
" clip-path="url(#p72dee06bfd)" style="fill: #ff7f0e"/>
   </g>
   <g id="patch_33">
    <path d="M 619.867083 387.16 
L 623.647923 387.16 
L 623.647923 141.157713 
L 619.867083 141.157713 
z
" clip-path="url(#p72dee06bfd)" style="fill: #ff7f0e"/>
   </g>
   <g id="patch_34">
    <path d="M 657.675483 387.16 
L 661.456323 387.16 
L 661.456323 144.068982 
L 657.675483 144.068982 
z
" clip-path="url(#p72dee06bfd)" style="fill: #ff7f0e"/>
   </g>
   <g id="patch_35">
    <path d="M 94.330316 387.16 
L 98.111157 387.16 
L 98.111157 375.87883 
L 94.330316 375.87883 
z
" clip-path="url(#p72dee06bfd)" style="fill: #2ca02c"/>
   </g>
   <g id="patch_36">
    <path d="M 132.138717 387.16 
L 135.919557 387.16 
L 135.919557 326.023337 
L 132.138717 326.023337 
z
" clip-path="url(#p72dee06bfd)" style="fill: #2ca02c"/>
   </g>
   <g id="patch_37">
    <path d="M 169.947117 387.16 
L 173.727957 387.16 
L 173.727957 293.453507 
L 169.947117 293.453507 
z
" clip-path="url(#p72dee06bfd)" style="fill: #2ca02c"/>
   </g>
   <g id="patch_38">
    <path d="M 207.755518 387.16 
L 211.536358 387.16 
L 211.536358 282.354292 
L 207.755518 282.354292 
z
" clip-path="url(#p72dee06bfd)" style="fill: #2ca02c"/>
   </g>
   <g id="patch_39">
    <path d="M 245.563918 387.16 
L 249.344758 387.16 
L 249.344758 274.3483 
L 245.563918 274.3483 
z
" clip-path="url(#p72dee06bfd)" style="fill: #2ca02c"/>
   </g>
   <g id="patch_40">
    <path d="M 283.372319 387.16 
L 287.153159 387.16 
L 287.153159 268.343806 
L 283.372319 268.343806 
z
" clip-path="url(#p72dee06bfd)" style="fill: #2ca02c"/>
   </g>
   <g id="patch_41">
    <path d="M 321.180719 387.16 
L 324.961559 387.16 
L 324.961559 263.794948 
L 321.180719 263.794948 
z
" clip-path="url(#p72dee06bfd)" style="fill: #2ca02c"/>
   </g>
   <g id="patch_42">
    <path d="M 358.98912 387.16 
L 362.76996 387.16 
L 362.76996 256.698728 
L 358.98912 256.698728 
z
" clip-path="url(#p72dee06bfd)" style="fill: #2ca02c"/>
   </g>
   <g id="patch_43">
    <path d="M 396.79752 387.16 
L 400.57836 387.16 
L 400.57836 240.322836 
L 396.79752 240.322836 
z
" clip-path="url(#p72dee06bfd)" style="fill: #2ca02c"/>
   </g>
   <g id="patch_44">
    <path d="M 434.605921 387.16 
L 438.386761 387.16 
L 438.386761 226.676259 
L 434.605921 226.676259 
z
" clip-path="url(#p72dee06bfd)" style="fill: #2ca02c"/>
   </g>
   <g id="patch_45">
    <path d="M 472.414321 387.16 
L 476.195161 387.16 
L 476.195161 187.192164 
L 472.414321 187.192164 
z
" clip-path="url(#p72dee06bfd)" style="fill: #2ca02c"/>
   </g>
   <g id="patch_46">
    <path d="M 510.222722 387.16 
L 514.003562 387.16 
L 514.003562 135.517128 
L 510.222722 135.517128 
z
" clip-path="url(#p72dee06bfd)" style="fill: #2ca02c"/>
   </g>
   <g id="patch_47">
    <path d="M 548.031122 387.16 
L 551.811962 387.16 
L 551.811962 238.139384 
L 548.031122 238.139384 
z
" clip-path="url(#p72dee06bfd)" style="fill: #2ca02c"/>
   </g>
   <g id="patch_48">
    <path d="M 585.839522 387.16 
L 589.620362 387.16 
L 589.620362 138.428397 
L 585.839522 138.428397 
z
" clip-path="url(#p72dee06bfd)" style="fill: #2ca02c"/>
   </g>
   <g id="patch_49">
    <path d="M 623.647923 387.16 
L 627.428763 387.16 
L 627.428763 93.303717 
L 623.647923 93.303717 
z
" clip-path="url(#p72dee06bfd)" style="fill: #2ca02c"/>
   </g>
   <g id="patch_50">
    <path d="M 661.456323 387.16 
L 665.237163 387.16 
L 665.237163 86.207498 
L 661.456323 86.207498 
z
" clip-path="url(#p72dee06bfd)" style="fill: #2ca02c"/>
   </g>
   <g id="patch_51">
    <path d="M 98.111157 387.16 
L 101.891997 387.16 
L 101.891997 377.152511 
L 98.111157 377.152511 
z
" clip-path="url(#p72dee06bfd)" style="fill: #d62728"/>
   </g>
   <g id="patch_52">
    <path d="M 135.919557 387.16 
L 139.700397 387.16 
L 139.700397 317.289528 
L 135.919557 317.289528 
z
" clip-path="url(#p72dee06bfd)" style="fill: #d62728"/>
   </g>
   <g id="patch_53">
    <path d="M 173.727957 387.16 
L 177.508797 387.16 
L 177.508797 292.72569 
L 173.727957 292.72569 
z
" clip-path="url(#p72dee06bfd)" style="fill: #d62728"/>
   </g>
   <g id="patch_54">
    <path d="M 211.536358 387.16 
L 215.317198 387.16 
L 215.317198 286.357288 
L 211.536358 286.357288 
z
" clip-path="url(#p72dee06bfd)" style="fill: #d62728"/>
   </g>
   <g id="patch_55">
    <path d="M 249.344758 387.16 
L 253.125598 387.16 
L 253.125598 273.620483 
L 249.344758 273.620483 
z
" clip-path="url(#p72dee06bfd)" style="fill: #d62728"/>
   </g>
   <g id="patch_56">
    <path d="M 287.153159 387.16 
L 290.933999 387.16 
L 290.933999 267.615989 
L 287.153159 267.615989 
z
" clip-path="url(#p72dee06bfd)" style="fill: #d62728"/>
   </g>
   <g id="patch_57">
    <path d="M 324.961559 387.16 
L 328.742399 387.16 
L 328.742399 259.064134 
L 324.961559 259.064134 
z
" clip-path="url(#p72dee06bfd)" style="fill: #d62728"/>
   </g>
   <g id="patch_58">
    <path d="M 362.76996 387.16 
L 366.5508 387.16 
L 366.5508 262.157358 
L 362.76996 262.157358 
z
" clip-path="url(#p72dee06bfd)" style="fill: #d62728"/>
   </g>
   <g id="patch_59">
    <path d="M 400.57836 387.16 
L 404.3592 387.16 
L 404.3592 238.321338 
L 400.57836 238.321338 
z
" clip-path="url(#p72dee06bfd)" style="fill: #d62728"/>
   </g>
   <g id="patch_60">
    <path d="M 438.386761 387.16 
L 442.167601 387.16 
L 442.167601 226.312351 
L 438.386761 226.312351 
z
" clip-path="url(#p72dee06bfd)" style="fill: #d62728"/>
   </g>
   <g id="patch_61">
    <path d="M 476.195161 387.16 
L 479.976001 387.16 
L 479.976001 196.471836 
L 476.195161 196.471836 
z
" clip-path="url(#p72dee06bfd)" style="fill: #d62728"/>
   </g>
   <g id="patch_62">
    <path d="M 514.003562 387.16 
L 517.784402 387.16 
L 517.784402 134.971265 
L 514.003562 134.971265 
z
" clip-path="url(#p72dee06bfd)" style="fill: #d62728"/>
   </g>
   <g id="patch_63">
    <path d="M 551.811962 387.16 
L 555.592802 387.16 
L 555.592802 237.957429 
L 551.811962 237.957429 
z
" clip-path="url(#p72dee06bfd)" style="fill: #d62728"/>
   </g>
   <g id="patch_64">
    <path d="M 589.620362 387.16 
L 593.401203 387.16 
L 593.401203 129.512634 
L 589.620362 129.512634 
z
" clip-path="url(#p72dee06bfd)" style="fill: #d62728"/>
   </g>
   <g id="patch_65">
    <path d="M 627.428763 387.16 
L 631.209603 387.16 
L 631.209603 86.389452 
L 627.428763 86.389452 
z
" clip-path="url(#p72dee06bfd)" style="fill: #d62728"/>
   </g>
   <g id="patch_66">
    <path d="M 665.237163 387.16 
L 669.018003 387.16 
L 669.018003 50.180535 
L 665.237163 50.180535 
z
" clip-path="url(#p72dee06bfd)" style="fill: #d62728"/>
   </g>
   <g id="patch_67">
    <path d="M 101.891997 387.16 
L 105.672837 387.16 
L 105.672837 375.696876 
L 101.891997 375.696876 
z
" clip-path="url(#p72dee06bfd)" style="fill: #9467bd"/>
   </g>
   <g id="patch_68">
    <path d="M 139.700397 387.16 
L 143.481237 387.16 
L 143.481237 319.654934 
L 139.700397 319.654934 
z
" clip-path="url(#p72dee06bfd)" style="fill: #9467bd"/>
   </g>
   <g id="patch_69">
    <path d="M 177.508797 387.16 
L 181.289638 387.16 
L 181.289638 292.179827 
L 177.508797 292.179827 
z
" clip-path="url(#p72dee06bfd)" style="fill: #9467bd"/>
   </g>
   <g id="patch_70">
    <path d="M 215.317198 387.16 
L 219.098038 387.16 
L 219.098038 283.446018 
L 215.317198 283.446018 
z
" clip-path="url(#p72dee06bfd)" style="fill: #9467bd"/>
   </g>
   <g id="patch_71">
    <path d="M 253.125598 387.16 
L 256.906438 387.16 
L 256.906438 273.620483 
L 253.125598 273.620483 
z
" clip-path="url(#p72dee06bfd)" style="fill: #9467bd"/>
   </g>
   <g id="patch_72">
    <path d="M 290.933999 387.16 
L 294.714839 387.16 
L 294.714839 267.25208 
L 290.933999 267.25208 
z
" clip-path="url(#p72dee06bfd)" style="fill: #9467bd"/>
   </g>
   <g id="patch_73">
    <path d="M 328.742399 387.16 
L 332.523239 387.16 
L 332.523239 262.339313 
L 328.742399 262.339313 
z
" clip-path="url(#p72dee06bfd)" style="fill: #9467bd"/>
   </g>
   <g id="patch_74">
    <path d="M 366.5508 387.16 
L 370.33164 387.16 
L 370.33164 260.155861 
L 366.5508 260.155861 
z
" clip-path="url(#p72dee06bfd)" style="fill: #9467bd"/>
   </g>
   <g id="patch_75">
    <path d="M 404.3592 387.16 
L 408.14004 387.16 
L 408.14004 239.776973 
L 404.3592 239.776973 
z
" clip-path="url(#p72dee06bfd)" style="fill: #9467bd"/>
   </g>
   <g id="patch_76">
    <path d="M 442.167601 387.16 
L 445.948441 387.16 
L 445.948441 230.133392 
L 442.167601 230.133392 
z
" clip-path="url(#p72dee06bfd)" style="fill: #9467bd"/>
   </g>
   <g id="patch_77">
    <path d="M 479.976001 387.16 
L 483.756841 387.16 
L 483.756841 195.562065 
L 479.976001 195.562065 
z
" clip-path="url(#p72dee06bfd)" style="fill: #9467bd"/>
   </g>
   <g id="patch_78">
    <path d="M 517.784402 387.16 
L 521.565242 387.16 
L 521.565242 138.064489 
L 517.784402 138.064489 
z
" clip-path="url(#p72dee06bfd)" style="fill: #9467bd"/>
   </g>
   <g id="patch_79">
    <path d="M 555.592802 387.16 
L 559.373642 387.16 
L 559.373642 239.049155 
L 555.592802 239.049155 
z
" clip-path="url(#p72dee06bfd)" style="fill: #9467bd"/>
   </g>
   <g id="patch_80">
    <path d="M 593.401203 387.16 
L 597.182043 387.16 
L 597.182043 128.966771 
L 593.401203 128.966771 
z
" clip-path="url(#p72dee06bfd)" style="fill: #9467bd"/>
   </g>
   <g id="patch_81">
    <path d="M 631.209603 387.16 
L 634.990443 387.16 
L 634.990443 87.299224 
L 631.209603 87.299224 
z
" clip-path="url(#p72dee06bfd)" style="fill: #9467bd"/>
   </g>
   <g id="patch_82">
    <path d="M 669.018003 387.16 
L 672.798843 387.16 
L 672.798843 54.183531 
L 669.018003 54.183531 
z
" clip-path="url(#p72dee06bfd)" style="fill: #9467bd"/>
   </g>
   <g id="patch_83">
    <path d="M 105.672837 387.16 
L 109.453677 387.16 
L 109.453677 375.87883 
L 105.672837 375.87883 
z
" clip-path="url(#p72dee06bfd)" style="fill: #8c564b"/>
   </g>
   <g id="patch_84">
    <path d="M 143.481237 387.16 
L 147.262077 387.16 
L 147.262077 321.838387 
L 143.481237 321.838387 
z
" clip-path="url(#p72dee06bfd)" style="fill: #8c564b"/>
   </g>
   <g id="patch_85">
    <path d="M 181.289638 387.16 
L 185.070478 387.16 
L 185.070478 291.997873 
L 181.289638 291.997873 
z
" clip-path="url(#p72dee06bfd)" style="fill: #8c564b"/>
   </g>
   <g id="patch_86">
    <path d="M 219.098038 387.16 
L 222.878878 387.16 
L 222.878878 281.626474 
L 219.098038 281.626474 
z
" clip-path="url(#p72dee06bfd)" style="fill: #8c564b"/>
   </g>
   <g id="patch_87">
    <path d="M 256.906438 387.16 
L 260.687278 387.16 
L 260.687278 271.437031 
L 256.906438 271.437031 
z
" clip-path="url(#p72dee06bfd)" style="fill: #8c564b"/>
   </g>
   <g id="patch_88">
    <path d="M 294.714839 387.16 
L 298.495679 387.16 
L 298.495679 264.522765 
L 294.714839 264.522765 
z
" clip-path="url(#p72dee06bfd)" style="fill: #8c564b"/>
   </g>
   <g id="patch_89">
    <path d="M 332.523239 387.16 
L 336.304079 387.16 
L 336.304079 259.973906 
L 332.523239 259.973906 
z
" clip-path="url(#p72dee06bfd)" style="fill: #8c564b"/>
   </g>
   <g id="patch_90">
    <path d="M 370.33164 387.16 
L 374.11248 387.16 
L 374.11248 261.247587 
L 370.33164 261.247587 
z
" clip-path="url(#p72dee06bfd)" style="fill: #8c564b"/>
   </g>
   <g id="patch_91">
    <path d="M 408.14004 387.16 
L 411.92088 387.16 
L 411.92088 235.410068 
L 408.14004 235.410068 
z
" clip-path="url(#p72dee06bfd)" style="fill: #8c564b"/>
   </g>
   <g id="patch_92">
    <path d="M 445.948441 387.16 
L 449.729281 387.16 
L 449.729281 227.404077 
L 445.948441 227.404077 
z
" clip-path="url(#p72dee06bfd)" style="fill: #8c564b"/>
   </g>
   <g id="patch_93">
    <path d="M 483.756841 387.16 
L 487.537681 387.16 
L 487.537681 189.011708 
L 483.756841 189.011708 
z
" clip-path="url(#p72dee06bfd)" style="fill: #8c564b"/>
   </g>
   <g id="patch_94">
    <path d="M 521.565242 387.16 
L 525.346082 387.16 
L 525.346082 134.425402 
L 521.565242 134.425402 
z
" clip-path="url(#p72dee06bfd)" style="fill: #8c564b"/>
   </g>
   <g id="patch_95">
    <path d="M 559.373642 387.16 
L 563.154482 387.16 
L 563.154482 242.142379 
L 559.373642 242.142379 
z
" clip-path="url(#p72dee06bfd)" style="fill: #8c564b"/>
   </g>
   <g id="patch_96">
    <path d="M 597.182043 387.16 
L 600.962883 387.16 
L 600.962883 141.157713 
L 597.182043 141.157713 
z
" clip-path="url(#p72dee06bfd)" style="fill: #8c564b"/>
   </g>
   <g id="patch_97">
    <path d="M 634.990443 387.16 
L 638.771283 387.16 
L 638.771283 92.5759 
L 634.990443 92.5759 
z
" clip-path="url(#p72dee06bfd)" style="fill: #8c564b"/>
   </g>
   <g id="patch_98">
    <path d="M 672.798843 387.16 
L 676.579684 387.16 
L 676.579684 44.721905 
L 672.798843 44.721905 
z
" clip-path="url(#p72dee06bfd)" style="fill: #8c564b"/>
   </g>
   <g id="patch_99">
    <path d="M 109.453677 387.16 
L 113.234517 387.16 
L 113.234517 377.698374 
L 109.453677 377.698374 
z
" clip-path="url(#p72dee06bfd)" style="fill: #e377c2"/>
   </g>
   <g id="patch_100">
    <path d="M 147.262077 387.16 
L 151.042917 387.16 
L 151.042917 318.381254 
L 147.262077 318.381254 
z
" clip-path="url(#p72dee06bfd)" style="fill: #e377c2"/>
   </g>
   <g id="patch_101">
    <path d="M 185.070478 387.16 
L 188.851318 387.16 
L 188.851318 289.086603 
L 185.070478 289.086603 
z
" clip-path="url(#p72dee06bfd)" style="fill: #e377c2"/>
   </g>
   <g id="patch_102">
    <path d="M 222.878878 387.16 
L 226.659718 387.16 
L 226.659718 284.537744 
L 222.878878 284.537744 
z
" clip-path="url(#p72dee06bfd)" style="fill: #e377c2"/>
   </g>
   <g id="patch_103">
    <path d="M 260.687278 387.16 
L 264.468119 387.16 
L 264.468119 275.076118 
L 260.687278 275.076118 
z
" clip-path="url(#p72dee06bfd)" style="fill: #e377c2"/>
   </g>
   <g id="patch_104">
    <path d="M 298.495679 387.16 
L 302.276519 387.16 
L 302.276519 264.522765 
L 298.495679 264.522765 
z
" clip-path="url(#p72dee06bfd)" style="fill: #e377c2"/>
   </g>
   <g id="patch_105">
    <path d="M 336.304079 387.16 
L 340.084919 387.16 
L 340.084919 262.521267 
L 336.304079 262.521267 
z
" clip-path="url(#p72dee06bfd)" style="fill: #e377c2"/>
   </g>
   <g id="patch_106">
    <path d="M 374.11248 387.16 
L 377.89332 387.16 
L 377.89332 257.062637 
L 374.11248 257.062637 
z
" clip-path="url(#p72dee06bfd)" style="fill: #e377c2"/>
   </g>
   <g id="patch_107">
    <path d="M 411.92088 387.16 
L 415.70172 387.16 
L 415.70172 235.228114 
L 411.92088 235.228114 
z
" clip-path="url(#p72dee06bfd)" style="fill: #e377c2"/>
   </g>
   <g id="patch_108">
    <path d="M 449.729281 387.16 
L 453.510121 387.16 
L 453.510121 230.133392 
L 449.729281 230.133392 
z
" clip-path="url(#p72dee06bfd)" style="fill: #e377c2"/>
   </g>
   <g id="patch_109">
    <path d="M 487.537681 387.16 
L 491.318521 387.16 
L 491.318521 184.644803 
L 487.537681 184.644803 
z
" clip-path="url(#p72dee06bfd)" style="fill: #e377c2"/>
   </g>
   <g id="patch_110">
    <path d="M 525.346082 387.16 
L 529.126922 387.16 
L 529.126922 135.699082 
L 525.346082 135.699082 
z
" clip-path="url(#p72dee06bfd)" style="fill: #e377c2"/>
   </g>
   <g id="patch_111">
    <path d="M 563.154482 387.16 
L 566.935322 387.16 
L 566.935322 235.773977 
L 563.154482 235.773977 
z
" clip-path="url(#p72dee06bfd)" style="fill: #e377c2"/>
   </g>
   <g id="patch_112">
    <path d="M 600.962883 387.16 
L 604.743723 387.16 
L 604.743723 135.881036 
L 600.962883 135.881036 
z
" clip-path="url(#p72dee06bfd)" style="fill: #e377c2"/>
   </g>
   <g id="patch_113">
    <path d="M 638.771283 387.16 
L 642.552123 387.16 
L 642.552123 95.123261 
L 638.771283 95.123261 
z
" clip-path="url(#p72dee06bfd)" style="fill: #e377c2"/>
   </g>
   <g id="patch_114">
    <path d="M 676.579684 387.16 
L 680.360524 387.16 
L 680.360524 56.185029 
L 676.579684 56.185029 
z
" clip-path="url(#p72dee06bfd)" style="fill: #e377c2"/>
   </g>
   <g id="patch_115">
    <path d="M 113.234517 387.16 
L 117.015357 387.16 
L 117.015357 378.244237 
L 113.234517 378.244237 
z
" clip-path="url(#p72dee06bfd)" style="fill: #7f7f7f"/>
   </g>
   <g id="patch_116">
    <path d="M 151.042917 387.16 
L 154.823757 387.16 
L 154.823757 319.654934 
L 151.042917 319.654934 
z
" clip-path="url(#p72dee06bfd)" style="fill: #7f7f7f"/>
   </g>
   <g id="patch_117">
    <path d="M 188.851318 387.16 
L 192.632158 387.16 
L 192.632158 291.997873 
L 188.851318 291.997873 
z
" clip-path="url(#p72dee06bfd)" style="fill: #7f7f7f"/>
   </g>
   <g id="patch_118">
    <path d="M 226.659718 387.16 
L 230.440558 387.16 
L 230.440558 281.626474 
L 226.659718 281.626474 
z
" clip-path="url(#p72dee06bfd)" style="fill: #7f7f7f"/>
   </g>
   <g id="patch_119">
    <path d="M 264.468119 387.16 
L 268.248959 387.16 
L 268.248959 271.618985 
L 264.468119 271.618985 
z
" clip-path="url(#p72dee06bfd)" style="fill: #7f7f7f"/>
   </g>
   <g id="patch_120">
    <path d="M 302.276519 387.16 
L 306.057359 387.16 
L 306.057359 264.340811 
L 302.276519 264.340811 
z
" clip-path="url(#p72dee06bfd)" style="fill: #7f7f7f"/>
   </g>
   <g id="patch_121">
    <path d="M 340.084919 387.16 
L 343.865759 387.16 
L 343.865759 260.337815 
L 340.084919 260.337815 
z
" clip-path="url(#p72dee06bfd)" style="fill: #7f7f7f"/>
   </g>
   <g id="patch_122">
    <path d="M 377.89332 387.16 
L 381.67416 387.16 
L 381.67416 260.701724 
L 377.89332 260.701724 
z
" clip-path="url(#p72dee06bfd)" style="fill: #7f7f7f"/>
   </g>
   <g id="patch_123">
    <path d="M 415.70172 387.16 
L 419.48256 387.16 
L 419.48256 234.318342 
L 415.70172 234.318342 
z
" clip-path="url(#p72dee06bfd)" style="fill: #7f7f7f"/>
   </g>
   <g id="patch_124">
    <path d="M 453.510121 387.16 
L 457.290961 387.16 
L 457.290961 229.041666 
L 453.510121 229.041666 
z
" clip-path="url(#p72dee06bfd)" style="fill: #7f7f7f"/>
   </g>
   <g id="patch_125">
    <path d="M 491.318521 387.16 
L 495.099361 387.16 
L 495.099361 182.643306 
L 491.318521 182.643306 
z
" clip-path="url(#p72dee06bfd)" style="fill: #7f7f7f"/>
   </g>
   <g id="patch_126">
    <path d="M 529.126922 387.16 
L 532.907762 387.16 
L 532.907762 135.699082 
L 529.126922 135.699082 
z
" clip-path="url(#p72dee06bfd)" style="fill: #7f7f7f"/>
   </g>
   <g id="patch_127">
    <path d="M 566.935322 387.16 
L 570.716162 387.16 
L 570.716162 234.864205 
L 566.935322 234.864205 
z
" clip-path="url(#p72dee06bfd)" style="fill: #7f7f7f"/>
   </g>
   <g id="patch_128">
    <path d="M 604.743723 387.16 
L 608.524563 387.16 
L 608.524563 130.968269 
L 604.743723 130.968269 
z
" clip-path="url(#p72dee06bfd)" style="fill: #7f7f7f"/>
   </g>
   <g id="patch_129">
    <path d="M 642.552123 387.16 
L 646.332963 387.16 
L 646.332963 88.208995 
L 642.552123 88.208995 
z
" clip-path="url(#p72dee06bfd)" style="fill: #7f7f7f"/>
   </g>
   <g id="patch_130">
    <path d="M 680.360524 387.16 
L 684.141364 387.16 
L 684.141364 57.276755 
L 680.360524 57.276755 
z
" clip-path="url(#p72dee06bfd)" style="fill: #7f7f7f"/>
   </g>
   <g id="matplotlib.axis_1">
    <g id="xtick_1">
     <g id="line2d_1">
      <defs>
       <path id="m1dec195be5" d="M 0 0 
L 0 3.5 
" style="stroke: #000000; stroke-width: 0.8"/>
      </defs>
      <g>
       <use xlink:href="#m1dec195be5" x="88.659056" y="387.16" style="stroke: #000000; stroke-width: 0.8"/>
      </g>
     </g>
     <g id="text_1">
      <!-- 25 -->
      <g transform="translate(82.296556 401.758438) scale(0.1 -0.1)">
       <defs>
        <path id="DejaVuSans-32" d="M 1228 531 
L 3431 531 
L 3431 0 
L 469 0 
L 469 531 
Q 828 903 1448 1529 
Q 2069 2156 2228 2338 
Q 2531 2678 2651 2914 
Q 2772 3150 2772 3378 
Q 2772 3750 2511 3984 
Q 2250 4219 1831 4219 
Q 1534 4219 1204 4116 
Q 875 4013 500 3803 
L 500 4441 
Q 881 4594 1212 4672 
Q 1544 4750 1819 4750 
Q 2544 4750 2975 4387 
Q 3406 4025 3406 3419 
Q 3406 3131 3298 2873 
Q 3191 2616 2906 2266 
Q 2828 2175 2409 1742 
Q 1991 1309 1228 531 
z
" transform="scale(0.015625)"/>
        <path id="DejaVuSans-35" d="M 691 4666 
L 3169 4666 
L 3169 4134 
L 1269 4134 
L 1269 2991 
Q 1406 3038 1543 3061 
Q 1681 3084 1819 3084 
Q 2600 3084 3056 2656 
Q 3513 2228 3513 1497 
Q 3513 744 3044 326 
Q 2575 -91 1722 -91 
Q 1428 -91 1123 -41 
Q 819 9 494 109 
L 494 744 
Q 775 591 1075 516 
Q 1375 441 1709 441 
Q 2250 441 2565 725 
Q 2881 1009 2881 1497 
Q 2881 1984 2565 2268 
Q 2250 2553 1709 2553 
Q 1456 2553 1204 2497 
Q 953 2441 691 2322 
L 691 4666 
z
" transform="scale(0.015625)"/>
       </defs>
       <use xlink:href="#DejaVuSans-32"/>
       <use xlink:href="#DejaVuSans-35" x="63.623047"/>
      </g>
     </g>
    </g>
    <g id="xtick_2">
     <g id="line2d_2">
      <g>
       <use xlink:href="#m1dec195be5" x="126.467457" y="387.16" style="stroke: #000000; stroke-width: 0.8"/>
      </g>
     </g>
     <g id="text_2">
      <!-- 26 -->
      <g transform="translate(120.104957 401.758438) scale(0.1 -0.1)">
       <defs>
        <path id="DejaVuSans-36" d="M 2113 2584 
Q 1688 2584 1439 2293 
Q 1191 2003 1191 1497 
Q 1191 994 1439 701 
Q 1688 409 2113 409 
Q 2538 409 2786 701 
Q 3034 994 3034 1497 
Q 3034 2003 2786 2293 
Q 2538 2584 2113 2584 
z
M 3366 4563 
L 3366 3988 
Q 3128 4100 2886 4159 
Q 2644 4219 2406 4219 
Q 1781 4219 1451 3797 
Q 1122 3375 1075 2522 
Q 1259 2794 1537 2939 
Q 1816 3084 2150 3084 
Q 2853 3084 3261 2657 
Q 3669 2231 3669 1497 
Q 3669 778 3244 343 
Q 2819 -91 2113 -91 
Q 1303 -91 875 529 
Q 447 1150 447 2328 
Q 447 3434 972 4092 
Q 1497 4750 2381 4750 
Q 2619 4750 2861 4703 
Q 3103 4656 3366 4563 
z
" transform="scale(0.015625)"/>
       </defs>
       <use xlink:href="#DejaVuSans-32"/>
       <use xlink:href="#DejaVuSans-36" x="63.623047"/>
      </g>
     </g>
    </g>
    <g id="xtick_3">
     <g id="line2d_3">
      <g>
       <use xlink:href="#m1dec195be5" x="164.275857" y="387.16" style="stroke: #000000; stroke-width: 0.8"/>
      </g>
     </g>
     <g id="text_3">
      <!-- 27 -->
      <g transform="translate(157.913357 401.758438) scale(0.1 -0.1)">
       <defs>
        <path id="DejaVuSans-37" d="M 525 4666 
L 3525 4666 
L 3525 4397 
L 1831 0 
L 1172 0 
L 2766 4134 
L 525 4134 
L 525 4666 
z
" transform="scale(0.015625)"/>
       </defs>
       <use xlink:href="#DejaVuSans-32"/>
       <use xlink:href="#DejaVuSans-37" x="63.623047"/>
      </g>
     </g>
    </g>
    <g id="xtick_4">
     <g id="line2d_4">
      <g>
       <use xlink:href="#m1dec195be5" x="202.084258" y="387.16" style="stroke: #000000; stroke-width: 0.8"/>
      </g>
     </g>
     <g id="text_4">
      <!-- 28 -->
      <g transform="translate(195.721758 401.758438) scale(0.1 -0.1)">
       <defs>
        <path id="DejaVuSans-38" d="M 2034 2216 
Q 1584 2216 1326 1975 
Q 1069 1734 1069 1313 
Q 1069 891 1326 650 
Q 1584 409 2034 409 
Q 2484 409 2743 651 
Q 3003 894 3003 1313 
Q 3003 1734 2745 1975 
Q 2488 2216 2034 2216 
z
M 1403 2484 
Q 997 2584 770 2862 
Q 544 3141 544 3541 
Q 544 4100 942 4425 
Q 1341 4750 2034 4750 
Q 2731 4750 3128 4425 
Q 3525 4100 3525 3541 
Q 3525 3141 3298 2862 
Q 3072 2584 2669 2484 
Q 3125 2378 3379 2068 
Q 3634 1759 3634 1313 
Q 3634 634 3220 271 
Q 2806 -91 2034 -91 
Q 1263 -91 848 271 
Q 434 634 434 1313 
Q 434 1759 690 2068 
Q 947 2378 1403 2484 
z
M 1172 3481 
Q 1172 3119 1398 2916 
Q 1625 2713 2034 2713 
Q 2441 2713 2670 2916 
Q 2900 3119 2900 3481 
Q 2900 3844 2670 4047 
Q 2441 4250 2034 4250 
Q 1625 4250 1398 4047 
Q 1172 3844 1172 3481 
z
" transform="scale(0.015625)"/>
       </defs>
       <use xlink:href="#DejaVuSans-32"/>
       <use xlink:href="#DejaVuSans-38" x="63.623047"/>
      </g>
     </g>
    </g>
    <g id="xtick_5">
     <g id="line2d_5">
      <g>
       <use xlink:href="#m1dec195be5" x="239.892658" y="387.16" style="stroke: #000000; stroke-width: 0.8"/>
      </g>
     </g>
     <g id="text_5">
      <!-- 29 -->
      <g transform="translate(233.530158 401.758438) scale(0.1 -0.1)">
       <defs>
        <path id="DejaVuSans-39" d="M 703 97 
L 703 672 
Q 941 559 1184 500 
Q 1428 441 1663 441 
Q 2288 441 2617 861 
Q 2947 1281 2994 2138 
Q 2813 1869 2534 1725 
Q 2256 1581 1919 1581 
Q 1219 1581 811 2004 
Q 403 2428 403 3163 
Q 403 3881 828 4315 
Q 1253 4750 1959 4750 
Q 2769 4750 3195 4129 
Q 3622 3509 3622 2328 
Q 3622 1225 3098 567 
Q 2575 -91 1691 -91 
Q 1453 -91 1209 -44 
Q 966 3 703 97 
z
M 1959 2075 
Q 2384 2075 2632 2365 
Q 2881 2656 2881 3163 
Q 2881 3666 2632 3958 
Q 2384 4250 1959 4250 
Q 1534 4250 1286 3958 
Q 1038 3666 1038 3163 
Q 1038 2656 1286 2365 
Q 1534 2075 1959 2075 
z
" transform="scale(0.015625)"/>
       </defs>
       <use xlink:href="#DejaVuSans-32"/>
       <use xlink:href="#DejaVuSans-39" x="63.623047"/>
      </g>
     </g>
    </g>
    <g id="xtick_6">
     <g id="line2d_6">
      <g>
       <use xlink:href="#m1dec195be5" x="277.701059" y="387.16" style="stroke: #000000; stroke-width: 0.8"/>
      </g>
     </g>
     <g id="text_6">
      <!-- 30 -->
      <g transform="translate(271.338559 401.758438) scale(0.1 -0.1)">
       <defs>
        <path id="DejaVuSans-33" d="M 2597 2516 
Q 3050 2419 3304 2112 
Q 3559 1806 3559 1356 
Q 3559 666 3084 287 
Q 2609 -91 1734 -91 
Q 1441 -91 1130 -33 
Q 819 25 488 141 
L 488 750 
Q 750 597 1062 519 
Q 1375 441 1716 441 
Q 2309 441 2620 675 
Q 2931 909 2931 1356 
Q 2931 1769 2642 2001 
Q 2353 2234 1838 2234 
L 1294 2234 
L 1294 2753 
L 1863 2753 
Q 2328 2753 2575 2939 
Q 2822 3125 2822 3475 
Q 2822 3834 2567 4026 
Q 2313 4219 1838 4219 
Q 1578 4219 1281 4162 
Q 984 4106 628 3988 
L 628 4550 
Q 988 4650 1302 4700 
Q 1616 4750 1894 4750 
Q 2613 4750 3031 4423 
Q 3450 4097 3450 3541 
Q 3450 3153 3228 2886 
Q 3006 2619 2597 2516 
z
" transform="scale(0.015625)"/>
        <path id="DejaVuSans-30" d="M 2034 4250 
Q 1547 4250 1301 3770 
Q 1056 3291 1056 2328 
Q 1056 1369 1301 889 
Q 1547 409 2034 409 
Q 2525 409 2770 889 
Q 3016 1369 3016 2328 
Q 3016 3291 2770 3770 
Q 2525 4250 2034 4250 
z
M 2034 4750 
Q 2819 4750 3233 4129 
Q 3647 3509 3647 2328 
Q 3647 1150 3233 529 
Q 2819 -91 2034 -91 
Q 1250 -91 836 529 
Q 422 1150 422 2328 
Q 422 3509 836 4129 
Q 1250 4750 2034 4750 
z
" transform="scale(0.015625)"/>
       </defs>
       <use xlink:href="#DejaVuSans-33"/>
       <use xlink:href="#DejaVuSans-30" x="63.623047"/>
      </g>
     </g>
    </g>
    <g id="xtick_7">
     <g id="line2d_7">
      <g>
       <use xlink:href="#m1dec195be5" x="315.509459" y="387.16" style="stroke: #000000; stroke-width: 0.8"/>
      </g>
     </g>
     <g id="text_7">
      <!-- 31 -->
      <g transform="translate(309.146959 401.758438) scale(0.1 -0.1)">
       <defs>
        <path id="DejaVuSans-31" d="M 794 531 
L 1825 531 
L 1825 4091 
L 703 3866 
L 703 4441 
L 1819 4666 
L 2450 4666 
L 2450 531 
L 3481 531 
L 3481 0 
L 794 0 
L 794 531 
z
" transform="scale(0.015625)"/>
       </defs>
       <use xlink:href="#DejaVuSans-33"/>
       <use xlink:href="#DejaVuSans-31" x="63.623047"/>
      </g>
     </g>
    </g>
    <g id="xtick_8">
     <g id="line2d_8">
      <g>
       <use xlink:href="#m1dec195be5" x="353.31786" y="387.16" style="stroke: #000000; stroke-width: 0.8"/>
      </g>
     </g>
     <g id="text_8">
      <!-- 32 -->
      <g transform="translate(346.95536 401.758438) scale(0.1 -0.1)">
       <use xlink:href="#DejaVuSans-33"/>
       <use xlink:href="#DejaVuSans-32" x="63.623047"/>
      </g>
     </g>
    </g>
    <g id="xtick_9">
     <g id="line2d_9">
      <g>
       <use xlink:href="#m1dec195be5" x="391.12626" y="387.16" style="stroke: #000000; stroke-width: 0.8"/>
      </g>
     </g>
     <g id="text_9">
      <!-- 33 -->
      <g transform="translate(384.76376 401.758438) scale(0.1 -0.1)">
       <use xlink:href="#DejaVuSans-33"/>
       <use xlink:href="#DejaVuSans-33" x="63.623047"/>
      </g>
     </g>
    </g>
    <g id="xtick_10">
     <g id="line2d_10">
      <g>
       <use xlink:href="#m1dec195be5" x="428.934661" y="387.16" style="stroke: #000000; stroke-width: 0.8"/>
      </g>
     </g>
     <g id="text_10">
      <!-- 34 -->
      <g transform="translate(422.572161 401.758438) scale(0.1 -0.1)">
       <defs>
        <path id="DejaVuSans-34" d="M 2419 4116 
L 825 1625 
L 2419 1625 
L 2419 4116 
z
M 2253 4666 
L 3047 4666 
L 3047 1625 
L 3713 1625 
L 3713 1100 
L 3047 1100 
L 3047 0 
L 2419 0 
L 2419 1100 
L 313 1100 
L 313 1709 
L 2253 4666 
z
" transform="scale(0.015625)"/>
       </defs>
       <use xlink:href="#DejaVuSans-33"/>
       <use xlink:href="#DejaVuSans-34" x="63.623047"/>
      </g>
     </g>
    </g>
    <g id="xtick_11">
     <g id="line2d_11">
      <g>
       <use xlink:href="#m1dec195be5" x="466.743061" y="387.16" style="stroke: #000000; stroke-width: 0.8"/>
      </g>
     </g>
     <g id="text_11">
      <!-- 35 -->
      <g transform="translate(460.380561 401.758438) scale(0.1 -0.1)">
       <use xlink:href="#DejaVuSans-33"/>
       <use xlink:href="#DejaVuSans-35" x="63.623047"/>
      </g>
     </g>
    </g>
    <g id="xtick_12">
     <g id="line2d_12">
      <g>
       <use xlink:href="#m1dec195be5" x="504.551461" y="387.16" style="stroke: #000000; stroke-width: 0.8"/>
      </g>
     </g>
     <g id="text_12">
      <!-- 36 -->
      <g transform="translate(498.188961 401.758438) scale(0.1 -0.1)">
       <use xlink:href="#DejaVuSans-33"/>
       <use xlink:href="#DejaVuSans-36" x="63.623047"/>
      </g>
     </g>
    </g>
    <g id="xtick_13">
     <g id="line2d_13">
      <g>
       <use xlink:href="#m1dec195be5" x="542.359862" y="387.16" style="stroke: #000000; stroke-width: 0.8"/>
      </g>
     </g>
     <g id="text_13">
      <!-- 37 -->
      <g transform="translate(535.997362 401.758438) scale(0.1 -0.1)">
       <use xlink:href="#DejaVuSans-33"/>
       <use xlink:href="#DejaVuSans-37" x="63.623047"/>
      </g>
     </g>
    </g>
    <g id="xtick_14">
     <g id="line2d_14">
      <g>
       <use xlink:href="#m1dec195be5" x="580.168262" y="387.16" style="stroke: #000000; stroke-width: 0.8"/>
      </g>
     </g>
     <g id="text_14">
      <!-- 38 -->
      <g transform="translate(573.805762 401.758438) scale(0.1 -0.1)">
       <use xlink:href="#DejaVuSans-33"/>
       <use xlink:href="#DejaVuSans-38" x="63.623047"/>
      </g>
     </g>
    </g>
    <g id="xtick_15">
     <g id="line2d_15">
      <g>
       <use xlink:href="#m1dec195be5" x="617.976663" y="387.16" style="stroke: #000000; stroke-width: 0.8"/>
      </g>
     </g>
     <g id="text_15">
      <!-- 39 -->
      <g transform="translate(611.614163 401.758438) scale(0.1 -0.1)">
       <use xlink:href="#DejaVuSans-33"/>
       <use xlink:href="#DejaVuSans-39" x="63.623047"/>
      </g>
     </g>
    </g>
    <g id="xtick_16">
     <g id="line2d_16">
      <g>
       <use xlink:href="#m1dec195be5" x="655.785063" y="387.16" style="stroke: #000000; stroke-width: 0.8"/>
      </g>
     </g>
     <g id="text_16">
      <!-- 40 -->
      <g transform="translate(649.422563 401.758438) scale(0.1 -0.1)">
       <use xlink:href="#DejaVuSans-34"/>
       <use xlink:href="#DejaVuSans-30" x="63.623047"/>
      </g>
     </g>
    </g>
    <g id="text_17">
     <!-- K Value -->
     <g transform="translate(363.135937 416.95625) scale(0.12 -0.12)">
      <defs>
       <path id="DejaVuSans-4b" d="M 628 4666 
L 1259 4666 
L 1259 2694 
L 3353 4666 
L 4166 4666 
L 1850 2491 
L 4331 0 
L 3500 0 
L 1259 2247 
L 1259 0 
L 628 0 
L 628 4666 
z
" transform="scale(0.015625)"/>
       <path id="DejaVuSans-20" transform="scale(0.015625)"/>
       <path id="DejaVuSans-56" d="M 1831 0 
L 50 4666 
L 709 4666 
L 2188 738 
L 3669 4666 
L 4325 4666 
L 2547 0 
L 1831 0 
z
" transform="scale(0.015625)"/>
       <path id="DejaVuSans-61" d="M 2194 1759 
Q 1497 1759 1228 1600 
Q 959 1441 959 1056 
Q 959 750 1161 570 
Q 1363 391 1709 391 
Q 2188 391 2477 730 
Q 2766 1069 2766 1631 
L 2766 1759 
L 2194 1759 
z
M 3341 1997 
L 3341 0 
L 2766 0 
L 2766 531 
Q 2569 213 2275 61 
Q 1981 -91 1556 -91 
Q 1019 -91 701 211 
Q 384 513 384 1019 
Q 384 1609 779 1909 
Q 1175 2209 1959 2209 
L 2766 2209 
L 2766 2266 
Q 2766 2663 2505 2880 
Q 2244 3097 1772 3097 
Q 1472 3097 1187 3025 
Q 903 2953 641 2809 
L 641 3341 
Q 956 3463 1253 3523 
Q 1550 3584 1831 3584 
Q 2591 3584 2966 3190 
Q 3341 2797 3341 1997 
z
" transform="scale(0.015625)"/>
       <path id="DejaVuSans-6c" d="M 603 4863 
L 1178 4863 
L 1178 0 
L 603 0 
L 603 4863 
z
" transform="scale(0.015625)"/>
       <path id="DejaVuSans-75" d="M 544 1381 
L 544 3500 
L 1119 3500 
L 1119 1403 
Q 1119 906 1312 657 
Q 1506 409 1894 409 
Q 2359 409 2629 706 
Q 2900 1003 2900 1516 
L 2900 3500 
L 3475 3500 
L 3475 0 
L 2900 0 
L 2900 538 
Q 2691 219 2414 64 
Q 2138 -91 1772 -91 
Q 1169 -91 856 284 
Q 544 659 544 1381 
z
M 1991 3584 
L 1991 3584 
z
" transform="scale(0.015625)"/>
       <path id="DejaVuSans-65" d="M 3597 1894 
L 3597 1613 
L 953 1613 
Q 991 1019 1311 708 
Q 1631 397 2203 397 
Q 2534 397 2845 478 
Q 3156 559 3463 722 
L 3463 178 
Q 3153 47 2828 -22 
Q 2503 -91 2169 -91 
Q 1331 -91 842 396 
Q 353 884 353 1716 
Q 353 2575 817 3079 
Q 1281 3584 2069 3584 
Q 2775 3584 3186 3129 
Q 3597 2675 3597 1894 
z
M 3022 2063 
Q 3016 2534 2758 2815 
Q 2500 3097 2075 3097 
Q 1594 3097 1305 2825 
Q 1016 2553 972 2059 
L 3022 2063 
z
" transform="scale(0.015625)"/>
      </defs>
      <use xlink:href="#DejaVuSans-4b"/>
      <use xlink:href="#DejaVuSans-20" x="65.576172"/>
      <use xlink:href="#DejaVuSans-56" x="97.363281"/>
      <use xlink:href="#DejaVuSans-61" x="158.021484"/>
      <use xlink:href="#DejaVuSans-6c" x="219.300781"/>
      <use xlink:href="#DejaVuSans-75" x="247.083984"/>
      <use xlink:href="#DejaVuSans-65" x="310.462891"/>
     </g>
    </g>
   </g>
   <g id="matplotlib.axis_2">
    <g id="ytick_1">
     <g id="line2d_17">
      <defs>
       <path id="m985ef0a7ad" d="M 0 0 
L -3.5 0 
" style="stroke: #000000; stroke-width: 0.8"/>
      </defs>
      <g>
       <use xlink:href="#m985ef0a7ad" x="56.9" y="387.16" style="stroke: #000000; stroke-width: 0.8"/>
      </g>
     </g>
     <g id="text_18">
      <!-- 0.0 -->
      <g transform="translate(33.996875 390.959219) scale(0.1 -0.1)">
       <defs>
        <path id="DejaVuSans-2e" d="M 684 794 
L 1344 794 
L 1344 0 
L 684 0 
L 684 794 
z
" transform="scale(0.015625)"/>
       </defs>
       <use xlink:href="#DejaVuSans-30"/>
       <use xlink:href="#DejaVuSans-2e" x="63.623047"/>
       <use xlink:href="#DejaVuSans-30" x="95.410156"/>
      </g>
     </g>
    </g>
    <g id="ytick_2">
     <g id="line2d_18">
      <g>
       <use xlink:href="#m985ef0a7ad" x="56.9" y="341.671411" style="stroke: #000000; stroke-width: 0.8"/>
      </g>
     </g>
     <g id="text_19">
      <!-- 2.5 -->
      <g transform="translate(33.996875 345.47063) scale(0.1 -0.1)">
       <use xlink:href="#DejaVuSans-32"/>
       <use xlink:href="#DejaVuSans-2e" x="63.623047"/>
       <use xlink:href="#DejaVuSans-35" x="95.410156"/>
      </g>
     </g>
    </g>
    <g id="ytick_3">
     <g id="line2d_19">
      <g>
       <use xlink:href="#m985ef0a7ad" x="56.9" y="296.182823" style="stroke: #000000; stroke-width: 0.8"/>
      </g>
     </g>
     <g id="text_20">
      <!-- 5.0 -->
      <g transform="translate(33.996875 299.982041) scale(0.1 -0.1)">
       <use xlink:href="#DejaVuSans-35"/>
       <use xlink:href="#DejaVuSans-2e" x="63.623047"/>
       <use xlink:href="#DejaVuSans-30" x="95.410156"/>
      </g>
     </g>
    </g>
    <g id="ytick_4">
     <g id="line2d_20">
      <g>
       <use xlink:href="#m985ef0a7ad" x="56.9" y="250.694234" style="stroke: #000000; stroke-width: 0.8"/>
      </g>
     </g>
     <g id="text_21">
      <!-- 7.5 -->
      <g transform="translate(33.996875 254.493453) scale(0.1 -0.1)">
       <use xlink:href="#DejaVuSans-37"/>
       <use xlink:href="#DejaVuSans-2e" x="63.623047"/>
       <use xlink:href="#DejaVuSans-35" x="95.410156"/>
      </g>
     </g>
    </g>
    <g id="ytick_5">
     <g id="line2d_21">
      <g>
       <use xlink:href="#m985ef0a7ad" x="56.9" y="205.205645" style="stroke: #000000; stroke-width: 0.8"/>
      </g>
     </g>
     <g id="text_22">
      <!-- 10.0 -->
      <g transform="translate(27.634375 209.004864) scale(0.1 -0.1)">
       <use xlink:href="#DejaVuSans-31"/>
       <use xlink:href="#DejaVuSans-30" x="63.623047"/>
       <use xlink:href="#DejaVuSans-2e" x="127.246094"/>
       <use xlink:href="#DejaVuSans-30" x="159.033203"/>
      </g>
     </g>
    </g>
    <g id="ytick_6">
     <g id="line2d_22">
      <g>
       <use xlink:href="#m985ef0a7ad" x="56.9" y="159.717057" style="stroke: #000000; stroke-width: 0.8"/>
      </g>
     </g>
     <g id="text_23">
      <!-- 12.5 -->
      <g transform="translate(27.634375 163.516276) scale(0.1 -0.1)">
       <use xlink:href="#DejaVuSans-31"/>
       <use xlink:href="#DejaVuSans-32" x="63.623047"/>
       <use xlink:href="#DejaVuSans-2e" x="127.246094"/>
       <use xlink:href="#DejaVuSans-35" x="159.033203"/>
      </g>
     </g>
    </g>
    <g id="ytick_7">
     <g id="line2d_23">
      <g>
       <use xlink:href="#m985ef0a7ad" x="56.9" y="114.228468" style="stroke: #000000; stroke-width: 0.8"/>
      </g>
     </g>
     <g id="text_24">
      <!-- 15.0 -->
      <g transform="translate(27.634375 118.027687) scale(0.1 -0.1)">
       <use xlink:href="#DejaVuSans-31"/>
       <use xlink:href="#DejaVuSans-35" x="63.623047"/>
       <use xlink:href="#DejaVuSans-2e" x="127.246094"/>
       <use xlink:href="#DejaVuSans-30" x="159.033203"/>
      </g>
     </g>
    </g>
    <g id="ytick_8">
     <g id="line2d_24">
      <g>
       <use xlink:href="#m985ef0a7ad" x="56.9" y="68.73988" style="stroke: #000000; stroke-width: 0.8"/>
      </g>
     </g>
     <g id="text_25">
      <!-- 17.5 -->
      <g transform="translate(27.634375 72.539098) scale(0.1 -0.1)">
       <use xlink:href="#DejaVuSans-31"/>
       <use xlink:href="#DejaVuSans-37" x="63.623047"/>
       <use xlink:href="#DejaVuSans-2e" x="127.246094"/>
       <use xlink:href="#DejaVuSans-35" x="159.033203"/>
      </g>
     </g>
    </g>
    <g id="text_26">
     <!-- Average Lookup Time (ms) -->
     <g transform="translate(21.13875 287.55125) rotate(-90) scale(0.12 -0.12)">
      <defs>
       <path id="DejaVuSans-41" d="M 2188 4044 
L 1331 1722 
L 3047 1722 
L 2188 4044 
z
M 1831 4666 
L 2547 4666 
L 4325 0 
L 3669 0 
L 3244 1197 
L 1141 1197 
L 716 0 
L 50 0 
L 1831 4666 
z
" transform="scale(0.015625)"/>
       <path id="DejaVuSans-76" d="M 191 3500 
L 800 3500 
L 1894 563 
L 2988 3500 
L 3597 3500 
L 2284 0 
L 1503 0 
L 191 3500 
z
" transform="scale(0.015625)"/>
       <path id="DejaVuSans-72" d="M 2631 2963 
Q 2534 3019 2420 3045 
Q 2306 3072 2169 3072 
Q 1681 3072 1420 2755 
Q 1159 2438 1159 1844 
L 1159 0 
L 581 0 
L 581 3500 
L 1159 3500 
L 1159 2956 
Q 1341 3275 1631 3429 
Q 1922 3584 2338 3584 
Q 2397 3584 2469 3576 
Q 2541 3569 2628 3553 
L 2631 2963 
z
" transform="scale(0.015625)"/>
       <path id="DejaVuSans-67" d="M 2906 1791 
Q 2906 2416 2648 2759 
Q 2391 3103 1925 3103 
Q 1463 3103 1205 2759 
Q 947 2416 947 1791 
Q 947 1169 1205 825 
Q 1463 481 1925 481 
Q 2391 481 2648 825 
Q 2906 1169 2906 1791 
z
M 3481 434 
Q 3481 -459 3084 -895 
Q 2688 -1331 1869 -1331 
Q 1566 -1331 1297 -1286 
Q 1028 -1241 775 -1147 
L 775 -588 
Q 1028 -725 1275 -790 
Q 1522 -856 1778 -856 
Q 2344 -856 2625 -561 
Q 2906 -266 2906 331 
L 2906 616 
Q 2728 306 2450 153 
Q 2172 0 1784 0 
Q 1141 0 747 490 
Q 353 981 353 1791 
Q 353 2603 747 3093 
Q 1141 3584 1784 3584 
Q 2172 3584 2450 3431 
Q 2728 3278 2906 2969 
L 2906 3500 
L 3481 3500 
L 3481 434 
z
" transform="scale(0.015625)"/>
       <path id="DejaVuSans-4c" d="M 628 4666 
L 1259 4666 
L 1259 531 
L 3531 531 
L 3531 0 
L 628 0 
L 628 4666 
z
" transform="scale(0.015625)"/>
       <path id="DejaVuSans-6f" d="M 1959 3097 
Q 1497 3097 1228 2736 
Q 959 2375 959 1747 
Q 959 1119 1226 758 
Q 1494 397 1959 397 
Q 2419 397 2687 759 
Q 2956 1122 2956 1747 
Q 2956 2369 2687 2733 
Q 2419 3097 1959 3097 
z
M 1959 3584 
Q 2709 3584 3137 3096 
Q 3566 2609 3566 1747 
Q 3566 888 3137 398 
Q 2709 -91 1959 -91 
Q 1206 -91 779 398 
Q 353 888 353 1747 
Q 353 2609 779 3096 
Q 1206 3584 1959 3584 
z
" transform="scale(0.015625)"/>
       <path id="DejaVuSans-6b" d="M 581 4863 
L 1159 4863 
L 1159 1991 
L 2875 3500 
L 3609 3500 
L 1753 1863 
L 3688 0 
L 2938 0 
L 1159 1709 
L 1159 0 
L 581 0 
L 581 4863 
z
" transform="scale(0.015625)"/>
       <path id="DejaVuSans-70" d="M 1159 525 
L 1159 -1331 
L 581 -1331 
L 581 3500 
L 1159 3500 
L 1159 2969 
Q 1341 3281 1617 3432 
Q 1894 3584 2278 3584 
Q 2916 3584 3314 3078 
Q 3713 2572 3713 1747 
Q 3713 922 3314 415 
Q 2916 -91 2278 -91 
Q 1894 -91 1617 61 
Q 1341 213 1159 525 
z
M 3116 1747 
Q 3116 2381 2855 2742 
Q 2594 3103 2138 3103 
Q 1681 3103 1420 2742 
Q 1159 2381 1159 1747 
Q 1159 1113 1420 752 
Q 1681 391 2138 391 
Q 2594 391 2855 752 
Q 3116 1113 3116 1747 
z
" transform="scale(0.015625)"/>
       <path id="DejaVuSans-54" d="M -19 4666 
L 3928 4666 
L 3928 4134 
L 2272 4134 
L 2272 0 
L 1638 0 
L 1638 4134 
L -19 4134 
L -19 4666 
z
" transform="scale(0.015625)"/>
       <path id="DejaVuSans-69" d="M 603 3500 
L 1178 3500 
L 1178 0 
L 603 0 
L 603 3500 
z
M 603 4863 
L 1178 4863 
L 1178 4134 
L 603 4134 
L 603 4863 
z
" transform="scale(0.015625)"/>
       <path id="DejaVuSans-6d" d="M 3328 2828 
Q 3544 3216 3844 3400 
Q 4144 3584 4550 3584 
Q 5097 3584 5394 3201 
Q 5691 2819 5691 2113 
L 5691 0 
L 5113 0 
L 5113 2094 
Q 5113 2597 4934 2840 
Q 4756 3084 4391 3084 
Q 3944 3084 3684 2787 
Q 3425 2491 3425 1978 
L 3425 0 
L 2847 0 
L 2847 2094 
Q 2847 2600 2669 2842 
Q 2491 3084 2119 3084 
Q 1678 3084 1418 2786 
Q 1159 2488 1159 1978 
L 1159 0 
L 581 0 
L 581 3500 
L 1159 3500 
L 1159 2956 
Q 1356 3278 1631 3431 
Q 1906 3584 2284 3584 
Q 2666 3584 2933 3390 
Q 3200 3197 3328 2828 
z
" transform="scale(0.015625)"/>
       <path id="DejaVuSans-28" d="M 1984 4856 
Q 1566 4138 1362 3434 
Q 1159 2731 1159 2009 
Q 1159 1288 1364 580 
Q 1569 -128 1984 -844 
L 1484 -844 
Q 1016 -109 783 600 
Q 550 1309 550 2009 
Q 550 2706 781 3412 
Q 1013 4119 1484 4856 
L 1984 4856 
z
" transform="scale(0.015625)"/>
       <path id="DejaVuSans-73" d="M 2834 3397 
L 2834 2853 
Q 2591 2978 2328 3040 
Q 2066 3103 1784 3103 
Q 1356 3103 1142 2972 
Q 928 2841 928 2578 
Q 928 2378 1081 2264 
Q 1234 2150 1697 2047 
L 1894 2003 
Q 2506 1872 2764 1633 
Q 3022 1394 3022 966 
Q 3022 478 2636 193 
Q 2250 -91 1575 -91 
Q 1294 -91 989 -36 
Q 684 19 347 128 
L 347 722 
Q 666 556 975 473 
Q 1284 391 1588 391 
Q 1994 391 2212 530 
Q 2431 669 2431 922 
Q 2431 1156 2273 1281 
Q 2116 1406 1581 1522 
L 1381 1569 
Q 847 1681 609 1914 
Q 372 2147 372 2553 
Q 372 3047 722 3315 
Q 1072 3584 1716 3584 
Q 2034 3584 2315 3537 
Q 2597 3491 2834 3397 
z
" transform="scale(0.015625)"/>
       <path id="DejaVuSans-29" d="M 513 4856 
L 1013 4856 
Q 1481 4119 1714 3412 
Q 1947 2706 1947 2009 
Q 1947 1309 1714 600 
Q 1481 -109 1013 -844 
L 513 -844 
Q 928 -128 1133 580 
Q 1338 1288 1338 2009 
Q 1338 2731 1133 3434 
Q 928 4138 513 4856 
z
" transform="scale(0.015625)"/>
      </defs>
      <use xlink:href="#DejaVuSans-41"/>
      <use xlink:href="#DejaVuSans-76" x="62.533203"/>
      <use xlink:href="#DejaVuSans-65" x="121.712891"/>
      <use xlink:href="#DejaVuSans-72" x="183.236328"/>
      <use xlink:href="#DejaVuSans-61" x="224.349609"/>
      <use xlink:href="#DejaVuSans-67" x="285.628906"/>
      <use xlink:href="#DejaVuSans-65" x="349.105469"/>
      <use xlink:href="#DejaVuSans-20" x="410.628906"/>
      <use xlink:href="#DejaVuSans-4c" x="442.416016"/>
      <use xlink:href="#DejaVuSans-6f" x="496.378906"/>
      <use xlink:href="#DejaVuSans-6f" x="557.560547"/>
      <use xlink:href="#DejaVuSans-6b" x="618.742188"/>
      <use xlink:href="#DejaVuSans-75" x="673.527344"/>
      <use xlink:href="#DejaVuSans-70" x="736.90625"/>
      <use xlink:href="#DejaVuSans-20" x="800.382812"/>
      <use xlink:href="#DejaVuSans-54" x="832.169922"/>
      <use xlink:href="#DejaVuSans-69" x="890.128906"/>
      <use xlink:href="#DejaVuSans-6d" x="917.912109"/>
      <use xlink:href="#DejaVuSans-65" x="1015.324219"/>
      <use xlink:href="#DejaVuSans-20" x="1076.847656"/>
      <use xlink:href="#DejaVuSans-28" x="1108.634766"/>
      <use xlink:href="#DejaVuSans-6d" x="1147.648438"/>
      <use xlink:href="#DejaVuSans-73" x="1245.060547"/>
      <use xlink:href="#DejaVuSans-29" x="1297.160156"/>
     </g>
    </g>
   </g>
   <g id="patch_131">
    <path d="M 56.9 387.16 
L 56.9 27.6 
" style="fill: none; stroke: #000000; stroke-width: 0.8; stroke-linejoin: miter; stroke-linecap: square"/>
   </g>
   <g id="patch_132">
    <path d="M 714.01 387.16 
L 714.01 27.6 
" style="fill: none; stroke: #000000; stroke-width: 0.8; stroke-linejoin: miter; stroke-linecap: square"/>
   </g>
   <g id="patch_133">
    <path d="M 56.9 387.16 
L 714.01 387.16 
" style="fill: none; stroke: #000000; stroke-width: 0.8; stroke-linejoin: miter; stroke-linecap: square"/>
   </g>
   <g id="patch_134">
    <path d="M 56.9 27.6 
L 714.01 27.6 
" style="fill: none; stroke: #000000; stroke-width: 0.8; stroke-linejoin: miter; stroke-linecap: square"/>
   </g>
   <g id="text_27">
    <!-- Opi5 - HDD Drives -->
    <g transform="translate(321.549375 21.6) scale(0.14 -0.14)">
     <defs>
      <path id="DejaVuSans-4f" d="M 2522 4238 
Q 1834 4238 1429 3725 
Q 1025 3213 1025 2328 
Q 1025 1447 1429 934 
Q 1834 422 2522 422 
Q 3209 422 3611 934 
Q 4013 1447 4013 2328 
Q 4013 3213 3611 3725 
Q 3209 4238 2522 4238 
z
M 2522 4750 
Q 3503 4750 4090 4092 
Q 4678 3434 4678 2328 
Q 4678 1225 4090 567 
Q 3503 -91 2522 -91 
Q 1538 -91 948 565 
Q 359 1222 359 2328 
Q 359 3434 948 4092 
Q 1538 4750 2522 4750 
z
" transform="scale(0.015625)"/>
      <path id="DejaVuSans-2d" d="M 313 2009 
L 1997 2009 
L 1997 1497 
L 313 1497 
L 313 2009 
z
" transform="scale(0.015625)"/>
      <path id="DejaVuSans-48" d="M 628 4666 
L 1259 4666 
L 1259 2753 
L 3553 2753 
L 3553 4666 
L 4184 4666 
L 4184 0 
L 3553 0 
L 3553 2222 
L 1259 2222 
L 1259 0 
L 628 0 
L 628 4666 
z
" transform="scale(0.015625)"/>
      <path id="DejaVuSans-44" d="M 1259 4147 
L 1259 519 
L 2022 519 
Q 2988 519 3436 956 
Q 3884 1394 3884 2338 
Q 3884 3275 3436 3711 
Q 2988 4147 2022 4147 
L 1259 4147 
z
M 628 4666 
L 1925 4666 
Q 3281 4666 3915 4102 
Q 4550 3538 4550 2338 
Q 4550 1131 3912 565 
Q 3275 0 1925 0 
L 628 0 
L 628 4666 
z
" transform="scale(0.015625)"/>
     </defs>
     <use xlink:href="#DejaVuSans-4f"/>
     <use xlink:href="#DejaVuSans-70" x="78.710938"/>
     <use xlink:href="#DejaVuSans-69" x="142.1875"/>
     <use xlink:href="#DejaVuSans-35" x="169.970703"/>
     <use xlink:href="#DejaVuSans-20" x="233.59375"/>
     <use xlink:href="#DejaVuSans-2d" x="265.380859"/>
     <use xlink:href="#DejaVuSans-20" x="301.464844"/>
     <use xlink:href="#DejaVuSans-48" x="333.251953"/>
     <use xlink:href="#DejaVuSans-44" x="408.447266"/>
     <use xlink:href="#DejaVuSans-44" x="485.449219"/>
     <use xlink:href="#DejaVuSans-20" x="562.451172"/>
     <use xlink:href="#DejaVuSans-44" x="594.238281"/>
     <use xlink:href="#DejaVuSans-72" x="671.240234"/>
     <use xlink:href="#DejaVuSans-69" x="712.353516"/>
     <use xlink:href="#DejaVuSans-76" x="740.136719"/>
     <use xlink:href="#DejaVuSans-65" x="799.316406"/>
     <use xlink:href="#DejaVuSans-73" x="860.839844"/>
    </g>
   </g>
   <g id="legend_1">
    <g id="patch_135">
     <path d="M 753.8655 167.703125 
L 850.670187 167.703125 
Q 852.670187 167.703125 852.670187 165.703125 
L 852.670187 34.6 
Q 852.670187 32.6 850.670187 32.6 
L 753.8655 32.6 
Q 751.8655 32.6 751.8655 34.6 
L 751.8655 165.703125 
Q 751.8655 167.703125 753.8655 167.703125 
z
" style="fill: #ffffff; opacity: 0.8; stroke: #cccccc; stroke-linejoin: miter"/>
    </g>
    <g id="text_28">
     <!-- Hash Size -->
     <g transform="translate(777.817062 44.198438) scale(0.1 -0.1)">
      <defs>
       <path id="DejaVuSans-68" d="M 3513 2113 
L 3513 0 
L 2938 0 
L 2938 2094 
Q 2938 2591 2744 2837 
Q 2550 3084 2163 3084 
Q 1697 3084 1428 2787 
Q 1159 2491 1159 1978 
L 1159 0 
L 581 0 
L 581 4863 
L 1159 4863 
L 1159 2956 
Q 1366 3272 1645 3428 
Q 1925 3584 2291 3584 
Q 2894 3584 3203 3211 
Q 3513 2838 3513 2113 
z
" transform="scale(0.015625)"/>
       <path id="DejaVuSans-53" d="M 3425 4513 
L 3425 3897 
Q 3066 4069 2747 4153 
Q 2428 4238 2131 4238 
Q 1616 4238 1336 4038 
Q 1056 3838 1056 3469 
Q 1056 3159 1242 3001 
Q 1428 2844 1947 2747 
L 2328 2669 
Q 3034 2534 3370 2195 
Q 3706 1856 3706 1288 
Q 3706 609 3251 259 
Q 2797 -91 1919 -91 
Q 1588 -91 1214 -16 
Q 841 59 441 206 
L 441 856 
Q 825 641 1194 531 
Q 1563 422 1919 422 
Q 2459 422 2753 634 
Q 3047 847 3047 1241 
Q 3047 1584 2836 1778 
Q 2625 1972 2144 2069 
L 1759 2144 
Q 1053 2284 737 2584 
Q 422 2884 422 3419 
Q 422 4038 858 4394 
Q 1294 4750 2059 4750 
Q 2388 4750 2728 4690 
Q 3069 4631 3425 4513 
z
" transform="scale(0.015625)"/>
       <path id="DejaVuSans-7a" d="M 353 3500 
L 3084 3500 
L 3084 2975 
L 922 459 
L 3084 459 
L 3084 0 
L 275 0 
L 275 525 
L 2438 3041 
L 353 3041 
L 353 3500 
z
" transform="scale(0.015625)"/>
      </defs>
      <use xlink:href="#DejaVuSans-48"/>
      <use xlink:href="#DejaVuSans-61" x="75.195312"/>
      <use xlink:href="#DejaVuSans-73" x="136.474609"/>
      <use xlink:href="#DejaVuSans-68" x="188.574219"/>
      <use xlink:href="#DejaVuSans-20" x="251.953125"/>
      <use xlink:href="#DejaVuSans-53" x="283.740234"/>
      <use xlink:href="#DejaVuSans-69" x="347.216797"/>
      <use xlink:href="#DejaVuSans-7a" x="375"/>
      <use xlink:href="#DejaVuSans-65" x="427.490234"/>
     </g>
    </g>
    <g id="patch_136">
     <path d="M 755.8655 58.876563 
L 775.8655 58.876563 
L 775.8655 51.876563 
L 755.8655 51.876563 
z
" style="fill: #1f77b4"/>
    </g>
    <g id="text_29">
     <!-- Hash Size 3 -->
     <g transform="translate(783.8655 58.876563) scale(0.1 -0.1)">
      <use xlink:href="#DejaVuSans-48"/>
      <use xlink:href="#DejaVuSans-61" x="75.195312"/>
      <use xlink:href="#DejaVuSans-73" x="136.474609"/>
      <use xlink:href="#DejaVuSans-68" x="188.574219"/>
      <use xlink:href="#DejaVuSans-20" x="251.953125"/>
      <use xlink:href="#DejaVuSans-53" x="283.740234"/>
      <use xlink:href="#DejaVuSans-69" x="347.216797"/>
      <use xlink:href="#DejaVuSans-7a" x="375"/>
      <use xlink:href="#DejaVuSans-65" x="427.490234"/>
      <use xlink:href="#DejaVuSans-20" x="489.013672"/>
      <use xlink:href="#DejaVuSans-33" x="520.800781"/>
     </g>
    </g>
    <g id="patch_137">
     <path d="M 755.8655 73.554688 
L 775.8655 73.554688 
L 775.8655 66.554688 
L 755.8655 66.554688 
z
" style="fill: #ff7f0e"/>
    </g>
    <g id="text_30">
     <!-- Hash Size 4 -->
     <g transform="translate(783.8655 73.554688) scale(0.1 -0.1)">
      <use xlink:href="#DejaVuSans-48"/>
      <use xlink:href="#DejaVuSans-61" x="75.195312"/>
      <use xlink:href="#DejaVuSans-73" x="136.474609"/>
      <use xlink:href="#DejaVuSans-68" x="188.574219"/>
      <use xlink:href="#DejaVuSans-20" x="251.953125"/>
      <use xlink:href="#DejaVuSans-53" x="283.740234"/>
      <use xlink:href="#DejaVuSans-69" x="347.216797"/>
      <use xlink:href="#DejaVuSans-7a" x="375"/>
      <use xlink:href="#DejaVuSans-65" x="427.490234"/>
      <use xlink:href="#DejaVuSans-20" x="489.013672"/>
      <use xlink:href="#DejaVuSans-34" x="520.800781"/>
     </g>
    </g>
    <g id="patch_138">
     <path d="M 755.8655 88.232813 
L 775.8655 88.232813 
L 775.8655 81.232813 
L 755.8655 81.232813 
z
" style="fill: #2ca02c"/>
    </g>
    <g id="text_31">
     <!-- Hash Size 5 -->
     <g transform="translate(783.8655 88.232813) scale(0.1 -0.1)">
      <use xlink:href="#DejaVuSans-48"/>
      <use xlink:href="#DejaVuSans-61" x="75.195312"/>
      <use xlink:href="#DejaVuSans-73" x="136.474609"/>
      <use xlink:href="#DejaVuSans-68" x="188.574219"/>
      <use xlink:href="#DejaVuSans-20" x="251.953125"/>
      <use xlink:href="#DejaVuSans-53" x="283.740234"/>
      <use xlink:href="#DejaVuSans-69" x="347.216797"/>
      <use xlink:href="#DejaVuSans-7a" x="375"/>
      <use xlink:href="#DejaVuSans-65" x="427.490234"/>
      <use xlink:href="#DejaVuSans-20" x="489.013672"/>
      <use xlink:href="#DejaVuSans-35" x="520.800781"/>
     </g>
    </g>
    <g id="patch_139">
     <path d="M 755.8655 102.910938 
L 775.8655 102.910938 
L 775.8655 95.910938 
L 755.8655 95.910938 
z
" style="fill: #d62728"/>
    </g>
    <g id="text_32">
     <!-- Hash Size 6 -->
     <g transform="translate(783.8655 102.910938) scale(0.1 -0.1)">
      <use xlink:href="#DejaVuSans-48"/>
      <use xlink:href="#DejaVuSans-61" x="75.195312"/>
      <use xlink:href="#DejaVuSans-73" x="136.474609"/>
      <use xlink:href="#DejaVuSans-68" x="188.574219"/>
      <use xlink:href="#DejaVuSans-20" x="251.953125"/>
      <use xlink:href="#DejaVuSans-53" x="283.740234"/>
      <use xlink:href="#DejaVuSans-69" x="347.216797"/>
      <use xlink:href="#DejaVuSans-7a" x="375"/>
      <use xlink:href="#DejaVuSans-65" x="427.490234"/>
      <use xlink:href="#DejaVuSans-20" x="489.013672"/>
      <use xlink:href="#DejaVuSans-36" x="520.800781"/>
     </g>
    </g>
    <g id="patch_140">
     <path d="M 755.8655 117.589063 
L 775.8655 117.589063 
L 775.8655 110.589063 
L 755.8655 110.589063 
z
" style="fill: #9467bd"/>
    </g>
    <g id="text_33">
     <!-- Hash Size 7 -->
     <g transform="translate(783.8655 117.589063) scale(0.1 -0.1)">
      <use xlink:href="#DejaVuSans-48"/>
      <use xlink:href="#DejaVuSans-61" x="75.195312"/>
      <use xlink:href="#DejaVuSans-73" x="136.474609"/>
      <use xlink:href="#DejaVuSans-68" x="188.574219"/>
      <use xlink:href="#DejaVuSans-20" x="251.953125"/>
      <use xlink:href="#DejaVuSans-53" x="283.740234"/>
      <use xlink:href="#DejaVuSans-69" x="347.216797"/>
      <use xlink:href="#DejaVuSans-7a" x="375"/>
      <use xlink:href="#DejaVuSans-65" x="427.490234"/>
      <use xlink:href="#DejaVuSans-20" x="489.013672"/>
      <use xlink:href="#DejaVuSans-37" x="520.800781"/>
     </g>
    </g>
    <g id="patch_141">
     <path d="M 755.8655 132.267188 
L 775.8655 132.267188 
L 775.8655 125.267188 
L 755.8655 125.267188 
z
" style="fill: #8c564b"/>
    </g>
    <g id="text_34">
     <!-- Hash Size 8 -->
     <g transform="translate(783.8655 132.267188) scale(0.1 -0.1)">
      <use xlink:href="#DejaVuSans-48"/>
      <use xlink:href="#DejaVuSans-61" x="75.195312"/>
      <use xlink:href="#DejaVuSans-73" x="136.474609"/>
      <use xlink:href="#DejaVuSans-68" x="188.574219"/>
      <use xlink:href="#DejaVuSans-20" x="251.953125"/>
      <use xlink:href="#DejaVuSans-53" x="283.740234"/>
      <use xlink:href="#DejaVuSans-69" x="347.216797"/>
      <use xlink:href="#DejaVuSans-7a" x="375"/>
      <use xlink:href="#DejaVuSans-65" x="427.490234"/>
      <use xlink:href="#DejaVuSans-20" x="489.013672"/>
      <use xlink:href="#DejaVuSans-38" x="520.800781"/>
     </g>
    </g>
    <g id="patch_142">
     <path d="M 755.8655 146.945312 
L 775.8655 146.945312 
L 775.8655 139.945312 
L 755.8655 139.945312 
z
" style="fill: #e377c2"/>
    </g>
    <g id="text_35">
     <!-- Hash Size 16 -->
     <g transform="translate(783.8655 146.945312) scale(0.1 -0.1)">
      <use xlink:href="#DejaVuSans-48"/>
      <use xlink:href="#DejaVuSans-61" x="75.195312"/>
      <use xlink:href="#DejaVuSans-73" x="136.474609"/>
      <use xlink:href="#DejaVuSans-68" x="188.574219"/>
      <use xlink:href="#DejaVuSans-20" x="251.953125"/>
      <use xlink:href="#DejaVuSans-53" x="283.740234"/>
      <use xlink:href="#DejaVuSans-69" x="347.216797"/>
      <use xlink:href="#DejaVuSans-7a" x="375"/>
      <use xlink:href="#DejaVuSans-65" x="427.490234"/>
      <use xlink:href="#DejaVuSans-20" x="489.013672"/>
      <use xlink:href="#DejaVuSans-31" x="520.800781"/>
      <use xlink:href="#DejaVuSans-36" x="584.423828"/>
     </g>
    </g>
    <g id="patch_143">
     <path d="M 755.8655 161.623438 
L 775.8655 161.623438 
L 775.8655 154.623438 
L 755.8655 154.623438 
z
" style="fill: #7f7f7f"/>
    </g>
    <g id="text_36">
     <!-- Hash Size 32 -->
     <g transform="translate(783.8655 161.623438) scale(0.1 -0.1)">
      <use xlink:href="#DejaVuSans-48"/>
      <use xlink:href="#DejaVuSans-61" x="75.195312"/>
      <use xlink:href="#DejaVuSans-73" x="136.474609"/>
      <use xlink:href="#DejaVuSans-68" x="188.574219"/>
      <use xlink:href="#DejaVuSans-20" x="251.953125"/>
      <use xlink:href="#DejaVuSans-53" x="283.740234"/>
      <use xlink:href="#DejaVuSans-69" x="347.216797"/>
      <use xlink:href="#DejaVuSans-7a" x="375"/>
      <use xlink:href="#DejaVuSans-65" x="427.490234"/>
      <use xlink:href="#DejaVuSans-20" x="489.013672"/>
      <use xlink:href="#DejaVuSans-33" x="520.800781"/>
      <use xlink:href="#DejaVuSans-32" x="584.423828"/>
     </g>
    </g>
   </g>
  </g>
 </g>
 <defs>
  <clipPath id="p72dee06bfd">
   <rect x="56.9" y="27.6" width="657.11" height="359.56"/>
  </clipPath>
 </defs>
</svg>
