<?xml version="1.0" encoding="utf-8" standalone="no"?>
<!DOCTYPE svg PUBLIC "-//W3C//DTD SVG 1.1//EN"
  "http://www.w3.org/Graphics/SVG/1.1/DTD/svg11.dtd">
<svg xmlns:xlink="http://www.w3.org/1999/xlink" width="864pt" height="432pt" viewBox="0 0 864 432" xmlns="http://www.w3.org/2000/svg" version="1.1">
 <metadata>
  <rdf:RDF xmlns:dc="http://purl.org/dc/elements/1.1/" xmlns:cc="http://creativecommons.org/ns#" xmlns:rdf="http://www.w3.org/1999/02/22-rdf-syntax-ns#">
   <cc:Work>
    <dc:type rdf:resource="http://purl.org/dc/dcmitype/StillImage"/>
    <dc:date>2024-12-11T04:33:57.851572</dc:date>
    <dc:format>image/svg+xml</dc:format>
    <dc:creator>
     <cc:Agent>
      <dc:title>Matplotlib v3.9.2, https://matplotlib.org/</dc:title>
     </cc:Agent>
    </dc:creator>
   </cc:Work>
  </rdf:RDF>
 </metadata>
 <defs>
  <style type="text/css">*{stroke-linejoin: round; stroke-linecap: butt}</style>
 </defs>
 <g id="figure_1">
  <g id="patch_1">
   <path d="M 0 432 
L 864 432 
L 864 0 
L 0 0 
z
" style="fill: #ffffff"/>
  </g>
  <g id="axes_1">
   <g id="patch_2">
    <path d="M 47.45 387.16 
L 714.01 387.16 
L 714.01 27.6 
L 47.45 27.6 
z
" style="fill: #ffffff"/>
   </g>
   <g id="patch_3">
    <path d="M 77.748182 387.16 
L 81.583395 387.16 
L 81.583395 348.89876 
L 77.748182 348.89876 
z
" clip-path="url(#p30ec0e50ac)" style="fill: #1f77b4"/>
   </g>
   <g id="patch_4">
    <path d="M 116.100311 387.16 
L 119.935524 387.16 
L 119.935524 303.702671 
L 116.100311 303.702671 
z
" clip-path="url(#p30ec0e50ac)" style="fill: #1f77b4"/>
   </g>
   <g id="patch_5">
    <path d="M 154.45244 387.16 
L 158.287652 387.16 
L 158.287652 271.180617 
L 154.45244 271.180617 
z
" clip-path="url(#p30ec0e50ac)" style="fill: #1f77b4"/>
   </g>
   <g id="patch_6">
    <path d="M 192.804568 387.16 
L 196.639781 387.16 
L 196.639781 257.550051 
L 192.804568 257.550051 
z
" clip-path="url(#p30ec0e50ac)" style="fill: #1f77b4"/>
   </g>
   <g id="patch_7">
    <path d="M 231.156697 387.16 
L 234.99191 387.16 
L 234.99191 238.180298 
L 231.156697 238.180298 
z
" clip-path="url(#p30ec0e50ac)" style="fill: #1f77b4"/>
   </g>
   <g id="patch_8">
    <path d="M 269.508826 387.16 
L 273.344039 387.16 
L 273.344039 237.223767 
L 269.508826 237.223767 
z
" clip-path="url(#p30ec0e50ac)" style="fill: #1f77b4"/>
   </g>
   <g id="patch_9">
    <path d="M 307.860955 387.16 
L 311.696168 387.16 
L 311.696168 232.919377 
L 307.860955 232.919377 
z
" clip-path="url(#p30ec0e50ac)" style="fill: #1f77b4"/>
   </g>
   <g id="patch_10">
    <path d="M 346.213084 387.16 
L 350.048297 387.16 
L 350.048297 232.680245 
L 346.213084 232.680245 
z
" clip-path="url(#p30ec0e50ac)" style="fill: #1f77b4"/>
   </g>
   <g id="patch_11">
    <path d="M 384.565213 387.16 
L 388.400426 387.16 
L 388.400426 202.310386 
L 384.565213 202.310386 
z
" clip-path="url(#p30ec0e50ac)" style="fill: #1f77b4"/>
   </g>
   <g id="patch_12">
    <path d="M 422.917342 387.16 
L 426.752555 387.16 
L 426.752555 180.310173 
L 422.917342 180.310173 
z
" clip-path="url(#p30ec0e50ac)" style="fill: #1f77b4"/>
   </g>
   <g id="patch_13">
    <path d="M 461.269471 387.16 
L 465.104684 387.16 
L 465.104684 150.179447 
L 461.269471 150.179447 
z
" clip-path="url(#p30ec0e50ac)" style="fill: #1f77b4"/>
   </g>
   <g id="patch_14">
    <path d="M 499.6216 387.16 
L 503.456812 387.16 
L 503.456812 114.548667 
L 499.6216 114.548667 
z
" clip-path="url(#p30ec0e50ac)" style="fill: #1f77b4"/>
   </g>
   <g id="patch_15">
    <path d="M 537.973728 387.16 
L 541.808941 387.16 
L 541.808941 126.027039 
L 537.973728 126.027039 
z
" clip-path="url(#p30ec0e50ac)" style="fill: #1f77b4"/>
   </g>
   <g id="patch_16">
    <path d="M 576.325857 387.16 
L 580.16107 387.16 
L 580.16107 182.940633 
L 576.325857 182.940633 
z
" clip-path="url(#p30ec0e50ac)" style="fill: #1f77b4"/>
   </g>
   <g id="patch_17">
    <path d="M 614.677986 387.16 
L 618.513199 387.16 
L 618.513199 101.635499 
L 614.677986 101.635499 
z
" clip-path="url(#p30ec0e50ac)" style="fill: #1f77b4"/>
   </g>
   <g id="patch_18">
    <path d="M 653.030115 387.16 
L 656.865328 387.16 
L 656.865328 52.852418 
L 653.030115 52.852418 
z
" clip-path="url(#p30ec0e50ac)" style="fill: #1f77b4"/>
   </g>
   <g id="patch_19">
    <path d="M 81.583395 387.16 
L 85.418608 387.16 
L 85.418608 372.572902 
L 81.583395 372.572902 
z
" clip-path="url(#p30ec0e50ac)" style="fill: #ff7f0e"/>
   </g>
   <g id="patch_20">
    <path d="M 119.935524 387.16 
L 123.770736 387.16 
L 123.770736 308.724459 
L 119.935524 308.724459 
z
" clip-path="url(#p30ec0e50ac)" style="fill: #ff7f0e"/>
   </g>
   <g id="patch_21">
    <path d="M 158.287652 387.16 
L 162.122865 387.16 
L 162.122865 277.398069 
L 158.287652 277.398069 
z
" clip-path="url(#p30ec0e50ac)" style="fill: #ff7f0e"/>
   </g>
   <g id="patch_22">
    <path d="M 196.639781 387.16 
L 200.474994 387.16 
L 200.474994 256.115254 
L 196.639781 256.115254 
z
" clip-path="url(#p30ec0e50ac)" style="fill: #ff7f0e"/>
   </g>
   <g id="patch_23">
    <path d="M 234.99191 387.16 
L 238.827123 387.16 
L 238.827123 241.528156 
L 234.99191 241.528156 
z
" clip-path="url(#p30ec0e50ac)" style="fill: #ff7f0e"/>
   </g>
   <g id="patch_24">
    <path d="M 273.344039 387.16 
L 277.179252 387.16 
L 277.179252 242.006422 
L 273.344039 242.006422 
z
" clip-path="url(#p30ec0e50ac)" style="fill: #ff7f0e"/>
   </g>
   <g id="patch_25">
    <path d="M 311.696168 387.16 
L 315.531381 387.16 
L 315.531381 232.201979 
L 311.696168 232.201979 
z
" clip-path="url(#p30ec0e50ac)" style="fill: #ff7f0e"/>
   </g>
   <g id="patch_26">
    <path d="M 350.048297 387.16 
L 353.88351 387.16 
L 353.88351 229.571519 
L 350.048297 229.571519 
z
" clip-path="url(#p30ec0e50ac)" style="fill: #ff7f0e"/>
   </g>
   <g id="patch_27">
    <path d="M 388.400426 387.16 
L 392.235639 387.16 
L 392.235639 206.614775 
L 388.400426 206.614775 
z
" clip-path="url(#p30ec0e50ac)" style="fill: #ff7f0e"/>
   </g>
   <g id="patch_28">
    <path d="M 426.752555 387.16 
L 430.587768 387.16 
L 430.587768 182.7015 
L 426.752555 182.7015 
z
" clip-path="url(#p30ec0e50ac)" style="fill: #ff7f0e"/>
   </g>
   <g id="patch_29">
    <path d="M 465.104684 387.16 
L 468.939896 387.16 
L 468.939896 171.223128 
L 465.104684 171.223128 
z
" clip-path="url(#p30ec0e50ac)" style="fill: #ff7f0e"/>
   </g>
   <g id="patch_30">
    <path d="M 503.456812 387.16 
L 507.292025 387.16 
L 507.292025 117.179127 
L 503.456812 117.179127 
z
" clip-path="url(#p30ec0e50ac)" style="fill: #ff7f0e"/>
   </g>
   <g id="patch_31">
    <path d="M 541.808941 387.16 
L 545.644154 387.16 
L 545.644154 129.374898 
L 541.808941 129.374898 
z
" clip-path="url(#p30ec0e50ac)" style="fill: #ff7f0e"/>
   </g>
   <g id="patch_32">
    <path d="M 580.16107 387.16 
L 583.996283 387.16 
L 583.996283 182.462368 
L 580.16107 182.462368 
z
" clip-path="url(#p30ec0e50ac)" style="fill: #ff7f0e"/>
   </g>
   <g id="patch_33">
    <path d="M 618.513199 387.16 
L 622.348412 387.16 
L 622.348412 92.787587 
L 618.513199 92.787587 
z
" clip-path="url(#p30ec0e50ac)" style="fill: #ff7f0e"/>
   </g>
   <g id="patch_34">
    <path d="M 656.865328 387.16 
L 660.700541 387.16 
L 660.700541 55.961144 
L 656.865328 55.961144 
z
" clip-path="url(#p30ec0e50ac)" style="fill: #ff7f0e"/>
   </g>
   <g id="patch_35">
    <path d="M 85.418608 387.16 
L 89.25382 387.16 
L 89.25382 369.942442 
L 85.418608 369.942442 
z
" clip-path="url(#p30ec0e50ac)" style="fill: #2ca02c"/>
   </g>
   <g id="patch_36">
    <path d="M 123.770736 387.16 
L 127.605949 387.16 
L 127.605949 313.507114 
L 123.770736 313.507114 
z
" clip-path="url(#p30ec0e50ac)" style="fill: #2ca02c"/>
   </g>
   <g id="patch_37">
    <path d="M 162.122865 387.16 
L 165.958078 387.16 
L 165.958078 276.441538 
L 162.122865 276.441538 
z
" clip-path="url(#p30ec0e50ac)" style="fill: #2ca02c"/>
   </g>
   <g id="patch_38">
    <path d="M 200.474994 387.16 
L 204.310207 387.16 
L 204.310207 254.680458 
L 200.474994 254.680458 
z
" clip-path="url(#p30ec0e50ac)" style="fill: #2ca02c"/>
   </g>
   <g id="patch_39">
    <path d="M 238.827123 387.16 
L 242.662336 387.16 
L 242.662336 237.941165 
L 238.827123 237.941165 
z
" clip-path="url(#p30ec0e50ac)" style="fill: #2ca02c"/>
   </g>
   <g id="patch_40">
    <path d="M 277.179252 387.16 
L 281.014465 387.16 
L 281.014465 237.4629 
L 277.179252 237.4629 
z
" clip-path="url(#p30ec0e50ac)" style="fill: #2ca02c"/>
   </g>
   <g id="patch_41">
    <path d="M 315.531381 387.16 
L 319.366594 387.16 
L 319.366594 236.028103 
L 315.531381 236.028103 
z
" clip-path="url(#p30ec0e50ac)" style="fill: #2ca02c"/>
   </g>
   <g id="patch_42">
    <path d="M 353.88351 387.16 
L 357.718723 387.16 
L 357.718723 227.180192 
L 353.88351 227.180192 
z
" clip-path="url(#p30ec0e50ac)" style="fill: #2ca02c"/>
   </g>
   <g id="patch_43">
    <path d="M 392.235639 387.16 
L 396.070852 387.16 
L 396.070852 199.679926 
L 392.235639 199.679926 
z
" clip-path="url(#p30ec0e50ac)" style="fill: #2ca02c"/>
   </g>
   <g id="patch_44">
    <path d="M 430.587768 387.16 
L 434.42298 387.16 
L 434.42298 180.549306 
L 430.587768 180.549306 
z
" clip-path="url(#p30ec0e50ac)" style="fill: #2ca02c"/>
   </g>
   <g id="patch_45">
    <path d="M 468.939896 387.16 
L 472.775109 387.16 
L 472.775109 182.462368 
L 468.939896 182.462368 
z
" clip-path="url(#p30ec0e50ac)" style="fill: #2ca02c"/>
   </g>
   <g id="patch_46">
    <path d="M 507.292025 387.16 
L 511.127238 387.16 
L 511.127238 111.439941 
L 507.292025 111.439941 
z
" clip-path="url(#p30ec0e50ac)" style="fill: #2ca02c"/>
   </g>
   <g id="patch_47">
    <path d="M 545.644154 387.16 
L 549.479367 387.16 
L 549.479367 121.483517 
L 545.644154 121.483517 
z
" clip-path="url(#p30ec0e50ac)" style="fill: #2ca02c"/>
   </g>
   <g id="patch_48">
    <path d="M 583.996283 387.16 
L 587.831496 387.16 
L 587.831496 179.592775 
L 583.996283 179.592775 
z
" clip-path="url(#p30ec0e50ac)" style="fill: #2ca02c"/>
   </g>
   <g id="patch_49">
    <path d="M 622.348412 387.16 
L 626.183625 387.16 
L 626.183625 99.005039 
L 622.348412 99.005039 
z
" clip-path="url(#p30ec0e50ac)" style="fill: #2ca02c"/>
   </g>
   <g id="patch_50">
    <path d="M 660.700541 387.16 
L 664.535754 387.16 
L 664.535754 49.982825 
L 660.700541 49.982825 
z
" clip-path="url(#p30ec0e50ac)" style="fill: #2ca02c"/>
   </g>
   <g id="patch_51">
    <path d="M 89.25382 387.16 
L 93.089033 387.16 
L 93.089033 370.898973 
L 89.25382 370.898973 
z
" clip-path="url(#p30ec0e50ac)" style="fill: #d62728"/>
   </g>
   <g id="patch_52">
    <path d="M 127.605949 387.16 
L 131.441162 387.16 
L 131.441162 307.767928 
L 127.605949 307.767928 
z
" clip-path="url(#p30ec0e50ac)" style="fill: #d62728"/>
   </g>
   <g id="patch_53">
    <path d="M 165.958078 387.16 
L 169.793291 387.16 
L 169.793291 275.963272 
L 165.958078 275.963272 
z
" clip-path="url(#p30ec0e50ac)" style="fill: #d62728"/>
   </g>
   <g id="patch_54">
    <path d="M 204.310207 387.16 
L 208.14542 387.16 
L 208.14542 256.59352 
L 204.310207 256.59352 
z
" clip-path="url(#p30ec0e50ac)" style="fill: #d62728"/>
   </g>
   <g id="patch_55">
    <path d="M 242.662336 387.16 
L 246.497549 387.16 
L 246.497549 244.397749 
L 242.662336 244.397749 
z
" clip-path="url(#p30ec0e50ac)" style="fill: #d62728"/>
   </g>
   <g id="patch_56">
    <path d="M 281.014465 387.16 
L 284.849678 387.16 
L 284.849678 235.78897 
L 281.014465 235.78897 
z
" clip-path="url(#p30ec0e50ac)" style="fill: #d62728"/>
   </g>
   <g id="patch_57">
    <path d="M 319.366594 387.16 
L 323.201807 387.16 
L 323.201807 236.984634 
L 319.366594 236.984634 
z
" clip-path="url(#p30ec0e50ac)" style="fill: #d62728"/>
   </g>
   <g id="patch_58">
    <path d="M 357.718723 387.16 
L 361.553936 387.16 
L 361.553936 228.375855 
L 357.718723 228.375855 
z
" clip-path="url(#p30ec0e50ac)" style="fill: #d62728"/>
   </g>
   <g id="patch_59">
    <path d="M 396.070852 387.16 
L 399.906064 387.16 
L 399.906064 197.288598 
L 396.070852 197.288598 
z
" clip-path="url(#p30ec0e50ac)" style="fill: #d62728"/>
   </g>
   <g id="patch_60">
    <path d="M 434.42298 387.16 
L 438.258193 387.16 
L 438.258193 181.266704 
L 434.42298 181.266704 
z
" clip-path="url(#p30ec0e50ac)" style="fill: #d62728"/>
   </g>
   <g id="patch_61">
    <path d="M 472.775109 387.16 
L 476.610322 387.16 
L 476.610322 176.484049 
L 472.775109 176.484049 
z
" clip-path="url(#p30ec0e50ac)" style="fill: #d62728"/>
   </g>
   <g id="patch_62">
    <path d="M 511.127238 387.16 
L 514.962451 387.16 
L 514.962451 114.309534 
L 511.127238 114.309534 
z
" clip-path="url(#p30ec0e50ac)" style="fill: #d62728"/>
   </g>
   <g id="patch_63">
    <path d="M 549.479367 387.16 
L 553.31458 387.16 
L 553.31458 122.918313 
L 549.479367 122.918313 
z
" clip-path="url(#p30ec0e50ac)" style="fill: #d62728"/>
   </g>
   <g id="patch_64">
    <path d="M 587.831496 387.16 
L 591.666709 387.16 
L 591.666709 176.484049 
L 587.831496 176.484049 
z
" clip-path="url(#p30ec0e50ac)" style="fill: #d62728"/>
   </g>
   <g id="patch_65">
    <path d="M 626.183625 387.16 
L 630.018838 387.16 
L 630.018838 103.070295 
L 626.183625 103.070295 
z
" clip-path="url(#p30ec0e50ac)" style="fill: #d62728"/>
   </g>
   <g id="patch_66">
    <path d="M 664.535754 387.16 
L 668.370967 387.16 
L 668.370967 53.330684 
L 664.535754 53.330684 
z
" clip-path="url(#p30ec0e50ac)" style="fill: #d62728"/>
   </g>
   <g id="patch_67">
    <path d="M 93.089033 387.16 
L 96.924246 387.16 
L 96.924246 368.985911 
L 93.089033 368.985911 
z
" clip-path="url(#p30ec0e50ac)" style="fill: #9467bd"/>
   </g>
   <g id="patch_68">
    <path d="M 131.441162 387.16 
L 135.276375 387.16 
L 135.276375 308.485326 
L 131.441162 308.485326 
z
" clip-path="url(#p30ec0e50ac)" style="fill: #9467bd"/>
   </g>
   <g id="patch_69">
    <path d="M 169.793291 387.16 
L 173.628504 387.16 
L 173.628504 271.658883 
L 169.793291 271.658883 
z
" clip-path="url(#p30ec0e50ac)" style="fill: #9467bd"/>
   </g>
   <g id="patch_70">
    <path d="M 208.14542 387.16 
L 211.980633 387.16 
L 211.980633 256.832652 
L 208.14542 256.832652 
z
" clip-path="url(#p30ec0e50ac)" style="fill: #9467bd"/>
   </g>
   <g id="patch_71">
    <path d="M 246.497549 387.16 
L 250.332762 387.16 
L 250.332762 241.289024 
L 246.497549 241.289024 
z
" clip-path="url(#p30ec0e50ac)" style="fill: #9467bd"/>
   </g>
   <g id="patch_72">
    <path d="M 284.849678 387.16 
L 288.684891 387.16 
L 288.684891 236.267236 
L 284.849678 236.267236 
z
" clip-path="url(#p30ec0e50ac)" style="fill: #9467bd"/>
   </g>
   <g id="patch_73">
    <path d="M 323.201807 387.16 
L 327.03702 387.16 
L 327.03702 233.875908 
L 323.201807 233.875908 
z
" clip-path="url(#p30ec0e50ac)" style="fill: #9467bd"/>
   </g>
   <g id="patch_74">
    <path d="M 361.553936 387.16 
L 365.389148 387.16 
L 365.389148 230.52805 
L 361.553936 230.52805 
z
" clip-path="url(#p30ec0e50ac)" style="fill: #9467bd"/>
   </g>
   <g id="patch_75">
    <path d="M 399.906064 387.16 
L 403.741277 387.16 
L 403.741277 200.397324 
L 399.906064 200.397324 
z
" clip-path="url(#p30ec0e50ac)" style="fill: #9467bd"/>
   </g>
   <g id="patch_76">
    <path d="M 438.258193 387.16 
L 442.093406 387.16 
L 442.093406 169.549199 
L 438.258193 169.549199 
z
" clip-path="url(#p30ec0e50ac)" style="fill: #9467bd"/>
   </g>
   <g id="patch_77">
    <path d="M 476.610322 387.16 
L 480.445535 387.16 
L 480.445535 175.766651 
L 476.610322 175.766651 
z
" clip-path="url(#p30ec0e50ac)" style="fill: #9467bd"/>
   </g>
   <g id="patch_78">
    <path d="M 514.962451 387.16 
L 518.797664 387.16 
L 518.797664 114.070402 
L 514.962451 114.070402 
z
" clip-path="url(#p30ec0e50ac)" style="fill: #9467bd"/>
   </g>
   <g id="patch_79">
    <path d="M 553.31458 387.16 
L 557.149793 387.16 
L 557.149793 126.266172 
L 553.31458 126.266172 
z
" clip-path="url(#p30ec0e50ac)" style="fill: #9467bd"/>
   </g>
   <g id="patch_80">
    <path d="M 591.666709 387.16 
L 595.501922 387.16 
L 595.501922 180.07104 
L 591.666709 180.07104 
z
" clip-path="url(#p30ec0e50ac)" style="fill: #9467bd"/>
   </g>
   <g id="patch_81">
    <path d="M 630.018838 387.16 
L 633.854051 387.16 
L 633.854051 95.418047 
L 630.018838 95.418047 
z
" clip-path="url(#p30ec0e50ac)" style="fill: #9467bd"/>
   </g>
   <g id="patch_82">
    <path d="M 668.370967 387.16 
L 672.20618 387.16 
L 672.20618 46.874099 
L 668.370967 46.874099 
z
" clip-path="url(#p30ec0e50ac)" style="fill: #9467bd"/>
   </g>
   <g id="patch_83">
    <path d="M 96.924246 387.16 
L 100.759459 387.16 
L 100.759459 371.377239 
L 96.924246 371.377239 
z
" clip-path="url(#p30ec0e50ac)" style="fill: #8c564b"/>
   </g>
   <g id="patch_84">
    <path d="M 135.276375 387.16 
L 139.111588 387.16 
L 139.111588 305.137467 
L 135.276375 305.137467 
z
" clip-path="url(#p30ec0e50ac)" style="fill: #8c564b"/>
   </g>
   <g id="patch_85">
    <path d="M 173.628504 387.16 
L 177.463717 387.16 
L 177.463717 273.571945 
L 173.628504 273.571945 
z
" clip-path="url(#p30ec0e50ac)" style="fill: #8c564b"/>
   </g>
   <g id="patch_86">
    <path d="M 211.980633 387.16 
L 215.815846 387.16 
L 215.815846 258.267449 
L 211.980633 258.267449 
z
" clip-path="url(#p30ec0e50ac)" style="fill: #8c564b"/>
   </g>
   <g id="patch_87">
    <path d="M 250.332762 387.16 
L 254.167975 387.16 
L 254.167975 237.941165 
L 250.332762 237.941165 
z
" clip-path="url(#p30ec0e50ac)" style="fill: #8c564b"/>
   </g>
   <g id="patch_88">
    <path d="M 288.684891 387.16 
L 292.520104 387.16 
L 292.520104 235.071572 
L 288.684891 235.071572 
z
" clip-path="url(#p30ec0e50ac)" style="fill: #8c564b"/>
   </g>
   <g id="patch_89">
    <path d="M 327.03702 387.16 
L 330.872232 387.16 
L 330.872232 232.680245 
L 327.03702 232.680245 
z
" clip-path="url(#p30ec0e50ac)" style="fill: #8c564b"/>
   </g>
   <g id="patch_90">
    <path d="M 365.389148 387.16 
L 369.224361 387.16 
L 369.224361 231.245448 
L 365.389148 231.245448 
z
" clip-path="url(#p30ec0e50ac)" style="fill: #8c564b"/>
   </g>
   <g id="patch_91">
    <path d="M 403.741277 387.16 
L 407.57649 387.16 
L 407.57649 199.679926 
L 403.741277 199.679926 
z
" clip-path="url(#p30ec0e50ac)" style="fill: #8c564b"/>
   </g>
   <g id="patch_92">
    <path d="M 442.093406 387.16 
L 445.928619 387.16 
L 445.928619 180.788438 
L 442.093406 180.788438 
z
" clip-path="url(#p30ec0e50ac)" style="fill: #8c564b"/>
   </g>
   <g id="patch_93">
    <path d="M 480.445535 387.16 
L 484.280748 387.16 
L 484.280748 171.223128 
L 480.445535 171.223128 
z
" clip-path="url(#p30ec0e50ac)" style="fill: #8c564b"/>
   </g>
   <g id="patch_94">
    <path d="M 518.797664 387.16 
L 522.632877 387.16 
L 522.632877 108.092083 
L 518.797664 108.092083 
z
" clip-path="url(#p30ec0e50ac)" style="fill: #8c564b"/>
   </g>
   <g id="patch_95">
    <path d="M 557.149793 387.16 
L 560.985006 387.16 
L 560.985006 130.570561 
L 557.149793 130.570561 
z
" clip-path="url(#p30ec0e50ac)" style="fill: #8c564b"/>
   </g>
   <g id="patch_96">
    <path d="M 595.501922 387.16 
L 599.337135 387.16 
L 599.337135 184.853695 
L 595.501922 184.853695 
z
" clip-path="url(#p30ec0e50ac)" style="fill: #8c564b"/>
   </g>
   <g id="patch_97">
    <path d="M 633.854051 387.16 
L 637.689264 387.16 
L 637.689264 88.72233 
L 633.854051 88.72233 
z
" clip-path="url(#p30ec0e50ac)" style="fill: #8c564b"/>
   </g>
   <g id="patch_98">
    <path d="M 672.20618 387.16 
L 676.041392 387.16 
L 676.041392 51.178489 
L 672.20618 51.178489 
z
" clip-path="url(#p30ec0e50ac)" style="fill: #8c564b"/>
   </g>
   <g id="patch_99">
    <path d="M 100.759459 387.16 
L 104.594672 387.16 
L 104.594672 370.65984 
L 100.759459 370.65984 
z
" clip-path="url(#p30ec0e50ac)" style="fill: #e377c2"/>
   </g>
   <g id="patch_100">
    <path d="M 139.111588 387.16 
L 142.946801 387.16 
L 142.946801 311.833184 
L 139.111588 311.833184 
z
" clip-path="url(#p30ec0e50ac)" style="fill: #e377c2"/>
   </g>
   <g id="patch_101">
    <path d="M 177.463717 387.16 
L 181.29893 387.16 
L 181.29893 274.289343 
L 177.463717 274.289343 
z
" clip-path="url(#p30ec0e50ac)" style="fill: #e377c2"/>
   </g>
   <g id="patch_102">
    <path d="M 215.815846 387.16 
L 219.651059 387.16 
L 219.651059 253.723927 
L 215.815846 253.723927 
z
" clip-path="url(#p30ec0e50ac)" style="fill: #e377c2"/>
   </g>
   <g id="patch_103">
    <path d="M 254.167975 387.16 
L 258.003188 387.16 
L 258.003188 243.919484 
L 254.167975 243.919484 
z
" clip-path="url(#p30ec0e50ac)" style="fill: #e377c2"/>
   </g>
   <g id="patch_104">
    <path d="M 292.520104 387.16 
L 296.355316 387.16 
L 296.355316 236.506369 
L 292.520104 236.506369 
z
" clip-path="url(#p30ec0e50ac)" style="fill: #e377c2"/>
   </g>
   <g id="patch_105">
    <path d="M 330.872232 387.16 
L 334.707445 387.16 
L 334.707445 237.4629 
L 330.872232 237.4629 
z
" clip-path="url(#p30ec0e50ac)" style="fill: #e377c2"/>
   </g>
   <g id="patch_106">
    <path d="M 369.224361 387.16 
L 373.059574 387.16 
L 373.059574 229.332386 
L 369.224361 229.332386 
z
" clip-path="url(#p30ec0e50ac)" style="fill: #e377c2"/>
   </g>
   <g id="patch_107">
    <path d="M 407.57649 387.16 
L 411.411703 387.16 
L 411.411703 198.005996 
L 407.57649 198.005996 
z
" clip-path="url(#p30ec0e50ac)" style="fill: #e377c2"/>
   </g>
   <g id="patch_108">
    <path d="M 445.928619 387.16 
L 449.763832 387.16 
L 449.763832 175.766651 
L 445.928619 175.766651 
z
" clip-path="url(#p30ec0e50ac)" style="fill: #e377c2"/>
   </g>
   <g id="patch_109">
    <path d="M 484.280748 387.16 
L 488.115961 387.16 
L 488.115961 179.592775 
L 484.280748 179.592775 
z
" clip-path="url(#p30ec0e50ac)" style="fill: #e377c2"/>
   </g>
   <g id="patch_110">
    <path d="M 522.632877 387.16 
L 526.46809 387.16 
L 526.46809 115.505198 
L 522.632877 115.505198 
z
" clip-path="url(#p30ec0e50ac)" style="fill: #e377c2"/>
   </g>
   <g id="patch_111">
    <path d="M 560.985006 387.16 
L 564.820219 387.16 
L 564.820219 121.005251 
L 560.985006 121.005251 
z
" clip-path="url(#p30ec0e50ac)" style="fill: #e377c2"/>
   </g>
   <g id="patch_112">
    <path d="M 599.337135 387.16 
L 603.172348 387.16 
L 603.172348 179.353642 
L 599.337135 179.353642 
z
" clip-path="url(#p30ec0e50ac)" style="fill: #e377c2"/>
   </g>
   <g id="patch_113">
    <path d="M 637.689264 387.16 
L 641.524476 387.16 
L 641.524476 90.157127 
L 637.689264 90.157127 
z
" clip-path="url(#p30ec0e50ac)" style="fill: #e377c2"/>
   </g>
   <g id="patch_114">
    <path d="M 676.041392 387.16 
L 679.876605 387.16 
L 679.876605 51.895887 
L 676.041392 51.895887 
z
" clip-path="url(#p30ec0e50ac)" style="fill: #e377c2"/>
   </g>
   <g id="patch_115">
    <path d="M 104.594672 387.16 
L 108.429885 387.16 
L 108.429885 372.094637 
L 104.594672 372.094637 
z
" clip-path="url(#p30ec0e50ac)" style="fill: #7f7f7f"/>
   </g>
   <g id="patch_116">
    <path d="M 142.946801 387.16 
L 146.782014 387.16 
L 146.782014 306.333131 
L 142.946801 306.333131 
z
" clip-path="url(#p30ec0e50ac)" style="fill: #7f7f7f"/>
   </g>
   <g id="patch_117">
    <path d="M 181.29893 387.16 
L 185.134143 387.16 
L 185.134143 276.202405 
L 181.29893 276.202405 
z
" clip-path="url(#p30ec0e50ac)" style="fill: #7f7f7f"/>
   </g>
   <g id="patch_118">
    <path d="M 219.651059 387.16 
L 223.486272 387.16 
L 223.486272 255.876121 
L 219.651059 255.876121 
z
" clip-path="url(#p30ec0e50ac)" style="fill: #7f7f7f"/>
   </g>
   <g id="patch_119">
    <path d="M 258.003188 387.16 
L 261.8384 387.16 
L 261.8384 241.049891 
L 258.003188 241.049891 
z
" clip-path="url(#p30ec0e50ac)" style="fill: #7f7f7f"/>
   </g>
   <g id="patch_120">
    <path d="M 296.355316 387.16 
L 300.190529 387.16 
L 300.190529 236.984634 
L 296.355316 236.984634 
z
" clip-path="url(#p30ec0e50ac)" style="fill: #7f7f7f"/>
   </g>
   <g id="patch_121">
    <path d="M 334.707445 387.16 
L 338.542658 387.16 
L 338.542658 231.962847 
L 334.707445 231.962847 
z
" clip-path="url(#p30ec0e50ac)" style="fill: #7f7f7f"/>
   </g>
   <g id="patch_122">
    <path d="M 373.059574 387.16 
L 376.894787 387.16 
L 376.894787 225.26713 
L 373.059574 225.26713 
z
" clip-path="url(#p30ec0e50ac)" style="fill: #7f7f7f"/>
   </g>
   <g id="patch_123">
    <path d="M 411.411703 387.16 
L 415.246916 387.16 
L 415.246916 196.092934 
L 411.411703 196.092934 
z
" clip-path="url(#p30ec0e50ac)" style="fill: #7f7f7f"/>
   </g>
   <g id="patch_124">
    <path d="M 449.763832 387.16 
L 453.599045 387.16 
L 453.599045 173.375323 
L 449.763832 173.375323 
z
" clip-path="url(#p30ec0e50ac)" style="fill: #7f7f7f"/>
   </g>
   <g id="patch_125">
    <path d="M 488.115961 387.16 
L 491.951174 387.16 
L 491.951174 173.853589 
L 488.115961 173.853589 
z
" clip-path="url(#p30ec0e50ac)" style="fill: #7f7f7f"/>
   </g>
   <g id="patch_126">
    <path d="M 526.46809 387.16 
L 530.303303 387.16 
L 530.303303 114.070402 
L 526.46809 114.070402 
z
" clip-path="url(#p30ec0e50ac)" style="fill: #7f7f7f"/>
   </g>
   <g id="patch_127">
    <path d="M 564.820219 387.16 
L 568.655432 387.16 
L 568.655432 122.918313 
L 564.820219 122.918313 
z
" clip-path="url(#p30ec0e50ac)" style="fill: #7f7f7f"/>
   </g>
   <g id="patch_128">
    <path d="M 603.172348 387.16 
L 607.00756 387.16 
L 607.00756 178.636244 
L 603.172348 178.636244 
z
" clip-path="url(#p30ec0e50ac)" style="fill: #7f7f7f"/>
   </g>
   <g id="patch_129">
    <path d="M 641.524476 387.16 
L 645.359689 387.16 
L 645.359689 93.265853 
L 641.524476 93.265853 
z
" clip-path="url(#p30ec0e50ac)" style="fill: #7f7f7f"/>
   </g>
   <g id="patch_130">
    <path d="M 679.876605 387.16 
L 683.711818 387.16 
L 683.711818 44.721905 
L 679.876605 44.721905 
z
" clip-path="url(#p30ec0e50ac)" style="fill: #7f7f7f"/>
   </g>
   <g id="matplotlib.axis_1">
    <g id="xtick_1">
     <g id="line2d_1">
      <defs>
       <path id="mbccfdf5159" d="M 0 0 
L 0 3.5 
" style="stroke: #000000; stroke-width: 0.8"/>
      </defs>
      <g>
       <use xlink:href="#mbccfdf5159" x="79.665788" y="387.16" style="stroke: #000000; stroke-width: 0.8"/>
      </g>
     </g>
     <g id="text_1">
      <!-- 25 -->
      <g transform="translate(73.303288 401.758438) scale(0.1 -0.1)">
       <defs>
        <path id="DejaVuSans-32" d="M 1228 531 
L 3431 531 
L 3431 0 
L 469 0 
L 469 531 
Q 828 903 1448 1529 
Q 2069 2156 2228 2338 
Q 2531 2678 2651 2914 
Q 2772 3150 2772 3378 
Q 2772 3750 2511 3984 
Q 2250 4219 1831 4219 
Q 1534 4219 1204 4116 
Q 875 4013 500 3803 
L 500 4441 
Q 881 4594 1212 4672 
Q 1544 4750 1819 4750 
Q 2544 4750 2975 4387 
Q 3406 4025 3406 3419 
Q 3406 3131 3298 2873 
Q 3191 2616 2906 2266 
Q 2828 2175 2409 1742 
Q 1991 1309 1228 531 
z
" transform="scale(0.015625)"/>
        <path id="DejaVuSans-35" d="M 691 4666 
L 3169 4666 
L 3169 4134 
L 1269 4134 
L 1269 2991 
Q 1406 3038 1543 3061 
Q 1681 3084 1819 3084 
Q 2600 3084 3056 2656 
Q 3513 2228 3513 1497 
Q 3513 744 3044 326 
Q 2575 -91 1722 -91 
Q 1428 -91 1123 -41 
Q 819 9 494 109 
L 494 744 
Q 775 591 1075 516 
Q 1375 441 1709 441 
Q 2250 441 2565 725 
Q 2881 1009 2881 1497 
Q 2881 1984 2565 2268 
Q 2250 2553 1709 2553 
Q 1456 2553 1204 2497 
Q 953 2441 691 2322 
L 691 4666 
z
" transform="scale(0.015625)"/>
       </defs>
       <use xlink:href="#DejaVuSans-32"/>
       <use xlink:href="#DejaVuSans-35" x="63.623047"/>
      </g>
     </g>
    </g>
    <g id="xtick_2">
     <g id="line2d_2">
      <g>
       <use xlink:href="#mbccfdf5159" x="118.017917" y="387.16" style="stroke: #000000; stroke-width: 0.8"/>
      </g>
     </g>
     <g id="text_2">
      <!-- 26 -->
      <g transform="translate(111.655417 401.758438) scale(0.1 -0.1)">
       <defs>
        <path id="DejaVuSans-36" d="M 2113 2584 
Q 1688 2584 1439 2293 
Q 1191 2003 1191 1497 
Q 1191 994 1439 701 
Q 1688 409 2113 409 
Q 2538 409 2786 701 
Q 3034 994 3034 1497 
Q 3034 2003 2786 2293 
Q 2538 2584 2113 2584 
z
M 3366 4563 
L 3366 3988 
Q 3128 4100 2886 4159 
Q 2644 4219 2406 4219 
Q 1781 4219 1451 3797 
Q 1122 3375 1075 2522 
Q 1259 2794 1537 2939 
Q 1816 3084 2150 3084 
Q 2853 3084 3261 2657 
Q 3669 2231 3669 1497 
Q 3669 778 3244 343 
Q 2819 -91 2113 -91 
Q 1303 -91 875 529 
Q 447 1150 447 2328 
Q 447 3434 972 4092 
Q 1497 4750 2381 4750 
Q 2619 4750 2861 4703 
Q 3103 4656 3366 4563 
z
" transform="scale(0.015625)"/>
       </defs>
       <use xlink:href="#DejaVuSans-32"/>
       <use xlink:href="#DejaVuSans-36" x="63.623047"/>
      </g>
     </g>
    </g>
    <g id="xtick_3">
     <g id="line2d_3">
      <g>
       <use xlink:href="#mbccfdf5159" x="156.370046" y="387.16" style="stroke: #000000; stroke-width: 0.8"/>
      </g>
     </g>
     <g id="text_3">
      <!-- 27 -->
      <g transform="translate(150.007546 401.758438) scale(0.1 -0.1)">
       <defs>
        <path id="DejaVuSans-37" d="M 525 4666 
L 3525 4666 
L 3525 4397 
L 1831 0 
L 1172 0 
L 2766 4134 
L 525 4134 
L 525 4666 
z
" transform="scale(0.015625)"/>
       </defs>
       <use xlink:href="#DejaVuSans-32"/>
       <use xlink:href="#DejaVuSans-37" x="63.623047"/>
      </g>
     </g>
    </g>
    <g id="xtick_4">
     <g id="line2d_4">
      <g>
       <use xlink:href="#mbccfdf5159" x="194.722175" y="387.16" style="stroke: #000000; stroke-width: 0.8"/>
      </g>
     </g>
     <g id="text_4">
      <!-- 28 -->
      <g transform="translate(188.359675 401.758438) scale(0.1 -0.1)">
       <defs>
        <path id="DejaVuSans-38" d="M 2034 2216 
Q 1584 2216 1326 1975 
Q 1069 1734 1069 1313 
Q 1069 891 1326 650 
Q 1584 409 2034 409 
Q 2484 409 2743 651 
Q 3003 894 3003 1313 
Q 3003 1734 2745 1975 
Q 2488 2216 2034 2216 
z
M 1403 2484 
Q 997 2584 770 2862 
Q 544 3141 544 3541 
Q 544 4100 942 4425 
Q 1341 4750 2034 4750 
Q 2731 4750 3128 4425 
Q 3525 4100 3525 3541 
Q 3525 3141 3298 2862 
Q 3072 2584 2669 2484 
Q 3125 2378 3379 2068 
Q 3634 1759 3634 1313 
Q 3634 634 3220 271 
Q 2806 -91 2034 -91 
Q 1263 -91 848 271 
Q 434 634 434 1313 
Q 434 1759 690 2068 
Q 947 2378 1403 2484 
z
M 1172 3481 
Q 1172 3119 1398 2916 
Q 1625 2713 2034 2713 
Q 2441 2713 2670 2916 
Q 2900 3119 2900 3481 
Q 2900 3844 2670 4047 
Q 2441 4250 2034 4250 
Q 1625 4250 1398 4047 
Q 1172 3844 1172 3481 
z
" transform="scale(0.015625)"/>
       </defs>
       <use xlink:href="#DejaVuSans-32"/>
       <use xlink:href="#DejaVuSans-38" x="63.623047"/>
      </g>
     </g>
    </g>
    <g id="xtick_5">
     <g id="line2d_5">
      <g>
       <use xlink:href="#mbccfdf5159" x="233.074304" y="387.16" style="stroke: #000000; stroke-width: 0.8"/>
      </g>
     </g>
     <g id="text_5">
      <!-- 29 -->
      <g transform="translate(226.711804 401.758438) scale(0.1 -0.1)">
       <defs>
        <path id="DejaVuSans-39" d="M 703 97 
L 703 672 
Q 941 559 1184 500 
Q 1428 441 1663 441 
Q 2288 441 2617 861 
Q 2947 1281 2994 2138 
Q 2813 1869 2534 1725 
Q 2256 1581 1919 1581 
Q 1219 1581 811 2004 
Q 403 2428 403 3163 
Q 403 3881 828 4315 
Q 1253 4750 1959 4750 
Q 2769 4750 3195 4129 
Q 3622 3509 3622 2328 
Q 3622 1225 3098 567 
Q 2575 -91 1691 -91 
Q 1453 -91 1209 -44 
Q 966 3 703 97 
z
M 1959 2075 
Q 2384 2075 2632 2365 
Q 2881 2656 2881 3163 
Q 2881 3666 2632 3958 
Q 2384 4250 1959 4250 
Q 1534 4250 1286 3958 
Q 1038 3666 1038 3163 
Q 1038 2656 1286 2365 
Q 1534 2075 1959 2075 
z
" transform="scale(0.015625)"/>
       </defs>
       <use xlink:href="#DejaVuSans-32"/>
       <use xlink:href="#DejaVuSans-39" x="63.623047"/>
      </g>
     </g>
    </g>
    <g id="xtick_6">
     <g id="line2d_6">
      <g>
       <use xlink:href="#mbccfdf5159" x="271.426433" y="387.16" style="stroke: #000000; stroke-width: 0.8"/>
      </g>
     </g>
     <g id="text_6">
      <!-- 30 -->
      <g transform="translate(265.063933 401.758438) scale(0.1 -0.1)">
       <defs>
        <path id="DejaVuSans-33" d="M 2597 2516 
Q 3050 2419 3304 2112 
Q 3559 1806 3559 1356 
Q 3559 666 3084 287 
Q 2609 -91 1734 -91 
Q 1441 -91 1130 -33 
Q 819 25 488 141 
L 488 750 
Q 750 597 1062 519 
Q 1375 441 1716 441 
Q 2309 441 2620 675 
Q 2931 909 2931 1356 
Q 2931 1769 2642 2001 
Q 2353 2234 1838 2234 
L 1294 2234 
L 1294 2753 
L 1863 2753 
Q 2328 2753 2575 2939 
Q 2822 3125 2822 3475 
Q 2822 3834 2567 4026 
Q 2313 4219 1838 4219 
Q 1578 4219 1281 4162 
Q 984 4106 628 3988 
L 628 4550 
Q 988 4650 1302 4700 
Q 1616 4750 1894 4750 
Q 2613 4750 3031 4423 
Q 3450 4097 3450 3541 
Q 3450 3153 3228 2886 
Q 3006 2619 2597 2516 
z
" transform="scale(0.015625)"/>
        <path id="DejaVuSans-30" d="M 2034 4250 
Q 1547 4250 1301 3770 
Q 1056 3291 1056 2328 
Q 1056 1369 1301 889 
Q 1547 409 2034 409 
Q 2525 409 2770 889 
Q 3016 1369 3016 2328 
Q 3016 3291 2770 3770 
Q 2525 4250 2034 4250 
z
M 2034 4750 
Q 2819 4750 3233 4129 
Q 3647 3509 3647 2328 
Q 3647 1150 3233 529 
Q 2819 -91 2034 -91 
Q 1250 -91 836 529 
Q 422 1150 422 2328 
Q 422 3509 836 4129 
Q 1250 4750 2034 4750 
z
" transform="scale(0.015625)"/>
       </defs>
       <use xlink:href="#DejaVuSans-33"/>
       <use xlink:href="#DejaVuSans-30" x="63.623047"/>
      </g>
     </g>
    </g>
    <g id="xtick_7">
     <g id="line2d_7">
      <g>
       <use xlink:href="#mbccfdf5159" x="309.778562" y="387.16" style="stroke: #000000; stroke-width: 0.8"/>
      </g>
     </g>
     <g id="text_7">
      <!-- 31 -->
      <g transform="translate(303.416062 401.758438) scale(0.1 -0.1)">
       <defs>
        <path id="DejaVuSans-31" d="M 794 531 
L 1825 531 
L 1825 4091 
L 703 3866 
L 703 4441 
L 1819 4666 
L 2450 4666 
L 2450 531 
L 3481 531 
L 3481 0 
L 794 0 
L 794 531 
z
" transform="scale(0.015625)"/>
       </defs>
       <use xlink:href="#DejaVuSans-33"/>
       <use xlink:href="#DejaVuSans-31" x="63.623047"/>
      </g>
     </g>
    </g>
    <g id="xtick_8">
     <g id="line2d_8">
      <g>
       <use xlink:href="#mbccfdf5159" x="348.13069" y="387.16" style="stroke: #000000; stroke-width: 0.8"/>
      </g>
     </g>
     <g id="text_8">
      <!-- 32 -->
      <g transform="translate(341.76819 401.758438) scale(0.1 -0.1)">
       <use xlink:href="#DejaVuSans-33"/>
       <use xlink:href="#DejaVuSans-32" x="63.623047"/>
      </g>
     </g>
    </g>
    <g id="xtick_9">
     <g id="line2d_9">
      <g>
       <use xlink:href="#mbccfdf5159" x="386.482819" y="387.16" style="stroke: #000000; stroke-width: 0.8"/>
      </g>
     </g>
     <g id="text_9">
      <!-- 33 -->
      <g transform="translate(380.120319 401.758438) scale(0.1 -0.1)">
       <use xlink:href="#DejaVuSans-33"/>
       <use xlink:href="#DejaVuSans-33" x="63.623047"/>
      </g>
     </g>
    </g>
    <g id="xtick_10">
     <g id="line2d_10">
      <g>
       <use xlink:href="#mbccfdf5159" x="424.834948" y="387.16" style="stroke: #000000; stroke-width: 0.8"/>
      </g>
     </g>
     <g id="text_10">
      <!-- 34 -->
      <g transform="translate(418.472448 401.758438) scale(0.1 -0.1)">
       <defs>
        <path id="DejaVuSans-34" d="M 2419 4116 
L 825 1625 
L 2419 1625 
L 2419 4116 
z
M 2253 4666 
L 3047 4666 
L 3047 1625 
L 3713 1625 
L 3713 1100 
L 3047 1100 
L 3047 0 
L 2419 0 
L 2419 1100 
L 313 1100 
L 313 1709 
L 2253 4666 
z
" transform="scale(0.015625)"/>
       </defs>
       <use xlink:href="#DejaVuSans-33"/>
       <use xlink:href="#DejaVuSans-34" x="63.623047"/>
      </g>
     </g>
    </g>
    <g id="xtick_11">
     <g id="line2d_11">
      <g>
       <use xlink:href="#mbccfdf5159" x="463.187077" y="387.16" style="stroke: #000000; stroke-width: 0.8"/>
      </g>
     </g>
     <g id="text_11">
      <!-- 35 -->
      <g transform="translate(456.824577 401.758438) scale(0.1 -0.1)">
       <use xlink:href="#DejaVuSans-33"/>
       <use xlink:href="#DejaVuSans-35" x="63.623047"/>
      </g>
     </g>
    </g>
    <g id="xtick_12">
     <g id="line2d_12">
      <g>
       <use xlink:href="#mbccfdf5159" x="501.539206" y="387.16" style="stroke: #000000; stroke-width: 0.8"/>
      </g>
     </g>
     <g id="text_12">
      <!-- 36 -->
      <g transform="translate(495.176706 401.758438) scale(0.1 -0.1)">
       <use xlink:href="#DejaVuSans-33"/>
       <use xlink:href="#DejaVuSans-36" x="63.623047"/>
      </g>
     </g>
    </g>
    <g id="xtick_13">
     <g id="line2d_13">
      <g>
       <use xlink:href="#mbccfdf5159" x="539.891335" y="387.16" style="stroke: #000000; stroke-width: 0.8"/>
      </g>
     </g>
     <g id="text_13">
      <!-- 37 -->
      <g transform="translate(533.528835 401.758438) scale(0.1 -0.1)">
       <use xlink:href="#DejaVuSans-33"/>
       <use xlink:href="#DejaVuSans-37" x="63.623047"/>
      </g>
     </g>
    </g>
    <g id="xtick_14">
     <g id="line2d_14">
      <g>
       <use xlink:href="#mbccfdf5159" x="578.243464" y="387.16" style="stroke: #000000; stroke-width: 0.8"/>
      </g>
     </g>
     <g id="text_14">
      <!-- 38 -->
      <g transform="translate(571.880964 401.758438) scale(0.1 -0.1)">
       <use xlink:href="#DejaVuSans-33"/>
       <use xlink:href="#DejaVuSans-38" x="63.623047"/>
      </g>
     </g>
    </g>
    <g id="xtick_15">
     <g id="line2d_15">
      <g>
       <use xlink:href="#mbccfdf5159" x="616.595593" y="387.16" style="stroke: #000000; stroke-width: 0.8"/>
      </g>
     </g>
     <g id="text_15">
      <!-- 39 -->
      <g transform="translate(610.233093 401.758438) scale(0.1 -0.1)">
       <use xlink:href="#DejaVuSans-33"/>
       <use xlink:href="#DejaVuSans-39" x="63.623047"/>
      </g>
     </g>
    </g>
    <g id="xtick_16">
     <g id="line2d_16">
      <g>
       <use xlink:href="#mbccfdf5159" x="654.947722" y="387.16" style="stroke: #000000; stroke-width: 0.8"/>
      </g>
     </g>
     <g id="text_16">
      <!-- 40 -->
      <g transform="translate(648.585222 401.758438) scale(0.1 -0.1)">
       <use xlink:href="#DejaVuSans-34"/>
       <use xlink:href="#DejaVuSans-30" x="63.623047"/>
      </g>
     </g>
    </g>
    <g id="text_17">
     <!-- K Value -->
     <g transform="translate(358.410937 416.95625) scale(0.12 -0.12)">
      <defs>
       <path id="DejaVuSans-4b" d="M 628 4666 
L 1259 4666 
L 1259 2694 
L 3353 4666 
L 4166 4666 
L 1850 2491 
L 4331 0 
L 3500 0 
L 1259 2247 
L 1259 0 
L 628 0 
L 628 4666 
z
" transform="scale(0.015625)"/>
       <path id="DejaVuSans-20" transform="scale(0.015625)"/>
       <path id="DejaVuSans-56" d="M 1831 0 
L 50 4666 
L 709 4666 
L 2188 738 
L 3669 4666 
L 4325 4666 
L 2547 0 
L 1831 0 
z
" transform="scale(0.015625)"/>
       <path id="DejaVuSans-61" d="M 2194 1759 
Q 1497 1759 1228 1600 
Q 959 1441 959 1056 
Q 959 750 1161 570 
Q 1363 391 1709 391 
Q 2188 391 2477 730 
Q 2766 1069 2766 1631 
L 2766 1759 
L 2194 1759 
z
M 3341 1997 
L 3341 0 
L 2766 0 
L 2766 531 
Q 2569 213 2275 61 
Q 1981 -91 1556 -91 
Q 1019 -91 701 211 
Q 384 513 384 1019 
Q 384 1609 779 1909 
Q 1175 2209 1959 2209 
L 2766 2209 
L 2766 2266 
Q 2766 2663 2505 2880 
Q 2244 3097 1772 3097 
Q 1472 3097 1187 3025 
Q 903 2953 641 2809 
L 641 3341 
Q 956 3463 1253 3523 
Q 1550 3584 1831 3584 
Q 2591 3584 2966 3190 
Q 3341 2797 3341 1997 
z
" transform="scale(0.015625)"/>
       <path id="DejaVuSans-6c" d="M 603 4863 
L 1178 4863 
L 1178 0 
L 603 0 
L 603 4863 
z
" transform="scale(0.015625)"/>
       <path id="DejaVuSans-75" d="M 544 1381 
L 544 3500 
L 1119 3500 
L 1119 1403 
Q 1119 906 1312 657 
Q 1506 409 1894 409 
Q 2359 409 2629 706 
Q 2900 1003 2900 1516 
L 2900 3500 
L 3475 3500 
L 3475 0 
L 2900 0 
L 2900 538 
Q 2691 219 2414 64 
Q 2138 -91 1772 -91 
Q 1169 -91 856 284 
Q 544 659 544 1381 
z
M 1991 3584 
L 1991 3584 
z
" transform="scale(0.015625)"/>
       <path id="DejaVuSans-65" d="M 3597 1894 
L 3597 1613 
L 953 1613 
Q 991 1019 1311 708 
Q 1631 397 2203 397 
Q 2534 397 2845 478 
Q 3156 559 3463 722 
L 3463 178 
Q 3153 47 2828 -22 
Q 2503 -91 2169 -91 
Q 1331 -91 842 396 
Q 353 884 353 1716 
Q 353 2575 817 3079 
Q 1281 3584 2069 3584 
Q 2775 3584 3186 3129 
Q 3597 2675 3597 1894 
z
M 3022 2063 
Q 3016 2534 2758 2815 
Q 2500 3097 2075 3097 
Q 1594 3097 1305 2825 
Q 1016 2553 972 2059 
L 3022 2063 
z
" transform="scale(0.015625)"/>
      </defs>
      <use xlink:href="#DejaVuSans-4b"/>
      <use xlink:href="#DejaVuSans-20" x="65.576172"/>
      <use xlink:href="#DejaVuSans-56" x="97.363281"/>
      <use xlink:href="#DejaVuSans-61" x="158.021484"/>
      <use xlink:href="#DejaVuSans-6c" x="219.300781"/>
      <use xlink:href="#DejaVuSans-75" x="247.083984"/>
      <use xlink:href="#DejaVuSans-65" x="310.462891"/>
     </g>
    </g>
   </g>
   <g id="matplotlib.axis_2">
    <g id="ytick_1">
     <g id="line2d_17">
      <defs>
       <path id="m6664fbc70b" d="M 0 0 
L -3.5 0 
" style="stroke: #000000; stroke-width: 0.8"/>
      </defs>
      <g>
       <use xlink:href="#m6664fbc70b" x="47.45" y="387.16" style="stroke: #000000; stroke-width: 0.8"/>
      </g>
     </g>
     <g id="text_18">
      <!-- 0 -->
      <g transform="translate(34.0875 390.959219) scale(0.1 -0.1)">
       <use xlink:href="#DejaVuSans-30"/>
      </g>
     </g>
    </g>
    <g id="ytick_2">
     <g id="line2d_18">
      <g>
       <use xlink:href="#m6664fbc70b" x="47.45" y="339.33345" style="stroke: #000000; stroke-width: 0.8"/>
      </g>
     </g>
     <g id="text_19">
      <!-- 2 -->
      <g transform="translate(34.0875 343.132669) scale(0.1 -0.1)">
       <use xlink:href="#DejaVuSans-32"/>
      </g>
     </g>
    </g>
    <g id="ytick_3">
     <g id="line2d_19">
      <g>
       <use xlink:href="#m6664fbc70b" x="47.45" y="291.506901" style="stroke: #000000; stroke-width: 0.8"/>
      </g>
     </g>
     <g id="text_20">
      <!-- 4 -->
      <g transform="translate(34.0875 295.30612) scale(0.1 -0.1)">
       <use xlink:href="#DejaVuSans-34"/>
      </g>
     </g>
    </g>
    <g id="ytick_4">
     <g id="line2d_20">
      <g>
       <use xlink:href="#m6664fbc70b" x="47.45" y="243.680351" style="stroke: #000000; stroke-width: 0.8"/>
      </g>
     </g>
     <g id="text_21">
      <!-- 6 -->
      <g transform="translate(34.0875 247.47957) scale(0.1 -0.1)">
       <use xlink:href="#DejaVuSans-36"/>
      </g>
     </g>
    </g>
    <g id="ytick_5">
     <g id="line2d_21">
      <g>
       <use xlink:href="#m6664fbc70b" x="47.45" y="195.853802" style="stroke: #000000; stroke-width: 0.8"/>
      </g>
     </g>
     <g id="text_22">
      <!-- 8 -->
      <g transform="translate(34.0875 199.65302) scale(0.1 -0.1)">
       <use xlink:href="#DejaVuSans-38"/>
      </g>
     </g>
    </g>
    <g id="ytick_6">
     <g id="line2d_22">
      <g>
       <use xlink:href="#m6664fbc70b" x="47.45" y="148.027252" style="stroke: #000000; stroke-width: 0.8"/>
      </g>
     </g>
     <g id="text_23">
      <!-- 10 -->
      <g transform="translate(27.725 151.826471) scale(0.1 -0.1)">
       <use xlink:href="#DejaVuSans-31"/>
       <use xlink:href="#DejaVuSans-30" x="63.623047"/>
      </g>
     </g>
    </g>
    <g id="ytick_7">
     <g id="line2d_23">
      <g>
       <use xlink:href="#m6664fbc70b" x="47.45" y="100.200702" style="stroke: #000000; stroke-width: 0.8"/>
      </g>
     </g>
     <g id="text_24">
      <!-- 12 -->
      <g transform="translate(27.725 103.999921) scale(0.1 -0.1)">
       <use xlink:href="#DejaVuSans-31"/>
       <use xlink:href="#DejaVuSans-32" x="63.623047"/>
      </g>
     </g>
    </g>
    <g id="ytick_8">
     <g id="line2d_24">
      <g>
       <use xlink:href="#m6664fbc70b" x="47.45" y="52.374153" style="stroke: #000000; stroke-width: 0.8"/>
      </g>
     </g>
     <g id="text_25">
      <!-- 14 -->
      <g transform="translate(27.725 56.173371) scale(0.1 -0.1)">
       <use xlink:href="#DejaVuSans-31"/>
       <use xlink:href="#DejaVuSans-34" x="63.623047"/>
      </g>
     </g>
    </g>
    <g id="text_26">
     <!-- Average Lookup Time (ms) -->
     <g transform="translate(21.229375 287.55125) rotate(-90) scale(0.12 -0.12)">
      <defs>
       <path id="DejaVuSans-41" d="M 2188 4044 
L 1331 1722 
L 3047 1722 
L 2188 4044 
z
M 1831 4666 
L 2547 4666 
L 4325 0 
L 3669 0 
L 3244 1197 
L 1141 1197 
L 716 0 
L 50 0 
L 1831 4666 
z
" transform="scale(0.015625)"/>
       <path id="DejaVuSans-76" d="M 191 3500 
L 800 3500 
L 1894 563 
L 2988 3500 
L 3597 3500 
L 2284 0 
L 1503 0 
L 191 3500 
z
" transform="scale(0.015625)"/>
       <path id="DejaVuSans-72" d="M 2631 2963 
Q 2534 3019 2420 3045 
Q 2306 3072 2169 3072 
Q 1681 3072 1420 2755 
Q 1159 2438 1159 1844 
L 1159 0 
L 581 0 
L 581 3500 
L 1159 3500 
L 1159 2956 
Q 1341 3275 1631 3429 
Q 1922 3584 2338 3584 
Q 2397 3584 2469 3576 
Q 2541 3569 2628 3553 
L 2631 2963 
z
" transform="scale(0.015625)"/>
       <path id="DejaVuSans-67" d="M 2906 1791 
Q 2906 2416 2648 2759 
Q 2391 3103 1925 3103 
Q 1463 3103 1205 2759 
Q 947 2416 947 1791 
Q 947 1169 1205 825 
Q 1463 481 1925 481 
Q 2391 481 2648 825 
Q 2906 1169 2906 1791 
z
M 3481 434 
Q 3481 -459 3084 -895 
Q 2688 -1331 1869 -1331 
Q 1566 -1331 1297 -1286 
Q 1028 -1241 775 -1147 
L 775 -588 
Q 1028 -725 1275 -790 
Q 1522 -856 1778 -856 
Q 2344 -856 2625 -561 
Q 2906 -266 2906 331 
L 2906 616 
Q 2728 306 2450 153 
Q 2172 0 1784 0 
Q 1141 0 747 490 
Q 353 981 353 1791 
Q 353 2603 747 3093 
Q 1141 3584 1784 3584 
Q 2172 3584 2450 3431 
Q 2728 3278 2906 2969 
L 2906 3500 
L 3481 3500 
L 3481 434 
z
" transform="scale(0.015625)"/>
       <path id="DejaVuSans-4c" d="M 628 4666 
L 1259 4666 
L 1259 531 
L 3531 531 
L 3531 0 
L 628 0 
L 628 4666 
z
" transform="scale(0.015625)"/>
       <path id="DejaVuSans-6f" d="M 1959 3097 
Q 1497 3097 1228 2736 
Q 959 2375 959 1747 
Q 959 1119 1226 758 
Q 1494 397 1959 397 
Q 2419 397 2687 759 
Q 2956 1122 2956 1747 
Q 2956 2369 2687 2733 
Q 2419 3097 1959 3097 
z
M 1959 3584 
Q 2709 3584 3137 3096 
Q 3566 2609 3566 1747 
Q 3566 888 3137 398 
Q 2709 -91 1959 -91 
Q 1206 -91 779 398 
Q 353 888 353 1747 
Q 353 2609 779 3096 
Q 1206 3584 1959 3584 
z
" transform="scale(0.015625)"/>
       <path id="DejaVuSans-6b" d="M 581 4863 
L 1159 4863 
L 1159 1991 
L 2875 3500 
L 3609 3500 
L 1753 1863 
L 3688 0 
L 2938 0 
L 1159 1709 
L 1159 0 
L 581 0 
L 581 4863 
z
" transform="scale(0.015625)"/>
       <path id="DejaVuSans-70" d="M 1159 525 
L 1159 -1331 
L 581 -1331 
L 581 3500 
L 1159 3500 
L 1159 2969 
Q 1341 3281 1617 3432 
Q 1894 3584 2278 3584 
Q 2916 3584 3314 3078 
Q 3713 2572 3713 1747 
Q 3713 922 3314 415 
Q 2916 -91 2278 -91 
Q 1894 -91 1617 61 
Q 1341 213 1159 525 
z
M 3116 1747 
Q 3116 2381 2855 2742 
Q 2594 3103 2138 3103 
Q 1681 3103 1420 2742 
Q 1159 2381 1159 1747 
Q 1159 1113 1420 752 
Q 1681 391 2138 391 
Q 2594 391 2855 752 
Q 3116 1113 3116 1747 
z
" transform="scale(0.015625)"/>
       <path id="DejaVuSans-54" d="M -19 4666 
L 3928 4666 
L 3928 4134 
L 2272 4134 
L 2272 0 
L 1638 0 
L 1638 4134 
L -19 4134 
L -19 4666 
z
" transform="scale(0.015625)"/>
       <path id="DejaVuSans-69" d="M 603 3500 
L 1178 3500 
L 1178 0 
L 603 0 
L 603 3500 
z
M 603 4863 
L 1178 4863 
L 1178 4134 
L 603 4134 
L 603 4863 
z
" transform="scale(0.015625)"/>
       <path id="DejaVuSans-6d" d="M 3328 2828 
Q 3544 3216 3844 3400 
Q 4144 3584 4550 3584 
Q 5097 3584 5394 3201 
Q 5691 2819 5691 2113 
L 5691 0 
L 5113 0 
L 5113 2094 
Q 5113 2597 4934 2840 
Q 4756 3084 4391 3084 
Q 3944 3084 3684 2787 
Q 3425 2491 3425 1978 
L 3425 0 
L 2847 0 
L 2847 2094 
Q 2847 2600 2669 2842 
Q 2491 3084 2119 3084 
Q 1678 3084 1418 2786 
Q 1159 2488 1159 1978 
L 1159 0 
L 581 0 
L 581 3500 
L 1159 3500 
L 1159 2956 
Q 1356 3278 1631 3431 
Q 1906 3584 2284 3584 
Q 2666 3584 2933 3390 
Q 3200 3197 3328 2828 
z
" transform="scale(0.015625)"/>
       <path id="DejaVuSans-28" d="M 1984 4856 
Q 1566 4138 1362 3434 
Q 1159 2731 1159 2009 
Q 1159 1288 1364 580 
Q 1569 -128 1984 -844 
L 1484 -844 
Q 1016 -109 783 600 
Q 550 1309 550 2009 
Q 550 2706 781 3412 
Q 1013 4119 1484 4856 
L 1984 4856 
z
" transform="scale(0.015625)"/>
       <path id="DejaVuSans-73" d="M 2834 3397 
L 2834 2853 
Q 2591 2978 2328 3040 
Q 2066 3103 1784 3103 
Q 1356 3103 1142 2972 
Q 928 2841 928 2578 
Q 928 2378 1081 2264 
Q 1234 2150 1697 2047 
L 1894 2003 
Q 2506 1872 2764 1633 
Q 3022 1394 3022 966 
Q 3022 478 2636 193 
Q 2250 -91 1575 -91 
Q 1294 -91 989 -36 
Q 684 19 347 128 
L 347 722 
Q 666 556 975 473 
Q 1284 391 1588 391 
Q 1994 391 2212 530 
Q 2431 669 2431 922 
Q 2431 1156 2273 1281 
Q 2116 1406 1581 1522 
L 1381 1569 
Q 847 1681 609 1914 
Q 372 2147 372 2553 
Q 372 3047 722 3315 
Q 1072 3584 1716 3584 
Q 2034 3584 2315 3537 
Q 2597 3491 2834 3397 
z
" transform="scale(0.015625)"/>
       <path id="DejaVuSans-29" d="M 513 4856 
L 1013 4856 
Q 1481 4119 1714 3412 
Q 1947 2706 1947 2009 
Q 1947 1309 1714 600 
Q 1481 -109 1013 -844 
L 513 -844 
Q 928 -128 1133 580 
Q 1338 1288 1338 2009 
Q 1338 2731 1133 3434 
Q 928 4138 513 4856 
z
" transform="scale(0.015625)"/>
      </defs>
      <use xlink:href="#DejaVuSans-41"/>
      <use xlink:href="#DejaVuSans-76" x="62.533203"/>
      <use xlink:href="#DejaVuSans-65" x="121.712891"/>
      <use xlink:href="#DejaVuSans-72" x="183.236328"/>
      <use xlink:href="#DejaVuSans-61" x="224.349609"/>
      <use xlink:href="#DejaVuSans-67" x="285.628906"/>
      <use xlink:href="#DejaVuSans-65" x="349.105469"/>
      <use xlink:href="#DejaVuSans-20" x="410.628906"/>
      <use xlink:href="#DejaVuSans-4c" x="442.416016"/>
      <use xlink:href="#DejaVuSans-6f" x="496.378906"/>
      <use xlink:href="#DejaVuSans-6f" x="557.560547"/>
      <use xlink:href="#DejaVuSans-6b" x="618.742188"/>
      <use xlink:href="#DejaVuSans-75" x="673.527344"/>
      <use xlink:href="#DejaVuSans-70" x="736.90625"/>
      <use xlink:href="#DejaVuSans-20" x="800.382812"/>
      <use xlink:href="#DejaVuSans-54" x="832.169922"/>
      <use xlink:href="#DejaVuSans-69" x="890.128906"/>
      <use xlink:href="#DejaVuSans-6d" x="917.912109"/>
      <use xlink:href="#DejaVuSans-65" x="1015.324219"/>
      <use xlink:href="#DejaVuSans-20" x="1076.847656"/>
      <use xlink:href="#DejaVuSans-28" x="1108.634766"/>
      <use xlink:href="#DejaVuSans-6d" x="1147.648438"/>
      <use xlink:href="#DejaVuSans-73" x="1245.060547"/>
      <use xlink:href="#DejaVuSans-29" x="1297.160156"/>
     </g>
    </g>
   </g>
   <g id="patch_131">
    <path d="M 47.45 387.16 
L 47.45 27.6 
" style="fill: none; stroke: #000000; stroke-width: 0.8; stroke-linejoin: miter; stroke-linecap: square"/>
   </g>
   <g id="patch_132">
    <path d="M 714.01 387.16 
L 714.01 27.6 
" style="fill: none; stroke: #000000; stroke-width: 0.8; stroke-linejoin: miter; stroke-linecap: square"/>
   </g>
   <g id="patch_133">
    <path d="M 47.45 387.16 
L 714.01 387.16 
" style="fill: none; stroke: #000000; stroke-width: 0.8; stroke-linejoin: miter; stroke-linecap: square"/>
   </g>
   <g id="patch_134">
    <path d="M 47.45 27.6 
L 714.01 27.6 
" style="fill: none; stroke: #000000; stroke-width: 0.8; stroke-linejoin: miter; stroke-linecap: square"/>
   </g>
   <g id="text_27">
    <!-- Epycbox - HDD Drives -->
    <g transform="translate(303.666562 21.6) scale(0.14 -0.14)">
     <defs>
      <path id="DejaVuSans-45" d="M 628 4666 
L 3578 4666 
L 3578 4134 
L 1259 4134 
L 1259 2753 
L 3481 2753 
L 3481 2222 
L 1259 2222 
L 1259 531 
L 3634 531 
L 3634 0 
L 628 0 
L 628 4666 
z
" transform="scale(0.015625)"/>
      <path id="DejaVuSans-79" d="M 2059 -325 
Q 1816 -950 1584 -1140 
Q 1353 -1331 966 -1331 
L 506 -1331 
L 506 -850 
L 844 -850 
Q 1081 -850 1212 -737 
Q 1344 -625 1503 -206 
L 1606 56 
L 191 3500 
L 800 3500 
L 1894 763 
L 2988 3500 
L 3597 3500 
L 2059 -325 
z
" transform="scale(0.015625)"/>
      <path id="DejaVuSans-63" d="M 3122 3366 
L 3122 2828 
Q 2878 2963 2633 3030 
Q 2388 3097 2138 3097 
Q 1578 3097 1268 2742 
Q 959 2388 959 1747 
Q 959 1106 1268 751 
Q 1578 397 2138 397 
Q 2388 397 2633 464 
Q 2878 531 3122 666 
L 3122 134 
Q 2881 22 2623 -34 
Q 2366 -91 2075 -91 
Q 1284 -91 818 406 
Q 353 903 353 1747 
Q 353 2603 823 3093 
Q 1294 3584 2113 3584 
Q 2378 3584 2631 3529 
Q 2884 3475 3122 3366 
z
" transform="scale(0.015625)"/>
      <path id="DejaVuSans-62" d="M 3116 1747 
Q 3116 2381 2855 2742 
Q 2594 3103 2138 3103 
Q 1681 3103 1420 2742 
Q 1159 2381 1159 1747 
Q 1159 1113 1420 752 
Q 1681 391 2138 391 
Q 2594 391 2855 752 
Q 3116 1113 3116 1747 
z
M 1159 2969 
Q 1341 3281 1617 3432 
Q 1894 3584 2278 3584 
Q 2916 3584 3314 3078 
Q 3713 2572 3713 1747 
Q 3713 922 3314 415 
Q 2916 -91 2278 -91 
Q 1894 -91 1617 61 
Q 1341 213 1159 525 
L 1159 0 
L 581 0 
L 581 4863 
L 1159 4863 
L 1159 2969 
z
" transform="scale(0.015625)"/>
      <path id="DejaVuSans-78" d="M 3513 3500 
L 2247 1797 
L 3578 0 
L 2900 0 
L 1881 1375 
L 863 0 
L 184 0 
L 1544 1831 
L 300 3500 
L 978 3500 
L 1906 2253 
L 2834 3500 
L 3513 3500 
z
" transform="scale(0.015625)"/>
      <path id="DejaVuSans-2d" d="M 313 2009 
L 1997 2009 
L 1997 1497 
L 313 1497 
L 313 2009 
z
" transform="scale(0.015625)"/>
      <path id="DejaVuSans-48" d="M 628 4666 
L 1259 4666 
L 1259 2753 
L 3553 2753 
L 3553 4666 
L 4184 4666 
L 4184 0 
L 3553 0 
L 3553 2222 
L 1259 2222 
L 1259 0 
L 628 0 
L 628 4666 
z
" transform="scale(0.015625)"/>
      <path id="DejaVuSans-44" d="M 1259 4147 
L 1259 519 
L 2022 519 
Q 2988 519 3436 956 
Q 3884 1394 3884 2338 
Q 3884 3275 3436 3711 
Q 2988 4147 2022 4147 
L 1259 4147 
z
M 628 4666 
L 1925 4666 
Q 3281 4666 3915 4102 
Q 4550 3538 4550 2338 
Q 4550 1131 3912 565 
Q 3275 0 1925 0 
L 628 0 
L 628 4666 
z
" transform="scale(0.015625)"/>
     </defs>
     <use xlink:href="#DejaVuSans-45"/>
     <use xlink:href="#DejaVuSans-70" x="63.183594"/>
     <use xlink:href="#DejaVuSans-79" x="126.660156"/>
     <use xlink:href="#DejaVuSans-63" x="185.839844"/>
     <use xlink:href="#DejaVuSans-62" x="240.820312"/>
     <use xlink:href="#DejaVuSans-6f" x="304.296875"/>
     <use xlink:href="#DejaVuSans-78" x="362.353516"/>
     <use xlink:href="#DejaVuSans-20" x="421.533203"/>
     <use xlink:href="#DejaVuSans-2d" x="453.320312"/>
     <use xlink:href="#DejaVuSans-20" x="489.404297"/>
     <use xlink:href="#DejaVuSans-48" x="521.191406"/>
     <use xlink:href="#DejaVuSans-44" x="596.386719"/>
     <use xlink:href="#DejaVuSans-44" x="673.388672"/>
     <use xlink:href="#DejaVuSans-20" x="750.390625"/>
     <use xlink:href="#DejaVuSans-44" x="782.177734"/>
     <use xlink:href="#DejaVuSans-72" x="859.179688"/>
     <use xlink:href="#DejaVuSans-69" x="900.292969"/>
     <use xlink:href="#DejaVuSans-76" x="928.076172"/>
     <use xlink:href="#DejaVuSans-65" x="987.255859"/>
     <use xlink:href="#DejaVuSans-73" x="1048.779297"/>
    </g>
   </g>
   <g id="legend_1">
    <g id="patch_135">
     <path d="M 754.338 167.703125 
L 851.142687 167.703125 
Q 853.142687 167.703125 853.142687 165.703125 
L 853.142687 34.6 
Q 853.142687 32.6 851.142687 32.6 
L 754.338 32.6 
Q 752.338 32.6 752.338 34.6 
L 752.338 165.703125 
Q 752.338 167.703125 754.338 167.703125 
z
" style="fill: #ffffff; opacity: 0.8; stroke: #cccccc; stroke-linejoin: miter"/>
    </g>
    <g id="text_28">
     <!-- Hash Size -->
     <g transform="translate(778.289562 44.198438) scale(0.1 -0.1)">
      <defs>
       <path id="DejaVuSans-68" d="M 3513 2113 
L 3513 0 
L 2938 0 
L 2938 2094 
Q 2938 2591 2744 2837 
Q 2550 3084 2163 3084 
Q 1697 3084 1428 2787 
Q 1159 2491 1159 1978 
L 1159 0 
L 581 0 
L 581 4863 
L 1159 4863 
L 1159 2956 
Q 1366 3272 1645 3428 
Q 1925 3584 2291 3584 
Q 2894 3584 3203 3211 
Q 3513 2838 3513 2113 
z
" transform="scale(0.015625)"/>
       <path id="DejaVuSans-53" d="M 3425 4513 
L 3425 3897 
Q 3066 4069 2747 4153 
Q 2428 4238 2131 4238 
Q 1616 4238 1336 4038 
Q 1056 3838 1056 3469 
Q 1056 3159 1242 3001 
Q 1428 2844 1947 2747 
L 2328 2669 
Q 3034 2534 3370 2195 
Q 3706 1856 3706 1288 
Q 3706 609 3251 259 
Q 2797 -91 1919 -91 
Q 1588 -91 1214 -16 
Q 841 59 441 206 
L 441 856 
Q 825 641 1194 531 
Q 1563 422 1919 422 
Q 2459 422 2753 634 
Q 3047 847 3047 1241 
Q 3047 1584 2836 1778 
Q 2625 1972 2144 2069 
L 1759 2144 
Q 1053 2284 737 2584 
Q 422 2884 422 3419 
Q 422 4038 858 4394 
Q 1294 4750 2059 4750 
Q 2388 4750 2728 4690 
Q 3069 4631 3425 4513 
z
" transform="scale(0.015625)"/>
       <path id="DejaVuSans-7a" d="M 353 3500 
L 3084 3500 
L 3084 2975 
L 922 459 
L 3084 459 
L 3084 0 
L 275 0 
L 275 525 
L 2438 3041 
L 353 3041 
L 353 3500 
z
" transform="scale(0.015625)"/>
      </defs>
      <use xlink:href="#DejaVuSans-48"/>
      <use xlink:href="#DejaVuSans-61" x="75.195312"/>
      <use xlink:href="#DejaVuSans-73" x="136.474609"/>
      <use xlink:href="#DejaVuSans-68" x="188.574219"/>
      <use xlink:href="#DejaVuSans-20" x="251.953125"/>
      <use xlink:href="#DejaVuSans-53" x="283.740234"/>
      <use xlink:href="#DejaVuSans-69" x="347.216797"/>
      <use xlink:href="#DejaVuSans-7a" x="375"/>
      <use xlink:href="#DejaVuSans-65" x="427.490234"/>
     </g>
    </g>
    <g id="patch_136">
     <path d="M 756.338 58.876563 
L 776.338 58.876563 
L 776.338 51.876563 
L 756.338 51.876563 
z
" style="fill: #1f77b4"/>
    </g>
    <g id="text_29">
     <!-- Hash Size 3 -->
     <g transform="translate(784.338 58.876563) scale(0.1 -0.1)">
      <use xlink:href="#DejaVuSans-48"/>
      <use xlink:href="#DejaVuSans-61" x="75.195312"/>
      <use xlink:href="#DejaVuSans-73" x="136.474609"/>
      <use xlink:href="#DejaVuSans-68" x="188.574219"/>
      <use xlink:href="#DejaVuSans-20" x="251.953125"/>
      <use xlink:href="#DejaVuSans-53" x="283.740234"/>
      <use xlink:href="#DejaVuSans-69" x="347.216797"/>
      <use xlink:href="#DejaVuSans-7a" x="375"/>
      <use xlink:href="#DejaVuSans-65" x="427.490234"/>
      <use xlink:href="#DejaVuSans-20" x="489.013672"/>
      <use xlink:href="#DejaVuSans-33" x="520.800781"/>
     </g>
    </g>
    <g id="patch_137">
     <path d="M 756.338 73.554688 
L 776.338 73.554688 
L 776.338 66.554688 
L 756.338 66.554688 
z
" style="fill: #ff7f0e"/>
    </g>
    <g id="text_30">
     <!-- Hash Size 4 -->
     <g transform="translate(784.338 73.554688) scale(0.1 -0.1)">
      <use xlink:href="#DejaVuSans-48"/>
      <use xlink:href="#DejaVuSans-61" x="75.195312"/>
      <use xlink:href="#DejaVuSans-73" x="136.474609"/>
      <use xlink:href="#DejaVuSans-68" x="188.574219"/>
      <use xlink:href="#DejaVuSans-20" x="251.953125"/>
      <use xlink:href="#DejaVuSans-53" x="283.740234"/>
      <use xlink:href="#DejaVuSans-69" x="347.216797"/>
      <use xlink:href="#DejaVuSans-7a" x="375"/>
      <use xlink:href="#DejaVuSans-65" x="427.490234"/>
      <use xlink:href="#DejaVuSans-20" x="489.013672"/>
      <use xlink:href="#DejaVuSans-34" x="520.800781"/>
     </g>
    </g>
    <g id="patch_138">
     <path d="M 756.338 88.232813 
L 776.338 88.232813 
L 776.338 81.232813 
L 756.338 81.232813 
z
" style="fill: #2ca02c"/>
    </g>
    <g id="text_31">
     <!-- Hash Size 5 -->
     <g transform="translate(784.338 88.232813) scale(0.1 -0.1)">
      <use xlink:href="#DejaVuSans-48"/>
      <use xlink:href="#DejaVuSans-61" x="75.195312"/>
      <use xlink:href="#DejaVuSans-73" x="136.474609"/>
      <use xlink:href="#DejaVuSans-68" x="188.574219"/>
      <use xlink:href="#DejaVuSans-20" x="251.953125"/>
      <use xlink:href="#DejaVuSans-53" x="283.740234"/>
      <use xlink:href="#DejaVuSans-69" x="347.216797"/>
      <use xlink:href="#DejaVuSans-7a" x="375"/>
      <use xlink:href="#DejaVuSans-65" x="427.490234"/>
      <use xlink:href="#DejaVuSans-20" x="489.013672"/>
      <use xlink:href="#DejaVuSans-35" x="520.800781"/>
     </g>
    </g>
    <g id="patch_139">
     <path d="M 756.338 102.910938 
L 776.338 102.910938 
L 776.338 95.910938 
L 756.338 95.910938 
z
" style="fill: #d62728"/>
    </g>
    <g id="text_32">
     <!-- Hash Size 6 -->
     <g transform="translate(784.338 102.910938) scale(0.1 -0.1)">
      <use xlink:href="#DejaVuSans-48"/>
      <use xlink:href="#DejaVuSans-61" x="75.195312"/>
      <use xlink:href="#DejaVuSans-73" x="136.474609"/>
      <use xlink:href="#DejaVuSans-68" x="188.574219"/>
      <use xlink:href="#DejaVuSans-20" x="251.953125"/>
      <use xlink:href="#DejaVuSans-53" x="283.740234"/>
      <use xlink:href="#DejaVuSans-69" x="347.216797"/>
      <use xlink:href="#DejaVuSans-7a" x="375"/>
      <use xlink:href="#DejaVuSans-65" x="427.490234"/>
      <use xlink:href="#DejaVuSans-20" x="489.013672"/>
      <use xlink:href="#DejaVuSans-36" x="520.800781"/>
     </g>
    </g>
    <g id="patch_140">
     <path d="M 756.338 117.589063 
L 776.338 117.589063 
L 776.338 110.589063 
L 756.338 110.589063 
z
" style="fill: #9467bd"/>
    </g>
    <g id="text_33">
     <!-- Hash Size 7 -->
     <g transform="translate(784.338 117.589063) scale(0.1 -0.1)">
      <use xlink:href="#DejaVuSans-48"/>
      <use xlink:href="#DejaVuSans-61" x="75.195312"/>
      <use xlink:href="#DejaVuSans-73" x="136.474609"/>
      <use xlink:href="#DejaVuSans-68" x="188.574219"/>
      <use xlink:href="#DejaVuSans-20" x="251.953125"/>
      <use xlink:href="#DejaVuSans-53" x="283.740234"/>
      <use xlink:href="#DejaVuSans-69" x="347.216797"/>
      <use xlink:href="#DejaVuSans-7a" x="375"/>
      <use xlink:href="#DejaVuSans-65" x="427.490234"/>
      <use xlink:href="#DejaVuSans-20" x="489.013672"/>
      <use xlink:href="#DejaVuSans-37" x="520.800781"/>
     </g>
    </g>
    <g id="patch_141">
     <path d="M 756.338 132.267188 
L 776.338 132.267188 
L 776.338 125.267188 
L 756.338 125.267188 
z
" style="fill: #8c564b"/>
    </g>
    <g id="text_34">
     <!-- Hash Size 8 -->
     <g transform="translate(784.338 132.267188) scale(0.1 -0.1)">
      <use xlink:href="#DejaVuSans-48"/>
      <use xlink:href="#DejaVuSans-61" x="75.195312"/>
      <use xlink:href="#DejaVuSans-73" x="136.474609"/>
      <use xlink:href="#DejaVuSans-68" x="188.574219"/>
      <use xlink:href="#DejaVuSans-20" x="251.953125"/>
      <use xlink:href="#DejaVuSans-53" x="283.740234"/>
      <use xlink:href="#DejaVuSans-69" x="347.216797"/>
      <use xlink:href="#DejaVuSans-7a" x="375"/>
      <use xlink:href="#DejaVuSans-65" x="427.490234"/>
      <use xlink:href="#DejaVuSans-20" x="489.013672"/>
      <use xlink:href="#DejaVuSans-38" x="520.800781"/>
     </g>
    </g>
    <g id="patch_142">
     <path d="M 756.338 146.945312 
L 776.338 146.945312 
L 776.338 139.945312 
L 756.338 139.945312 
z
" style="fill: #e377c2"/>
    </g>
    <g id="text_35">
     <!-- Hash Size 16 -->
     <g transform="translate(784.338 146.945312) scale(0.1 -0.1)">
      <use xlink:href="#DejaVuSans-48"/>
      <use xlink:href="#DejaVuSans-61" x="75.195312"/>
      <use xlink:href="#DejaVuSans-73" x="136.474609"/>
      <use xlink:href="#DejaVuSans-68" x="188.574219"/>
      <use xlink:href="#DejaVuSans-20" x="251.953125"/>
      <use xlink:href="#DejaVuSans-53" x="283.740234"/>
      <use xlink:href="#DejaVuSans-69" x="347.216797"/>
      <use xlink:href="#DejaVuSans-7a" x="375"/>
      <use xlink:href="#DejaVuSans-65" x="427.490234"/>
      <use xlink:href="#DejaVuSans-20" x="489.013672"/>
      <use xlink:href="#DejaVuSans-31" x="520.800781"/>
      <use xlink:href="#DejaVuSans-36" x="584.423828"/>
     </g>
    </g>
    <g id="patch_143">
     <path d="M 756.338 161.623438 
L 776.338 161.623438 
L 776.338 154.623438 
L 756.338 154.623438 
z
" style="fill: #7f7f7f"/>
    </g>
    <g id="text_36">
     <!-- Hash Size 32 -->
     <g transform="translate(784.338 161.623438) scale(0.1 -0.1)">
      <use xlink:href="#DejaVuSans-48"/>
      <use xlink:href="#DejaVuSans-61" x="75.195312"/>
      <use xlink:href="#DejaVuSans-73" x="136.474609"/>
      <use xlink:href="#DejaVuSans-68" x="188.574219"/>
      <use xlink:href="#DejaVuSans-20" x="251.953125"/>
      <use xlink:href="#DejaVuSans-53" x="283.740234"/>
      <use xlink:href="#DejaVuSans-69" x="347.216797"/>
      <use xlink:href="#DejaVuSans-7a" x="375"/>
      <use xlink:href="#DejaVuSans-65" x="427.490234"/>
      <use xlink:href="#DejaVuSans-20" x="489.013672"/>
      <use xlink:href="#DejaVuSans-33" x="520.800781"/>
      <use xlink:href="#DejaVuSans-32" x="584.423828"/>
     </g>
    </g>
   </g>
  </g>
 </g>
 <defs>
  <clipPath id="p30ec0e50ac">
   <rect x="47.45" y="27.6" width="666.56" height="359.56"/>
  </clipPath>
 </defs>
</svg>
