<?xml version="1.0" encoding="utf-8" standalone="no"?>
<!DOCTYPE svg PUBLIC "-//W3C//DTD SVG 1.1//EN"
  "http://www.w3.org/Graphics/SVG/1.1/DTD/svg11.dtd">
<svg xmlns:xlink="http://www.w3.org/1999/xlink" width="864pt" height="432pt" viewBox="0 0 864 432" xmlns="http://www.w3.org/2000/svg" version="1.1">
 <metadata>
  <rdf:RDF xmlns:dc="http://purl.org/dc/elements/1.1/" xmlns:cc="http://creativecommons.org/ns#" xmlns:rdf="http://www.w3.org/1999/02/22-rdf-syntax-ns#">
   <cc:Work>
    <dc:type rdf:resource="http://purl.org/dc/dcmitype/StillImage"/>
    <dc:date>2024-12-11T16:47:13.857617</dc:date>
    <dc:format>image/svg+xml</dc:format>
    <dc:creator>
     <cc:Agent>
      <dc:title>Matplotlib v3.9.2, https://matplotlib.org/</dc:title>
     </cc:Agent>
    </dc:creator>
   </cc:Work>
  </rdf:RDF>
 </metadata>
 <defs>
  <style type="text/css">*{stroke-linejoin: round; stroke-linecap: butt}</style>
 </defs>
 <g id="figure_1">
  <g id="patch_1">
   <path d="M 0 432 
L 864 432 
L 864 0 
L 0 0 
z
" style="fill: #ffffff"/>
  </g>
  <g id="axes_1">
   <g id="patch_2">
    <path d="M 56.9 387.16 
L 714.01 387.16 
L 714.01 27.6 
L 56.9 27.6 
z
" style="fill: #ffffff"/>
   </g>
   <g id="patch_3">
    <path d="M 86.768636 387.16 
L 92.864276 387.16 
L 92.864276 294.609163 
L 86.768636 294.609163 
z
" clip-path="url(#pcce2559f93)" style="fill: #1f77b4"/>
   </g>
   <g id="patch_4">
    <path d="M 147.725037 387.16 
L 153.820677 387.16 
L 153.820677 285.35408 
L 147.725037 285.35408 
z
" clip-path="url(#pcce2559f93)" style="fill: #1f77b4"/>
   </g>
   <g id="patch_5">
    <path d="M 208.681438 387.16 
L 214.777078 387.16 
L 214.777078 211.313411 
L 208.681438 211.313411 
z
" clip-path="url(#pcce2559f93)" style="fill: #1f77b4"/>
   </g>
   <g id="patch_6">
    <path d="M 269.637839 387.16 
L 275.733479 387.16 
L 275.733479 285.35408 
L 269.637839 285.35408 
z
" clip-path="url(#pcce2559f93)" style="fill: #1f77b4"/>
   </g>
   <g id="patch_7">
    <path d="M 330.594239 387.16 
L 336.689879 387.16 
L 336.689879 211.313411 
L 330.594239 211.313411 
z
" clip-path="url(#pcce2559f93)" style="fill: #1f77b4"/>
   </g>
   <g id="patch_8">
    <path d="M 391.55064 387.16 
L 397.64628 387.16 
L 397.64628 72.487156 
L 391.55064 72.487156 
z
" clip-path="url(#pcce2559f93)" style="fill: #1f77b4"/>
   </g>
   <g id="patch_9">
    <path d="M 452.507041 387.16 
L 458.602681 387.16 
L 458.602681 44.721905 
L 452.507041 44.721905 
z
" clip-path="url(#pcce2559f93)" style="fill: #1f77b4"/>
   </g>
   <g id="patch_10">
    <path d="M 513.463442 387.16 
L 519.559082 387.16 
L 519.559082 303.864247 
L 513.463442 303.864247 
z
" clip-path="url(#pcce2559f93)" style="fill: #1f77b4"/>
   </g>
   <g id="patch_11">
    <path d="M 574.419842 387.16 
L 580.515482 387.16 
L 580.515482 276.098996 
L 574.419842 276.098996 
z
" clip-path="url(#pcce2559f93)" style="fill: #1f77b4"/>
   </g>
   <g id="patch_12">
    <path d="M 635.376243 387.16 
L 641.471883 387.16 
L 641.471883 257.588829 
L 635.376243 257.588829 
z
" clip-path="url(#pcce2559f93)" style="fill: #1f77b4"/>
   </g>
   <g id="patch_13">
    <path d="M 92.864276 387.16 
L 98.959917 387.16 
L 98.959917 276.098996 
L 92.864276 276.098996 
z
" clip-path="url(#pcce2559f93)" style="fill: #ff7f0e"/>
   </g>
   <g id="patch_14">
    <path d="M 153.820677 387.16 
L 159.916317 387.16 
L 159.916317 220.568494 
L 153.820677 220.568494 
z
" clip-path="url(#pcce2559f93)" style="fill: #ff7f0e"/>
   </g>
   <g id="patch_15">
    <path d="M 214.777078 387.16 
L 220.872718 387.16 
L 220.872718 303.864247 
L 214.777078 303.864247 
z
" clip-path="url(#pcce2559f93)" style="fill: #ff7f0e"/>
   </g>
   <g id="patch_16">
    <path d="M 275.733479 387.16 
L 281.829119 387.16 
L 281.829119 266.843912 
L 275.733479 266.843912 
z
" clip-path="url(#pcce2559f93)" style="fill: #ff7f0e"/>
   </g>
   <g id="patch_17">
    <path d="M 336.689879 387.16 
L 342.785519 387.16 
L 342.785519 229.823578 
L 336.689879 229.823578 
z
" clip-path="url(#pcce2559f93)" style="fill: #ff7f0e"/>
   </g>
   <g id="patch_18">
    <path d="M 397.64628 387.16 
L 403.74192 387.16 
L 403.74192 303.864247 
L 397.64628 303.864247 
z
" clip-path="url(#pcce2559f93)" style="fill: #ff7f0e"/>
   </g>
   <g id="patch_19">
    <path d="M 458.602681 387.16 
L 464.698321 387.16 
L 464.698321 276.098996 
L 458.602681 276.098996 
z
" clip-path="url(#pcce2559f93)" style="fill: #ff7f0e"/>
   </g>
   <g id="patch_20">
    <path d="M 519.559082 387.16 
L 525.654722 387.16 
L 525.654722 294.609163 
L 519.559082 294.609163 
z
" clip-path="url(#pcce2559f93)" style="fill: #ff7f0e"/>
   </g>
   <g id="patch_21">
    <path d="M 580.515482 387.16 
L 586.611122 387.16 
L 586.611122 294.609163 
L 580.515482 294.609163 
z
" clip-path="url(#pcce2559f93)" style="fill: #ff7f0e"/>
   </g>
   <g id="patch_22">
    <path d="M 641.471883 387.16 
L 647.567523 387.16 
L 647.567523 266.843912 
L 641.471883 266.843912 
z
" clip-path="url(#pcce2559f93)" style="fill: #ff7f0e"/>
   </g>
   <g id="patch_23">
    <path d="M 98.959917 387.16 
L 105.055557 387.16 
L 105.055557 192.803243 
L 98.959917 192.803243 
z
" clip-path="url(#pcce2559f93)" style="fill: #2ca02c"/>
   </g>
   <g id="patch_24">
    <path d="M 159.916317 387.16 
L 166.011957 387.16 
L 166.011957 239.078662 
L 159.916317 239.078662 
z
" clip-path="url(#pcce2559f93)" style="fill: #2ca02c"/>
   </g>
   <g id="patch_25">
    <path d="M 220.872718 387.16 
L 226.968358 387.16 
L 226.968358 313.119331 
L 220.872718 313.119331 
z
" clip-path="url(#pcce2559f93)" style="fill: #2ca02c"/>
   </g>
   <g id="patch_26">
    <path d="M 281.829119 387.16 
L 287.924759 387.16 
L 287.924759 303.864247 
L 281.829119 303.864247 
z
" clip-path="url(#pcce2559f93)" style="fill: #2ca02c"/>
   </g>
   <g id="patch_27">
    <path d="M 342.785519 387.16 
L 348.88116 387.16 
L 348.88116 313.119331 
L 342.785519 313.119331 
z
" clip-path="url(#pcce2559f93)" style="fill: #2ca02c"/>
   </g>
   <g id="patch_28">
    <path d="M 403.74192 387.16 
L 409.83756 387.16 
L 409.83756 257.588829 
L 403.74192 257.588829 
z
" clip-path="url(#pcce2559f93)" style="fill: #2ca02c"/>
   </g>
   <g id="patch_29">
    <path d="M 464.698321 387.16 
L 470.793961 387.16 
L 470.793961 266.843912 
L 464.698321 266.843912 
z
" clip-path="url(#pcce2559f93)" style="fill: #2ca02c"/>
   </g>
   <g id="patch_30">
    <path d="M 525.654722 387.16 
L 531.750362 387.16 
L 531.750362 285.35408 
L 525.654722 285.35408 
z
" clip-path="url(#pcce2559f93)" style="fill: #2ca02c"/>
   </g>
   <g id="patch_31">
    <path d="M 586.611122 387.16 
L 592.706763 387.16 
L 592.706763 266.843912 
L 586.611122 266.843912 
z
" clip-path="url(#pcce2559f93)" style="fill: #2ca02c"/>
   </g>
   <g id="patch_32">
    <path d="M 647.567523 387.16 
L 653.663163 387.16 
L 653.663163 266.843912 
L 647.567523 266.843912 
z
" clip-path="url(#pcce2559f93)" style="fill: #2ca02c"/>
   </g>
   <g id="patch_33">
    <path d="M 105.055557 387.16 
L 111.151197 387.16 
L 111.151197 313.119331 
L 105.055557 313.119331 
z
" clip-path="url(#pcce2559f93)" style="fill: #d62728"/>
   </g>
   <g id="patch_34">
    <path d="M 166.011957 387.16 
L 172.107597 387.16 
L 172.107597 248.333745 
L 166.011957 248.333745 
z
" clip-path="url(#pcce2559f93)" style="fill: #d62728"/>
   </g>
   <g id="patch_35">
    <path d="M 226.968358 387.16 
L 233.063998 387.16 
L 233.063998 257.588829 
L 226.968358 257.588829 
z
" clip-path="url(#pcce2559f93)" style="fill: #d62728"/>
   </g>
   <g id="patch_36">
    <path d="M 287.924759 387.16 
L 294.020399 387.16 
L 294.020399 192.803243 
L 287.924759 192.803243 
z
" clip-path="url(#pcce2559f93)" style="fill: #d62728"/>
   </g>
   <g id="patch_37">
    <path d="M 348.88116 387.16 
L 354.9768 387.16 
L 354.9768 313.119331 
L 348.88116 313.119331 
z
" clip-path="url(#pcce2559f93)" style="fill: #d62728"/>
   </g>
   <g id="patch_38">
    <path d="M 409.83756 387.16 
L 415.9332 387.16 
L 415.9332 174.293076 
L 409.83756 174.293076 
z
" clip-path="url(#pcce2559f93)" style="fill: #d62728"/>
   </g>
   <g id="patch_39">
    <path d="M 470.793961 387.16 
L 476.889601 387.16 
L 476.889601 257.588829 
L 470.793961 257.588829 
z
" clip-path="url(#pcce2559f93)" style="fill: #d62728"/>
   </g>
   <g id="patch_40">
    <path d="M 531.750362 387.16 
L 537.846002 387.16 
L 537.846002 285.35408 
L 531.750362 285.35408 
z
" clip-path="url(#pcce2559f93)" style="fill: #d62728"/>
   </g>
   <g id="patch_41">
    <path d="M 592.706763 387.16 
L 598.802403 387.16 
L 598.802403 285.35408 
L 592.706763 285.35408 
z
" clip-path="url(#pcce2559f93)" style="fill: #d62728"/>
   </g>
   <g id="patch_42">
    <path d="M 653.663163 387.16 
L 659.758803 387.16 
L 659.758803 239.078662 
L 653.663163 239.078662 
z
" clip-path="url(#pcce2559f93)" style="fill: #d62728"/>
   </g>
   <g id="patch_43">
    <path d="M 111.151197 387.16 
L 117.246837 387.16 
L 117.246837 248.333745 
L 111.151197 248.333745 
z
" clip-path="url(#pcce2559f93)" style="fill: #9467bd"/>
   </g>
   <g id="patch_44">
    <path d="M 172.107597 387.16 
L 178.203237 387.16 
L 178.203237 294.609163 
L 172.107597 294.609163 
z
" clip-path="url(#pcce2559f93)" style="fill: #9467bd"/>
   </g>
   <g id="patch_45">
    <path d="M 233.063998 387.16 
L 239.159638 387.16 
L 239.159638 239.078662 
L 233.063998 239.078662 
z
" clip-path="url(#pcce2559f93)" style="fill: #9467bd"/>
   </g>
   <g id="patch_46">
    <path d="M 294.020399 387.16 
L 300.116039 387.16 
L 300.116039 192.803243 
L 294.020399 192.803243 
z
" clip-path="url(#pcce2559f93)" style="fill: #9467bd"/>
   </g>
   <g id="patch_47">
    <path d="M 354.9768 387.16 
L 361.07244 387.16 
L 361.07244 276.098996 
L 354.9768 276.098996 
z
" clip-path="url(#pcce2559f93)" style="fill: #9467bd"/>
   </g>
   <g id="patch_48">
    <path d="M 415.9332 387.16 
L 422.02884 387.16 
L 422.02884 285.35408 
L 415.9332 285.35408 
z
" clip-path="url(#pcce2559f93)" style="fill: #9467bd"/>
   </g>
   <g id="patch_49">
    <path d="M 476.889601 387.16 
L 482.985241 387.16 
L 482.985241 285.35408 
L 476.889601 285.35408 
z
" clip-path="url(#pcce2559f93)" style="fill: #9467bd"/>
   </g>
   <g id="patch_50">
    <path d="M 537.846002 387.16 
L 543.941642 387.16 
L 543.941642 229.823578 
L 537.846002 229.823578 
z
" clip-path="url(#pcce2559f93)" style="fill: #9467bd"/>
   </g>
   <g id="patch_51">
    <path d="M 598.802403 387.16 
L 604.898043 387.16 
L 604.898043 294.609163 
L 598.802403 294.609163 
z
" clip-path="url(#pcce2559f93)" style="fill: #9467bd"/>
   </g>
   <g id="patch_52">
    <path d="M 659.758803 387.16 
L 665.854443 387.16 
L 665.854443 118.762574 
L 659.758803 118.762574 
z
" clip-path="url(#pcce2559f93)" style="fill: #9467bd"/>
   </g>
   <g id="patch_53">
    <path d="M 117.246837 387.16 
L 123.342477 387.16 
L 123.342477 211.313411 
L 117.246837 211.313411 
z
" clip-path="url(#pcce2559f93)" style="fill: #8c564b"/>
   </g>
   <g id="patch_54">
    <path d="M 178.203237 387.16 
L 184.298878 387.16 
L 184.298878 248.333745 
L 178.203237 248.333745 
z
" clip-path="url(#pcce2559f93)" style="fill: #8c564b"/>
   </g>
   <g id="patch_55">
    <path d="M 239.159638 387.16 
L 245.255278 387.16 
L 245.255278 294.609163 
L 239.159638 294.609163 
z
" clip-path="url(#pcce2559f93)" style="fill: #8c564b"/>
   </g>
   <g id="patch_56">
    <path d="M 300.116039 387.16 
L 306.211679 387.16 
L 306.211679 266.843912 
L 300.116039 266.843912 
z
" clip-path="url(#pcce2559f93)" style="fill: #8c564b"/>
   </g>
   <g id="patch_57">
    <path d="M 361.07244 387.16 
L 367.16808 387.16 
L 367.16808 211.313411 
L 361.07244 211.313411 
z
" clip-path="url(#pcce2559f93)" style="fill: #8c564b"/>
   </g>
   <g id="patch_58">
    <path d="M 422.02884 387.16 
L 428.124481 387.16 
L 428.124481 285.35408 
L 422.02884 285.35408 
z
" clip-path="url(#pcce2559f93)" style="fill: #8c564b"/>
   </g>
   <g id="patch_59">
    <path d="M 482.985241 387.16 
L 489.080881 387.16 
L 489.080881 303.864247 
L 482.985241 303.864247 
z
" clip-path="url(#pcce2559f93)" style="fill: #8c564b"/>
   </g>
   <g id="patch_60">
    <path d="M 543.941642 387.16 
L 550.037282 387.16 
L 550.037282 285.35408 
L 543.941642 285.35408 
z
" clip-path="url(#pcce2559f93)" style="fill: #8c564b"/>
   </g>
   <g id="patch_61">
    <path d="M 604.898043 387.16 
L 610.993683 387.16 
L 610.993683 294.609163 
L 604.898043 294.609163 
z
" clip-path="url(#pcce2559f93)" style="fill: #8c564b"/>
   </g>
   <g id="patch_62">
    <path d="M 665.854443 387.16 
L 671.950083 387.16 
L 671.950083 174.293076 
L 665.854443 174.293076 
z
" clip-path="url(#pcce2559f93)" style="fill: #8c564b"/>
   </g>
   <g id="patch_63">
    <path d="M 123.342477 387.16 
L 129.438117 387.16 
L 129.438117 303.864247 
L 123.342477 303.864247 
z
" clip-path="url(#pcce2559f93)" style="fill: #e377c2"/>
   </g>
   <g id="patch_64">
    <path d="M 184.298878 387.16 
L 190.394518 387.16 
L 190.394518 313.119331 
L 184.298878 313.119331 
z
" clip-path="url(#pcce2559f93)" style="fill: #e377c2"/>
   </g>
   <g id="patch_65">
    <path d="M 245.255278 387.16 
L 251.350918 387.16 
L 251.350918 313.119331 
L 245.255278 313.119331 
z
" clip-path="url(#pcce2559f93)" style="fill: #e377c2"/>
   </g>
   <g id="patch_66">
    <path d="M 306.211679 387.16 
L 312.307319 387.16 
L 312.307319 313.119331 
L 306.211679 313.119331 
z
" clip-path="url(#pcce2559f93)" style="fill: #e377c2"/>
   </g>
   <g id="patch_67">
    <path d="M 367.16808 387.16 
L 373.26372 387.16 
L 373.26372 313.119331 
L 367.16808 313.119331 
z
" clip-path="url(#pcce2559f93)" style="fill: #e377c2"/>
   </g>
   <g id="patch_68">
    <path d="M 428.124481 387.16 
L 434.220121 387.16 
L 434.220121 303.864247 
L 428.124481 303.864247 
z
" clip-path="url(#pcce2559f93)" style="fill: #e377c2"/>
   </g>
   <g id="patch_69">
    <path d="M 489.080881 387.16 
L 495.176521 387.16 
L 495.176521 303.864247 
L 489.080881 303.864247 
z
" clip-path="url(#pcce2559f93)" style="fill: #e377c2"/>
   </g>
   <g id="patch_70">
    <path d="M 550.037282 387.16 
L 556.132922 387.16 
L 556.132922 202.058327 
L 550.037282 202.058327 
z
" clip-path="url(#pcce2559f93)" style="fill: #e377c2"/>
   </g>
   <g id="patch_71">
    <path d="M 610.993683 387.16 
L 617.089323 387.16 
L 617.089323 239.078662 
L 610.993683 239.078662 
z
" clip-path="url(#pcce2559f93)" style="fill: #e377c2"/>
   </g>
   <g id="patch_72">
    <path d="M 671.950083 387.16 
L 678.045724 387.16 
L 678.045724 239.078662 
L 671.950083 239.078662 
z
" clip-path="url(#pcce2559f93)" style="fill: #e377c2"/>
   </g>
   <g id="patch_73">
    <path d="M 129.438117 387.16 
L 135.533757 387.16 
L 135.533757 313.119331 
L 129.438117 313.119331 
z
" clip-path="url(#pcce2559f93)" style="fill: #7f7f7f"/>
   </g>
   <g id="patch_74">
    <path d="M 190.394518 387.16 
L 196.490158 387.16 
L 196.490158 313.119331 
L 190.394518 313.119331 
z
" clip-path="url(#pcce2559f93)" style="fill: #7f7f7f"/>
   </g>
   <g id="patch_75">
    <path d="M 251.350918 387.16 
L 257.446558 387.16 
L 257.446558 285.35408 
L 251.350918 285.35408 
z
" clip-path="url(#pcce2559f93)" style="fill: #7f7f7f"/>
   </g>
   <g id="patch_76">
    <path d="M 312.307319 387.16 
L 318.402959 387.16 
L 318.402959 313.119331 
L 312.307319 313.119331 
z
" clip-path="url(#pcce2559f93)" style="fill: #7f7f7f"/>
   </g>
   <g id="patch_77">
    <path d="M 373.26372 387.16 
L 379.35936 387.16 
L 379.35936 303.864247 
L 373.26372 303.864247 
z
" clip-path="url(#pcce2559f93)" style="fill: #7f7f7f"/>
   </g>
   <g id="patch_78">
    <path d="M 434.220121 387.16 
L 440.315761 387.16 
L 440.315761 303.864247 
L 434.220121 303.864247 
z
" clip-path="url(#pcce2559f93)" style="fill: #7f7f7f"/>
   </g>
   <g id="patch_79">
    <path d="M 495.176521 387.16 
L 501.272161 387.16 
L 501.272161 313.119331 
L 495.176521 313.119331 
z
" clip-path="url(#pcce2559f93)" style="fill: #7f7f7f"/>
   </g>
   <g id="patch_80">
    <path d="M 556.132922 387.16 
L 562.228562 387.16 
L 562.228562 285.35408 
L 556.132922 285.35408 
z
" clip-path="url(#pcce2559f93)" style="fill: #7f7f7f"/>
   </g>
   <g id="patch_81">
    <path d="M 617.089323 387.16 
L 623.184963 387.16 
L 623.184963 220.568494 
L 617.089323 220.568494 
z
" clip-path="url(#pcce2559f93)" style="fill: #7f7f7f"/>
   </g>
   <g id="patch_82">
    <path d="M 678.045724 387.16 
L 684.141364 387.16 
L 684.141364 266.843912 
L 678.045724 266.843912 
z
" clip-path="url(#pcce2559f93)" style="fill: #7f7f7f"/>
   </g>
   <g id="matplotlib.axis_1">
    <g id="xtick_1">
     <g id="line2d_1">
      <defs>
       <path id="mf9f40c9b03" d="M 0 0 
L 0 3.5 
" style="stroke: #000000; stroke-width: 0.8"/>
      </defs>
      <g>
       <use xlink:href="#mf9f40c9b03" x="89.816456" y="387.16" style="stroke: #000000; stroke-width: 0.8"/>
      </g>
     </g>
     <g id="text_1">
      <!-- 25 -->
      <g transform="translate(83.453956 401.758438) scale(0.1 -0.1)">
       <defs>
        <path id="DejaVuSans-32" d="M 1228 531 
L 3431 531 
L 3431 0 
L 469 0 
L 469 531 
Q 828 903 1448 1529 
Q 2069 2156 2228 2338 
Q 2531 2678 2651 2914 
Q 2772 3150 2772 3378 
Q 2772 3750 2511 3984 
Q 2250 4219 1831 4219 
Q 1534 4219 1204 4116 
Q 875 4013 500 3803 
L 500 4441 
Q 881 4594 1212 4672 
Q 1544 4750 1819 4750 
Q 2544 4750 2975 4387 
Q 3406 4025 3406 3419 
Q 3406 3131 3298 2873 
Q 3191 2616 2906 2266 
Q 2828 2175 2409 1742 
Q 1991 1309 1228 531 
z
" transform="scale(0.015625)"/>
        <path id="DejaVuSans-35" d="M 691 4666 
L 3169 4666 
L 3169 4134 
L 1269 4134 
L 1269 2991 
Q 1406 3038 1543 3061 
Q 1681 3084 1819 3084 
Q 2600 3084 3056 2656 
Q 3513 2228 3513 1497 
Q 3513 744 3044 326 
Q 2575 -91 1722 -91 
Q 1428 -91 1123 -41 
Q 819 9 494 109 
L 494 744 
Q 775 591 1075 516 
Q 1375 441 1709 441 
Q 2250 441 2565 725 
Q 2881 1009 2881 1497 
Q 2881 1984 2565 2268 
Q 2250 2553 1709 2553 
Q 1456 2553 1204 2497 
Q 953 2441 691 2322 
L 691 4666 
z
" transform="scale(0.015625)"/>
       </defs>
       <use xlink:href="#DejaVuSans-32"/>
       <use xlink:href="#DejaVuSans-35" x="63.623047"/>
      </g>
     </g>
    </g>
    <g id="xtick_2">
     <g id="line2d_2">
      <g>
       <use xlink:href="#mf9f40c9b03" x="150.772857" y="387.16" style="stroke: #000000; stroke-width: 0.8"/>
      </g>
     </g>
     <g id="text_2">
      <!-- 26 -->
      <g transform="translate(144.410357 401.758438) scale(0.1 -0.1)">
       <defs>
        <path id="DejaVuSans-36" d="M 2113 2584 
Q 1688 2584 1439 2293 
Q 1191 2003 1191 1497 
Q 1191 994 1439 701 
Q 1688 409 2113 409 
Q 2538 409 2786 701 
Q 3034 994 3034 1497 
Q 3034 2003 2786 2293 
Q 2538 2584 2113 2584 
z
M 3366 4563 
L 3366 3988 
Q 3128 4100 2886 4159 
Q 2644 4219 2406 4219 
Q 1781 4219 1451 3797 
Q 1122 3375 1075 2522 
Q 1259 2794 1537 2939 
Q 1816 3084 2150 3084 
Q 2853 3084 3261 2657 
Q 3669 2231 3669 1497 
Q 3669 778 3244 343 
Q 2819 -91 2113 -91 
Q 1303 -91 875 529 
Q 447 1150 447 2328 
Q 447 3434 972 4092 
Q 1497 4750 2381 4750 
Q 2619 4750 2861 4703 
Q 3103 4656 3366 4563 
z
" transform="scale(0.015625)"/>
       </defs>
       <use xlink:href="#DejaVuSans-32"/>
       <use xlink:href="#DejaVuSans-36" x="63.623047"/>
      </g>
     </g>
    </g>
    <g id="xtick_3">
     <g id="line2d_3">
      <g>
       <use xlink:href="#mf9f40c9b03" x="211.729258" y="387.16" style="stroke: #000000; stroke-width: 0.8"/>
      </g>
     </g>
     <g id="text_3">
      <!-- 27 -->
      <g transform="translate(205.366758 401.758438) scale(0.1 -0.1)">
       <defs>
        <path id="DejaVuSans-37" d="M 525 4666 
L 3525 4666 
L 3525 4397 
L 1831 0 
L 1172 0 
L 2766 4134 
L 525 4134 
L 525 4666 
z
" transform="scale(0.015625)"/>
       </defs>
       <use xlink:href="#DejaVuSans-32"/>
       <use xlink:href="#DejaVuSans-37" x="63.623047"/>
      </g>
     </g>
    </g>
    <g id="xtick_4">
     <g id="line2d_4">
      <g>
       <use xlink:href="#mf9f40c9b03" x="272.685659" y="387.16" style="stroke: #000000; stroke-width: 0.8"/>
      </g>
     </g>
     <g id="text_4">
      <!-- 28 -->
      <g transform="translate(266.323159 401.758438) scale(0.1 -0.1)">
       <defs>
        <path id="DejaVuSans-38" d="M 2034 2216 
Q 1584 2216 1326 1975 
Q 1069 1734 1069 1313 
Q 1069 891 1326 650 
Q 1584 409 2034 409 
Q 2484 409 2743 651 
Q 3003 894 3003 1313 
Q 3003 1734 2745 1975 
Q 2488 2216 2034 2216 
z
M 1403 2484 
Q 997 2584 770 2862 
Q 544 3141 544 3541 
Q 544 4100 942 4425 
Q 1341 4750 2034 4750 
Q 2731 4750 3128 4425 
Q 3525 4100 3525 3541 
Q 3525 3141 3298 2862 
Q 3072 2584 2669 2484 
Q 3125 2378 3379 2068 
Q 3634 1759 3634 1313 
Q 3634 634 3220 271 
Q 2806 -91 2034 -91 
Q 1263 -91 848 271 
Q 434 634 434 1313 
Q 434 1759 690 2068 
Q 947 2378 1403 2484 
z
M 1172 3481 
Q 1172 3119 1398 2916 
Q 1625 2713 2034 2713 
Q 2441 2713 2670 2916 
Q 2900 3119 2900 3481 
Q 2900 3844 2670 4047 
Q 2441 4250 2034 4250 
Q 1625 4250 1398 4047 
Q 1172 3844 1172 3481 
z
" transform="scale(0.015625)"/>
       </defs>
       <use xlink:href="#DejaVuSans-32"/>
       <use xlink:href="#DejaVuSans-38" x="63.623047"/>
      </g>
     </g>
    </g>
    <g id="xtick_5">
     <g id="line2d_5">
      <g>
       <use xlink:href="#mf9f40c9b03" x="333.642059" y="387.16" style="stroke: #000000; stroke-width: 0.8"/>
      </g>
     </g>
     <g id="text_5">
      <!-- 29 -->
      <g transform="translate(327.279559 401.758438) scale(0.1 -0.1)">
       <defs>
        <path id="DejaVuSans-39" d="M 703 97 
L 703 672 
Q 941 559 1184 500 
Q 1428 441 1663 441 
Q 2288 441 2617 861 
Q 2947 1281 2994 2138 
Q 2813 1869 2534 1725 
Q 2256 1581 1919 1581 
Q 1219 1581 811 2004 
Q 403 2428 403 3163 
Q 403 3881 828 4315 
Q 1253 4750 1959 4750 
Q 2769 4750 3195 4129 
Q 3622 3509 3622 2328 
Q 3622 1225 3098 567 
Q 2575 -91 1691 -91 
Q 1453 -91 1209 -44 
Q 966 3 703 97 
z
M 1959 2075 
Q 2384 2075 2632 2365 
Q 2881 2656 2881 3163 
Q 2881 3666 2632 3958 
Q 2384 4250 1959 4250 
Q 1534 4250 1286 3958 
Q 1038 3666 1038 3163 
Q 1038 2656 1286 2365 
Q 1534 2075 1959 2075 
z
" transform="scale(0.015625)"/>
       </defs>
       <use xlink:href="#DejaVuSans-32"/>
       <use xlink:href="#DejaVuSans-39" x="63.623047"/>
      </g>
     </g>
    </g>
    <g id="xtick_6">
     <g id="line2d_6">
      <g>
       <use xlink:href="#mf9f40c9b03" x="394.59846" y="387.16" style="stroke: #000000; stroke-width: 0.8"/>
      </g>
     </g>
     <g id="text_6">
      <!-- 30 -->
      <g transform="translate(388.23596 401.758438) scale(0.1 -0.1)">
       <defs>
        <path id="DejaVuSans-33" d="M 2597 2516 
Q 3050 2419 3304 2112 
Q 3559 1806 3559 1356 
Q 3559 666 3084 287 
Q 2609 -91 1734 -91 
Q 1441 -91 1130 -33 
Q 819 25 488 141 
L 488 750 
Q 750 597 1062 519 
Q 1375 441 1716 441 
Q 2309 441 2620 675 
Q 2931 909 2931 1356 
Q 2931 1769 2642 2001 
Q 2353 2234 1838 2234 
L 1294 2234 
L 1294 2753 
L 1863 2753 
Q 2328 2753 2575 2939 
Q 2822 3125 2822 3475 
Q 2822 3834 2567 4026 
Q 2313 4219 1838 4219 
Q 1578 4219 1281 4162 
Q 984 4106 628 3988 
L 628 4550 
Q 988 4650 1302 4700 
Q 1616 4750 1894 4750 
Q 2613 4750 3031 4423 
Q 3450 4097 3450 3541 
Q 3450 3153 3228 2886 
Q 3006 2619 2597 2516 
z
" transform="scale(0.015625)"/>
        <path id="DejaVuSans-30" d="M 2034 4250 
Q 1547 4250 1301 3770 
Q 1056 3291 1056 2328 
Q 1056 1369 1301 889 
Q 1547 409 2034 409 
Q 2525 409 2770 889 
Q 3016 1369 3016 2328 
Q 3016 3291 2770 3770 
Q 2525 4250 2034 4250 
z
M 2034 4750 
Q 2819 4750 3233 4129 
Q 3647 3509 3647 2328 
Q 3647 1150 3233 529 
Q 2819 -91 2034 -91 
Q 1250 -91 836 529 
Q 422 1150 422 2328 
Q 422 3509 836 4129 
Q 1250 4750 2034 4750 
z
" transform="scale(0.015625)"/>
       </defs>
       <use xlink:href="#DejaVuSans-33"/>
       <use xlink:href="#DejaVuSans-30" x="63.623047"/>
      </g>
     </g>
    </g>
    <g id="xtick_7">
     <g id="line2d_7">
      <g>
       <use xlink:href="#mf9f40c9b03" x="455.554861" y="387.16" style="stroke: #000000; stroke-width: 0.8"/>
      </g>
     </g>
     <g id="text_7">
      <!-- 31 -->
      <g transform="translate(449.192361 401.758438) scale(0.1 -0.1)">
       <defs>
        <path id="DejaVuSans-31" d="M 794 531 
L 1825 531 
L 1825 4091 
L 703 3866 
L 703 4441 
L 1819 4666 
L 2450 4666 
L 2450 531 
L 3481 531 
L 3481 0 
L 794 0 
L 794 531 
z
" transform="scale(0.015625)"/>
       </defs>
       <use xlink:href="#DejaVuSans-33"/>
       <use xlink:href="#DejaVuSans-31" x="63.623047"/>
      </g>
     </g>
    </g>
    <g id="xtick_8">
     <g id="line2d_8">
      <g>
       <use xlink:href="#mf9f40c9b03" x="516.511262" y="387.16" style="stroke: #000000; stroke-width: 0.8"/>
      </g>
     </g>
     <g id="text_8">
      <!-- 32 -->
      <g transform="translate(510.148762 401.758438) scale(0.1 -0.1)">
       <use xlink:href="#DejaVuSans-33"/>
       <use xlink:href="#DejaVuSans-32" x="63.623047"/>
      </g>
     </g>
    </g>
    <g id="xtick_9">
     <g id="line2d_9">
      <g>
       <use xlink:href="#mf9f40c9b03" x="577.467662" y="387.16" style="stroke: #000000; stroke-width: 0.8"/>
      </g>
     </g>
     <g id="text_9">
      <!-- 33 -->
      <g transform="translate(571.105162 401.758438) scale(0.1 -0.1)">
       <use xlink:href="#DejaVuSans-33"/>
       <use xlink:href="#DejaVuSans-33" x="63.623047"/>
      </g>
     </g>
    </g>
    <g id="xtick_10">
     <g id="line2d_10">
      <g>
       <use xlink:href="#mf9f40c9b03" x="638.424063" y="387.16" style="stroke: #000000; stroke-width: 0.8"/>
      </g>
     </g>
     <g id="text_10">
      <!-- 34 -->
      <g transform="translate(632.061563 401.758438) scale(0.1 -0.1)">
       <defs>
        <path id="DejaVuSans-34" d="M 2419 4116 
L 825 1625 
L 2419 1625 
L 2419 4116 
z
M 2253 4666 
L 3047 4666 
L 3047 1625 
L 3713 1625 
L 3713 1100 
L 3047 1100 
L 3047 0 
L 2419 0 
L 2419 1100 
L 313 1100 
L 313 1709 
L 2253 4666 
z
" transform="scale(0.015625)"/>
       </defs>
       <use xlink:href="#DejaVuSans-33"/>
       <use xlink:href="#DejaVuSans-34" x="63.623047"/>
      </g>
     </g>
    </g>
    <g id="xtick_11">
     <g id="line2d_11">
      <g>
       <use xlink:href="#mf9f40c9b03" x="699.380464" y="387.16" style="stroke: #000000; stroke-width: 0.8"/>
      </g>
     </g>
     <g id="text_11">
      <!-- 35 -->
      <g transform="translate(693.017964 401.758438) scale(0.1 -0.1)">
       <use xlink:href="#DejaVuSans-33"/>
       <use xlink:href="#DejaVuSans-35" x="63.623047"/>
      </g>
     </g>
    </g>
    <g id="text_12">
     <!-- K Value -->
     <g transform="translate(363.135937 416.95625) scale(0.12 -0.12)">
      <defs>
       <path id="DejaVuSans-4b" d="M 628 4666 
L 1259 4666 
L 1259 2694 
L 3353 4666 
L 4166 4666 
L 1850 2491 
L 4331 0 
L 3500 0 
L 1259 2247 
L 1259 0 
L 628 0 
L 628 4666 
z
" transform="scale(0.015625)"/>
       <path id="DejaVuSans-20" transform="scale(0.015625)"/>
       <path id="DejaVuSans-56" d="M 1831 0 
L 50 4666 
L 709 4666 
L 2188 738 
L 3669 4666 
L 4325 4666 
L 2547 0 
L 1831 0 
z
" transform="scale(0.015625)"/>
       <path id="DejaVuSans-61" d="M 2194 1759 
Q 1497 1759 1228 1600 
Q 959 1441 959 1056 
Q 959 750 1161 570 
Q 1363 391 1709 391 
Q 2188 391 2477 730 
Q 2766 1069 2766 1631 
L 2766 1759 
L 2194 1759 
z
M 3341 1997 
L 3341 0 
L 2766 0 
L 2766 531 
Q 2569 213 2275 61 
Q 1981 -91 1556 -91 
Q 1019 -91 701 211 
Q 384 513 384 1019 
Q 384 1609 779 1909 
Q 1175 2209 1959 2209 
L 2766 2209 
L 2766 2266 
Q 2766 2663 2505 2880 
Q 2244 3097 1772 3097 
Q 1472 3097 1187 3025 
Q 903 2953 641 2809 
L 641 3341 
Q 956 3463 1253 3523 
Q 1550 3584 1831 3584 
Q 2591 3584 2966 3190 
Q 3341 2797 3341 1997 
z
" transform="scale(0.015625)"/>
       <path id="DejaVuSans-6c" d="M 603 4863 
L 1178 4863 
L 1178 0 
L 603 0 
L 603 4863 
z
" transform="scale(0.015625)"/>
       <path id="DejaVuSans-75" d="M 544 1381 
L 544 3500 
L 1119 3500 
L 1119 1403 
Q 1119 906 1312 657 
Q 1506 409 1894 409 
Q 2359 409 2629 706 
Q 2900 1003 2900 1516 
L 2900 3500 
L 3475 3500 
L 3475 0 
L 2900 0 
L 2900 538 
Q 2691 219 2414 64 
Q 2138 -91 1772 -91 
Q 1169 -91 856 284 
Q 544 659 544 1381 
z
M 1991 3584 
L 1991 3584 
z
" transform="scale(0.015625)"/>
       <path id="DejaVuSans-65" d="M 3597 1894 
L 3597 1613 
L 953 1613 
Q 991 1019 1311 708 
Q 1631 397 2203 397 
Q 2534 397 2845 478 
Q 3156 559 3463 722 
L 3463 178 
Q 3153 47 2828 -22 
Q 2503 -91 2169 -91 
Q 1331 -91 842 396 
Q 353 884 353 1716 
Q 353 2575 817 3079 
Q 1281 3584 2069 3584 
Q 2775 3584 3186 3129 
Q 3597 2675 3597 1894 
z
M 3022 2063 
Q 3016 2534 2758 2815 
Q 2500 3097 2075 3097 
Q 1594 3097 1305 2825 
Q 1016 2553 972 2059 
L 3022 2063 
z
" transform="scale(0.015625)"/>
      </defs>
      <use xlink:href="#DejaVuSans-4b"/>
      <use xlink:href="#DejaVuSans-20" x="65.576172"/>
      <use xlink:href="#DejaVuSans-56" x="97.363281"/>
      <use xlink:href="#DejaVuSans-61" x="158.021484"/>
      <use xlink:href="#DejaVuSans-6c" x="219.300781"/>
      <use xlink:href="#DejaVuSans-75" x="247.083984"/>
      <use xlink:href="#DejaVuSans-65" x="310.462891"/>
     </g>
    </g>
   </g>
   <g id="matplotlib.axis_2">
    <g id="ytick_1">
     <g id="line2d_12">
      <defs>
       <path id="mfb73ec7c14" d="M 0 0 
L -3.5 0 
" style="stroke: #000000; stroke-width: 0.8"/>
      </defs>
      <g>
       <use xlink:href="#mfb73ec7c14" x="56.9" y="387.16" style="stroke: #000000; stroke-width: 0.8"/>
      </g>
     </g>
     <g id="text_13">
      <!-- 0.00 -->
      <g transform="translate(27.634375 390.959219) scale(0.1 -0.1)">
       <defs>
        <path id="DejaVuSans-2e" d="M 684 794 
L 1344 794 
L 1344 0 
L 684 0 
L 684 794 
z
" transform="scale(0.015625)"/>
       </defs>
       <use xlink:href="#DejaVuSans-30"/>
       <use xlink:href="#DejaVuSans-2e" x="63.623047"/>
       <use xlink:href="#DejaVuSans-30" x="95.410156"/>
       <use xlink:href="#DejaVuSans-30" x="159.033203"/>
      </g>
     </g>
    </g>
    <g id="ytick_2">
     <g id="line2d_13">
      <g>
       <use xlink:href="#mfb73ec7c14" x="56.9" y="340.884582" style="stroke: #000000; stroke-width: 0.8"/>
      </g>
     </g>
     <g id="text_14">
      <!-- 0.05 -->
      <g transform="translate(27.634375 344.6838) scale(0.1 -0.1)">
       <use xlink:href="#DejaVuSans-30"/>
       <use xlink:href="#DejaVuSans-2e" x="63.623047"/>
       <use xlink:href="#DejaVuSans-30" x="95.410156"/>
       <use xlink:href="#DejaVuSans-35" x="159.033203"/>
      </g>
     </g>
    </g>
    <g id="ytick_3">
     <g id="line2d_14">
      <g>
       <use xlink:href="#mfb73ec7c14" x="56.9" y="294.609163" style="stroke: #000000; stroke-width: 0.8"/>
      </g>
     </g>
     <g id="text_15">
      <!-- 0.10 -->
      <g transform="translate(27.634375 298.408382) scale(0.1 -0.1)">
       <use xlink:href="#DejaVuSans-30"/>
       <use xlink:href="#DejaVuSans-2e" x="63.623047"/>
       <use xlink:href="#DejaVuSans-31" x="95.410156"/>
       <use xlink:href="#DejaVuSans-30" x="159.033203"/>
      </g>
     </g>
    </g>
    <g id="ytick_4">
     <g id="line2d_15">
      <g>
       <use xlink:href="#mfb73ec7c14" x="56.9" y="248.333745" style="stroke: #000000; stroke-width: 0.8"/>
      </g>
     </g>
     <g id="text_16">
      <!-- 0.15 -->
      <g transform="translate(27.634375 252.132964) scale(0.1 -0.1)">
       <use xlink:href="#DejaVuSans-30"/>
       <use xlink:href="#DejaVuSans-2e" x="63.623047"/>
       <use xlink:href="#DejaVuSans-31" x="95.410156"/>
       <use xlink:href="#DejaVuSans-35" x="159.033203"/>
      </g>
     </g>
    </g>
    <g id="ytick_5">
     <g id="line2d_16">
      <g>
       <use xlink:href="#mfb73ec7c14" x="56.9" y="202.058327" style="stroke: #000000; stroke-width: 0.8"/>
      </g>
     </g>
     <g id="text_17">
      <!-- 0.20 -->
      <g transform="translate(27.634375 205.857546) scale(0.1 -0.1)">
       <use xlink:href="#DejaVuSans-30"/>
       <use xlink:href="#DejaVuSans-2e" x="63.623047"/>
       <use xlink:href="#DejaVuSans-32" x="95.410156"/>
       <use xlink:href="#DejaVuSans-30" x="159.033203"/>
      </g>
     </g>
    </g>
    <g id="ytick_6">
     <g id="line2d_17">
      <g>
       <use xlink:href="#mfb73ec7c14" x="56.9" y="155.782909" style="stroke: #000000; stroke-width: 0.8"/>
      </g>
     </g>
     <g id="text_18">
      <!-- 0.25 -->
      <g transform="translate(27.634375 159.582127) scale(0.1 -0.1)">
       <use xlink:href="#DejaVuSans-30"/>
       <use xlink:href="#DejaVuSans-2e" x="63.623047"/>
       <use xlink:href="#DejaVuSans-32" x="95.410156"/>
       <use xlink:href="#DejaVuSans-35" x="159.033203"/>
      </g>
     </g>
    </g>
    <g id="ytick_7">
     <g id="line2d_18">
      <g>
       <use xlink:href="#mfb73ec7c14" x="56.9" y="109.50749" style="stroke: #000000; stroke-width: 0.8"/>
      </g>
     </g>
     <g id="text_19">
      <!-- 0.30 -->
      <g transform="translate(27.634375 113.306709) scale(0.1 -0.1)">
       <use xlink:href="#DejaVuSans-30"/>
       <use xlink:href="#DejaVuSans-2e" x="63.623047"/>
       <use xlink:href="#DejaVuSans-33" x="95.410156"/>
       <use xlink:href="#DejaVuSans-30" x="159.033203"/>
      </g>
     </g>
    </g>
    <g id="ytick_8">
     <g id="line2d_19">
      <g>
       <use xlink:href="#mfb73ec7c14" x="56.9" y="63.232072" style="stroke: #000000; stroke-width: 0.8"/>
      </g>
     </g>
     <g id="text_20">
      <!-- 0.35 -->
      <g transform="translate(27.634375 67.031291) scale(0.1 -0.1)">
       <use xlink:href="#DejaVuSans-30"/>
       <use xlink:href="#DejaVuSans-2e" x="63.623047"/>
       <use xlink:href="#DejaVuSans-33" x="95.410156"/>
       <use xlink:href="#DejaVuSans-35" x="159.033203"/>
      </g>
     </g>
    </g>
    <g id="text_21">
     <!-- Average Lookup Time (ms) -->
     <g transform="translate(21.13875 287.55125) rotate(-90) scale(0.12 -0.12)">
      <defs>
       <path id="DejaVuSans-41" d="M 2188 4044 
L 1331 1722 
L 3047 1722 
L 2188 4044 
z
M 1831 4666 
L 2547 4666 
L 4325 0 
L 3669 0 
L 3244 1197 
L 1141 1197 
L 716 0 
L 50 0 
L 1831 4666 
z
" transform="scale(0.015625)"/>
       <path id="DejaVuSans-76" d="M 191 3500 
L 800 3500 
L 1894 563 
L 2988 3500 
L 3597 3500 
L 2284 0 
L 1503 0 
L 191 3500 
z
" transform="scale(0.015625)"/>
       <path id="DejaVuSans-72" d="M 2631 2963 
Q 2534 3019 2420 3045 
Q 2306 3072 2169 3072 
Q 1681 3072 1420 2755 
Q 1159 2438 1159 1844 
L 1159 0 
L 581 0 
L 581 3500 
L 1159 3500 
L 1159 2956 
Q 1341 3275 1631 3429 
Q 1922 3584 2338 3584 
Q 2397 3584 2469 3576 
Q 2541 3569 2628 3553 
L 2631 2963 
z
" transform="scale(0.015625)"/>
       <path id="DejaVuSans-67" d="M 2906 1791 
Q 2906 2416 2648 2759 
Q 2391 3103 1925 3103 
Q 1463 3103 1205 2759 
Q 947 2416 947 1791 
Q 947 1169 1205 825 
Q 1463 481 1925 481 
Q 2391 481 2648 825 
Q 2906 1169 2906 1791 
z
M 3481 434 
Q 3481 -459 3084 -895 
Q 2688 -1331 1869 -1331 
Q 1566 -1331 1297 -1286 
Q 1028 -1241 775 -1147 
L 775 -588 
Q 1028 -725 1275 -790 
Q 1522 -856 1778 -856 
Q 2344 -856 2625 -561 
Q 2906 -266 2906 331 
L 2906 616 
Q 2728 306 2450 153 
Q 2172 0 1784 0 
Q 1141 0 747 490 
Q 353 981 353 1791 
Q 353 2603 747 3093 
Q 1141 3584 1784 3584 
Q 2172 3584 2450 3431 
Q 2728 3278 2906 2969 
L 2906 3500 
L 3481 3500 
L 3481 434 
z
" transform="scale(0.015625)"/>
       <path id="DejaVuSans-4c" d="M 628 4666 
L 1259 4666 
L 1259 531 
L 3531 531 
L 3531 0 
L 628 0 
L 628 4666 
z
" transform="scale(0.015625)"/>
       <path id="DejaVuSans-6f" d="M 1959 3097 
Q 1497 3097 1228 2736 
Q 959 2375 959 1747 
Q 959 1119 1226 758 
Q 1494 397 1959 397 
Q 2419 397 2687 759 
Q 2956 1122 2956 1747 
Q 2956 2369 2687 2733 
Q 2419 3097 1959 3097 
z
M 1959 3584 
Q 2709 3584 3137 3096 
Q 3566 2609 3566 1747 
Q 3566 888 3137 398 
Q 2709 -91 1959 -91 
Q 1206 -91 779 398 
Q 353 888 353 1747 
Q 353 2609 779 3096 
Q 1206 3584 1959 3584 
z
" transform="scale(0.015625)"/>
       <path id="DejaVuSans-6b" d="M 581 4863 
L 1159 4863 
L 1159 1991 
L 2875 3500 
L 3609 3500 
L 1753 1863 
L 3688 0 
L 2938 0 
L 1159 1709 
L 1159 0 
L 581 0 
L 581 4863 
z
" transform="scale(0.015625)"/>
       <path id="DejaVuSans-70" d="M 1159 525 
L 1159 -1331 
L 581 -1331 
L 581 3500 
L 1159 3500 
L 1159 2969 
Q 1341 3281 1617 3432 
Q 1894 3584 2278 3584 
Q 2916 3584 3314 3078 
Q 3713 2572 3713 1747 
Q 3713 922 3314 415 
Q 2916 -91 2278 -91 
Q 1894 -91 1617 61 
Q 1341 213 1159 525 
z
M 3116 1747 
Q 3116 2381 2855 2742 
Q 2594 3103 2138 3103 
Q 1681 3103 1420 2742 
Q 1159 2381 1159 1747 
Q 1159 1113 1420 752 
Q 1681 391 2138 391 
Q 2594 391 2855 752 
Q 3116 1113 3116 1747 
z
" transform="scale(0.015625)"/>
       <path id="DejaVuSans-54" d="M -19 4666 
L 3928 4666 
L 3928 4134 
L 2272 4134 
L 2272 0 
L 1638 0 
L 1638 4134 
L -19 4134 
L -19 4666 
z
" transform="scale(0.015625)"/>
       <path id="DejaVuSans-69" d="M 603 3500 
L 1178 3500 
L 1178 0 
L 603 0 
L 603 3500 
z
M 603 4863 
L 1178 4863 
L 1178 4134 
L 603 4134 
L 603 4863 
z
" transform="scale(0.015625)"/>
       <path id="DejaVuSans-6d" d="M 3328 2828 
Q 3544 3216 3844 3400 
Q 4144 3584 4550 3584 
Q 5097 3584 5394 3201 
Q 5691 2819 5691 2113 
L 5691 0 
L 5113 0 
L 5113 2094 
Q 5113 2597 4934 2840 
Q 4756 3084 4391 3084 
Q 3944 3084 3684 2787 
Q 3425 2491 3425 1978 
L 3425 0 
L 2847 0 
L 2847 2094 
Q 2847 2600 2669 2842 
Q 2491 3084 2119 3084 
Q 1678 3084 1418 2786 
Q 1159 2488 1159 1978 
L 1159 0 
L 581 0 
L 581 3500 
L 1159 3500 
L 1159 2956 
Q 1356 3278 1631 3431 
Q 1906 3584 2284 3584 
Q 2666 3584 2933 3390 
Q 3200 3197 3328 2828 
z
" transform="scale(0.015625)"/>
       <path id="DejaVuSans-28" d="M 1984 4856 
Q 1566 4138 1362 3434 
Q 1159 2731 1159 2009 
Q 1159 1288 1364 580 
Q 1569 -128 1984 -844 
L 1484 -844 
Q 1016 -109 783 600 
Q 550 1309 550 2009 
Q 550 2706 781 3412 
Q 1013 4119 1484 4856 
L 1984 4856 
z
" transform="scale(0.015625)"/>
       <path id="DejaVuSans-73" d="M 2834 3397 
L 2834 2853 
Q 2591 2978 2328 3040 
Q 2066 3103 1784 3103 
Q 1356 3103 1142 2972 
Q 928 2841 928 2578 
Q 928 2378 1081 2264 
Q 1234 2150 1697 2047 
L 1894 2003 
Q 2506 1872 2764 1633 
Q 3022 1394 3022 966 
Q 3022 478 2636 193 
Q 2250 -91 1575 -91 
Q 1294 -91 989 -36 
Q 684 19 347 128 
L 347 722 
Q 666 556 975 473 
Q 1284 391 1588 391 
Q 1994 391 2212 530 
Q 2431 669 2431 922 
Q 2431 1156 2273 1281 
Q 2116 1406 1581 1522 
L 1381 1569 
Q 847 1681 609 1914 
Q 372 2147 372 2553 
Q 372 3047 722 3315 
Q 1072 3584 1716 3584 
Q 2034 3584 2315 3537 
Q 2597 3491 2834 3397 
z
" transform="scale(0.015625)"/>
       <path id="DejaVuSans-29" d="M 513 4856 
L 1013 4856 
Q 1481 4119 1714 3412 
Q 1947 2706 1947 2009 
Q 1947 1309 1714 600 
Q 1481 -109 1013 -844 
L 513 -844 
Q 928 -128 1133 580 
Q 1338 1288 1338 2009 
Q 1338 2731 1133 3434 
Q 928 4138 513 4856 
z
" transform="scale(0.015625)"/>
      </defs>
      <use xlink:href="#DejaVuSans-41"/>
      <use xlink:href="#DejaVuSans-76" x="62.533203"/>
      <use xlink:href="#DejaVuSans-65" x="121.712891"/>
      <use xlink:href="#DejaVuSans-72" x="183.236328"/>
      <use xlink:href="#DejaVuSans-61" x="224.349609"/>
      <use xlink:href="#DejaVuSans-67" x="285.628906"/>
      <use xlink:href="#DejaVuSans-65" x="349.105469"/>
      <use xlink:href="#DejaVuSans-20" x="410.628906"/>
      <use xlink:href="#DejaVuSans-4c" x="442.416016"/>
      <use xlink:href="#DejaVuSans-6f" x="496.378906"/>
      <use xlink:href="#DejaVuSans-6f" x="557.560547"/>
      <use xlink:href="#DejaVuSans-6b" x="618.742188"/>
      <use xlink:href="#DejaVuSans-75" x="673.527344"/>
      <use xlink:href="#DejaVuSans-70" x="736.90625"/>
      <use xlink:href="#DejaVuSans-20" x="800.382812"/>
      <use xlink:href="#DejaVuSans-54" x="832.169922"/>
      <use xlink:href="#DejaVuSans-69" x="890.128906"/>
      <use xlink:href="#DejaVuSans-6d" x="917.912109"/>
      <use xlink:href="#DejaVuSans-65" x="1015.324219"/>
      <use xlink:href="#DejaVuSans-20" x="1076.847656"/>
      <use xlink:href="#DejaVuSans-28" x="1108.634766"/>
      <use xlink:href="#DejaVuSans-6d" x="1147.648438"/>
      <use xlink:href="#DejaVuSans-73" x="1245.060547"/>
      <use xlink:href="#DejaVuSans-29" x="1297.160156"/>
     </g>
    </g>
   </g>
   <g id="patch_83">
    <path d="M 56.9 387.16 
L 56.9 27.6 
" style="fill: none; stroke: #000000; stroke-width: 0.8; stroke-linejoin: miter; stroke-linecap: square"/>
   </g>
   <g id="patch_84">
    <path d="M 714.01 387.16 
L 714.01 27.6 
" style="fill: none; stroke: #000000; stroke-width: 0.8; stroke-linejoin: miter; stroke-linecap: square"/>
   </g>
   <g id="patch_85">
    <path d="M 56.9 387.16 
L 714.01 387.16 
" style="fill: none; stroke: #000000; stroke-width: 0.8; stroke-linejoin: miter; stroke-linecap: square"/>
   </g>
   <g id="patch_86">
    <path d="M 56.9 27.6 
L 714.01 27.6 
" style="fill: none; stroke: #000000; stroke-width: 0.8; stroke-linejoin: miter; stroke-linecap: square"/>
   </g>
   <g id="text_22">
    <!-- Epycbox_nvme1 - NVMe Drives -->
    <g transform="translate(276.404844 21.6) scale(0.14 -0.14)">
     <defs>
      <path id="DejaVuSans-45" d="M 628 4666 
L 3578 4666 
L 3578 4134 
L 1259 4134 
L 1259 2753 
L 3481 2753 
L 3481 2222 
L 1259 2222 
L 1259 531 
L 3634 531 
L 3634 0 
L 628 0 
L 628 4666 
z
" transform="scale(0.015625)"/>
      <path id="DejaVuSans-79" d="M 2059 -325 
Q 1816 -950 1584 -1140 
Q 1353 -1331 966 -1331 
L 506 -1331 
L 506 -850 
L 844 -850 
Q 1081 -850 1212 -737 
Q 1344 -625 1503 -206 
L 1606 56 
L 191 3500 
L 800 3500 
L 1894 763 
L 2988 3500 
L 3597 3500 
L 2059 -325 
z
" transform="scale(0.015625)"/>
      <path id="DejaVuSans-63" d="M 3122 3366 
L 3122 2828 
Q 2878 2963 2633 3030 
Q 2388 3097 2138 3097 
Q 1578 3097 1268 2742 
Q 959 2388 959 1747 
Q 959 1106 1268 751 
Q 1578 397 2138 397 
Q 2388 397 2633 464 
Q 2878 531 3122 666 
L 3122 134 
Q 2881 22 2623 -34 
Q 2366 -91 2075 -91 
Q 1284 -91 818 406 
Q 353 903 353 1747 
Q 353 2603 823 3093 
Q 1294 3584 2113 3584 
Q 2378 3584 2631 3529 
Q 2884 3475 3122 3366 
z
" transform="scale(0.015625)"/>
      <path id="DejaVuSans-62" d="M 3116 1747 
Q 3116 2381 2855 2742 
Q 2594 3103 2138 3103 
Q 1681 3103 1420 2742 
Q 1159 2381 1159 1747 
Q 1159 1113 1420 752 
Q 1681 391 2138 391 
Q 2594 391 2855 752 
Q 3116 1113 3116 1747 
z
M 1159 2969 
Q 1341 3281 1617 3432 
Q 1894 3584 2278 3584 
Q 2916 3584 3314 3078 
Q 3713 2572 3713 1747 
Q 3713 922 3314 415 
Q 2916 -91 2278 -91 
Q 1894 -91 1617 61 
Q 1341 213 1159 525 
L 1159 0 
L 581 0 
L 581 4863 
L 1159 4863 
L 1159 2969 
z
" transform="scale(0.015625)"/>
      <path id="DejaVuSans-78" d="M 3513 3500 
L 2247 1797 
L 3578 0 
L 2900 0 
L 1881 1375 
L 863 0 
L 184 0 
L 1544 1831 
L 300 3500 
L 978 3500 
L 1906 2253 
L 2834 3500 
L 3513 3500 
z
" transform="scale(0.015625)"/>
      <path id="DejaVuSans-5f" d="M 3263 -1063 
L 3263 -1509 
L -63 -1509 
L -63 -1063 
L 3263 -1063 
z
" transform="scale(0.015625)"/>
      <path id="DejaVuSans-6e" d="M 3513 2113 
L 3513 0 
L 2938 0 
L 2938 2094 
Q 2938 2591 2744 2837 
Q 2550 3084 2163 3084 
Q 1697 3084 1428 2787 
Q 1159 2491 1159 1978 
L 1159 0 
L 581 0 
L 581 3500 
L 1159 3500 
L 1159 2956 
Q 1366 3272 1645 3428 
Q 1925 3584 2291 3584 
Q 2894 3584 3203 3211 
Q 3513 2838 3513 2113 
z
" transform="scale(0.015625)"/>
      <path id="DejaVuSans-2d" d="M 313 2009 
L 1997 2009 
L 1997 1497 
L 313 1497 
L 313 2009 
z
" transform="scale(0.015625)"/>
      <path id="DejaVuSans-4e" d="M 628 4666 
L 1478 4666 
L 3547 763 
L 3547 4666 
L 4159 4666 
L 4159 0 
L 3309 0 
L 1241 3903 
L 1241 0 
L 628 0 
L 628 4666 
z
" transform="scale(0.015625)"/>
      <path id="DejaVuSans-4d" d="M 628 4666 
L 1569 4666 
L 2759 1491 
L 3956 4666 
L 4897 4666 
L 4897 0 
L 4281 0 
L 4281 4097 
L 3078 897 
L 2444 897 
L 1241 4097 
L 1241 0 
L 628 0 
L 628 4666 
z
" transform="scale(0.015625)"/>
      <path id="DejaVuSans-44" d="M 1259 4147 
L 1259 519 
L 2022 519 
Q 2988 519 3436 956 
Q 3884 1394 3884 2338 
Q 3884 3275 3436 3711 
Q 2988 4147 2022 4147 
L 1259 4147 
z
M 628 4666 
L 1925 4666 
Q 3281 4666 3915 4102 
Q 4550 3538 4550 2338 
Q 4550 1131 3912 565 
Q 3275 0 1925 0 
L 628 0 
L 628 4666 
z
" transform="scale(0.015625)"/>
     </defs>
     <use xlink:href="#DejaVuSans-45"/>
     <use xlink:href="#DejaVuSans-70" x="63.183594"/>
     <use xlink:href="#DejaVuSans-79" x="126.660156"/>
     <use xlink:href="#DejaVuSans-63" x="185.839844"/>
     <use xlink:href="#DejaVuSans-62" x="240.820312"/>
     <use xlink:href="#DejaVuSans-6f" x="304.296875"/>
     <use xlink:href="#DejaVuSans-78" x="362.353516"/>
     <use xlink:href="#DejaVuSans-5f" x="421.533203"/>
     <use xlink:href="#DejaVuSans-6e" x="471.533203"/>
     <use xlink:href="#DejaVuSans-76" x="534.912109"/>
     <use xlink:href="#DejaVuSans-6d" x="594.091797"/>
     <use xlink:href="#DejaVuSans-65" x="691.503906"/>
     <use xlink:href="#DejaVuSans-31" x="753.027344"/>
     <use xlink:href="#DejaVuSans-20" x="816.650391"/>
     <use xlink:href="#DejaVuSans-2d" x="848.4375"/>
     <use xlink:href="#DejaVuSans-20" x="884.521484"/>
     <use xlink:href="#DejaVuSans-4e" x="916.308594"/>
     <use xlink:href="#DejaVuSans-56" x="991.113281"/>
     <use xlink:href="#DejaVuSans-4d" x="1059.521484"/>
     <use xlink:href="#DejaVuSans-65" x="1145.800781"/>
     <use xlink:href="#DejaVuSans-20" x="1207.324219"/>
     <use xlink:href="#DejaVuSans-44" x="1239.111328"/>
     <use xlink:href="#DejaVuSans-72" x="1316.113281"/>
     <use xlink:href="#DejaVuSans-69" x="1357.226562"/>
     <use xlink:href="#DejaVuSans-76" x="1385.009766"/>
     <use xlink:href="#DejaVuSans-65" x="1444.189453"/>
     <use xlink:href="#DejaVuSans-73" x="1505.712891"/>
    </g>
   </g>
   <g id="legend_1">
    <g id="patch_87">
     <path d="M 753.8655 167.703125 
L 850.670187 167.703125 
Q 852.670187 167.703125 852.670187 165.703125 
L 852.670187 34.6 
Q 852.670187 32.6 850.670187 32.6 
L 753.8655 32.6 
Q 751.8655 32.6 751.8655 34.6 
L 751.8655 165.703125 
Q 751.8655 167.703125 753.8655 167.703125 
z
" style="fill: #ffffff; opacity: 0.8; stroke: #cccccc; stroke-linejoin: miter"/>
    </g>
    <g id="text_23">
     <!-- Hash Size -->
     <g transform="translate(777.817062 44.198438) scale(0.1 -0.1)">
      <defs>
       <path id="DejaVuSans-48" d="M 628 4666 
L 1259 4666 
L 1259 2753 
L 3553 2753 
L 3553 4666 
L 4184 4666 
L 4184 0 
L 3553 0 
L 3553 2222 
L 1259 2222 
L 1259 0 
L 628 0 
L 628 4666 
z
" transform="scale(0.015625)"/>
       <path id="DejaVuSans-68" d="M 3513 2113 
L 3513 0 
L 2938 0 
L 2938 2094 
Q 2938 2591 2744 2837 
Q 2550 3084 2163 3084 
Q 1697 3084 1428 2787 
Q 1159 2491 1159 1978 
L 1159 0 
L 581 0 
L 581 4863 
L 1159 4863 
L 1159 2956 
Q 1366 3272 1645 3428 
Q 1925 3584 2291 3584 
Q 2894 3584 3203 3211 
Q 3513 2838 3513 2113 
z
" transform="scale(0.015625)"/>
       <path id="DejaVuSans-53" d="M 3425 4513 
L 3425 3897 
Q 3066 4069 2747 4153 
Q 2428 4238 2131 4238 
Q 1616 4238 1336 4038 
Q 1056 3838 1056 3469 
Q 1056 3159 1242 3001 
Q 1428 2844 1947 2747 
L 2328 2669 
Q 3034 2534 3370 2195 
Q 3706 1856 3706 1288 
Q 3706 609 3251 259 
Q 2797 -91 1919 -91 
Q 1588 -91 1214 -16 
Q 841 59 441 206 
L 441 856 
Q 825 641 1194 531 
Q 1563 422 1919 422 
Q 2459 422 2753 634 
Q 3047 847 3047 1241 
Q 3047 1584 2836 1778 
Q 2625 1972 2144 2069 
L 1759 2144 
Q 1053 2284 737 2584 
Q 422 2884 422 3419 
Q 422 4038 858 4394 
Q 1294 4750 2059 4750 
Q 2388 4750 2728 4690 
Q 3069 4631 3425 4513 
z
" transform="scale(0.015625)"/>
       <path id="DejaVuSans-7a" d="M 353 3500 
L 3084 3500 
L 3084 2975 
L 922 459 
L 3084 459 
L 3084 0 
L 275 0 
L 275 525 
L 2438 3041 
L 353 3041 
L 353 3500 
z
" transform="scale(0.015625)"/>
      </defs>
      <use xlink:href="#DejaVuSans-48"/>
      <use xlink:href="#DejaVuSans-61" x="75.195312"/>
      <use xlink:href="#DejaVuSans-73" x="136.474609"/>
      <use xlink:href="#DejaVuSans-68" x="188.574219"/>
      <use xlink:href="#DejaVuSans-20" x="251.953125"/>
      <use xlink:href="#DejaVuSans-53" x="283.740234"/>
      <use xlink:href="#DejaVuSans-69" x="347.216797"/>
      <use xlink:href="#DejaVuSans-7a" x="375"/>
      <use xlink:href="#DejaVuSans-65" x="427.490234"/>
     </g>
    </g>
    <g id="patch_88">
     <path d="M 755.8655 58.876563 
L 775.8655 58.876563 
L 775.8655 51.876563 
L 755.8655 51.876563 
z
" style="fill: #1f77b4"/>
    </g>
    <g id="text_24">
     <!-- Hash Size 3 -->
     <g transform="translate(783.8655 58.876563) scale(0.1 -0.1)">
      <use xlink:href="#DejaVuSans-48"/>
      <use xlink:href="#DejaVuSans-61" x="75.195312"/>
      <use xlink:href="#DejaVuSans-73" x="136.474609"/>
      <use xlink:href="#DejaVuSans-68" x="188.574219"/>
      <use xlink:href="#DejaVuSans-20" x="251.953125"/>
      <use xlink:href="#DejaVuSans-53" x="283.740234"/>
      <use xlink:href="#DejaVuSans-69" x="347.216797"/>
      <use xlink:href="#DejaVuSans-7a" x="375"/>
      <use xlink:href="#DejaVuSans-65" x="427.490234"/>
      <use xlink:href="#DejaVuSans-20" x="489.013672"/>
      <use xlink:href="#DejaVuSans-33" x="520.800781"/>
     </g>
    </g>
    <g id="patch_89">
     <path d="M 755.8655 73.554688 
L 775.8655 73.554688 
L 775.8655 66.554688 
L 755.8655 66.554688 
z
" style="fill: #ff7f0e"/>
    </g>
    <g id="text_25">
     <!-- Hash Size 4 -->
     <g transform="translate(783.8655 73.554688) scale(0.1 -0.1)">
      <use xlink:href="#DejaVuSans-48"/>
      <use xlink:href="#DejaVuSans-61" x="75.195312"/>
      <use xlink:href="#DejaVuSans-73" x="136.474609"/>
      <use xlink:href="#DejaVuSans-68" x="188.574219"/>
      <use xlink:href="#DejaVuSans-20" x="251.953125"/>
      <use xlink:href="#DejaVuSans-53" x="283.740234"/>
      <use xlink:href="#DejaVuSans-69" x="347.216797"/>
      <use xlink:href="#DejaVuSans-7a" x="375"/>
      <use xlink:href="#DejaVuSans-65" x="427.490234"/>
      <use xlink:href="#DejaVuSans-20" x="489.013672"/>
      <use xlink:href="#DejaVuSans-34" x="520.800781"/>
     </g>
    </g>
    <g id="patch_90">
     <path d="M 755.8655 88.232813 
L 775.8655 88.232813 
L 775.8655 81.232813 
L 755.8655 81.232813 
z
" style="fill: #2ca02c"/>
    </g>
    <g id="text_26">
     <!-- Hash Size 5 -->
     <g transform="translate(783.8655 88.232813) scale(0.1 -0.1)">
      <use xlink:href="#DejaVuSans-48"/>
      <use xlink:href="#DejaVuSans-61" x="75.195312"/>
      <use xlink:href="#DejaVuSans-73" x="136.474609"/>
      <use xlink:href="#DejaVuSans-68" x="188.574219"/>
      <use xlink:href="#DejaVuSans-20" x="251.953125"/>
      <use xlink:href="#DejaVuSans-53" x="283.740234"/>
      <use xlink:href="#DejaVuSans-69" x="347.216797"/>
      <use xlink:href="#DejaVuSans-7a" x="375"/>
      <use xlink:href="#DejaVuSans-65" x="427.490234"/>
      <use xlink:href="#DejaVuSans-20" x="489.013672"/>
      <use xlink:href="#DejaVuSans-35" x="520.800781"/>
     </g>
    </g>
    <g id="patch_91">
     <path d="M 755.8655 102.910938 
L 775.8655 102.910938 
L 775.8655 95.910938 
L 755.8655 95.910938 
z
" style="fill: #d62728"/>
    </g>
    <g id="text_27">
     <!-- Hash Size 6 -->
     <g transform="translate(783.8655 102.910938) scale(0.1 -0.1)">
      <use xlink:href="#DejaVuSans-48"/>
      <use xlink:href="#DejaVuSans-61" x="75.195312"/>
      <use xlink:href="#DejaVuSans-73" x="136.474609"/>
      <use xlink:href="#DejaVuSans-68" x="188.574219"/>
      <use xlink:href="#DejaVuSans-20" x="251.953125"/>
      <use xlink:href="#DejaVuSans-53" x="283.740234"/>
      <use xlink:href="#DejaVuSans-69" x="347.216797"/>
      <use xlink:href="#DejaVuSans-7a" x="375"/>
      <use xlink:href="#DejaVuSans-65" x="427.490234"/>
      <use xlink:href="#DejaVuSans-20" x="489.013672"/>
      <use xlink:href="#DejaVuSans-36" x="520.800781"/>
     </g>
    </g>
    <g id="patch_92">
     <path d="M 755.8655 117.589063 
L 775.8655 117.589063 
L 775.8655 110.589063 
L 755.8655 110.589063 
z
" style="fill: #9467bd"/>
    </g>
    <g id="text_28">
     <!-- Hash Size 7 -->
     <g transform="translate(783.8655 117.589063) scale(0.1 -0.1)">
      <use xlink:href="#DejaVuSans-48"/>
      <use xlink:href="#DejaVuSans-61" x="75.195312"/>
      <use xlink:href="#DejaVuSans-73" x="136.474609"/>
      <use xlink:href="#DejaVuSans-68" x="188.574219"/>
      <use xlink:href="#DejaVuSans-20" x="251.953125"/>
      <use xlink:href="#DejaVuSans-53" x="283.740234"/>
      <use xlink:href="#DejaVuSans-69" x="347.216797"/>
      <use xlink:href="#DejaVuSans-7a" x="375"/>
      <use xlink:href="#DejaVuSans-65" x="427.490234"/>
      <use xlink:href="#DejaVuSans-20" x="489.013672"/>
      <use xlink:href="#DejaVuSans-37" x="520.800781"/>
     </g>
    </g>
    <g id="patch_93">
     <path d="M 755.8655 132.267188 
L 775.8655 132.267188 
L 775.8655 125.267188 
L 755.8655 125.267188 
z
" style="fill: #8c564b"/>
    </g>
    <g id="text_29">
     <!-- Hash Size 8 -->
     <g transform="translate(783.8655 132.267188) scale(0.1 -0.1)">
      <use xlink:href="#DejaVuSans-48"/>
      <use xlink:href="#DejaVuSans-61" x="75.195312"/>
      <use xlink:href="#DejaVuSans-73" x="136.474609"/>
      <use xlink:href="#DejaVuSans-68" x="188.574219"/>
      <use xlink:href="#DejaVuSans-20" x="251.953125"/>
      <use xlink:href="#DejaVuSans-53" x="283.740234"/>
      <use xlink:href="#DejaVuSans-69" x="347.216797"/>
      <use xlink:href="#DejaVuSans-7a" x="375"/>
      <use xlink:href="#DejaVuSans-65" x="427.490234"/>
      <use xlink:href="#DejaVuSans-20" x="489.013672"/>
      <use xlink:href="#DejaVuSans-38" x="520.800781"/>
     </g>
    </g>
    <g id="patch_94">
     <path d="M 755.8655 146.945312 
L 775.8655 146.945312 
L 775.8655 139.945312 
L 755.8655 139.945312 
z
" style="fill: #e377c2"/>
    </g>
    <g id="text_30">
     <!-- Hash Size 16 -->
     <g transform="translate(783.8655 146.945312) scale(0.1 -0.1)">
      <use xlink:href="#DejaVuSans-48"/>
      <use xlink:href="#DejaVuSans-61" x="75.195312"/>
      <use xlink:href="#DejaVuSans-73" x="136.474609"/>
      <use xlink:href="#DejaVuSans-68" x="188.574219"/>
      <use xlink:href="#DejaVuSans-20" x="251.953125"/>
      <use xlink:href="#DejaVuSans-53" x="283.740234"/>
      <use xlink:href="#DejaVuSans-69" x="347.216797"/>
      <use xlink:href="#DejaVuSans-7a" x="375"/>
      <use xlink:href="#DejaVuSans-65" x="427.490234"/>
      <use xlink:href="#DejaVuSans-20" x="489.013672"/>
      <use xlink:href="#DejaVuSans-31" x="520.800781"/>
      <use xlink:href="#DejaVuSans-36" x="584.423828"/>
     </g>
    </g>
    <g id="patch_95">
     <path d="M 755.8655 161.623438 
L 775.8655 161.623438 
L 775.8655 154.623438 
L 755.8655 154.623438 
z
" style="fill: #7f7f7f"/>
    </g>
    <g id="text_31">
     <!-- Hash Size 32 -->
     <g transform="translate(783.8655 161.623438) scale(0.1 -0.1)">
      <use xlink:href="#DejaVuSans-48"/>
      <use xlink:href="#DejaVuSans-61" x="75.195312"/>
      <use xlink:href="#DejaVuSans-73" x="136.474609"/>
      <use xlink:href="#DejaVuSans-68" x="188.574219"/>
      <use xlink:href="#DejaVuSans-20" x="251.953125"/>
      <use xlink:href="#DejaVuSans-53" x="283.740234"/>
      <use xlink:href="#DejaVuSans-69" x="347.216797"/>
      <use xlink:href="#DejaVuSans-7a" x="375"/>
      <use xlink:href="#DejaVuSans-65" x="427.490234"/>
      <use xlink:href="#DejaVuSans-20" x="489.013672"/>
      <use xlink:href="#DejaVuSans-33" x="520.800781"/>
      <use xlink:href="#DejaVuSans-32" x="584.423828"/>
     </g>
    </g>
   </g>
  </g>
 </g>
 <defs>
  <clipPath id="pcce2559f93">
   <rect x="56.9" y="27.6" width="657.11" height="359.56"/>
  </clipPath>
 </defs>
</svg>
