<?xml version="1.0" encoding="utf-8" standalone="no"?>
<!DOCTYPE svg PUBLIC "-//W3C//DTD SVG 1.1//EN"
  "http://www.w3.org/Graphics/SVG/1.1/DTD/svg11.dtd">
<svg xmlns:xlink="http://www.w3.org/1999/xlink" width="864pt" height="432pt" viewBox="0 0 864 432" xmlns="http://www.w3.org/2000/svg" version="1.1">
 <metadata>
  <rdf:RDF xmlns:dc="http://purl.org/dc/elements/1.1/" xmlns:cc="http://creativecommons.org/ns#" xmlns:rdf="http://www.w3.org/1999/02/22-rdf-syntax-ns#">
   <cc:Work>
    <dc:type rdf:resource="http://purl.org/dc/dcmitype/StillImage"/>
    <dc:date>2024-12-11T14:44:39.312968</dc:date>
    <dc:format>image/svg+xml</dc:format>
    <dc:creator>
     <cc:Agent>
      <dc:title>Matplotlib v3.9.2, https://matplotlib.org/</dc:title>
     </cc:Agent>
    </dc:creator>
   </cc:Work>
  </rdf:RDF>
 </metadata>
 <defs>
  <style type="text/css">*{stroke-linejoin: round; stroke-linecap: butt}</style>
 </defs>
 <g id="figure_1">
  <g id="patch_1">
   <path d="M 0 432 
L 864 432 
L 864 0 
L 0 0 
z
" style="fill: #ffffff"/>
  </g>
  <g id="axes_1">
   <g id="patch_2">
    <path d="M 50.69 387.16 
L 714.01 387.16 
L 714.01 27.6 
L 50.69 27.6 
z
" style="fill: #ffffff"/>
   </g>
   <g id="patch_3">
    <path d="M 80.840909 387.16 
L 85.551989 387.16 
L 85.551989 243.295475 
L 80.840909 243.295475 
z
" clip-path="url(#p18661ce55a)" style="fill: #1f77b4"/>
   </g>
   <g id="patch_4">
    <path d="M 127.951705 387.16 
L 132.662784 387.16 
L 132.662784 223.032866 
L 127.951705 223.032866 
z
" clip-path="url(#p18661ce55a)" style="fill: #1f77b4"/>
   </g>
   <g id="patch_5">
    <path d="M 175.0625 387.16 
L 179.77358 387.16 
L 179.77358 233.16417 
L 175.0625 233.16417 
z
" clip-path="url(#p18661ce55a)" style="fill: #1f77b4"/>
   </g>
   <g id="patch_6">
    <path d="M 222.173295 387.16 
L 226.884375 387.16 
L 226.884375 237.216692 
L 222.173295 237.216692 
z
" clip-path="url(#p18661ce55a)" style="fill: #1f77b4"/>
   </g>
   <g id="patch_7">
    <path d="M 269.284091 387.16 
L 273.99517 387.16 
L 273.99517 227.085387 
L 269.284091 227.085387 
z
" clip-path="url(#p18661ce55a)" style="fill: #1f77b4"/>
   </g>
   <g id="patch_8">
    <path d="M 316.394886 387.16 
L 321.105966 387.16 
L 321.105966 204.796517 
L 316.394886 204.796517 
z
" clip-path="url(#p18661ce55a)" style="fill: #1f77b4"/>
   </g>
   <g id="patch_9">
    <path d="M 363.505682 387.16 
L 368.216761 387.16 
L 368.216761 202.770256 
L 363.505682 202.770256 
z
" clip-path="url(#p18661ce55a)" style="fill: #1f77b4"/>
   </g>
   <g id="patch_10">
    <path d="M 410.616477 387.16 
L 415.327557 387.16 
L 415.327557 160.218777 
L 410.616477 160.218777 
z
" clip-path="url(#p18661ce55a)" style="fill: #1f77b4"/>
   </g>
   <g id="patch_11">
    <path d="M 457.727273 387.16 
L 462.438352 387.16 
L 462.438352 131.851124 
L 457.727273 131.851124 
z
" clip-path="url(#p18661ce55a)" style="fill: #1f77b4"/>
   </g>
   <g id="patch_12">
    <path d="M 504.838068 387.16 
L 509.549148 387.16 
L 509.549148 85.247123 
L 504.838068 85.247123 
z
" clip-path="url(#p18661ce55a)" style="fill: #1f77b4"/>
   </g>
   <g id="patch_13">
    <path d="M 551.948864 387.16 
L 556.659943 387.16 
L 556.659943 58.905731 
L 551.948864 58.905731 
z
" clip-path="url(#p18661ce55a)" style="fill: #1f77b4"/>
   </g>
   <g id="patch_14">
    <path d="M 599.059659 387.16 
L 603.770739 387.16 
L 603.770739 48.774427 
L 599.059659 48.774427 
z
" clip-path="url(#p18661ce55a)" style="fill: #1f77b4"/>
   </g>
   <g id="patch_15">
    <path d="M 646.170455 387.16 
L 650.881534 387.16 
L 650.881534 71.063297 
L 646.170455 71.063297 
z
" clip-path="url(#p18661ce55a)" style="fill: #1f77b4"/>
   </g>
   <g id="patch_16">
    <path d="M 85.551989 387.16 
L 90.263068 387.16 
L 90.263068 302.057041 
L 85.551989 302.057041 
z
" clip-path="url(#p18661ce55a)" style="fill: #ff7f0e"/>
   </g>
   <g id="patch_17">
    <path d="M 132.662784 387.16 
L 137.373864 387.16 
L 137.373864 271.663128 
L 132.662784 271.663128 
z
" clip-path="url(#p18661ce55a)" style="fill: #ff7f0e"/>
   </g>
   <g id="patch_18">
    <path d="M 179.77358 387.16 
L 184.484659 387.16 
L 184.484659 241.269214 
L 179.77358 241.269214 
z
" clip-path="url(#p18661ce55a)" style="fill: #ff7f0e"/>
   </g>
   <g id="patch_19">
    <path d="M 226.884375 387.16 
L 231.595455 387.16 
L 231.595455 247.347997 
L 226.884375 247.347997 
z
" clip-path="url(#p18661ce55a)" style="fill: #ff7f0e"/>
   </g>
   <g id="patch_20">
    <path d="M 273.99517 387.16 
L 278.70625 387.16 
L 278.70625 239.242953 
L 273.99517 239.242953 
z
" clip-path="url(#p18661ce55a)" style="fill: #ff7f0e"/>
   </g>
   <g id="patch_21">
    <path d="M 321.105966 387.16 
L 325.817045 387.16 
L 325.817045 204.796517 
L 321.105966 204.796517 
z
" clip-path="url(#p18661ce55a)" style="fill: #ff7f0e"/>
   </g>
   <g id="patch_22">
    <path d="M 368.216761 387.16 
L 372.927841 387.16 
L 372.927841 204.796517 
L 368.216761 204.796517 
z
" clip-path="url(#p18661ce55a)" style="fill: #ff7f0e"/>
   </g>
   <g id="patch_23">
    <path d="M 415.327557 387.16 
L 420.038636 387.16 
L 420.038636 208.849039 
L 415.327557 208.849039 
z
" clip-path="url(#p18661ce55a)" style="fill: #ff7f0e"/>
   </g>
   <g id="patch_24">
    <path d="M 462.438352 387.16 
L 467.149432 387.16 
L 467.149432 178.455125 
L 462.438352 178.455125 
z
" clip-path="url(#p18661ce55a)" style="fill: #ff7f0e"/>
   </g>
   <g id="patch_25">
    <path d="M 509.549148 387.16 
L 514.260227 387.16 
L 514.260227 158.192516 
L 509.549148 158.192516 
z
" clip-path="url(#p18661ce55a)" style="fill: #ff7f0e"/>
   </g>
   <g id="patch_26">
    <path d="M 556.659943 387.16 
L 561.371023 387.16 
L 561.371023 107.535993 
L 556.659943 107.535993 
z
" clip-path="url(#p18661ce55a)" style="fill: #ff7f0e"/>
   </g>
   <g id="patch_27">
    <path d="M 603.770739 387.16 
L 608.481818 387.16 
L 608.481818 81.194601 
L 603.770739 81.194601 
z
" clip-path="url(#p18661ce55a)" style="fill: #ff7f0e"/>
   </g>
   <g id="patch_28">
    <path d="M 650.881534 387.16 
L 655.592614 387.16 
L 655.592614 105.509732 
L 650.881534 105.509732 
z
" clip-path="url(#p18661ce55a)" style="fill: #ff7f0e"/>
   </g>
   <g id="patch_29">
    <path d="M 90.263068 387.16 
L 94.974148 387.16 
L 94.974148 310.162085 
L 90.263068 310.162085 
z
" clip-path="url(#p18661ce55a)" style="fill: #2ca02c"/>
   </g>
   <g id="patch_30">
    <path d="M 137.373864 387.16 
L 142.084943 387.16 
L 142.084943 283.820693 
L 137.373864 283.820693 
z
" clip-path="url(#p18661ce55a)" style="fill: #2ca02c"/>
   </g>
   <g id="patch_31">
    <path d="M 184.484659 387.16 
L 189.195739 387.16 
L 189.195739 265.584345 
L 184.484659 265.584345 
z
" clip-path="url(#p18661ce55a)" style="fill: #2ca02c"/>
   </g>
   <g id="patch_32">
    <path d="M 231.595455 387.16 
L 236.306534 387.16 
L 236.306534 263.558084 
L 231.595455 263.558084 
z
" clip-path="url(#p18661ce55a)" style="fill: #2ca02c"/>
   </g>
   <g id="patch_33">
    <path d="M 278.70625 387.16 
L 283.41733 387.16 
L 283.41733 257.479301 
L 278.70625 257.479301 
z
" clip-path="url(#p18661ce55a)" style="fill: #2ca02c"/>
   </g>
   <g id="patch_34">
    <path d="M 325.817045 387.16 
L 330.528125 387.16 
L 330.528125 245.321736 
L 325.817045 245.321736 
z
" clip-path="url(#p18661ce55a)" style="fill: #2ca02c"/>
   </g>
   <g id="patch_35">
    <path d="M 372.927841 387.16 
L 377.63892 387.16 
L 377.63892 235.190431 
L 372.927841 235.190431 
z
" clip-path="url(#p18661ce55a)" style="fill: #2ca02c"/>
   </g>
   <g id="patch_36">
    <path d="M 420.038636 387.16 
L 424.749716 387.16 
L 424.749716 221.006605 
L 420.038636 221.006605 
z
" clip-path="url(#p18661ce55a)" style="fill: #2ca02c"/>
   </g>
   <g id="patch_37">
    <path d="M 467.149432 387.16 
L 471.860511 387.16 
L 471.860511 176.428864 
L 467.149432 176.428864 
z
" clip-path="url(#p18661ce55a)" style="fill: #2ca02c"/>
   </g>
   <g id="patch_38">
    <path d="M 514.260227 387.16 
L 518.971307 387.16 
L 518.971307 174.402604 
L 514.260227 174.402604 
z
" clip-path="url(#p18661ce55a)" style="fill: #2ca02c"/>
   </g>
   <g id="patch_39">
    <path d="M 561.371023 387.16 
L 566.082102 387.16 
L 566.082102 115.641037 
L 561.371023 115.641037 
z
" clip-path="url(#p18661ce55a)" style="fill: #2ca02c"/>
   </g>
   <g id="patch_40">
    <path d="M 608.481818 387.16 
L 613.192898 387.16 
L 613.192898 67.010775 
L 608.481818 67.010775 
z
" clip-path="url(#p18661ce55a)" style="fill: #2ca02c"/>
   </g>
   <g id="patch_41">
    <path d="M 655.592614 387.16 
L 660.303693 387.16 
L 660.303693 69.037036 
L 655.592614 69.037036 
z
" clip-path="url(#p18661ce55a)" style="fill: #2ca02c"/>
   </g>
   <g id="patch_42">
    <path d="M 94.974148 387.16 
L 99.685227 387.16 
L 99.685227 328.398433 
L 94.974148 328.398433 
z
" clip-path="url(#p18661ce55a)" style="fill: #d62728"/>
   </g>
   <g id="patch_43">
    <path d="M 142.084943 387.16 
L 146.796023 387.16 
L 146.796023 310.162085 
L 142.084943 310.162085 
z
" clip-path="url(#p18661ce55a)" style="fill: #d62728"/>
   </g>
   <g id="patch_44">
    <path d="M 189.195739 387.16 
L 193.906818 387.16 
L 193.906818 293.951998 
L 189.195739 293.951998 
z
" clip-path="url(#p18661ce55a)" style="fill: #d62728"/>
   </g>
   <g id="patch_45">
    <path d="M 236.306534 387.16 
L 241.017614 387.16 
L 241.017614 275.715649 
L 236.306534 275.715649 
z
" clip-path="url(#p18661ce55a)" style="fill: #d62728"/>
   </g>
   <g id="patch_46">
    <path d="M 283.41733 387.16 
L 288.128409 387.16 
L 288.128409 247.347997 
L 283.41733 247.347997 
z
" clip-path="url(#p18661ce55a)" style="fill: #d62728"/>
   </g>
   <g id="patch_47">
    <path d="M 330.528125 387.16 
L 335.239205 387.16 
L 335.239205 231.137909 
L 330.528125 231.137909 
z
" clip-path="url(#p18661ce55a)" style="fill: #d62728"/>
   </g>
   <g id="patch_48">
    <path d="M 377.63892 387.16 
L 382.35 387.16 
L 382.35 212.901561 
L 377.63892 212.901561 
z
" clip-path="url(#p18661ce55a)" style="fill: #d62728"/>
   </g>
   <g id="patch_49">
    <path d="M 424.749716 387.16 
L 429.460795 387.16 
L 429.460795 192.638952 
L 424.749716 192.638952 
z
" clip-path="url(#p18661ce55a)" style="fill: #d62728"/>
   </g>
   <g id="patch_50">
    <path d="M 471.860511 387.16 
L 476.571591 387.16 
L 476.571591 170.350082 
L 471.860511 170.350082 
z
" clip-path="url(#p18661ce55a)" style="fill: #d62728"/>
   </g>
   <g id="patch_51">
    <path d="M 518.971307 387.16 
L 523.682386 387.16 
L 523.682386 150.087473 
L 518.971307 150.087473 
z
" clip-path="url(#p18661ce55a)" style="fill: #d62728"/>
   </g>
   <g id="patch_52">
    <path d="M 566.082102 387.16 
L 570.793182 387.16 
L 570.793182 113.614776 
L 566.082102 113.614776 
z
" clip-path="url(#p18661ce55a)" style="fill: #d62728"/>
   </g>
   <g id="patch_53">
    <path d="M 613.192898 387.16 
L 617.903977 387.16 
L 617.903977 83.220862 
L 613.192898 83.220862 
z
" clip-path="url(#p18661ce55a)" style="fill: #d62728"/>
   </g>
   <g id="patch_54">
    <path d="M 660.303693 387.16 
L 665.014773 387.16 
L 665.014773 97.404689 
L 660.303693 97.404689 
z
" clip-path="url(#p18661ce55a)" style="fill: #d62728"/>
   </g>
   <g id="patch_55">
    <path d="M 99.685227 387.16 
L 104.396307 387.16 
L 104.396307 344.608521 
L 99.685227 344.608521 
z
" clip-path="url(#p18661ce55a)" style="fill: #9467bd"/>
   </g>
   <g id="patch_56">
    <path d="M 146.796023 387.16 
L 151.507102 387.16 
L 151.507102 326.372172 
L 146.796023 326.372172 
z
" clip-path="url(#p18661ce55a)" style="fill: #9467bd"/>
   </g>
   <g id="patch_57">
    <path d="M 193.906818 387.16 
L 198.617898 387.16 
L 198.617898 295.978259 
L 193.906818 295.978259 
z
" clip-path="url(#p18661ce55a)" style="fill: #9467bd"/>
   </g>
   <g id="patch_58">
    <path d="M 241.017614 387.16 
L 245.728693 387.16 
L 245.728693 273.689389 
L 241.017614 273.689389 
z
" clip-path="url(#p18661ce55a)" style="fill: #9467bd"/>
   </g>
   <g id="patch_59">
    <path d="M 288.128409 387.16 
L 292.839489 387.16 
L 292.839489 247.347997 
L 288.128409 247.347997 
z
" clip-path="url(#p18661ce55a)" style="fill: #9467bd"/>
   </g>
   <g id="patch_60">
    <path d="M 335.239205 387.16 
L 339.950284 387.16 
L 339.950284 243.295475 
L 335.239205 243.295475 
z
" clip-path="url(#p18661ce55a)" style="fill: #9467bd"/>
   </g>
   <g id="patch_61">
    <path d="M 382.35 387.16 
L 387.06108 387.16 
L 387.06108 241.269214 
L 382.35 241.269214 
z
" clip-path="url(#p18661ce55a)" style="fill: #9467bd"/>
   </g>
   <g id="patch_62">
    <path d="M 429.460795 387.16 
L 434.171875 387.16 
L 434.171875 214.927822 
L 429.460795 214.927822 
z
" clip-path="url(#p18661ce55a)" style="fill: #9467bd"/>
   </g>
   <g id="patch_63">
    <path d="M 476.571591 387.16 
L 481.28267 387.16 
L 481.28267 137.929907 
L 476.571591 137.929907 
z
" clip-path="url(#p18661ce55a)" style="fill: #9467bd"/>
   </g>
   <g id="patch_64">
    <path d="M 523.682386 387.16 
L 528.393466 387.16 
L 528.393466 115.641037 
L 523.682386 115.641037 
z
" clip-path="url(#p18661ce55a)" style="fill: #9467bd"/>
   </g>
   <g id="patch_65">
    <path d="M 570.793182 387.16 
L 575.504261 387.16 
L 575.504261 107.535993 
L 570.793182 107.535993 
z
" clip-path="url(#p18661ce55a)" style="fill: #9467bd"/>
   </g>
   <g id="patch_66">
    <path d="M 617.903977 387.16 
L 622.615057 387.16 
L 622.615057 44.721905 
L 617.903977 44.721905 
z
" clip-path="url(#p18661ce55a)" style="fill: #9467bd"/>
   </g>
   <g id="patch_67">
    <path d="M 665.014773 387.16 
L 669.725852 387.16 
L 669.725852 71.063297 
L 665.014773 71.063297 
z
" clip-path="url(#p18661ce55a)" style="fill: #9467bd"/>
   </g>
   <g id="patch_68">
    <path d="M 104.396307 387.16 
L 109.107386 387.16 
L 109.107386 354.739825 
L 104.396307 354.739825 
z
" clip-path="url(#p18661ce55a)" style="fill: #8c564b"/>
   </g>
   <g id="patch_69">
    <path d="M 151.507102 387.16 
L 156.218182 387.16 
L 156.218182 330.424694 
L 151.507102 330.424694 
z
" clip-path="url(#p18661ce55a)" style="fill: #8c564b"/>
   </g>
   <g id="patch_70">
    <path d="M 198.617898 387.16 
L 203.328977 387.16 
L 203.328977 304.083302 
L 198.617898 304.083302 
z
" clip-path="url(#p18661ce55a)" style="fill: #8c564b"/>
   </g>
   <g id="patch_71">
    <path d="M 245.728693 387.16 
L 250.439773 387.16 
L 250.439773 287.873215 
L 245.728693 287.873215 
z
" clip-path="url(#p18661ce55a)" style="fill: #8c564b"/>
   </g>
   <g id="patch_72">
    <path d="M 292.839489 387.16 
L 297.550568 387.16 
L 297.550568 269.636867 
L 292.839489 269.636867 
z
" clip-path="url(#p18661ce55a)" style="fill: #8c564b"/>
   </g>
   <g id="patch_73">
    <path d="M 339.950284 387.16 
L 344.661364 387.16 
L 344.661364 229.111648 
L 339.950284 229.111648 
z
" clip-path="url(#p18661ce55a)" style="fill: #8c564b"/>
   </g>
   <g id="patch_74">
    <path d="M 387.06108 387.16 
L 391.772159 387.16 
L 391.772159 218.980344 
L 387.06108 218.980344 
z
" clip-path="url(#p18661ce55a)" style="fill: #8c564b"/>
   </g>
   <g id="patch_75">
    <path d="M 434.171875 387.16 
L 438.882955 387.16 
L 438.882955 204.796517 
L 434.171875 204.796517 
z
" clip-path="url(#p18661ce55a)" style="fill: #8c564b"/>
   </g>
   <g id="patch_76">
    <path d="M 481.28267 387.16 
L 485.99375 387.16 
L 485.99375 174.402604 
L 481.28267 174.402604 
z
" clip-path="url(#p18661ce55a)" style="fill: #8c564b"/>
   </g>
   <g id="patch_77">
    <path d="M 528.393466 387.16 
L 533.104545 387.16 
L 533.104545 129.824863 
L 528.393466 129.824863 
z
" clip-path="url(#p18661ce55a)" style="fill: #8c564b"/>
   </g>
   <g id="patch_78">
    <path d="M 575.504261 387.16 
L 580.215341 387.16 
L 580.215341 95.378428 
L 575.504261 95.378428 
z
" clip-path="url(#p18661ce55a)" style="fill: #8c564b"/>
   </g>
   <g id="patch_79">
    <path d="M 622.615057 387.16 
L 627.326136 387.16 
L 627.326136 67.010775 
L 622.615057 67.010775 
z
" clip-path="url(#p18661ce55a)" style="fill: #8c564b"/>
   </g>
   <g id="patch_80">
    <path d="M 669.725852 387.16 
L 674.436932 387.16 
L 674.436932 73.089558 
L 669.725852 73.089558 
z
" clip-path="url(#p18661ce55a)" style="fill: #8c564b"/>
   </g>
   <g id="patch_81">
    <path d="M 109.107386 387.16 
L 113.818466 387.16 
L 113.818466 354.739825 
L 109.107386 354.739825 
z
" clip-path="url(#p18661ce55a)" style="fill: #e377c2"/>
   </g>
   <g id="patch_82">
    <path d="M 156.218182 387.16 
L 160.929261 387.16 
L 160.929261 330.424694 
L 156.218182 330.424694 
z
" clip-path="url(#p18661ce55a)" style="fill: #e377c2"/>
   </g>
   <g id="patch_83">
    <path d="M 203.328977 387.16 
L 208.040057 387.16 
L 208.040057 312.188346 
L 203.328977 312.188346 
z
" clip-path="url(#p18661ce55a)" style="fill: #e377c2"/>
   </g>
   <g id="patch_84">
    <path d="M 250.439773 387.16 
L 255.150852 387.16 
L 255.150852 279.768171 
L 250.439773 279.768171 
z
" clip-path="url(#p18661ce55a)" style="fill: #e377c2"/>
   </g>
   <g id="patch_85">
    <path d="M 297.550568 387.16 
L 302.261648 387.16 
L 302.261648 269.636867 
L 297.550568 269.636867 
z
" clip-path="url(#p18661ce55a)" style="fill: #e377c2"/>
   </g>
   <g id="patch_86">
    <path d="M 344.661364 387.16 
L 349.372443 387.16 
L 349.372443 245.321736 
L 344.661364 245.321736 
z
" clip-path="url(#p18661ce55a)" style="fill: #e377c2"/>
   </g>
   <g id="patch_87">
    <path d="M 391.772159 387.16 
L 396.483239 387.16 
L 396.483239 243.295475 
L 391.772159 243.295475 
z
" clip-path="url(#p18661ce55a)" style="fill: #e377c2"/>
   </g>
   <g id="patch_88">
    <path d="M 438.882955 387.16 
L 443.594034 387.16 
L 443.594034 212.901561 
L 438.882955 212.901561 
z
" clip-path="url(#p18661ce55a)" style="fill: #e377c2"/>
   </g>
   <g id="patch_89">
    <path d="M 485.99375 387.16 
L 490.70483 387.16 
L 490.70483 154.139994 
L 485.99375 154.139994 
z
" clip-path="url(#p18661ce55a)" style="fill: #e377c2"/>
   </g>
   <g id="patch_90">
    <path d="M 533.104545 387.16 
L 537.815625 387.16 
L 537.815625 125.772342 
L 533.104545 125.772342 
z
" clip-path="url(#p18661ce55a)" style="fill: #e377c2"/>
   </g>
   <g id="patch_91">
    <path d="M 580.215341 387.16 
L 584.92642 387.16 
L 584.92642 99.43095 
L 580.215341 99.43095 
z
" clip-path="url(#p18661ce55a)" style="fill: #e377c2"/>
   </g>
   <g id="patch_92">
    <path d="M 627.326136 387.16 
L 632.037216 387.16 
L 632.037216 52.826948 
L 627.326136 52.826948 
z
" clip-path="url(#p18661ce55a)" style="fill: #e377c2"/>
   </g>
   <g id="patch_93">
    <path d="M 674.436932 387.16 
L 679.148011 387.16 
L 679.148011 87.273384 
L 674.436932 87.273384 
z
" clip-path="url(#p18661ce55a)" style="fill: #e377c2"/>
   </g>
   <g id="patch_94">
    <path d="M 113.818466 387.16 
L 118.529545 387.16 
L 118.529545 346.634782 
L 113.818466 346.634782 
z
" clip-path="url(#p18661ce55a)" style="fill: #7f7f7f"/>
   </g>
   <g id="patch_95">
    <path d="M 160.929261 387.16 
L 165.640341 387.16 
L 165.640341 328.398433 
L 160.929261 328.398433 
z
" clip-path="url(#p18661ce55a)" style="fill: #7f7f7f"/>
   </g>
   <g id="patch_96">
    <path d="M 208.040057 387.16 
L 212.751136 387.16 
L 212.751136 298.00452 
L 208.040057 298.00452 
z
" clip-path="url(#p18661ce55a)" style="fill: #7f7f7f"/>
   </g>
   <g id="patch_97">
    <path d="M 255.150852 387.16 
L 259.861932 387.16 
L 259.861932 279.768171 
L 255.150852 279.768171 
z
" clip-path="url(#p18661ce55a)" style="fill: #7f7f7f"/>
   </g>
   <g id="patch_98">
    <path d="M 302.261648 387.16 
L 306.972727 387.16 
L 306.972727 239.242953 
L 302.261648 239.242953 
z
" clip-path="url(#p18661ce55a)" style="fill: #7f7f7f"/>
   </g>
   <g id="patch_99">
    <path d="M 349.372443 387.16 
L 354.083523 387.16 
L 354.083523 214.927822 
L 349.372443 214.927822 
z
" clip-path="url(#p18661ce55a)" style="fill: #7f7f7f"/>
   </g>
   <g id="patch_100">
    <path d="M 396.483239 387.16 
L 401.194318 387.16 
L 401.194318 204.796517 
L 396.483239 204.796517 
z
" clip-path="url(#p18661ce55a)" style="fill: #7f7f7f"/>
   </g>
   <g id="patch_101">
    <path d="M 443.594034 387.16 
L 448.305114 387.16 
L 448.305114 210.8753 
L 443.594034 210.8753 
z
" clip-path="url(#p18661ce55a)" style="fill: #7f7f7f"/>
   </g>
   <g id="patch_102">
    <path d="M 490.70483 387.16 
L 495.415909 387.16 
L 495.415909 158.192516 
L 490.70483 158.192516 
z
" clip-path="url(#p18661ce55a)" style="fill: #7f7f7f"/>
   </g>
   <g id="patch_103">
    <path d="M 537.815625 387.16 
L 542.526705 387.16 
L 542.526705 141.982429 
L 537.815625 141.982429 
z
" clip-path="url(#p18661ce55a)" style="fill: #7f7f7f"/>
   </g>
   <g id="patch_104">
    <path d="M 584.92642 387.16 
L 589.6375 387.16 
L 589.6375 60.931992 
L 584.92642 60.931992 
z
" clip-path="url(#p18661ce55a)" style="fill: #7f7f7f"/>
   </g>
   <g id="patch_105">
    <path d="M 632.037216 387.16 
L 636.748295 387.16 
L 636.748295 48.774427 
L 632.037216 48.774427 
z
" clip-path="url(#p18661ce55a)" style="fill: #7f7f7f"/>
   </g>
   <g id="patch_106">
    <path d="M 679.148011 387.16 
L 683.859091 387.16 
L 683.859091 67.010775 
L 679.148011 67.010775 
z
" clip-path="url(#p18661ce55a)" style="fill: #7f7f7f"/>
   </g>
   <g id="matplotlib.axis_1">
    <g id="xtick_1">
     <g id="line2d_1">
      <defs>
       <path id="m0a0307eb36" d="M 0 0 
L 0 3.5 
" style="stroke: #000000; stroke-width: 0.8"/>
      </defs>
      <g>
       <use xlink:href="#m0a0307eb36" x="83.196449" y="387.16" style="stroke: #000000; stroke-width: 0.8"/>
      </g>
     </g>
     <g id="text_1">
      <!-- 25 -->
      <g transform="translate(76.833949 401.758438) scale(0.1 -0.1)">
       <defs>
        <path id="DejaVuSans-32" d="M 1228 531 
L 3431 531 
L 3431 0 
L 469 0 
L 469 531 
Q 828 903 1448 1529 
Q 2069 2156 2228 2338 
Q 2531 2678 2651 2914 
Q 2772 3150 2772 3378 
Q 2772 3750 2511 3984 
Q 2250 4219 1831 4219 
Q 1534 4219 1204 4116 
Q 875 4013 500 3803 
L 500 4441 
Q 881 4594 1212 4672 
Q 1544 4750 1819 4750 
Q 2544 4750 2975 4387 
Q 3406 4025 3406 3419 
Q 3406 3131 3298 2873 
Q 3191 2616 2906 2266 
Q 2828 2175 2409 1742 
Q 1991 1309 1228 531 
z
" transform="scale(0.015625)"/>
        <path id="DejaVuSans-35" d="M 691 4666 
L 3169 4666 
L 3169 4134 
L 1269 4134 
L 1269 2991 
Q 1406 3038 1543 3061 
Q 1681 3084 1819 3084 
Q 2600 3084 3056 2656 
Q 3513 2228 3513 1497 
Q 3513 744 3044 326 
Q 2575 -91 1722 -91 
Q 1428 -91 1123 -41 
Q 819 9 494 109 
L 494 744 
Q 775 591 1075 516 
Q 1375 441 1709 441 
Q 2250 441 2565 725 
Q 2881 1009 2881 1497 
Q 2881 1984 2565 2268 
Q 2250 2553 1709 2553 
Q 1456 2553 1204 2497 
Q 953 2441 691 2322 
L 691 4666 
z
" transform="scale(0.015625)"/>
       </defs>
       <use xlink:href="#DejaVuSans-32"/>
       <use xlink:href="#DejaVuSans-35" x="63.623047"/>
      </g>
     </g>
    </g>
    <g id="xtick_2">
     <g id="line2d_2">
      <g>
       <use xlink:href="#m0a0307eb36" x="130.307244" y="387.16" style="stroke: #000000; stroke-width: 0.8"/>
      </g>
     </g>
     <g id="text_2">
      <!-- 26 -->
      <g transform="translate(123.944744 401.758438) scale(0.1 -0.1)">
       <defs>
        <path id="DejaVuSans-36" d="M 2113 2584 
Q 1688 2584 1439 2293 
Q 1191 2003 1191 1497 
Q 1191 994 1439 701 
Q 1688 409 2113 409 
Q 2538 409 2786 701 
Q 3034 994 3034 1497 
Q 3034 2003 2786 2293 
Q 2538 2584 2113 2584 
z
M 3366 4563 
L 3366 3988 
Q 3128 4100 2886 4159 
Q 2644 4219 2406 4219 
Q 1781 4219 1451 3797 
Q 1122 3375 1075 2522 
Q 1259 2794 1537 2939 
Q 1816 3084 2150 3084 
Q 2853 3084 3261 2657 
Q 3669 2231 3669 1497 
Q 3669 778 3244 343 
Q 2819 -91 2113 -91 
Q 1303 -91 875 529 
Q 447 1150 447 2328 
Q 447 3434 972 4092 
Q 1497 4750 2381 4750 
Q 2619 4750 2861 4703 
Q 3103 4656 3366 4563 
z
" transform="scale(0.015625)"/>
       </defs>
       <use xlink:href="#DejaVuSans-32"/>
       <use xlink:href="#DejaVuSans-36" x="63.623047"/>
      </g>
     </g>
    </g>
    <g id="xtick_3">
     <g id="line2d_3">
      <g>
       <use xlink:href="#m0a0307eb36" x="177.41804" y="387.16" style="stroke: #000000; stroke-width: 0.8"/>
      </g>
     </g>
     <g id="text_3">
      <!-- 27 -->
      <g transform="translate(171.05554 401.758438) scale(0.1 -0.1)">
       <defs>
        <path id="DejaVuSans-37" d="M 525 4666 
L 3525 4666 
L 3525 4397 
L 1831 0 
L 1172 0 
L 2766 4134 
L 525 4134 
L 525 4666 
z
" transform="scale(0.015625)"/>
       </defs>
       <use xlink:href="#DejaVuSans-32"/>
       <use xlink:href="#DejaVuSans-37" x="63.623047"/>
      </g>
     </g>
    </g>
    <g id="xtick_4">
     <g id="line2d_4">
      <g>
       <use xlink:href="#m0a0307eb36" x="224.528835" y="387.16" style="stroke: #000000; stroke-width: 0.8"/>
      </g>
     </g>
     <g id="text_4">
      <!-- 28 -->
      <g transform="translate(218.166335 401.758438) scale(0.1 -0.1)">
       <defs>
        <path id="DejaVuSans-38" d="M 2034 2216 
Q 1584 2216 1326 1975 
Q 1069 1734 1069 1313 
Q 1069 891 1326 650 
Q 1584 409 2034 409 
Q 2484 409 2743 651 
Q 3003 894 3003 1313 
Q 3003 1734 2745 1975 
Q 2488 2216 2034 2216 
z
M 1403 2484 
Q 997 2584 770 2862 
Q 544 3141 544 3541 
Q 544 4100 942 4425 
Q 1341 4750 2034 4750 
Q 2731 4750 3128 4425 
Q 3525 4100 3525 3541 
Q 3525 3141 3298 2862 
Q 3072 2584 2669 2484 
Q 3125 2378 3379 2068 
Q 3634 1759 3634 1313 
Q 3634 634 3220 271 
Q 2806 -91 2034 -91 
Q 1263 -91 848 271 
Q 434 634 434 1313 
Q 434 1759 690 2068 
Q 947 2378 1403 2484 
z
M 1172 3481 
Q 1172 3119 1398 2916 
Q 1625 2713 2034 2713 
Q 2441 2713 2670 2916 
Q 2900 3119 2900 3481 
Q 2900 3844 2670 4047 
Q 2441 4250 2034 4250 
Q 1625 4250 1398 4047 
Q 1172 3844 1172 3481 
z
" transform="scale(0.015625)"/>
       </defs>
       <use xlink:href="#DejaVuSans-32"/>
       <use xlink:href="#DejaVuSans-38" x="63.623047"/>
      </g>
     </g>
    </g>
    <g id="xtick_5">
     <g id="line2d_5">
      <g>
       <use xlink:href="#m0a0307eb36" x="271.639631" y="387.16" style="stroke: #000000; stroke-width: 0.8"/>
      </g>
     </g>
     <g id="text_5">
      <!-- 29 -->
      <g transform="translate(265.277131 401.758438) scale(0.1 -0.1)">
       <defs>
        <path id="DejaVuSans-39" d="M 703 97 
L 703 672 
Q 941 559 1184 500 
Q 1428 441 1663 441 
Q 2288 441 2617 861 
Q 2947 1281 2994 2138 
Q 2813 1869 2534 1725 
Q 2256 1581 1919 1581 
Q 1219 1581 811 2004 
Q 403 2428 403 3163 
Q 403 3881 828 4315 
Q 1253 4750 1959 4750 
Q 2769 4750 3195 4129 
Q 3622 3509 3622 2328 
Q 3622 1225 3098 567 
Q 2575 -91 1691 -91 
Q 1453 -91 1209 -44 
Q 966 3 703 97 
z
M 1959 2075 
Q 2384 2075 2632 2365 
Q 2881 2656 2881 3163 
Q 2881 3666 2632 3958 
Q 2384 4250 1959 4250 
Q 1534 4250 1286 3958 
Q 1038 3666 1038 3163 
Q 1038 2656 1286 2365 
Q 1534 2075 1959 2075 
z
" transform="scale(0.015625)"/>
       </defs>
       <use xlink:href="#DejaVuSans-32"/>
       <use xlink:href="#DejaVuSans-39" x="63.623047"/>
      </g>
     </g>
    </g>
    <g id="xtick_6">
     <g id="line2d_6">
      <g>
       <use xlink:href="#m0a0307eb36" x="318.750426" y="387.16" style="stroke: #000000; stroke-width: 0.8"/>
      </g>
     </g>
     <g id="text_6">
      <!-- 30 -->
      <g transform="translate(312.387926 401.758438) scale(0.1 -0.1)">
       <defs>
        <path id="DejaVuSans-33" d="M 2597 2516 
Q 3050 2419 3304 2112 
Q 3559 1806 3559 1356 
Q 3559 666 3084 287 
Q 2609 -91 1734 -91 
Q 1441 -91 1130 -33 
Q 819 25 488 141 
L 488 750 
Q 750 597 1062 519 
Q 1375 441 1716 441 
Q 2309 441 2620 675 
Q 2931 909 2931 1356 
Q 2931 1769 2642 2001 
Q 2353 2234 1838 2234 
L 1294 2234 
L 1294 2753 
L 1863 2753 
Q 2328 2753 2575 2939 
Q 2822 3125 2822 3475 
Q 2822 3834 2567 4026 
Q 2313 4219 1838 4219 
Q 1578 4219 1281 4162 
Q 984 4106 628 3988 
L 628 4550 
Q 988 4650 1302 4700 
Q 1616 4750 1894 4750 
Q 2613 4750 3031 4423 
Q 3450 4097 3450 3541 
Q 3450 3153 3228 2886 
Q 3006 2619 2597 2516 
z
" transform="scale(0.015625)"/>
        <path id="DejaVuSans-30" d="M 2034 4250 
Q 1547 4250 1301 3770 
Q 1056 3291 1056 2328 
Q 1056 1369 1301 889 
Q 1547 409 2034 409 
Q 2525 409 2770 889 
Q 3016 1369 3016 2328 
Q 3016 3291 2770 3770 
Q 2525 4250 2034 4250 
z
M 2034 4750 
Q 2819 4750 3233 4129 
Q 3647 3509 3647 2328 
Q 3647 1150 3233 529 
Q 2819 -91 2034 -91 
Q 1250 -91 836 529 
Q 422 1150 422 2328 
Q 422 3509 836 4129 
Q 1250 4750 2034 4750 
z
" transform="scale(0.015625)"/>
       </defs>
       <use xlink:href="#DejaVuSans-33"/>
       <use xlink:href="#DejaVuSans-30" x="63.623047"/>
      </g>
     </g>
    </g>
    <g id="xtick_7">
     <g id="line2d_7">
      <g>
       <use xlink:href="#m0a0307eb36" x="365.861222" y="387.16" style="stroke: #000000; stroke-width: 0.8"/>
      </g>
     </g>
     <g id="text_7">
      <!-- 31 -->
      <g transform="translate(359.498722 401.758438) scale(0.1 -0.1)">
       <defs>
        <path id="DejaVuSans-31" d="M 794 531 
L 1825 531 
L 1825 4091 
L 703 3866 
L 703 4441 
L 1819 4666 
L 2450 4666 
L 2450 531 
L 3481 531 
L 3481 0 
L 794 0 
L 794 531 
z
" transform="scale(0.015625)"/>
       </defs>
       <use xlink:href="#DejaVuSans-33"/>
       <use xlink:href="#DejaVuSans-31" x="63.623047"/>
      </g>
     </g>
    </g>
    <g id="xtick_8">
     <g id="line2d_8">
      <g>
       <use xlink:href="#m0a0307eb36" x="412.972017" y="387.16" style="stroke: #000000; stroke-width: 0.8"/>
      </g>
     </g>
     <g id="text_8">
      <!-- 32 -->
      <g transform="translate(406.609517 401.758438) scale(0.1 -0.1)">
       <use xlink:href="#DejaVuSans-33"/>
       <use xlink:href="#DejaVuSans-32" x="63.623047"/>
      </g>
     </g>
    </g>
    <g id="xtick_9">
     <g id="line2d_9">
      <g>
       <use xlink:href="#m0a0307eb36" x="460.082812" y="387.16" style="stroke: #000000; stroke-width: 0.8"/>
      </g>
     </g>
     <g id="text_9">
      <!-- 33 -->
      <g transform="translate(453.720312 401.758438) scale(0.1 -0.1)">
       <use xlink:href="#DejaVuSans-33"/>
       <use xlink:href="#DejaVuSans-33" x="63.623047"/>
      </g>
     </g>
    </g>
    <g id="xtick_10">
     <g id="line2d_10">
      <g>
       <use xlink:href="#m0a0307eb36" x="507.193608" y="387.16" style="stroke: #000000; stroke-width: 0.8"/>
      </g>
     </g>
     <g id="text_10">
      <!-- 34 -->
      <g transform="translate(500.831108 401.758438) scale(0.1 -0.1)">
       <defs>
        <path id="DejaVuSans-34" d="M 2419 4116 
L 825 1625 
L 2419 1625 
L 2419 4116 
z
M 2253 4666 
L 3047 4666 
L 3047 1625 
L 3713 1625 
L 3713 1100 
L 3047 1100 
L 3047 0 
L 2419 0 
L 2419 1100 
L 313 1100 
L 313 1709 
L 2253 4666 
z
" transform="scale(0.015625)"/>
       </defs>
       <use xlink:href="#DejaVuSans-33"/>
       <use xlink:href="#DejaVuSans-34" x="63.623047"/>
      </g>
     </g>
    </g>
    <g id="xtick_11">
     <g id="line2d_11">
      <g>
       <use xlink:href="#m0a0307eb36" x="554.304403" y="387.16" style="stroke: #000000; stroke-width: 0.8"/>
      </g>
     </g>
     <g id="text_11">
      <!-- 35 -->
      <g transform="translate(547.941903 401.758438) scale(0.1 -0.1)">
       <use xlink:href="#DejaVuSans-33"/>
       <use xlink:href="#DejaVuSans-35" x="63.623047"/>
      </g>
     </g>
    </g>
    <g id="xtick_12">
     <g id="line2d_12">
      <g>
       <use xlink:href="#m0a0307eb36" x="601.415199" y="387.16" style="stroke: #000000; stroke-width: 0.8"/>
      </g>
     </g>
     <g id="text_12">
      <!-- 36 -->
      <g transform="translate(595.052699 401.758438) scale(0.1 -0.1)">
       <use xlink:href="#DejaVuSans-33"/>
       <use xlink:href="#DejaVuSans-36" x="63.623047"/>
      </g>
     </g>
    </g>
    <g id="xtick_13">
     <g id="line2d_13">
      <g>
       <use xlink:href="#m0a0307eb36" x="648.525994" y="387.16" style="stroke: #000000; stroke-width: 0.8"/>
      </g>
     </g>
     <g id="text_13">
      <!-- 37 -->
      <g transform="translate(642.163494 401.758438) scale(0.1 -0.1)">
       <use xlink:href="#DejaVuSans-33"/>
       <use xlink:href="#DejaVuSans-37" x="63.623047"/>
      </g>
     </g>
    </g>
    <g id="text_14">
     <!-- K Value -->
     <g transform="translate(360.030937 416.95625) scale(0.12 -0.12)">
      <defs>
       <path id="DejaVuSans-4b" d="M 628 4666 
L 1259 4666 
L 1259 2694 
L 3353 4666 
L 4166 4666 
L 1850 2491 
L 4331 0 
L 3500 0 
L 1259 2247 
L 1259 0 
L 628 0 
L 628 4666 
z
" transform="scale(0.015625)"/>
       <path id="DejaVuSans-20" transform="scale(0.015625)"/>
       <path id="DejaVuSans-56" d="M 1831 0 
L 50 4666 
L 709 4666 
L 2188 738 
L 3669 4666 
L 4325 4666 
L 2547 0 
L 1831 0 
z
" transform="scale(0.015625)"/>
       <path id="DejaVuSans-61" d="M 2194 1759 
Q 1497 1759 1228 1600 
Q 959 1441 959 1056 
Q 959 750 1161 570 
Q 1363 391 1709 391 
Q 2188 391 2477 730 
Q 2766 1069 2766 1631 
L 2766 1759 
L 2194 1759 
z
M 3341 1997 
L 3341 0 
L 2766 0 
L 2766 531 
Q 2569 213 2275 61 
Q 1981 -91 1556 -91 
Q 1019 -91 701 211 
Q 384 513 384 1019 
Q 384 1609 779 1909 
Q 1175 2209 1959 2209 
L 2766 2209 
L 2766 2266 
Q 2766 2663 2505 2880 
Q 2244 3097 1772 3097 
Q 1472 3097 1187 3025 
Q 903 2953 641 2809 
L 641 3341 
Q 956 3463 1253 3523 
Q 1550 3584 1831 3584 
Q 2591 3584 2966 3190 
Q 3341 2797 3341 1997 
z
" transform="scale(0.015625)"/>
       <path id="DejaVuSans-6c" d="M 603 4863 
L 1178 4863 
L 1178 0 
L 603 0 
L 603 4863 
z
" transform="scale(0.015625)"/>
       <path id="DejaVuSans-75" d="M 544 1381 
L 544 3500 
L 1119 3500 
L 1119 1403 
Q 1119 906 1312 657 
Q 1506 409 1894 409 
Q 2359 409 2629 706 
Q 2900 1003 2900 1516 
L 2900 3500 
L 3475 3500 
L 3475 0 
L 2900 0 
L 2900 538 
Q 2691 219 2414 64 
Q 2138 -91 1772 -91 
Q 1169 -91 856 284 
Q 544 659 544 1381 
z
M 1991 3584 
L 1991 3584 
z
" transform="scale(0.015625)"/>
       <path id="DejaVuSans-65" d="M 3597 1894 
L 3597 1613 
L 953 1613 
Q 991 1019 1311 708 
Q 1631 397 2203 397 
Q 2534 397 2845 478 
Q 3156 559 3463 722 
L 3463 178 
Q 3153 47 2828 -22 
Q 2503 -91 2169 -91 
Q 1331 -91 842 396 
Q 353 884 353 1716 
Q 353 2575 817 3079 
Q 1281 3584 2069 3584 
Q 2775 3584 3186 3129 
Q 3597 2675 3597 1894 
z
M 3022 2063 
Q 3016 2534 2758 2815 
Q 2500 3097 2075 3097 
Q 1594 3097 1305 2825 
Q 1016 2553 972 2059 
L 3022 2063 
z
" transform="scale(0.015625)"/>
      </defs>
      <use xlink:href="#DejaVuSans-4b"/>
      <use xlink:href="#DejaVuSans-20" x="65.576172"/>
      <use xlink:href="#DejaVuSans-56" x="97.363281"/>
      <use xlink:href="#DejaVuSans-61" x="158.021484"/>
      <use xlink:href="#DejaVuSans-6c" x="219.300781"/>
      <use xlink:href="#DejaVuSans-75" x="247.083984"/>
      <use xlink:href="#DejaVuSans-65" x="310.462891"/>
     </g>
    </g>
   </g>
   <g id="matplotlib.axis_2">
    <g id="ytick_1">
     <g id="line2d_14">
      <defs>
       <path id="mf3f095c3d3" d="M 0 0 
L -3.5 0 
" style="stroke: #000000; stroke-width: 0.8"/>
      </defs>
      <g>
       <use xlink:href="#mf3f095c3d3" x="50.69" y="387.16" style="stroke: #000000; stroke-width: 0.8"/>
      </g>
     </g>
     <g id="text_15">
      <!-- 0.0 -->
      <g transform="translate(27.786875 390.959219) scale(0.1 -0.1)">
       <defs>
        <path id="DejaVuSans-2e" d="M 684 794 
L 1344 794 
L 1344 0 
L 684 0 
L 684 794 
z
" transform="scale(0.015625)"/>
       </defs>
       <use xlink:href="#DejaVuSans-30"/>
       <use xlink:href="#DejaVuSans-2e" x="63.623047"/>
       <use xlink:href="#DejaVuSans-30" x="95.410156"/>
      </g>
     </g>
    </g>
    <g id="ytick_2">
     <g id="line2d_15">
      <g>
       <use xlink:href="#mf3f095c3d3" x="50.69" y="346.634782" style="stroke: #000000; stroke-width: 0.8"/>
      </g>
     </g>
     <g id="text_16">
      <!-- 0.2 -->
      <g transform="translate(27.786875 350.434) scale(0.1 -0.1)">
       <use xlink:href="#DejaVuSans-30"/>
       <use xlink:href="#DejaVuSans-2e" x="63.623047"/>
       <use xlink:href="#DejaVuSans-32" x="95.410156"/>
      </g>
     </g>
    </g>
    <g id="ytick_3">
     <g id="line2d_16">
      <g>
       <use xlink:href="#mf3f095c3d3" x="50.69" y="306.109563" style="stroke: #000000; stroke-width: 0.8"/>
      </g>
     </g>
     <g id="text_17">
      <!-- 0.4 -->
      <g transform="translate(27.786875 309.908782) scale(0.1 -0.1)">
       <use xlink:href="#DejaVuSans-30"/>
       <use xlink:href="#DejaVuSans-2e" x="63.623047"/>
       <use xlink:href="#DejaVuSans-34" x="95.410156"/>
      </g>
     </g>
    </g>
    <g id="ytick_4">
     <g id="line2d_17">
      <g>
       <use xlink:href="#mf3f095c3d3" x="50.69" y="265.584345" style="stroke: #000000; stroke-width: 0.8"/>
      </g>
     </g>
     <g id="text_18">
      <!-- 0.6 -->
      <g transform="translate(27.786875 269.383564) scale(0.1 -0.1)">
       <use xlink:href="#DejaVuSans-30"/>
       <use xlink:href="#DejaVuSans-2e" x="63.623047"/>
       <use xlink:href="#DejaVuSans-36" x="95.410156"/>
      </g>
     </g>
    </g>
    <g id="ytick_5">
     <g id="line2d_18">
      <g>
       <use xlink:href="#mf3f095c3d3" x="50.69" y="225.059127" style="stroke: #000000; stroke-width: 0.8"/>
      </g>
     </g>
     <g id="text_19">
      <!-- 0.8 -->
      <g transform="translate(27.786875 228.858345) scale(0.1 -0.1)">
       <use xlink:href="#DejaVuSans-30"/>
       <use xlink:href="#DejaVuSans-2e" x="63.623047"/>
       <use xlink:href="#DejaVuSans-38" x="95.410156"/>
      </g>
     </g>
    </g>
    <g id="ytick_6">
     <g id="line2d_19">
      <g>
       <use xlink:href="#mf3f095c3d3" x="50.69" y="184.533908" style="stroke: #000000; stroke-width: 0.8"/>
      </g>
     </g>
     <g id="text_20">
      <!-- 1.0 -->
      <g transform="translate(27.786875 188.333127) scale(0.1 -0.1)">
       <use xlink:href="#DejaVuSans-31"/>
       <use xlink:href="#DejaVuSans-2e" x="63.623047"/>
       <use xlink:href="#DejaVuSans-30" x="95.410156"/>
      </g>
     </g>
    </g>
    <g id="ytick_7">
     <g id="line2d_20">
      <g>
       <use xlink:href="#mf3f095c3d3" x="50.69" y="144.00869" style="stroke: #000000; stroke-width: 0.8"/>
      </g>
     </g>
     <g id="text_21">
      <!-- 1.2 -->
      <g transform="translate(27.786875 147.807909) scale(0.1 -0.1)">
       <use xlink:href="#DejaVuSans-31"/>
       <use xlink:href="#DejaVuSans-2e" x="63.623047"/>
       <use xlink:href="#DejaVuSans-32" x="95.410156"/>
      </g>
     </g>
    </g>
    <g id="ytick_8">
     <g id="line2d_21">
      <g>
       <use xlink:href="#mf3f095c3d3" x="50.69" y="103.483471" style="stroke: #000000; stroke-width: 0.8"/>
      </g>
     </g>
     <g id="text_22">
      <!-- 1.4 -->
      <g transform="translate(27.786875 107.28269) scale(0.1 -0.1)">
       <use xlink:href="#DejaVuSans-31"/>
       <use xlink:href="#DejaVuSans-2e" x="63.623047"/>
       <use xlink:href="#DejaVuSans-34" x="95.410156"/>
      </g>
     </g>
    </g>
    <g id="ytick_9">
     <g id="line2d_22">
      <g>
       <use xlink:href="#mf3f095c3d3" x="50.69" y="62.958253" style="stroke: #000000; stroke-width: 0.8"/>
      </g>
     </g>
     <g id="text_23">
      <!-- 1.6 -->
      <g transform="translate(27.786875 66.757472) scale(0.1 -0.1)">
       <use xlink:href="#DejaVuSans-31"/>
       <use xlink:href="#DejaVuSans-2e" x="63.623047"/>
       <use xlink:href="#DejaVuSans-36" x="95.410156"/>
      </g>
     </g>
    </g>
    <g id="text_24">
     <!-- Average Lookup Time (ms) -->
     <g transform="translate(21.29125 287.55125) rotate(-90) scale(0.12 -0.12)">
      <defs>
       <path id="DejaVuSans-41" d="M 2188 4044 
L 1331 1722 
L 3047 1722 
L 2188 4044 
z
M 1831 4666 
L 2547 4666 
L 4325 0 
L 3669 0 
L 3244 1197 
L 1141 1197 
L 716 0 
L 50 0 
L 1831 4666 
z
" transform="scale(0.015625)"/>
       <path id="DejaVuSans-76" d="M 191 3500 
L 800 3500 
L 1894 563 
L 2988 3500 
L 3597 3500 
L 2284 0 
L 1503 0 
L 191 3500 
z
" transform="scale(0.015625)"/>
       <path id="DejaVuSans-72" d="M 2631 2963 
Q 2534 3019 2420 3045 
Q 2306 3072 2169 3072 
Q 1681 3072 1420 2755 
Q 1159 2438 1159 1844 
L 1159 0 
L 581 0 
L 581 3500 
L 1159 3500 
L 1159 2956 
Q 1341 3275 1631 3429 
Q 1922 3584 2338 3584 
Q 2397 3584 2469 3576 
Q 2541 3569 2628 3553 
L 2631 2963 
z
" transform="scale(0.015625)"/>
       <path id="DejaVuSans-67" d="M 2906 1791 
Q 2906 2416 2648 2759 
Q 2391 3103 1925 3103 
Q 1463 3103 1205 2759 
Q 947 2416 947 1791 
Q 947 1169 1205 825 
Q 1463 481 1925 481 
Q 2391 481 2648 825 
Q 2906 1169 2906 1791 
z
M 3481 434 
Q 3481 -459 3084 -895 
Q 2688 -1331 1869 -1331 
Q 1566 -1331 1297 -1286 
Q 1028 -1241 775 -1147 
L 775 -588 
Q 1028 -725 1275 -790 
Q 1522 -856 1778 -856 
Q 2344 -856 2625 -561 
Q 2906 -266 2906 331 
L 2906 616 
Q 2728 306 2450 153 
Q 2172 0 1784 0 
Q 1141 0 747 490 
Q 353 981 353 1791 
Q 353 2603 747 3093 
Q 1141 3584 1784 3584 
Q 2172 3584 2450 3431 
Q 2728 3278 2906 2969 
L 2906 3500 
L 3481 3500 
L 3481 434 
z
" transform="scale(0.015625)"/>
       <path id="DejaVuSans-4c" d="M 628 4666 
L 1259 4666 
L 1259 531 
L 3531 531 
L 3531 0 
L 628 0 
L 628 4666 
z
" transform="scale(0.015625)"/>
       <path id="DejaVuSans-6f" d="M 1959 3097 
Q 1497 3097 1228 2736 
Q 959 2375 959 1747 
Q 959 1119 1226 758 
Q 1494 397 1959 397 
Q 2419 397 2687 759 
Q 2956 1122 2956 1747 
Q 2956 2369 2687 2733 
Q 2419 3097 1959 3097 
z
M 1959 3584 
Q 2709 3584 3137 3096 
Q 3566 2609 3566 1747 
Q 3566 888 3137 398 
Q 2709 -91 1959 -91 
Q 1206 -91 779 398 
Q 353 888 353 1747 
Q 353 2609 779 3096 
Q 1206 3584 1959 3584 
z
" transform="scale(0.015625)"/>
       <path id="DejaVuSans-6b" d="M 581 4863 
L 1159 4863 
L 1159 1991 
L 2875 3500 
L 3609 3500 
L 1753 1863 
L 3688 0 
L 2938 0 
L 1159 1709 
L 1159 0 
L 581 0 
L 581 4863 
z
" transform="scale(0.015625)"/>
       <path id="DejaVuSans-70" d="M 1159 525 
L 1159 -1331 
L 581 -1331 
L 581 3500 
L 1159 3500 
L 1159 2969 
Q 1341 3281 1617 3432 
Q 1894 3584 2278 3584 
Q 2916 3584 3314 3078 
Q 3713 2572 3713 1747 
Q 3713 922 3314 415 
Q 2916 -91 2278 -91 
Q 1894 -91 1617 61 
Q 1341 213 1159 525 
z
M 3116 1747 
Q 3116 2381 2855 2742 
Q 2594 3103 2138 3103 
Q 1681 3103 1420 2742 
Q 1159 2381 1159 1747 
Q 1159 1113 1420 752 
Q 1681 391 2138 391 
Q 2594 391 2855 752 
Q 3116 1113 3116 1747 
z
" transform="scale(0.015625)"/>
       <path id="DejaVuSans-54" d="M -19 4666 
L 3928 4666 
L 3928 4134 
L 2272 4134 
L 2272 0 
L 1638 0 
L 1638 4134 
L -19 4134 
L -19 4666 
z
" transform="scale(0.015625)"/>
       <path id="DejaVuSans-69" d="M 603 3500 
L 1178 3500 
L 1178 0 
L 603 0 
L 603 3500 
z
M 603 4863 
L 1178 4863 
L 1178 4134 
L 603 4134 
L 603 4863 
z
" transform="scale(0.015625)"/>
       <path id="DejaVuSans-6d" d="M 3328 2828 
Q 3544 3216 3844 3400 
Q 4144 3584 4550 3584 
Q 5097 3584 5394 3201 
Q 5691 2819 5691 2113 
L 5691 0 
L 5113 0 
L 5113 2094 
Q 5113 2597 4934 2840 
Q 4756 3084 4391 3084 
Q 3944 3084 3684 2787 
Q 3425 2491 3425 1978 
L 3425 0 
L 2847 0 
L 2847 2094 
Q 2847 2600 2669 2842 
Q 2491 3084 2119 3084 
Q 1678 3084 1418 2786 
Q 1159 2488 1159 1978 
L 1159 0 
L 581 0 
L 581 3500 
L 1159 3500 
L 1159 2956 
Q 1356 3278 1631 3431 
Q 1906 3584 2284 3584 
Q 2666 3584 2933 3390 
Q 3200 3197 3328 2828 
z
" transform="scale(0.015625)"/>
       <path id="DejaVuSans-28" d="M 1984 4856 
Q 1566 4138 1362 3434 
Q 1159 2731 1159 2009 
Q 1159 1288 1364 580 
Q 1569 -128 1984 -844 
L 1484 -844 
Q 1016 -109 783 600 
Q 550 1309 550 2009 
Q 550 2706 781 3412 
Q 1013 4119 1484 4856 
L 1984 4856 
z
" transform="scale(0.015625)"/>
       <path id="DejaVuSans-73" d="M 2834 3397 
L 2834 2853 
Q 2591 2978 2328 3040 
Q 2066 3103 1784 3103 
Q 1356 3103 1142 2972 
Q 928 2841 928 2578 
Q 928 2378 1081 2264 
Q 1234 2150 1697 2047 
L 1894 2003 
Q 2506 1872 2764 1633 
Q 3022 1394 3022 966 
Q 3022 478 2636 193 
Q 2250 -91 1575 -91 
Q 1294 -91 989 -36 
Q 684 19 347 128 
L 347 722 
Q 666 556 975 473 
Q 1284 391 1588 391 
Q 1994 391 2212 530 
Q 2431 669 2431 922 
Q 2431 1156 2273 1281 
Q 2116 1406 1581 1522 
L 1381 1569 
Q 847 1681 609 1914 
Q 372 2147 372 2553 
Q 372 3047 722 3315 
Q 1072 3584 1716 3584 
Q 2034 3584 2315 3537 
Q 2597 3491 2834 3397 
z
" transform="scale(0.015625)"/>
       <path id="DejaVuSans-29" d="M 513 4856 
L 1013 4856 
Q 1481 4119 1714 3412 
Q 1947 2706 1947 2009 
Q 1947 1309 1714 600 
Q 1481 -109 1013 -844 
L 513 -844 
Q 928 -128 1133 580 
Q 1338 1288 1338 2009 
Q 1338 2731 1133 3434 
Q 928 4138 513 4856 
z
" transform="scale(0.015625)"/>
      </defs>
      <use xlink:href="#DejaVuSans-41"/>
      <use xlink:href="#DejaVuSans-76" x="62.533203"/>
      <use xlink:href="#DejaVuSans-65" x="121.712891"/>
      <use xlink:href="#DejaVuSans-72" x="183.236328"/>
      <use xlink:href="#DejaVuSans-61" x="224.349609"/>
      <use xlink:href="#DejaVuSans-67" x="285.628906"/>
      <use xlink:href="#DejaVuSans-65" x="349.105469"/>
      <use xlink:href="#DejaVuSans-20" x="410.628906"/>
      <use xlink:href="#DejaVuSans-4c" x="442.416016"/>
      <use xlink:href="#DejaVuSans-6f" x="496.378906"/>
      <use xlink:href="#DejaVuSans-6f" x="557.560547"/>
      <use xlink:href="#DejaVuSans-6b" x="618.742188"/>
      <use xlink:href="#DejaVuSans-75" x="673.527344"/>
      <use xlink:href="#DejaVuSans-70" x="736.90625"/>
      <use xlink:href="#DejaVuSans-20" x="800.382812"/>
      <use xlink:href="#DejaVuSans-54" x="832.169922"/>
      <use xlink:href="#DejaVuSans-69" x="890.128906"/>
      <use xlink:href="#DejaVuSans-6d" x="917.912109"/>
      <use xlink:href="#DejaVuSans-65" x="1015.324219"/>
      <use xlink:href="#DejaVuSans-20" x="1076.847656"/>
      <use xlink:href="#DejaVuSans-28" x="1108.634766"/>
      <use xlink:href="#DejaVuSans-6d" x="1147.648438"/>
      <use xlink:href="#DejaVuSans-73" x="1245.060547"/>
      <use xlink:href="#DejaVuSans-29" x="1297.160156"/>
     </g>
    </g>
   </g>
   <g id="patch_107">
    <path d="M 50.69 387.16 
L 50.69 27.6 
" style="fill: none; stroke: #000000; stroke-width: 0.8; stroke-linejoin: miter; stroke-linecap: square"/>
   </g>
   <g id="patch_108">
    <path d="M 714.01 387.16 
L 714.01 27.6 
" style="fill: none; stroke: #000000; stroke-width: 0.8; stroke-linejoin: miter; stroke-linecap: square"/>
   </g>
   <g id="patch_109">
    <path d="M 50.69 387.16 
L 714.01 387.16 
" style="fill: none; stroke: #000000; stroke-width: 0.8; stroke-linejoin: miter; stroke-linecap: square"/>
   </g>
   <g id="patch_110">
    <path d="M 50.69 27.6 
L 714.01 27.6 
" style="fill: none; stroke: #000000; stroke-width: 0.8; stroke-linejoin: miter; stroke-linecap: square"/>
   </g>
   <g id="text_25">
    <!-- Epycbox_ssd_v2 - SSD Drives -->
    <g transform="translate(279.719062 21.6) scale(0.14 -0.14)">
     <defs>
      <path id="DejaVuSans-45" d="M 628 4666 
L 3578 4666 
L 3578 4134 
L 1259 4134 
L 1259 2753 
L 3481 2753 
L 3481 2222 
L 1259 2222 
L 1259 531 
L 3634 531 
L 3634 0 
L 628 0 
L 628 4666 
z
" transform="scale(0.015625)"/>
      <path id="DejaVuSans-79" d="M 2059 -325 
Q 1816 -950 1584 -1140 
Q 1353 -1331 966 -1331 
L 506 -1331 
L 506 -850 
L 844 -850 
Q 1081 -850 1212 -737 
Q 1344 -625 1503 -206 
L 1606 56 
L 191 3500 
L 800 3500 
L 1894 763 
L 2988 3500 
L 3597 3500 
L 2059 -325 
z
" transform="scale(0.015625)"/>
      <path id="DejaVuSans-63" d="M 3122 3366 
L 3122 2828 
Q 2878 2963 2633 3030 
Q 2388 3097 2138 3097 
Q 1578 3097 1268 2742 
Q 959 2388 959 1747 
Q 959 1106 1268 751 
Q 1578 397 2138 397 
Q 2388 397 2633 464 
Q 2878 531 3122 666 
L 3122 134 
Q 2881 22 2623 -34 
Q 2366 -91 2075 -91 
Q 1284 -91 818 406 
Q 353 903 353 1747 
Q 353 2603 823 3093 
Q 1294 3584 2113 3584 
Q 2378 3584 2631 3529 
Q 2884 3475 3122 3366 
z
" transform="scale(0.015625)"/>
      <path id="DejaVuSans-62" d="M 3116 1747 
Q 3116 2381 2855 2742 
Q 2594 3103 2138 3103 
Q 1681 3103 1420 2742 
Q 1159 2381 1159 1747 
Q 1159 1113 1420 752 
Q 1681 391 2138 391 
Q 2594 391 2855 752 
Q 3116 1113 3116 1747 
z
M 1159 2969 
Q 1341 3281 1617 3432 
Q 1894 3584 2278 3584 
Q 2916 3584 3314 3078 
Q 3713 2572 3713 1747 
Q 3713 922 3314 415 
Q 2916 -91 2278 -91 
Q 1894 -91 1617 61 
Q 1341 213 1159 525 
L 1159 0 
L 581 0 
L 581 4863 
L 1159 4863 
L 1159 2969 
z
" transform="scale(0.015625)"/>
      <path id="DejaVuSans-78" d="M 3513 3500 
L 2247 1797 
L 3578 0 
L 2900 0 
L 1881 1375 
L 863 0 
L 184 0 
L 1544 1831 
L 300 3500 
L 978 3500 
L 1906 2253 
L 2834 3500 
L 3513 3500 
z
" transform="scale(0.015625)"/>
      <path id="DejaVuSans-5f" d="M 3263 -1063 
L 3263 -1509 
L -63 -1509 
L -63 -1063 
L 3263 -1063 
z
" transform="scale(0.015625)"/>
      <path id="DejaVuSans-64" d="M 2906 2969 
L 2906 4863 
L 3481 4863 
L 3481 0 
L 2906 0 
L 2906 525 
Q 2725 213 2448 61 
Q 2172 -91 1784 -91 
Q 1150 -91 751 415 
Q 353 922 353 1747 
Q 353 2572 751 3078 
Q 1150 3584 1784 3584 
Q 2172 3584 2448 3432 
Q 2725 3281 2906 2969 
z
M 947 1747 
Q 947 1113 1208 752 
Q 1469 391 1925 391 
Q 2381 391 2643 752 
Q 2906 1113 2906 1747 
Q 2906 2381 2643 2742 
Q 2381 3103 1925 3103 
Q 1469 3103 1208 2742 
Q 947 2381 947 1747 
z
" transform="scale(0.015625)"/>
      <path id="DejaVuSans-2d" d="M 313 2009 
L 1997 2009 
L 1997 1497 
L 313 1497 
L 313 2009 
z
" transform="scale(0.015625)"/>
      <path id="DejaVuSans-53" d="M 3425 4513 
L 3425 3897 
Q 3066 4069 2747 4153 
Q 2428 4238 2131 4238 
Q 1616 4238 1336 4038 
Q 1056 3838 1056 3469 
Q 1056 3159 1242 3001 
Q 1428 2844 1947 2747 
L 2328 2669 
Q 3034 2534 3370 2195 
Q 3706 1856 3706 1288 
Q 3706 609 3251 259 
Q 2797 -91 1919 -91 
Q 1588 -91 1214 -16 
Q 841 59 441 206 
L 441 856 
Q 825 641 1194 531 
Q 1563 422 1919 422 
Q 2459 422 2753 634 
Q 3047 847 3047 1241 
Q 3047 1584 2836 1778 
Q 2625 1972 2144 2069 
L 1759 2144 
Q 1053 2284 737 2584 
Q 422 2884 422 3419 
Q 422 4038 858 4394 
Q 1294 4750 2059 4750 
Q 2388 4750 2728 4690 
Q 3069 4631 3425 4513 
z
" transform="scale(0.015625)"/>
      <path id="DejaVuSans-44" d="M 1259 4147 
L 1259 519 
L 2022 519 
Q 2988 519 3436 956 
Q 3884 1394 3884 2338 
Q 3884 3275 3436 3711 
Q 2988 4147 2022 4147 
L 1259 4147 
z
M 628 4666 
L 1925 4666 
Q 3281 4666 3915 4102 
Q 4550 3538 4550 2338 
Q 4550 1131 3912 565 
Q 3275 0 1925 0 
L 628 0 
L 628 4666 
z
" transform="scale(0.015625)"/>
     </defs>
     <use xlink:href="#DejaVuSans-45"/>
     <use xlink:href="#DejaVuSans-70" x="63.183594"/>
     <use xlink:href="#DejaVuSans-79" x="126.660156"/>
     <use xlink:href="#DejaVuSans-63" x="185.839844"/>
     <use xlink:href="#DejaVuSans-62" x="240.820312"/>
     <use xlink:href="#DejaVuSans-6f" x="304.296875"/>
     <use xlink:href="#DejaVuSans-78" x="362.353516"/>
     <use xlink:href="#DejaVuSans-5f" x="421.533203"/>
     <use xlink:href="#DejaVuSans-73" x="471.533203"/>
     <use xlink:href="#DejaVuSans-73" x="523.632812"/>
     <use xlink:href="#DejaVuSans-64" x="575.732422"/>
     <use xlink:href="#DejaVuSans-5f" x="639.208984"/>
     <use xlink:href="#DejaVuSans-76" x="689.208984"/>
     <use xlink:href="#DejaVuSans-32" x="748.388672"/>
     <use xlink:href="#DejaVuSans-20" x="812.011719"/>
     <use xlink:href="#DejaVuSans-2d" x="843.798828"/>
     <use xlink:href="#DejaVuSans-20" x="879.882812"/>
     <use xlink:href="#DejaVuSans-53" x="911.669922"/>
     <use xlink:href="#DejaVuSans-53" x="975.146484"/>
     <use xlink:href="#DejaVuSans-44" x="1038.623047"/>
     <use xlink:href="#DejaVuSans-20" x="1115.625"/>
     <use xlink:href="#DejaVuSans-44" x="1147.412109"/>
     <use xlink:href="#DejaVuSans-72" x="1224.414062"/>
     <use xlink:href="#DejaVuSans-69" x="1265.527344"/>
     <use xlink:href="#DejaVuSans-76" x="1293.310547"/>
     <use xlink:href="#DejaVuSans-65" x="1352.490234"/>
     <use xlink:href="#DejaVuSans-73" x="1414.013672"/>
    </g>
   </g>
   <g id="legend_1">
    <g id="patch_111">
     <path d="M 754.176 167.703125 
L 850.980687 167.703125 
Q 852.980687 167.703125 852.980687 165.703125 
L 852.980687 34.6 
Q 852.980687 32.6 850.980687 32.6 
L 754.176 32.6 
Q 752.176 32.6 752.176 34.6 
L 752.176 165.703125 
Q 752.176 167.703125 754.176 167.703125 
z
" style="fill: #ffffff; opacity: 0.8; stroke: #cccccc; stroke-linejoin: miter"/>
    </g>
    <g id="text_26">
     <!-- Hash Size -->
     <g transform="translate(778.127562 44.198438) scale(0.1 -0.1)">
      <defs>
       <path id="DejaVuSans-48" d="M 628 4666 
L 1259 4666 
L 1259 2753 
L 3553 2753 
L 3553 4666 
L 4184 4666 
L 4184 0 
L 3553 0 
L 3553 2222 
L 1259 2222 
L 1259 0 
L 628 0 
L 628 4666 
z
" transform="scale(0.015625)"/>
       <path id="DejaVuSans-68" d="M 3513 2113 
L 3513 0 
L 2938 0 
L 2938 2094 
Q 2938 2591 2744 2837 
Q 2550 3084 2163 3084 
Q 1697 3084 1428 2787 
Q 1159 2491 1159 1978 
L 1159 0 
L 581 0 
L 581 4863 
L 1159 4863 
L 1159 2956 
Q 1366 3272 1645 3428 
Q 1925 3584 2291 3584 
Q 2894 3584 3203 3211 
Q 3513 2838 3513 2113 
z
" transform="scale(0.015625)"/>
       <path id="DejaVuSans-7a" d="M 353 3500 
L 3084 3500 
L 3084 2975 
L 922 459 
L 3084 459 
L 3084 0 
L 275 0 
L 275 525 
L 2438 3041 
L 353 3041 
L 353 3500 
z
" transform="scale(0.015625)"/>
      </defs>
      <use xlink:href="#DejaVuSans-48"/>
      <use xlink:href="#DejaVuSans-61" x="75.195312"/>
      <use xlink:href="#DejaVuSans-73" x="136.474609"/>
      <use xlink:href="#DejaVuSans-68" x="188.574219"/>
      <use xlink:href="#DejaVuSans-20" x="251.953125"/>
      <use xlink:href="#DejaVuSans-53" x="283.740234"/>
      <use xlink:href="#DejaVuSans-69" x="347.216797"/>
      <use xlink:href="#DejaVuSans-7a" x="375"/>
      <use xlink:href="#DejaVuSans-65" x="427.490234"/>
     </g>
    </g>
    <g id="patch_112">
     <path d="M 756.176 58.876563 
L 776.176 58.876563 
L 776.176 51.876563 
L 756.176 51.876563 
z
" style="fill: #1f77b4"/>
    </g>
    <g id="text_27">
     <!-- Hash Size 3 -->
     <g transform="translate(784.176 58.876563) scale(0.1 -0.1)">
      <use xlink:href="#DejaVuSans-48"/>
      <use xlink:href="#DejaVuSans-61" x="75.195312"/>
      <use xlink:href="#DejaVuSans-73" x="136.474609"/>
      <use xlink:href="#DejaVuSans-68" x="188.574219"/>
      <use xlink:href="#DejaVuSans-20" x="251.953125"/>
      <use xlink:href="#DejaVuSans-53" x="283.740234"/>
      <use xlink:href="#DejaVuSans-69" x="347.216797"/>
      <use xlink:href="#DejaVuSans-7a" x="375"/>
      <use xlink:href="#DejaVuSans-65" x="427.490234"/>
      <use xlink:href="#DejaVuSans-20" x="489.013672"/>
      <use xlink:href="#DejaVuSans-33" x="520.800781"/>
     </g>
    </g>
    <g id="patch_113">
     <path d="M 756.176 73.554688 
L 776.176 73.554688 
L 776.176 66.554688 
L 756.176 66.554688 
z
" style="fill: #ff7f0e"/>
    </g>
    <g id="text_28">
     <!-- Hash Size 4 -->
     <g transform="translate(784.176 73.554688) scale(0.1 -0.1)">
      <use xlink:href="#DejaVuSans-48"/>
      <use xlink:href="#DejaVuSans-61" x="75.195312"/>
      <use xlink:href="#DejaVuSans-73" x="136.474609"/>
      <use xlink:href="#DejaVuSans-68" x="188.574219"/>
      <use xlink:href="#DejaVuSans-20" x="251.953125"/>
      <use xlink:href="#DejaVuSans-53" x="283.740234"/>
      <use xlink:href="#DejaVuSans-69" x="347.216797"/>
      <use xlink:href="#DejaVuSans-7a" x="375"/>
      <use xlink:href="#DejaVuSans-65" x="427.490234"/>
      <use xlink:href="#DejaVuSans-20" x="489.013672"/>
      <use xlink:href="#DejaVuSans-34" x="520.800781"/>
     </g>
    </g>
    <g id="patch_114">
     <path d="M 756.176 88.232813 
L 776.176 88.232813 
L 776.176 81.232813 
L 756.176 81.232813 
z
" style="fill: #2ca02c"/>
    </g>
    <g id="text_29">
     <!-- Hash Size 5 -->
     <g transform="translate(784.176 88.232813) scale(0.1 -0.1)">
      <use xlink:href="#DejaVuSans-48"/>
      <use xlink:href="#DejaVuSans-61" x="75.195312"/>
      <use xlink:href="#DejaVuSans-73" x="136.474609"/>
      <use xlink:href="#DejaVuSans-68" x="188.574219"/>
      <use xlink:href="#DejaVuSans-20" x="251.953125"/>
      <use xlink:href="#DejaVuSans-53" x="283.740234"/>
      <use xlink:href="#DejaVuSans-69" x="347.216797"/>
      <use xlink:href="#DejaVuSans-7a" x="375"/>
      <use xlink:href="#DejaVuSans-65" x="427.490234"/>
      <use xlink:href="#DejaVuSans-20" x="489.013672"/>
      <use xlink:href="#DejaVuSans-35" x="520.800781"/>
     </g>
    </g>
    <g id="patch_115">
     <path d="M 756.176 102.910938 
L 776.176 102.910938 
L 776.176 95.910938 
L 756.176 95.910938 
z
" style="fill: #d62728"/>
    </g>
    <g id="text_30">
     <!-- Hash Size 6 -->
     <g transform="translate(784.176 102.910938) scale(0.1 -0.1)">
      <use xlink:href="#DejaVuSans-48"/>
      <use xlink:href="#DejaVuSans-61" x="75.195312"/>
      <use xlink:href="#DejaVuSans-73" x="136.474609"/>
      <use xlink:href="#DejaVuSans-68" x="188.574219"/>
      <use xlink:href="#DejaVuSans-20" x="251.953125"/>
      <use xlink:href="#DejaVuSans-53" x="283.740234"/>
      <use xlink:href="#DejaVuSans-69" x="347.216797"/>
      <use xlink:href="#DejaVuSans-7a" x="375"/>
      <use xlink:href="#DejaVuSans-65" x="427.490234"/>
      <use xlink:href="#DejaVuSans-20" x="489.013672"/>
      <use xlink:href="#DejaVuSans-36" x="520.800781"/>
     </g>
    </g>
    <g id="patch_116">
     <path d="M 756.176 117.589063 
L 776.176 117.589063 
L 776.176 110.589063 
L 756.176 110.589063 
z
" style="fill: #9467bd"/>
    </g>
    <g id="text_31">
     <!-- Hash Size 7 -->
     <g transform="translate(784.176 117.589063) scale(0.1 -0.1)">
      <use xlink:href="#DejaVuSans-48"/>
      <use xlink:href="#DejaVuSans-61" x="75.195312"/>
      <use xlink:href="#DejaVuSans-73" x="136.474609"/>
      <use xlink:href="#DejaVuSans-68" x="188.574219"/>
      <use xlink:href="#DejaVuSans-20" x="251.953125"/>
      <use xlink:href="#DejaVuSans-53" x="283.740234"/>
      <use xlink:href="#DejaVuSans-69" x="347.216797"/>
      <use xlink:href="#DejaVuSans-7a" x="375"/>
      <use xlink:href="#DejaVuSans-65" x="427.490234"/>
      <use xlink:href="#DejaVuSans-20" x="489.013672"/>
      <use xlink:href="#DejaVuSans-37" x="520.800781"/>
     </g>
    </g>
    <g id="patch_117">
     <path d="M 756.176 132.267188 
L 776.176 132.267188 
L 776.176 125.267188 
L 756.176 125.267188 
z
" style="fill: #8c564b"/>
    </g>
    <g id="text_32">
     <!-- Hash Size 8 -->
     <g transform="translate(784.176 132.267188) scale(0.1 -0.1)">
      <use xlink:href="#DejaVuSans-48"/>
      <use xlink:href="#DejaVuSans-61" x="75.195312"/>
      <use xlink:href="#DejaVuSans-73" x="136.474609"/>
      <use xlink:href="#DejaVuSans-68" x="188.574219"/>
      <use xlink:href="#DejaVuSans-20" x="251.953125"/>
      <use xlink:href="#DejaVuSans-53" x="283.740234"/>
      <use xlink:href="#DejaVuSans-69" x="347.216797"/>
      <use xlink:href="#DejaVuSans-7a" x="375"/>
      <use xlink:href="#DejaVuSans-65" x="427.490234"/>
      <use xlink:href="#DejaVuSans-20" x="489.013672"/>
      <use xlink:href="#DejaVuSans-38" x="520.800781"/>
     </g>
    </g>
    <g id="patch_118">
     <path d="M 756.176 146.945312 
L 776.176 146.945312 
L 776.176 139.945312 
L 756.176 139.945312 
z
" style="fill: #e377c2"/>
    </g>
    <g id="text_33">
     <!-- Hash Size 16 -->
     <g transform="translate(784.176 146.945312) scale(0.1 -0.1)">
      <use xlink:href="#DejaVuSans-48"/>
      <use xlink:href="#DejaVuSans-61" x="75.195312"/>
      <use xlink:href="#DejaVuSans-73" x="136.474609"/>
      <use xlink:href="#DejaVuSans-68" x="188.574219"/>
      <use xlink:href="#DejaVuSans-20" x="251.953125"/>
      <use xlink:href="#DejaVuSans-53" x="283.740234"/>
      <use xlink:href="#DejaVuSans-69" x="347.216797"/>
      <use xlink:href="#DejaVuSans-7a" x="375"/>
      <use xlink:href="#DejaVuSans-65" x="427.490234"/>
      <use xlink:href="#DejaVuSans-20" x="489.013672"/>
      <use xlink:href="#DejaVuSans-31" x="520.800781"/>
      <use xlink:href="#DejaVuSans-36" x="584.423828"/>
     </g>
    </g>
    <g id="patch_119">
     <path d="M 756.176 161.623438 
L 776.176 161.623438 
L 776.176 154.623438 
L 756.176 154.623438 
z
" style="fill: #7f7f7f"/>
    </g>
    <g id="text_34">
     <!-- Hash Size 32 -->
     <g transform="translate(784.176 161.623438) scale(0.1 -0.1)">
      <use xlink:href="#DejaVuSans-48"/>
      <use xlink:href="#DejaVuSans-61" x="75.195312"/>
      <use xlink:href="#DejaVuSans-73" x="136.474609"/>
      <use xlink:href="#DejaVuSans-68" x="188.574219"/>
      <use xlink:href="#DejaVuSans-20" x="251.953125"/>
      <use xlink:href="#DejaVuSans-53" x="283.740234"/>
      <use xlink:href="#DejaVuSans-69" x="347.216797"/>
      <use xlink:href="#DejaVuSans-7a" x="375"/>
      <use xlink:href="#DejaVuSans-65" x="427.490234"/>
      <use xlink:href="#DejaVuSans-20" x="489.013672"/>
      <use xlink:href="#DejaVuSans-33" x="520.800781"/>
      <use xlink:href="#DejaVuSans-32" x="584.423828"/>
     </g>
    </g>
   </g>
  </g>
 </g>
 <defs>
  <clipPath id="p18661ce55a">
   <rect x="50.69" y="27.6" width="663.32" height="359.56"/>
  </clipPath>
 </defs>
</svg>
