<?xml version="1.0" encoding="utf-8" standalone="no"?>
<!DOCTYPE svg PUBLIC "-//W3C//DTD SVG 1.1//EN"
  "http://www.w3.org/Graphics/SVG/1.1/DTD/svg11.dtd">
<svg xmlns:xlink="http://www.w3.org/1999/xlink" width="864pt" height="432pt" viewBox="0 0 864 432" xmlns="http://www.w3.org/2000/svg" version="1.1">
 <metadata>
  <rdf:RDF xmlns:dc="http://purl.org/dc/elements/1.1/" xmlns:cc="http://creativecommons.org/ns#" xmlns:rdf="http://www.w3.org/1999/02/22-rdf-syntax-ns#">
   <cc:Work>
    <dc:type rdf:resource="http://purl.org/dc/dcmitype/StillImage"/>
    <dc:date>2024-12-11T14:44:41.116207</dc:date>
    <dc:format>image/svg+xml</dc:format>
    <dc:creator>
     <cc:Agent>
      <dc:title>Matplotlib v3.9.2, https://matplotlib.org/</dc:title>
     </cc:Agent>
    </dc:creator>
   </cc:Work>
  </rdf:RDF>
 </metadata>
 <defs>
  <style type="text/css">*{stroke-linejoin: round; stroke-linecap: butt}</style>
 </defs>
 <g id="figure_1">
  <g id="patch_1">
   <path d="M 0 432 
L 864 432 
L 864 0 
L 0 0 
z
" style="fill: #ffffff"/>
  </g>
  <g id="axes_1">
   <g id="patch_2">
    <path d="M 56.9 387.16 
L 714.01 387.16 
L 714.01 27.6 
L 56.9 27.6 
z
" style="fill: #ffffff"/>
   </g>
   <g id="patch_3">
    <path d="M 86.768636 387.16 
L 91.435611 387.16 
L 91.435611 274.916402 
L 86.768636 274.916402 
z
" clip-path="url(#p1b4d7ae58d)" style="fill: #1f77b4"/>
   </g>
   <g id="patch_4">
    <path d="M 133.438381 387.16 
L 138.105355 387.16 
L 138.105355 259.696931 
L 133.438381 259.696931 
z
" clip-path="url(#p1b4d7ae58d)" style="fill: #1f77b4"/>
   </g>
   <g id="patch_5">
    <path d="M 180.108125 387.16 
L 184.775099 387.16 
L 184.775099 240.672593 
L 180.108125 240.672593 
z
" clip-path="url(#p1b4d7ae58d)" style="fill: #1f77b4"/>
   </g>
   <g id="patch_6">
    <path d="M 226.777869 387.16 
L 231.444844 387.16 
L 231.444844 236.867725 
L 226.777869 236.867725 
z
" clip-path="url(#p1b4d7ae58d)" style="fill: #1f77b4"/>
   </g>
   <g id="patch_7">
    <path d="M 273.447614 387.16 
L 278.114588 387.16 
L 278.114588 196.916614 
L 273.447614 196.916614 
z
" clip-path="url(#p1b4d7ae58d)" style="fill: #1f77b4"/>
   </g>
   <g id="patch_8">
    <path d="M 320.117358 387.16 
L 324.784332 387.16 
L 324.784332 193.111746 
L 320.117358 193.111746 
z
" clip-path="url(#p1b4d7ae58d)" style="fill: #1f77b4"/>
   </g>
   <g id="patch_9">
    <path d="M 366.787102 387.16 
L 371.454077 387.16 
L 371.454077 208.331217 
L 366.787102 208.331217 
z
" clip-path="url(#p1b4d7ae58d)" style="fill: #1f77b4"/>
   </g>
   <g id="patch_10">
    <path d="M 413.456847 387.16 
L 418.123821 387.16 
L 418.123821 217.843386 
L 413.456847 217.843386 
z
" clip-path="url(#p1b4d7ae58d)" style="fill: #1f77b4"/>
   </g>
   <g id="patch_11">
    <path d="M 460.126591 387.16 
L 464.793565 387.16 
L 464.793565 168.380106 
L 460.126591 168.380106 
z
" clip-path="url(#p1b4d7ae58d)" style="fill: #1f77b4"/>
   </g>
   <g id="patch_12">
    <path d="M 506.796335 387.16 
L 511.46331 387.16 
L 511.46331 136.03873 
L 506.796335 136.03873 
z
" clip-path="url(#p1b4d7ae58d)" style="fill: #1f77b4"/>
   </g>
   <g id="patch_13">
    <path d="M 553.46608 387.16 
L 558.133054 387.16 
L 558.133054 99.892487 
L 553.46608 99.892487 
z
" clip-path="url(#p1b4d7ae58d)" style="fill: #1f77b4"/>
   </g>
   <g id="patch_14">
    <path d="M 600.135824 387.16 
L 604.802798 387.16 
L 604.802798 44.721905 
L 600.135824 44.721905 
z
" clip-path="url(#p1b4d7ae58d)" style="fill: #1f77b4"/>
   </g>
   <g id="patch_15">
    <path d="M 646.805568 387.16 
L 651.472543 387.16 
L 651.472543 94.185185 
L 646.805568 94.185185 
z
" clip-path="url(#p1b4d7ae58d)" style="fill: #1f77b4"/>
   </g>
   <g id="patch_16">
    <path d="M 91.435611 387.16 
L 96.102585 387.16 
L 96.102585 333.891852 
L 91.435611 333.891852 
z
" clip-path="url(#p1b4d7ae58d)" style="fill: #ff7f0e"/>
   </g>
   <g id="patch_17">
    <path d="M 138.105355 387.16 
L 142.77233 387.16 
L 142.77233 293.940741 
L 138.105355 293.940741 
z
" clip-path="url(#p1b4d7ae58d)" style="fill: #ff7f0e"/>
   </g>
   <g id="patch_18">
    <path d="M 184.775099 387.16 
L 189.442074 387.16 
L 189.442074 263.501799 
L 184.775099 263.501799 
z
" clip-path="url(#p1b4d7ae58d)" style="fill: #ff7f0e"/>
   </g>
   <g id="patch_19">
    <path d="M 231.444844 387.16 
L 236.111818 387.16 
L 236.111818 255.892063 
L 231.444844 255.892063 
z
" clip-path="url(#p1b4d7ae58d)" style="fill: #ff7f0e"/>
   </g>
   <g id="patch_20">
    <path d="M 278.114588 387.16 
L 282.781563 387.16 
L 282.781563 210.233651 
L 278.114588 210.233651 
z
" clip-path="url(#p1b4d7ae58d)" style="fill: #ff7f0e"/>
   </g>
   <g id="patch_21">
    <path d="M 324.784332 387.16 
L 329.451307 387.16 
L 329.451307 214.038519 
L 324.784332 214.038519 
z
" clip-path="url(#p1b4d7ae58d)" style="fill: #ff7f0e"/>
   </g>
   <g id="patch_22">
    <path d="M 371.454077 387.16 
L 376.121051 387.16 
L 376.121051 214.038519 
L 371.454077 214.038519 
z
" clip-path="url(#p1b4d7ae58d)" style="fill: #ff7f0e"/>
   </g>
   <g id="patch_23">
    <path d="M 418.123821 387.16 
L 422.790795 387.16 
L 422.790795 236.867725 
L 418.123821 236.867725 
z
" clip-path="url(#p1b4d7ae58d)" style="fill: #ff7f0e"/>
   </g>
   <g id="patch_24">
    <path d="M 464.793565 387.16 
L 469.46054 387.16 
L 469.46054 215.940952 
L 464.793565 215.940952 
z
" clip-path="url(#p1b4d7ae58d)" style="fill: #ff7f0e"/>
   </g>
   <g id="patch_25">
    <path d="M 511.46331 387.16 
L 516.130284 387.16 
L 516.130284 156.965503 
L 511.46331 156.965503 
z
" clip-path="url(#p1b4d7ae58d)" style="fill: #ff7f0e"/>
   </g>
   <g id="patch_26">
    <path d="M 558.133054 387.16 
L 562.800028 387.16 
L 562.800028 134.136296 
L 558.133054 134.136296 
z
" clip-path="url(#p1b4d7ae58d)" style="fill: #ff7f0e"/>
   </g>
   <g id="patch_27">
    <path d="M 604.802798 387.16 
L 609.469773 387.16 
L 609.469773 94.185185 
L 604.802798 94.185185 
z
" clip-path="url(#p1b4d7ae58d)" style="fill: #ff7f0e"/>
   </g>
   <g id="patch_28">
    <path d="M 651.472543 387.16 
L 656.139517 387.16 
L 656.139517 111.30709 
L 651.472543 111.30709 
z
" clip-path="url(#p1b4d7ae58d)" style="fill: #ff7f0e"/>
   </g>
   <g id="patch_29">
    <path d="M 96.102585 387.16 
L 100.76956 387.16 
L 100.76956 343.404021 
L 96.102585 343.404021 
z
" clip-path="url(#p1b4d7ae58d)" style="fill: #2ca02c"/>
   </g>
   <g id="patch_30">
    <path d="M 142.77233 387.16 
L 147.439304 387.16 
L 147.439304 330.086984 
L 142.77233 330.086984 
z
" clip-path="url(#p1b4d7ae58d)" style="fill: #2ca02c"/>
   </g>
   <g id="patch_31">
    <path d="M 189.442074 387.16 
L 194.109048 387.16 
L 194.109048 280.623704 
L 189.442074 280.623704 
z
" clip-path="url(#p1b4d7ae58d)" style="fill: #2ca02c"/>
   </g>
   <g id="patch_32">
    <path d="M 236.111818 387.16 
L 240.778793 387.16 
L 240.778793 261.599365 
L 236.111818 261.599365 
z
" clip-path="url(#p1b4d7ae58d)" style="fill: #2ca02c"/>
   </g>
   <g id="patch_33">
    <path d="M 282.781563 387.16 
L 287.448537 387.16 
L 287.448537 210.233651 
L 282.781563 210.233651 
z
" clip-path="url(#p1b4d7ae58d)" style="fill: #2ca02c"/>
   </g>
   <g id="patch_34">
    <path d="M 329.451307 387.16 
L 334.118281 387.16 
L 334.118281 229.257989 
L 329.451307 229.257989 
z
" clip-path="url(#p1b4d7ae58d)" style="fill: #2ca02c"/>
   </g>
   <g id="patch_35">
    <path d="M 376.121051 387.16 
L 380.788026 387.16 
L 380.788026 210.233651 
L 376.121051 210.233651 
z
" clip-path="url(#p1b4d7ae58d)" style="fill: #2ca02c"/>
   </g>
   <g id="patch_36">
    <path d="M 422.790795 387.16 
L 427.45777 387.16 
L 427.45777 225.453122 
L 422.790795 225.453122 
z
" clip-path="url(#p1b4d7ae58d)" style="fill: #2ca02c"/>
   </g>
   <g id="patch_37">
    <path d="M 469.46054 387.16 
L 474.127514 387.16 
L 474.127514 210.233651 
L 469.46054 210.233651 
z
" clip-path="url(#p1b4d7ae58d)" style="fill: #2ca02c"/>
   </g>
   <g id="patch_38">
    <path d="M 516.130284 387.16 
L 520.797259 387.16 
L 520.797259 172.184974 
L 516.130284 172.184974 
z
" clip-path="url(#p1b4d7ae58d)" style="fill: #2ca02c"/>
   </g>
   <g id="patch_39">
    <path d="M 562.800028 387.16 
L 567.467003 387.16 
L 567.467003 141.746032 
L 562.800028 141.746032 
z
" clip-path="url(#p1b4d7ae58d)" style="fill: #2ca02c"/>
   </g>
   <g id="patch_40">
    <path d="M 609.469773 387.16 
L 614.136747 387.16 
L 614.136747 101.794921 
L 609.469773 101.794921 
z
" clip-path="url(#p1b4d7ae58d)" style="fill: #2ca02c"/>
   </g>
   <g id="patch_41">
    <path d="M 656.139517 387.16 
L 660.806491 387.16 
L 660.806491 99.892487 
L 656.139517 99.892487 
z
" clip-path="url(#p1b4d7ae58d)" style="fill: #2ca02c"/>
   </g>
   <g id="patch_42">
    <path d="M 100.76956 387.16 
L 105.436534 387.16 
L 105.436534 352.91619 
L 100.76956 352.91619 
z
" clip-path="url(#p1b4d7ae58d)" style="fill: #d62728"/>
   </g>
   <g id="patch_43">
    <path d="M 147.439304 387.16 
L 152.106278 387.16 
L 152.106278 339.599153 
L 147.439304 339.599153 
z
" clip-path="url(#p1b4d7ae58d)" style="fill: #d62728"/>
   </g>
   <g id="patch_44">
    <path d="M 194.109048 387.16 
L 198.776023 387.16 
L 198.776023 288.233439 
L 194.109048 288.233439 
z
" clip-path="url(#p1b4d7ae58d)" style="fill: #d62728"/>
   </g>
   <g id="patch_45">
    <path d="M 240.778793 387.16 
L 245.445767 387.16 
L 245.445767 273.013968 
L 240.778793 273.013968 
z
" clip-path="url(#p1b4d7ae58d)" style="fill: #d62728"/>
   </g>
   <g id="patch_46">
    <path d="M 287.448537 387.16 
L 292.115511 387.16 
L 292.115511 238.770159 
L 287.448537 238.770159 
z
" clip-path="url(#p1b4d7ae58d)" style="fill: #d62728"/>
   </g>
   <g id="patch_47">
    <path d="M 334.118281 387.16 
L 338.785256 387.16 
L 338.785256 229.257989 
L 334.118281 229.257989 
z
" clip-path="url(#p1b4d7ae58d)" style="fill: #d62728"/>
   </g>
   <g id="patch_48">
    <path d="M 380.788026 387.16 
L 385.455 387.16 
L 385.455 200.721481 
L 380.788026 200.721481 
z
" clip-path="url(#p1b4d7ae58d)" style="fill: #d62728"/>
   </g>
   <g id="patch_49">
    <path d="M 427.45777 387.16 
L 432.124744 387.16 
L 432.124744 223.550688 
L 427.45777 223.550688 
z
" clip-path="url(#p1b4d7ae58d)" style="fill: #d62728"/>
   </g>
   <g id="patch_50">
    <path d="M 474.127514 387.16 
L 478.794489 387.16 
L 478.794489 212.136085 
L 474.127514 212.136085 
z
" clip-path="url(#p1b4d7ae58d)" style="fill: #d62728"/>
   </g>
   <g id="patch_51">
    <path d="M 520.797259 387.16 
L 525.464233 387.16 
L 525.464233 172.184974 
L 520.797259 172.184974 
z
" clip-path="url(#p1b4d7ae58d)" style="fill: #d62728"/>
   </g>
   <g id="patch_52">
    <path d="M 567.467003 387.16 
L 572.133977 387.16 
L 572.133977 153.160635 
L 567.467003 153.160635 
z
" clip-path="url(#p1b4d7ae58d)" style="fill: #d62728"/>
   </g>
   <g id="patch_53">
    <path d="M 614.136747 387.16 
L 618.803722 387.16 
L 618.803722 99.892487 
L 614.136747 99.892487 
z
" clip-path="url(#p1b4d7ae58d)" style="fill: #d62728"/>
   </g>
   <g id="patch_54">
    <path d="M 660.806491 387.16 
L 665.473466 387.16 
L 665.473466 94.185185 
L 660.806491 94.185185 
z
" clip-path="url(#p1b4d7ae58d)" style="fill: #d62728"/>
   </g>
   <g id="patch_55">
    <path d="M 105.436534 387.16 
L 110.103509 387.16 
L 110.103509 356.721058 
L 105.436534 356.721058 
z
" clip-path="url(#p1b4d7ae58d)" style="fill: #9467bd"/>
   </g>
   <g id="patch_56">
    <path d="M 152.106278 387.16 
L 156.773253 387.16 
L 156.773253 352.91619 
L 152.106278 352.91619 
z
" clip-path="url(#p1b4d7ae58d)" style="fill: #9467bd"/>
   </g>
   <g id="patch_57">
    <path d="M 198.776023 387.16 
L 203.442997 387.16 
L 203.442997 312.965079 
L 198.776023 312.965079 
z
" clip-path="url(#p1b4d7ae58d)" style="fill: #9467bd"/>
   </g>
   <g id="patch_58">
    <path d="M 245.445767 387.16 
L 250.112741 387.16 
L 250.112741 290.135873 
L 245.445767 290.135873 
z
" clip-path="url(#p1b4d7ae58d)" style="fill: #9467bd"/>
   </g>
   <g id="patch_59">
    <path d="M 292.115511 387.16 
L 296.782486 387.16 
L 296.782486 259.696931 
L 292.115511 259.696931 
z
" clip-path="url(#p1b4d7ae58d)" style="fill: #9467bd"/>
   </g>
   <g id="patch_60">
    <path d="M 338.785256 387.16 
L 343.45223 387.16 
L 343.45223 244.47746 
L 338.785256 244.47746 
z
" clip-path="url(#p1b4d7ae58d)" style="fill: #9467bd"/>
   </g>
   <g id="patch_61">
    <path d="M 385.455 387.16 
L 390.121974 387.16 
L 390.121974 219.74582 
L 385.455 219.74582 
z
" clip-path="url(#p1b4d7ae58d)" style="fill: #9467bd"/>
   </g>
   <g id="patch_62">
    <path d="M 432.124744 387.16 
L 436.791719 387.16 
L 436.791719 204.526349 
L 432.124744 204.526349 
z
" clip-path="url(#p1b4d7ae58d)" style="fill: #9467bd"/>
   </g>
   <g id="patch_63">
    <path d="M 478.794489 387.16 
L 483.461463 387.16 
L 483.461463 221.648254 
L 478.794489 221.648254 
z
" clip-path="url(#p1b4d7ae58d)" style="fill: #9467bd"/>
   </g>
   <g id="patch_64">
    <path d="M 525.464233 387.16 
L 530.131207 387.16 
L 530.131207 179.794709 
L 525.464233 179.794709 
z
" clip-path="url(#p1b4d7ae58d)" style="fill: #9467bd"/>
   </g>
   <g id="patch_65">
    <path d="M 572.133977 387.16 
L 576.800952 387.16 
L 576.800952 149.355767 
L 572.133977 149.355767 
z
" clip-path="url(#p1b4d7ae58d)" style="fill: #9467bd"/>
   </g>
   <g id="patch_66">
    <path d="M 618.803722 387.16 
L 623.470696 387.16 
L 623.470696 97.990053 
L 618.803722 97.990053 
z
" clip-path="url(#p1b4d7ae58d)" style="fill: #9467bd"/>
   </g>
   <g id="patch_67">
    <path d="M 665.473466 387.16 
L 670.14044 387.16 
L 670.14044 101.794921 
L 665.473466 101.794921 
z
" clip-path="url(#p1b4d7ae58d)" style="fill: #9467bd"/>
   </g>
   <g id="patch_68">
    <path d="M 110.103509 387.16 
L 114.770483 387.16 
L 114.770483 360.525926 
L 110.103509 360.525926 
z
" clip-path="url(#p1b4d7ae58d)" style="fill: #8c564b"/>
   </g>
   <g id="patch_69">
    <path d="M 156.773253 387.16 
L 161.440227 387.16 
L 161.440227 347.208889 
L 156.773253 347.208889 
z
" clip-path="url(#p1b4d7ae58d)" style="fill: #8c564b"/>
   </g>
   <g id="patch_70">
    <path d="M 203.442997 387.16 
L 208.109972 387.16 
L 208.109972 324.379683 
L 203.442997 324.379683 
z
" clip-path="url(#p1b4d7ae58d)" style="fill: #8c564b"/>
   </g>
   <g id="patch_71">
    <path d="M 250.112741 387.16 
L 254.779716 387.16 
L 254.779716 271.111534 
L 250.112741 271.111534 
z
" clip-path="url(#p1b4d7ae58d)" style="fill: #8c564b"/>
   </g>
   <g id="patch_72">
    <path d="M 296.782486 387.16 
L 301.44946 387.16 
L 301.44946 252.087196 
L 296.782486 252.087196 
z
" clip-path="url(#p1b4d7ae58d)" style="fill: #8c564b"/>
   </g>
   <g id="patch_73">
    <path d="M 343.45223 387.16 
L 348.119205 387.16 
L 348.119205 215.940952 
L 343.45223 215.940952 
z
" clip-path="url(#p1b4d7ae58d)" style="fill: #8c564b"/>
   </g>
   <g id="patch_74">
    <path d="M 390.121974 387.16 
L 394.788949 387.16 
L 394.788949 244.47746 
L 390.121974 244.47746 
z
" clip-path="url(#p1b4d7ae58d)" style="fill: #8c564b"/>
   </g>
   <g id="patch_75">
    <path d="M 436.791719 387.16 
L 441.458693 387.16 
L 441.458693 204.526349 
L 436.791719 204.526349 
z
" clip-path="url(#p1b4d7ae58d)" style="fill: #8c564b"/>
   </g>
   <g id="patch_76">
    <path d="M 483.461463 387.16 
L 488.128437 387.16 
L 488.128437 244.47746 
L 483.461463 244.47746 
z
" clip-path="url(#p1b4d7ae58d)" style="fill: #8c564b"/>
   </g>
   <g id="patch_77">
    <path d="M 530.131207 387.16 
L 534.798182 387.16 
L 534.798182 179.794709 
L 530.131207 179.794709 
z
" clip-path="url(#p1b4d7ae58d)" style="fill: #8c564b"/>
   </g>
   <g id="patch_78">
    <path d="M 576.800952 387.16 
L 581.467926 387.16 
L 581.467926 149.355767 
L 576.800952 149.355767 
z
" clip-path="url(#p1b4d7ae58d)" style="fill: #8c564b"/>
   </g>
   <g id="patch_79">
    <path d="M 623.470696 387.16 
L 628.13767 387.16 
L 628.13767 141.746032 
L 623.470696 141.746032 
z
" clip-path="url(#p1b4d7ae58d)" style="fill: #8c564b"/>
   </g>
   <g id="patch_80">
    <path d="M 670.14044 387.16 
L 674.807415 387.16 
L 674.807415 103.697354 
L 670.14044 103.697354 
z
" clip-path="url(#p1b4d7ae58d)" style="fill: #8c564b"/>
   </g>
   <g id="patch_81">
    <path d="M 114.770483 387.16 
L 119.437457 387.16 
L 119.437457 371.940529 
L 114.770483 371.940529 
z
" clip-path="url(#p1b4d7ae58d)" style="fill: #e377c2"/>
   </g>
   <g id="patch_82">
    <path d="M 161.440227 387.16 
L 166.107202 387.16 
L 166.107202 356.721058 
L 161.440227 356.721058 
z
" clip-path="url(#p1b4d7ae58d)" style="fill: #e377c2"/>
   </g>
   <g id="patch_83">
    <path d="M 208.109972 387.16 
L 212.776946 387.16 
L 212.776946 352.91619 
L 208.109972 352.91619 
z
" clip-path="url(#p1b4d7ae58d)" style="fill: #e377c2"/>
   </g>
   <g id="patch_84">
    <path d="M 254.779716 387.16 
L 259.44669 387.16 
L 259.44669 278.72127 
L 254.779716 278.72127 
z
" clip-path="url(#p1b4d7ae58d)" style="fill: #e377c2"/>
   </g>
   <g id="patch_85">
    <path d="M 301.44946 387.16 
L 306.116435 387.16 
L 306.116435 238.770159 
L 301.44946 238.770159 
z
" clip-path="url(#p1b4d7ae58d)" style="fill: #e377c2"/>
   </g>
   <g id="patch_86">
    <path d="M 348.119205 387.16 
L 352.786179 387.16 
L 352.786179 231.160423 
L 348.119205 231.160423 
z
" clip-path="url(#p1b4d7ae58d)" style="fill: #e377c2"/>
   </g>
   <g id="patch_87">
    <path d="M 394.788949 387.16 
L 399.455923 387.16 
L 399.455923 217.843386 
L 394.788949 217.843386 
z
" clip-path="url(#p1b4d7ae58d)" style="fill: #e377c2"/>
   </g>
   <g id="patch_88">
    <path d="M 441.458693 387.16 
L 446.125668 387.16 
L 446.125668 198.819048 
L 441.458693 198.819048 
z
" clip-path="url(#p1b4d7ae58d)" style="fill: #e377c2"/>
   </g>
   <g id="patch_89">
    <path d="M 488.128437 387.16 
L 492.795412 387.16 
L 492.795412 210.233651 
L 488.128437 210.233651 
z
" clip-path="url(#p1b4d7ae58d)" style="fill: #e377c2"/>
   </g>
   <g id="patch_90">
    <path d="M 534.798182 387.16 
L 539.465156 387.16 
L 539.465156 195.01418 
L 534.798182 195.01418 
z
" clip-path="url(#p1b4d7ae58d)" style="fill: #e377c2"/>
   </g>
   <g id="patch_91">
    <path d="M 581.467926 387.16 
L 586.134901 387.16 
L 586.134901 181.697143 
L 581.467926 181.697143 
z
" clip-path="url(#p1b4d7ae58d)" style="fill: #e377c2"/>
   </g>
   <g id="patch_92">
    <path d="M 628.13767 387.16 
L 632.804645 387.16 
L 632.804645 153.160635 
L 628.13767 153.160635 
z
" clip-path="url(#p1b4d7ae58d)" style="fill: #e377c2"/>
   </g>
   <g id="patch_93">
    <path d="M 674.807415 387.16 
L 679.474389 387.16 
L 679.474389 94.185185 
L 674.807415 94.185185 
z
" clip-path="url(#p1b4d7ae58d)" style="fill: #e377c2"/>
   </g>
   <g id="patch_94">
    <path d="M 119.437457 387.16 
L 124.104432 387.16 
L 124.104432 366.233228 
L 119.437457 366.233228 
z
" clip-path="url(#p1b4d7ae58d)" style="fill: #7f7f7f"/>
   </g>
   <g id="patch_95">
    <path d="M 166.107202 387.16 
L 170.774176 387.16 
L 170.774176 360.525926 
L 166.107202 360.525926 
z
" clip-path="url(#p1b4d7ae58d)" style="fill: #7f7f7f"/>
   </g>
   <g id="patch_96">
    <path d="M 212.776946 387.16 
L 217.44392 387.16 
L 217.44392 322.477249 
L 212.776946 322.477249 
z
" clip-path="url(#p1b4d7ae58d)" style="fill: #7f7f7f"/>
   </g>
   <g id="patch_97">
    <path d="M 259.44669 387.16 
L 264.113665 387.16 
L 264.113665 328.18455 
L 259.44669 328.18455 
z
" clip-path="url(#p1b4d7ae58d)" style="fill: #7f7f7f"/>
   </g>
   <g id="patch_98">
    <path d="M 306.116435 387.16 
L 310.783409 387.16 
L 310.783409 255.892063 
L 306.116435 255.892063 
z
" clip-path="url(#p1b4d7ae58d)" style="fill: #7f7f7f"/>
   </g>
   <g id="patch_99">
    <path d="M 352.786179 387.16 
L 357.453153 387.16 
L 357.453153 221.648254 
L 352.786179 221.648254 
z
" clip-path="url(#p1b4d7ae58d)" style="fill: #7f7f7f"/>
   </g>
   <g id="patch_100">
    <path d="M 399.455923 387.16 
L 404.122898 387.16 
L 404.122898 236.867725 
L 399.455923 236.867725 
z
" clip-path="url(#p1b4d7ae58d)" style="fill: #7f7f7f"/>
   </g>
   <g id="patch_101">
    <path d="M 446.125668 387.16 
L 450.792642 387.16 
L 450.792642 198.819048 
L 446.125668 198.819048 
z
" clip-path="url(#p1b4d7ae58d)" style="fill: #7f7f7f"/>
   </g>
   <g id="patch_102">
    <path d="M 492.795412 387.16 
L 497.462386 387.16 
L 497.462386 217.843386 
L 492.795412 217.843386 
z
" clip-path="url(#p1b4d7ae58d)" style="fill: #7f7f7f"/>
   </g>
   <g id="patch_103">
    <path d="M 539.465156 387.16 
L 544.132131 387.16 
L 544.132131 174.087407 
L 539.465156 174.087407 
z
" clip-path="url(#p1b4d7ae58d)" style="fill: #7f7f7f"/>
   </g>
   <g id="patch_104">
    <path d="M 586.134901 387.16 
L 590.801875 387.16 
L 590.801875 160.77037 
L 586.134901 160.77037 
z
" clip-path="url(#p1b4d7ae58d)" style="fill: #7f7f7f"/>
   </g>
   <g id="patch_105">
    <path d="M 632.804645 387.16 
L 637.471619 387.16 
L 637.471619 118.916825 
L 632.804645 118.916825 
z
" clip-path="url(#p1b4d7ae58d)" style="fill: #7f7f7f"/>
   </g>
   <g id="patch_106">
    <path d="M 679.474389 387.16 
L 684.141364 387.16 
L 684.141364 115.111958 
L 679.474389 115.111958 
z
" clip-path="url(#p1b4d7ae58d)" style="fill: #7f7f7f"/>
   </g>
   <g id="matplotlib.axis_1">
    <g id="xtick_1">
     <g id="line2d_1">
      <defs>
       <path id="mf24b8041d6" d="M 0 0 
L 0 3.5 
" style="stroke: #000000; stroke-width: 0.8"/>
      </defs>
      <g>
       <use xlink:href="#mf24b8041d6" x="89.102124" y="387.16" style="stroke: #000000; stroke-width: 0.8"/>
      </g>
     </g>
     <g id="text_1">
      <!-- 25 -->
      <g transform="translate(82.739624 401.758438) scale(0.1 -0.1)">
       <defs>
        <path id="DejaVuSans-32" d="M 1228 531 
L 3431 531 
L 3431 0 
L 469 0 
L 469 531 
Q 828 903 1448 1529 
Q 2069 2156 2228 2338 
Q 2531 2678 2651 2914 
Q 2772 3150 2772 3378 
Q 2772 3750 2511 3984 
Q 2250 4219 1831 4219 
Q 1534 4219 1204 4116 
Q 875 4013 500 3803 
L 500 4441 
Q 881 4594 1212 4672 
Q 1544 4750 1819 4750 
Q 2544 4750 2975 4387 
Q 3406 4025 3406 3419 
Q 3406 3131 3298 2873 
Q 3191 2616 2906 2266 
Q 2828 2175 2409 1742 
Q 1991 1309 1228 531 
z
" transform="scale(0.015625)"/>
        <path id="DejaVuSans-35" d="M 691 4666 
L 3169 4666 
L 3169 4134 
L 1269 4134 
L 1269 2991 
Q 1406 3038 1543 3061 
Q 1681 3084 1819 3084 
Q 2600 3084 3056 2656 
Q 3513 2228 3513 1497 
Q 3513 744 3044 326 
Q 2575 -91 1722 -91 
Q 1428 -91 1123 -41 
Q 819 9 494 109 
L 494 744 
Q 775 591 1075 516 
Q 1375 441 1709 441 
Q 2250 441 2565 725 
Q 2881 1009 2881 1497 
Q 2881 1984 2565 2268 
Q 2250 2553 1709 2553 
Q 1456 2553 1204 2497 
Q 953 2441 691 2322 
L 691 4666 
z
" transform="scale(0.015625)"/>
       </defs>
       <use xlink:href="#DejaVuSans-32"/>
       <use xlink:href="#DejaVuSans-35" x="63.623047"/>
      </g>
     </g>
    </g>
    <g id="xtick_2">
     <g id="line2d_2">
      <g>
       <use xlink:href="#mf24b8041d6" x="135.771868" y="387.16" style="stroke: #000000; stroke-width: 0.8"/>
      </g>
     </g>
     <g id="text_2">
      <!-- 26 -->
      <g transform="translate(129.409368 401.758438) scale(0.1 -0.1)">
       <defs>
        <path id="DejaVuSans-36" d="M 2113 2584 
Q 1688 2584 1439 2293 
Q 1191 2003 1191 1497 
Q 1191 994 1439 701 
Q 1688 409 2113 409 
Q 2538 409 2786 701 
Q 3034 994 3034 1497 
Q 3034 2003 2786 2293 
Q 2538 2584 2113 2584 
z
M 3366 4563 
L 3366 3988 
Q 3128 4100 2886 4159 
Q 2644 4219 2406 4219 
Q 1781 4219 1451 3797 
Q 1122 3375 1075 2522 
Q 1259 2794 1537 2939 
Q 1816 3084 2150 3084 
Q 2853 3084 3261 2657 
Q 3669 2231 3669 1497 
Q 3669 778 3244 343 
Q 2819 -91 2113 -91 
Q 1303 -91 875 529 
Q 447 1150 447 2328 
Q 447 3434 972 4092 
Q 1497 4750 2381 4750 
Q 2619 4750 2861 4703 
Q 3103 4656 3366 4563 
z
" transform="scale(0.015625)"/>
       </defs>
       <use xlink:href="#DejaVuSans-32"/>
       <use xlink:href="#DejaVuSans-36" x="63.623047"/>
      </g>
     </g>
    </g>
    <g id="xtick_3">
     <g id="line2d_3">
      <g>
       <use xlink:href="#mf24b8041d6" x="182.441612" y="387.16" style="stroke: #000000; stroke-width: 0.8"/>
      </g>
     </g>
     <g id="text_3">
      <!-- 27 -->
      <g transform="translate(176.079112 401.758438) scale(0.1 -0.1)">
       <defs>
        <path id="DejaVuSans-37" d="M 525 4666 
L 3525 4666 
L 3525 4397 
L 1831 0 
L 1172 0 
L 2766 4134 
L 525 4134 
L 525 4666 
z
" transform="scale(0.015625)"/>
       </defs>
       <use xlink:href="#DejaVuSans-32"/>
       <use xlink:href="#DejaVuSans-37" x="63.623047"/>
      </g>
     </g>
    </g>
    <g id="xtick_4">
     <g id="line2d_4">
      <g>
       <use xlink:href="#mf24b8041d6" x="229.111357" y="387.16" style="stroke: #000000; stroke-width: 0.8"/>
      </g>
     </g>
     <g id="text_4">
      <!-- 28 -->
      <g transform="translate(222.748857 401.758438) scale(0.1 -0.1)">
       <defs>
        <path id="DejaVuSans-38" d="M 2034 2216 
Q 1584 2216 1326 1975 
Q 1069 1734 1069 1313 
Q 1069 891 1326 650 
Q 1584 409 2034 409 
Q 2484 409 2743 651 
Q 3003 894 3003 1313 
Q 3003 1734 2745 1975 
Q 2488 2216 2034 2216 
z
M 1403 2484 
Q 997 2584 770 2862 
Q 544 3141 544 3541 
Q 544 4100 942 4425 
Q 1341 4750 2034 4750 
Q 2731 4750 3128 4425 
Q 3525 4100 3525 3541 
Q 3525 3141 3298 2862 
Q 3072 2584 2669 2484 
Q 3125 2378 3379 2068 
Q 3634 1759 3634 1313 
Q 3634 634 3220 271 
Q 2806 -91 2034 -91 
Q 1263 -91 848 271 
Q 434 634 434 1313 
Q 434 1759 690 2068 
Q 947 2378 1403 2484 
z
M 1172 3481 
Q 1172 3119 1398 2916 
Q 1625 2713 2034 2713 
Q 2441 2713 2670 2916 
Q 2900 3119 2900 3481 
Q 2900 3844 2670 4047 
Q 2441 4250 2034 4250 
Q 1625 4250 1398 4047 
Q 1172 3844 1172 3481 
z
" transform="scale(0.015625)"/>
       </defs>
       <use xlink:href="#DejaVuSans-32"/>
       <use xlink:href="#DejaVuSans-38" x="63.623047"/>
      </g>
     </g>
    </g>
    <g id="xtick_5">
     <g id="line2d_5">
      <g>
       <use xlink:href="#mf24b8041d6" x="275.781101" y="387.16" style="stroke: #000000; stroke-width: 0.8"/>
      </g>
     </g>
     <g id="text_5">
      <!-- 29 -->
      <g transform="translate(269.418601 401.758438) scale(0.1 -0.1)">
       <defs>
        <path id="DejaVuSans-39" d="M 703 97 
L 703 672 
Q 941 559 1184 500 
Q 1428 441 1663 441 
Q 2288 441 2617 861 
Q 2947 1281 2994 2138 
Q 2813 1869 2534 1725 
Q 2256 1581 1919 1581 
Q 1219 1581 811 2004 
Q 403 2428 403 3163 
Q 403 3881 828 4315 
Q 1253 4750 1959 4750 
Q 2769 4750 3195 4129 
Q 3622 3509 3622 2328 
Q 3622 1225 3098 567 
Q 2575 -91 1691 -91 
Q 1453 -91 1209 -44 
Q 966 3 703 97 
z
M 1959 2075 
Q 2384 2075 2632 2365 
Q 2881 2656 2881 3163 
Q 2881 3666 2632 3958 
Q 2384 4250 1959 4250 
Q 1534 4250 1286 3958 
Q 1038 3666 1038 3163 
Q 1038 2656 1286 2365 
Q 1534 2075 1959 2075 
z
" transform="scale(0.015625)"/>
       </defs>
       <use xlink:href="#DejaVuSans-32"/>
       <use xlink:href="#DejaVuSans-39" x="63.623047"/>
      </g>
     </g>
    </g>
    <g id="xtick_6">
     <g id="line2d_6">
      <g>
       <use xlink:href="#mf24b8041d6" x="322.450845" y="387.16" style="stroke: #000000; stroke-width: 0.8"/>
      </g>
     </g>
     <g id="text_6">
      <!-- 30 -->
      <g transform="translate(316.088345 401.758438) scale(0.1 -0.1)">
       <defs>
        <path id="DejaVuSans-33" d="M 2597 2516 
Q 3050 2419 3304 2112 
Q 3559 1806 3559 1356 
Q 3559 666 3084 287 
Q 2609 -91 1734 -91 
Q 1441 -91 1130 -33 
Q 819 25 488 141 
L 488 750 
Q 750 597 1062 519 
Q 1375 441 1716 441 
Q 2309 441 2620 675 
Q 2931 909 2931 1356 
Q 2931 1769 2642 2001 
Q 2353 2234 1838 2234 
L 1294 2234 
L 1294 2753 
L 1863 2753 
Q 2328 2753 2575 2939 
Q 2822 3125 2822 3475 
Q 2822 3834 2567 4026 
Q 2313 4219 1838 4219 
Q 1578 4219 1281 4162 
Q 984 4106 628 3988 
L 628 4550 
Q 988 4650 1302 4700 
Q 1616 4750 1894 4750 
Q 2613 4750 3031 4423 
Q 3450 4097 3450 3541 
Q 3450 3153 3228 2886 
Q 3006 2619 2597 2516 
z
" transform="scale(0.015625)"/>
        <path id="DejaVuSans-30" d="M 2034 4250 
Q 1547 4250 1301 3770 
Q 1056 3291 1056 2328 
Q 1056 1369 1301 889 
Q 1547 409 2034 409 
Q 2525 409 2770 889 
Q 3016 1369 3016 2328 
Q 3016 3291 2770 3770 
Q 2525 4250 2034 4250 
z
M 2034 4750 
Q 2819 4750 3233 4129 
Q 3647 3509 3647 2328 
Q 3647 1150 3233 529 
Q 2819 -91 2034 -91 
Q 1250 -91 836 529 
Q 422 1150 422 2328 
Q 422 3509 836 4129 
Q 1250 4750 2034 4750 
z
" transform="scale(0.015625)"/>
       </defs>
       <use xlink:href="#DejaVuSans-33"/>
       <use xlink:href="#DejaVuSans-30" x="63.623047"/>
      </g>
     </g>
    </g>
    <g id="xtick_7">
     <g id="line2d_7">
      <g>
       <use xlink:href="#mf24b8041d6" x="369.120589" y="387.16" style="stroke: #000000; stroke-width: 0.8"/>
      </g>
     </g>
     <g id="text_7">
      <!-- 31 -->
      <g transform="translate(362.758089 401.758438) scale(0.1 -0.1)">
       <defs>
        <path id="DejaVuSans-31" d="M 794 531 
L 1825 531 
L 1825 4091 
L 703 3866 
L 703 4441 
L 1819 4666 
L 2450 4666 
L 2450 531 
L 3481 531 
L 3481 0 
L 794 0 
L 794 531 
z
" transform="scale(0.015625)"/>
       </defs>
       <use xlink:href="#DejaVuSans-33"/>
       <use xlink:href="#DejaVuSans-31" x="63.623047"/>
      </g>
     </g>
    </g>
    <g id="xtick_8">
     <g id="line2d_8">
      <g>
       <use xlink:href="#mf24b8041d6" x="415.790334" y="387.16" style="stroke: #000000; stroke-width: 0.8"/>
      </g>
     </g>
     <g id="text_8">
      <!-- 32 -->
      <g transform="translate(409.427834 401.758438) scale(0.1 -0.1)">
       <use xlink:href="#DejaVuSans-33"/>
       <use xlink:href="#DejaVuSans-32" x="63.623047"/>
      </g>
     </g>
    </g>
    <g id="xtick_9">
     <g id="line2d_9">
      <g>
       <use xlink:href="#mf24b8041d6" x="462.460078" y="387.16" style="stroke: #000000; stroke-width: 0.8"/>
      </g>
     </g>
     <g id="text_9">
      <!-- 33 -->
      <g transform="translate(456.097578 401.758438) scale(0.1 -0.1)">
       <use xlink:href="#DejaVuSans-33"/>
       <use xlink:href="#DejaVuSans-33" x="63.623047"/>
      </g>
     </g>
    </g>
    <g id="xtick_10">
     <g id="line2d_10">
      <g>
       <use xlink:href="#mf24b8041d6" x="509.129822" y="387.16" style="stroke: #000000; stroke-width: 0.8"/>
      </g>
     </g>
     <g id="text_10">
      <!-- 34 -->
      <g transform="translate(502.767322 401.758438) scale(0.1 -0.1)">
       <defs>
        <path id="DejaVuSans-34" d="M 2419 4116 
L 825 1625 
L 2419 1625 
L 2419 4116 
z
M 2253 4666 
L 3047 4666 
L 3047 1625 
L 3713 1625 
L 3713 1100 
L 3047 1100 
L 3047 0 
L 2419 0 
L 2419 1100 
L 313 1100 
L 313 1709 
L 2253 4666 
z
" transform="scale(0.015625)"/>
       </defs>
       <use xlink:href="#DejaVuSans-33"/>
       <use xlink:href="#DejaVuSans-34" x="63.623047"/>
      </g>
     </g>
    </g>
    <g id="xtick_11">
     <g id="line2d_11">
      <g>
       <use xlink:href="#mf24b8041d6" x="555.799567" y="387.16" style="stroke: #000000; stroke-width: 0.8"/>
      </g>
     </g>
     <g id="text_11">
      <!-- 35 -->
      <g transform="translate(549.437067 401.758438) scale(0.1 -0.1)">
       <use xlink:href="#DejaVuSans-33"/>
       <use xlink:href="#DejaVuSans-35" x="63.623047"/>
      </g>
     </g>
    </g>
    <g id="xtick_12">
     <g id="line2d_12">
      <g>
       <use xlink:href="#mf24b8041d6" x="602.469311" y="387.16" style="stroke: #000000; stroke-width: 0.8"/>
      </g>
     </g>
     <g id="text_12">
      <!-- 36 -->
      <g transform="translate(596.106811 401.758438) scale(0.1 -0.1)">
       <use xlink:href="#DejaVuSans-33"/>
       <use xlink:href="#DejaVuSans-36" x="63.623047"/>
      </g>
     </g>
    </g>
    <g id="xtick_13">
     <g id="line2d_13">
      <g>
       <use xlink:href="#mf24b8041d6" x="649.139055" y="387.16" style="stroke: #000000; stroke-width: 0.8"/>
      </g>
     </g>
     <g id="text_13">
      <!-- 37 -->
      <g transform="translate(642.776555 401.758438) scale(0.1 -0.1)">
       <use xlink:href="#DejaVuSans-33"/>
       <use xlink:href="#DejaVuSans-37" x="63.623047"/>
      </g>
     </g>
    </g>
    <g id="text_14">
     <!-- K Value -->
     <g transform="translate(363.135937 416.95625) scale(0.12 -0.12)">
      <defs>
       <path id="DejaVuSans-4b" d="M 628 4666 
L 1259 4666 
L 1259 2694 
L 3353 4666 
L 4166 4666 
L 1850 2491 
L 4331 0 
L 3500 0 
L 1259 2247 
L 1259 0 
L 628 0 
L 628 4666 
z
" transform="scale(0.015625)"/>
       <path id="DejaVuSans-20" transform="scale(0.015625)"/>
       <path id="DejaVuSans-56" d="M 1831 0 
L 50 4666 
L 709 4666 
L 2188 738 
L 3669 4666 
L 4325 4666 
L 2547 0 
L 1831 0 
z
" transform="scale(0.015625)"/>
       <path id="DejaVuSans-61" d="M 2194 1759 
Q 1497 1759 1228 1600 
Q 959 1441 959 1056 
Q 959 750 1161 570 
Q 1363 391 1709 391 
Q 2188 391 2477 730 
Q 2766 1069 2766 1631 
L 2766 1759 
L 2194 1759 
z
M 3341 1997 
L 3341 0 
L 2766 0 
L 2766 531 
Q 2569 213 2275 61 
Q 1981 -91 1556 -91 
Q 1019 -91 701 211 
Q 384 513 384 1019 
Q 384 1609 779 1909 
Q 1175 2209 1959 2209 
L 2766 2209 
L 2766 2266 
Q 2766 2663 2505 2880 
Q 2244 3097 1772 3097 
Q 1472 3097 1187 3025 
Q 903 2953 641 2809 
L 641 3341 
Q 956 3463 1253 3523 
Q 1550 3584 1831 3584 
Q 2591 3584 2966 3190 
Q 3341 2797 3341 1997 
z
" transform="scale(0.015625)"/>
       <path id="DejaVuSans-6c" d="M 603 4863 
L 1178 4863 
L 1178 0 
L 603 0 
L 603 4863 
z
" transform="scale(0.015625)"/>
       <path id="DejaVuSans-75" d="M 544 1381 
L 544 3500 
L 1119 3500 
L 1119 1403 
Q 1119 906 1312 657 
Q 1506 409 1894 409 
Q 2359 409 2629 706 
Q 2900 1003 2900 1516 
L 2900 3500 
L 3475 3500 
L 3475 0 
L 2900 0 
L 2900 538 
Q 2691 219 2414 64 
Q 2138 -91 1772 -91 
Q 1169 -91 856 284 
Q 544 659 544 1381 
z
M 1991 3584 
L 1991 3584 
z
" transform="scale(0.015625)"/>
       <path id="DejaVuSans-65" d="M 3597 1894 
L 3597 1613 
L 953 1613 
Q 991 1019 1311 708 
Q 1631 397 2203 397 
Q 2534 397 2845 478 
Q 3156 559 3463 722 
L 3463 178 
Q 3153 47 2828 -22 
Q 2503 -91 2169 -91 
Q 1331 -91 842 396 
Q 353 884 353 1716 
Q 353 2575 817 3079 
Q 1281 3584 2069 3584 
Q 2775 3584 3186 3129 
Q 3597 2675 3597 1894 
z
M 3022 2063 
Q 3016 2534 2758 2815 
Q 2500 3097 2075 3097 
Q 1594 3097 1305 2825 
Q 1016 2553 972 2059 
L 3022 2063 
z
" transform="scale(0.015625)"/>
      </defs>
      <use xlink:href="#DejaVuSans-4b"/>
      <use xlink:href="#DejaVuSans-20" x="65.576172"/>
      <use xlink:href="#DejaVuSans-56" x="97.363281"/>
      <use xlink:href="#DejaVuSans-61" x="158.021484"/>
      <use xlink:href="#DejaVuSans-6c" x="219.300781"/>
      <use xlink:href="#DejaVuSans-75" x="247.083984"/>
      <use xlink:href="#DejaVuSans-65" x="310.462891"/>
     </g>
    </g>
   </g>
   <g id="matplotlib.axis_2">
    <g id="ytick_1">
     <g id="line2d_14">
      <defs>
       <path id="mda56a513d1" d="M 0 0 
L -3.5 0 
" style="stroke: #000000; stroke-width: 0.8"/>
      </defs>
      <g>
       <use xlink:href="#mda56a513d1" x="56.9" y="387.16" style="stroke: #000000; stroke-width: 0.8"/>
      </g>
     </g>
     <g id="text_15">
      <!-- 0.00 -->
      <g transform="translate(27.634375 390.959219) scale(0.1 -0.1)">
       <defs>
        <path id="DejaVuSans-2e" d="M 684 794 
L 1344 794 
L 1344 0 
L 684 0 
L 684 794 
z
" transform="scale(0.015625)"/>
       </defs>
       <use xlink:href="#DejaVuSans-30"/>
       <use xlink:href="#DejaVuSans-2e" x="63.623047"/>
       <use xlink:href="#DejaVuSans-30" x="95.410156"/>
       <use xlink:href="#DejaVuSans-30" x="159.033203"/>
      </g>
     </g>
    </g>
    <g id="ytick_2">
     <g id="line2d_15">
      <g>
       <use xlink:href="#mda56a513d1" x="56.9" y="339.599153" style="stroke: #000000; stroke-width: 0.8"/>
      </g>
     </g>
     <g id="text_16">
      <!-- 0.25 -->
      <g transform="translate(27.634375 343.398372) scale(0.1 -0.1)">
       <use xlink:href="#DejaVuSans-30"/>
       <use xlink:href="#DejaVuSans-2e" x="63.623047"/>
       <use xlink:href="#DejaVuSans-32" x="95.410156"/>
       <use xlink:href="#DejaVuSans-35" x="159.033203"/>
      </g>
     </g>
    </g>
    <g id="ytick_3">
     <g id="line2d_16">
      <g>
       <use xlink:href="#mda56a513d1" x="56.9" y="292.038307" style="stroke: #000000; stroke-width: 0.8"/>
      </g>
     </g>
     <g id="text_17">
      <!-- 0.50 -->
      <g transform="translate(27.634375 295.837526) scale(0.1 -0.1)">
       <use xlink:href="#DejaVuSans-30"/>
       <use xlink:href="#DejaVuSans-2e" x="63.623047"/>
       <use xlink:href="#DejaVuSans-35" x="95.410156"/>
       <use xlink:href="#DejaVuSans-30" x="159.033203"/>
      </g>
     </g>
    </g>
    <g id="ytick_4">
     <g id="line2d_17">
      <g>
       <use xlink:href="#mda56a513d1" x="56.9" y="244.47746" style="stroke: #000000; stroke-width: 0.8"/>
      </g>
     </g>
     <g id="text_18">
      <!-- 0.75 -->
      <g transform="translate(27.634375 248.276679) scale(0.1 -0.1)">
       <use xlink:href="#DejaVuSans-30"/>
       <use xlink:href="#DejaVuSans-2e" x="63.623047"/>
       <use xlink:href="#DejaVuSans-37" x="95.410156"/>
       <use xlink:href="#DejaVuSans-35" x="159.033203"/>
      </g>
     </g>
    </g>
    <g id="ytick_5">
     <g id="line2d_18">
      <g>
       <use xlink:href="#mda56a513d1" x="56.9" y="196.916614" style="stroke: #000000; stroke-width: 0.8"/>
      </g>
     </g>
     <g id="text_19">
      <!-- 1.00 -->
      <g transform="translate(27.634375 200.715833) scale(0.1 -0.1)">
       <use xlink:href="#DejaVuSans-31"/>
       <use xlink:href="#DejaVuSans-2e" x="63.623047"/>
       <use xlink:href="#DejaVuSans-30" x="95.410156"/>
       <use xlink:href="#DejaVuSans-30" x="159.033203"/>
      </g>
     </g>
    </g>
    <g id="ytick_6">
     <g id="line2d_19">
      <g>
       <use xlink:href="#mda56a513d1" x="56.9" y="149.355767" style="stroke: #000000; stroke-width: 0.8"/>
      </g>
     </g>
     <g id="text_20">
      <!-- 1.25 -->
      <g transform="translate(27.634375 153.154986) scale(0.1 -0.1)">
       <use xlink:href="#DejaVuSans-31"/>
       <use xlink:href="#DejaVuSans-2e" x="63.623047"/>
       <use xlink:href="#DejaVuSans-32" x="95.410156"/>
       <use xlink:href="#DejaVuSans-35" x="159.033203"/>
      </g>
     </g>
    </g>
    <g id="ytick_7">
     <g id="line2d_20">
      <g>
       <use xlink:href="#mda56a513d1" x="56.9" y="101.794921" style="stroke: #000000; stroke-width: 0.8"/>
      </g>
     </g>
     <g id="text_21">
      <!-- 1.50 -->
      <g transform="translate(27.634375 105.594139) scale(0.1 -0.1)">
       <use xlink:href="#DejaVuSans-31"/>
       <use xlink:href="#DejaVuSans-2e" x="63.623047"/>
       <use xlink:href="#DejaVuSans-35" x="95.410156"/>
       <use xlink:href="#DejaVuSans-30" x="159.033203"/>
      </g>
     </g>
    </g>
    <g id="ytick_8">
     <g id="line2d_21">
      <g>
       <use xlink:href="#mda56a513d1" x="56.9" y="54.234074" style="stroke: #000000; stroke-width: 0.8"/>
      </g>
     </g>
     <g id="text_22">
      <!-- 1.75 -->
      <g transform="translate(27.634375 58.033293) scale(0.1 -0.1)">
       <use xlink:href="#DejaVuSans-31"/>
       <use xlink:href="#DejaVuSans-2e" x="63.623047"/>
       <use xlink:href="#DejaVuSans-37" x="95.410156"/>
       <use xlink:href="#DejaVuSans-35" x="159.033203"/>
      </g>
     </g>
    </g>
    <g id="text_23">
     <!-- Average Lookup Time (ms) -->
     <g transform="translate(21.13875 287.55125) rotate(-90) scale(0.12 -0.12)">
      <defs>
       <path id="DejaVuSans-41" d="M 2188 4044 
L 1331 1722 
L 3047 1722 
L 2188 4044 
z
M 1831 4666 
L 2547 4666 
L 4325 0 
L 3669 0 
L 3244 1197 
L 1141 1197 
L 716 0 
L 50 0 
L 1831 4666 
z
" transform="scale(0.015625)"/>
       <path id="DejaVuSans-76" d="M 191 3500 
L 800 3500 
L 1894 563 
L 2988 3500 
L 3597 3500 
L 2284 0 
L 1503 0 
L 191 3500 
z
" transform="scale(0.015625)"/>
       <path id="DejaVuSans-72" d="M 2631 2963 
Q 2534 3019 2420 3045 
Q 2306 3072 2169 3072 
Q 1681 3072 1420 2755 
Q 1159 2438 1159 1844 
L 1159 0 
L 581 0 
L 581 3500 
L 1159 3500 
L 1159 2956 
Q 1341 3275 1631 3429 
Q 1922 3584 2338 3584 
Q 2397 3584 2469 3576 
Q 2541 3569 2628 3553 
L 2631 2963 
z
" transform="scale(0.015625)"/>
       <path id="DejaVuSans-67" d="M 2906 1791 
Q 2906 2416 2648 2759 
Q 2391 3103 1925 3103 
Q 1463 3103 1205 2759 
Q 947 2416 947 1791 
Q 947 1169 1205 825 
Q 1463 481 1925 481 
Q 2391 481 2648 825 
Q 2906 1169 2906 1791 
z
M 3481 434 
Q 3481 -459 3084 -895 
Q 2688 -1331 1869 -1331 
Q 1566 -1331 1297 -1286 
Q 1028 -1241 775 -1147 
L 775 -588 
Q 1028 -725 1275 -790 
Q 1522 -856 1778 -856 
Q 2344 -856 2625 -561 
Q 2906 -266 2906 331 
L 2906 616 
Q 2728 306 2450 153 
Q 2172 0 1784 0 
Q 1141 0 747 490 
Q 353 981 353 1791 
Q 353 2603 747 3093 
Q 1141 3584 1784 3584 
Q 2172 3584 2450 3431 
Q 2728 3278 2906 2969 
L 2906 3500 
L 3481 3500 
L 3481 434 
z
" transform="scale(0.015625)"/>
       <path id="DejaVuSans-4c" d="M 628 4666 
L 1259 4666 
L 1259 531 
L 3531 531 
L 3531 0 
L 628 0 
L 628 4666 
z
" transform="scale(0.015625)"/>
       <path id="DejaVuSans-6f" d="M 1959 3097 
Q 1497 3097 1228 2736 
Q 959 2375 959 1747 
Q 959 1119 1226 758 
Q 1494 397 1959 397 
Q 2419 397 2687 759 
Q 2956 1122 2956 1747 
Q 2956 2369 2687 2733 
Q 2419 3097 1959 3097 
z
M 1959 3584 
Q 2709 3584 3137 3096 
Q 3566 2609 3566 1747 
Q 3566 888 3137 398 
Q 2709 -91 1959 -91 
Q 1206 -91 779 398 
Q 353 888 353 1747 
Q 353 2609 779 3096 
Q 1206 3584 1959 3584 
z
" transform="scale(0.015625)"/>
       <path id="DejaVuSans-6b" d="M 581 4863 
L 1159 4863 
L 1159 1991 
L 2875 3500 
L 3609 3500 
L 1753 1863 
L 3688 0 
L 2938 0 
L 1159 1709 
L 1159 0 
L 581 0 
L 581 4863 
z
" transform="scale(0.015625)"/>
       <path id="DejaVuSans-70" d="M 1159 525 
L 1159 -1331 
L 581 -1331 
L 581 3500 
L 1159 3500 
L 1159 2969 
Q 1341 3281 1617 3432 
Q 1894 3584 2278 3584 
Q 2916 3584 3314 3078 
Q 3713 2572 3713 1747 
Q 3713 922 3314 415 
Q 2916 -91 2278 -91 
Q 1894 -91 1617 61 
Q 1341 213 1159 525 
z
M 3116 1747 
Q 3116 2381 2855 2742 
Q 2594 3103 2138 3103 
Q 1681 3103 1420 2742 
Q 1159 2381 1159 1747 
Q 1159 1113 1420 752 
Q 1681 391 2138 391 
Q 2594 391 2855 752 
Q 3116 1113 3116 1747 
z
" transform="scale(0.015625)"/>
       <path id="DejaVuSans-54" d="M -19 4666 
L 3928 4666 
L 3928 4134 
L 2272 4134 
L 2272 0 
L 1638 0 
L 1638 4134 
L -19 4134 
L -19 4666 
z
" transform="scale(0.015625)"/>
       <path id="DejaVuSans-69" d="M 603 3500 
L 1178 3500 
L 1178 0 
L 603 0 
L 603 3500 
z
M 603 4863 
L 1178 4863 
L 1178 4134 
L 603 4134 
L 603 4863 
z
" transform="scale(0.015625)"/>
       <path id="DejaVuSans-6d" d="M 3328 2828 
Q 3544 3216 3844 3400 
Q 4144 3584 4550 3584 
Q 5097 3584 5394 3201 
Q 5691 2819 5691 2113 
L 5691 0 
L 5113 0 
L 5113 2094 
Q 5113 2597 4934 2840 
Q 4756 3084 4391 3084 
Q 3944 3084 3684 2787 
Q 3425 2491 3425 1978 
L 3425 0 
L 2847 0 
L 2847 2094 
Q 2847 2600 2669 2842 
Q 2491 3084 2119 3084 
Q 1678 3084 1418 2786 
Q 1159 2488 1159 1978 
L 1159 0 
L 581 0 
L 581 3500 
L 1159 3500 
L 1159 2956 
Q 1356 3278 1631 3431 
Q 1906 3584 2284 3584 
Q 2666 3584 2933 3390 
Q 3200 3197 3328 2828 
z
" transform="scale(0.015625)"/>
       <path id="DejaVuSans-28" d="M 1984 4856 
Q 1566 4138 1362 3434 
Q 1159 2731 1159 2009 
Q 1159 1288 1364 580 
Q 1569 -128 1984 -844 
L 1484 -844 
Q 1016 -109 783 600 
Q 550 1309 550 2009 
Q 550 2706 781 3412 
Q 1013 4119 1484 4856 
L 1984 4856 
z
" transform="scale(0.015625)"/>
       <path id="DejaVuSans-73" d="M 2834 3397 
L 2834 2853 
Q 2591 2978 2328 3040 
Q 2066 3103 1784 3103 
Q 1356 3103 1142 2972 
Q 928 2841 928 2578 
Q 928 2378 1081 2264 
Q 1234 2150 1697 2047 
L 1894 2003 
Q 2506 1872 2764 1633 
Q 3022 1394 3022 966 
Q 3022 478 2636 193 
Q 2250 -91 1575 -91 
Q 1294 -91 989 -36 
Q 684 19 347 128 
L 347 722 
Q 666 556 975 473 
Q 1284 391 1588 391 
Q 1994 391 2212 530 
Q 2431 669 2431 922 
Q 2431 1156 2273 1281 
Q 2116 1406 1581 1522 
L 1381 1569 
Q 847 1681 609 1914 
Q 372 2147 372 2553 
Q 372 3047 722 3315 
Q 1072 3584 1716 3584 
Q 2034 3584 2315 3537 
Q 2597 3491 2834 3397 
z
" transform="scale(0.015625)"/>
       <path id="DejaVuSans-29" d="M 513 4856 
L 1013 4856 
Q 1481 4119 1714 3412 
Q 1947 2706 1947 2009 
Q 1947 1309 1714 600 
Q 1481 -109 1013 -844 
L 513 -844 
Q 928 -128 1133 580 
Q 1338 1288 1338 2009 
Q 1338 2731 1133 3434 
Q 928 4138 513 4856 
z
" transform="scale(0.015625)"/>
      </defs>
      <use xlink:href="#DejaVuSans-41"/>
      <use xlink:href="#DejaVuSans-76" x="62.533203"/>
      <use xlink:href="#DejaVuSans-65" x="121.712891"/>
      <use xlink:href="#DejaVuSans-72" x="183.236328"/>
      <use xlink:href="#DejaVuSans-61" x="224.349609"/>
      <use xlink:href="#DejaVuSans-67" x="285.628906"/>
      <use xlink:href="#DejaVuSans-65" x="349.105469"/>
      <use xlink:href="#DejaVuSans-20" x="410.628906"/>
      <use xlink:href="#DejaVuSans-4c" x="442.416016"/>
      <use xlink:href="#DejaVuSans-6f" x="496.378906"/>
      <use xlink:href="#DejaVuSans-6f" x="557.560547"/>
      <use xlink:href="#DejaVuSans-6b" x="618.742188"/>
      <use xlink:href="#DejaVuSans-75" x="673.527344"/>
      <use xlink:href="#DejaVuSans-70" x="736.90625"/>
      <use xlink:href="#DejaVuSans-20" x="800.382812"/>
      <use xlink:href="#DejaVuSans-54" x="832.169922"/>
      <use xlink:href="#DejaVuSans-69" x="890.128906"/>
      <use xlink:href="#DejaVuSans-6d" x="917.912109"/>
      <use xlink:href="#DejaVuSans-65" x="1015.324219"/>
      <use xlink:href="#DejaVuSans-20" x="1076.847656"/>
      <use xlink:href="#DejaVuSans-28" x="1108.634766"/>
      <use xlink:href="#DejaVuSans-6d" x="1147.648438"/>
      <use xlink:href="#DejaVuSans-73" x="1245.060547"/>
      <use xlink:href="#DejaVuSans-29" x="1297.160156"/>
     </g>
    </g>
   </g>
   <g id="patch_107">
    <path d="M 56.9 387.16 
L 56.9 27.6 
" style="fill: none; stroke: #000000; stroke-width: 0.8; stroke-linejoin: miter; stroke-linecap: square"/>
   </g>
   <g id="patch_108">
    <path d="M 714.01 387.16 
L 714.01 27.6 
" style="fill: none; stroke: #000000; stroke-width: 0.8; stroke-linejoin: miter; stroke-linecap: square"/>
   </g>
   <g id="patch_109">
    <path d="M 56.9 387.16 
L 714.01 387.16 
" style="fill: none; stroke: #000000; stroke-width: 0.8; stroke-linejoin: miter; stroke-linecap: square"/>
   </g>
   <g id="patch_110">
    <path d="M 56.9 27.6 
L 714.01 27.6 
" style="fill: none; stroke: #000000; stroke-width: 0.8; stroke-linejoin: miter; stroke-linecap: square"/>
   </g>
   <g id="text_24">
    <!-- Epycbox_ssd - SSD Drives -->
    <g transform="translate(294.920937 21.6) scale(0.14 -0.14)">
     <defs>
      <path id="DejaVuSans-45" d="M 628 4666 
L 3578 4666 
L 3578 4134 
L 1259 4134 
L 1259 2753 
L 3481 2753 
L 3481 2222 
L 1259 2222 
L 1259 531 
L 3634 531 
L 3634 0 
L 628 0 
L 628 4666 
z
" transform="scale(0.015625)"/>
      <path id="DejaVuSans-79" d="M 2059 -325 
Q 1816 -950 1584 -1140 
Q 1353 -1331 966 -1331 
L 506 -1331 
L 506 -850 
L 844 -850 
Q 1081 -850 1212 -737 
Q 1344 -625 1503 -206 
L 1606 56 
L 191 3500 
L 800 3500 
L 1894 763 
L 2988 3500 
L 3597 3500 
L 2059 -325 
z
" transform="scale(0.015625)"/>
      <path id="DejaVuSans-63" d="M 3122 3366 
L 3122 2828 
Q 2878 2963 2633 3030 
Q 2388 3097 2138 3097 
Q 1578 3097 1268 2742 
Q 959 2388 959 1747 
Q 959 1106 1268 751 
Q 1578 397 2138 397 
Q 2388 397 2633 464 
Q 2878 531 3122 666 
L 3122 134 
Q 2881 22 2623 -34 
Q 2366 -91 2075 -91 
Q 1284 -91 818 406 
Q 353 903 353 1747 
Q 353 2603 823 3093 
Q 1294 3584 2113 3584 
Q 2378 3584 2631 3529 
Q 2884 3475 3122 3366 
z
" transform="scale(0.015625)"/>
      <path id="DejaVuSans-62" d="M 3116 1747 
Q 3116 2381 2855 2742 
Q 2594 3103 2138 3103 
Q 1681 3103 1420 2742 
Q 1159 2381 1159 1747 
Q 1159 1113 1420 752 
Q 1681 391 2138 391 
Q 2594 391 2855 752 
Q 3116 1113 3116 1747 
z
M 1159 2969 
Q 1341 3281 1617 3432 
Q 1894 3584 2278 3584 
Q 2916 3584 3314 3078 
Q 3713 2572 3713 1747 
Q 3713 922 3314 415 
Q 2916 -91 2278 -91 
Q 1894 -91 1617 61 
Q 1341 213 1159 525 
L 1159 0 
L 581 0 
L 581 4863 
L 1159 4863 
L 1159 2969 
z
" transform="scale(0.015625)"/>
      <path id="DejaVuSans-78" d="M 3513 3500 
L 2247 1797 
L 3578 0 
L 2900 0 
L 1881 1375 
L 863 0 
L 184 0 
L 1544 1831 
L 300 3500 
L 978 3500 
L 1906 2253 
L 2834 3500 
L 3513 3500 
z
" transform="scale(0.015625)"/>
      <path id="DejaVuSans-5f" d="M 3263 -1063 
L 3263 -1509 
L -63 -1509 
L -63 -1063 
L 3263 -1063 
z
" transform="scale(0.015625)"/>
      <path id="DejaVuSans-64" d="M 2906 2969 
L 2906 4863 
L 3481 4863 
L 3481 0 
L 2906 0 
L 2906 525 
Q 2725 213 2448 61 
Q 2172 -91 1784 -91 
Q 1150 -91 751 415 
Q 353 922 353 1747 
Q 353 2572 751 3078 
Q 1150 3584 1784 3584 
Q 2172 3584 2448 3432 
Q 2725 3281 2906 2969 
z
M 947 1747 
Q 947 1113 1208 752 
Q 1469 391 1925 391 
Q 2381 391 2643 752 
Q 2906 1113 2906 1747 
Q 2906 2381 2643 2742 
Q 2381 3103 1925 3103 
Q 1469 3103 1208 2742 
Q 947 2381 947 1747 
z
" transform="scale(0.015625)"/>
      <path id="DejaVuSans-2d" d="M 313 2009 
L 1997 2009 
L 1997 1497 
L 313 1497 
L 313 2009 
z
" transform="scale(0.015625)"/>
      <path id="DejaVuSans-53" d="M 3425 4513 
L 3425 3897 
Q 3066 4069 2747 4153 
Q 2428 4238 2131 4238 
Q 1616 4238 1336 4038 
Q 1056 3838 1056 3469 
Q 1056 3159 1242 3001 
Q 1428 2844 1947 2747 
L 2328 2669 
Q 3034 2534 3370 2195 
Q 3706 1856 3706 1288 
Q 3706 609 3251 259 
Q 2797 -91 1919 -91 
Q 1588 -91 1214 -16 
Q 841 59 441 206 
L 441 856 
Q 825 641 1194 531 
Q 1563 422 1919 422 
Q 2459 422 2753 634 
Q 3047 847 3047 1241 
Q 3047 1584 2836 1778 
Q 2625 1972 2144 2069 
L 1759 2144 
Q 1053 2284 737 2584 
Q 422 2884 422 3419 
Q 422 4038 858 4394 
Q 1294 4750 2059 4750 
Q 2388 4750 2728 4690 
Q 3069 4631 3425 4513 
z
" transform="scale(0.015625)"/>
      <path id="DejaVuSans-44" d="M 1259 4147 
L 1259 519 
L 2022 519 
Q 2988 519 3436 956 
Q 3884 1394 3884 2338 
Q 3884 3275 3436 3711 
Q 2988 4147 2022 4147 
L 1259 4147 
z
M 628 4666 
L 1925 4666 
Q 3281 4666 3915 4102 
Q 4550 3538 4550 2338 
Q 4550 1131 3912 565 
Q 3275 0 1925 0 
L 628 0 
L 628 4666 
z
" transform="scale(0.015625)"/>
     </defs>
     <use xlink:href="#DejaVuSans-45"/>
     <use xlink:href="#DejaVuSans-70" x="63.183594"/>
     <use xlink:href="#DejaVuSans-79" x="126.660156"/>
     <use xlink:href="#DejaVuSans-63" x="185.839844"/>
     <use xlink:href="#DejaVuSans-62" x="240.820312"/>
     <use xlink:href="#DejaVuSans-6f" x="304.296875"/>
     <use xlink:href="#DejaVuSans-78" x="362.353516"/>
     <use xlink:href="#DejaVuSans-5f" x="421.533203"/>
     <use xlink:href="#DejaVuSans-73" x="471.533203"/>
     <use xlink:href="#DejaVuSans-73" x="523.632812"/>
     <use xlink:href="#DejaVuSans-64" x="575.732422"/>
     <use xlink:href="#DejaVuSans-20" x="639.208984"/>
     <use xlink:href="#DejaVuSans-2d" x="670.996094"/>
     <use xlink:href="#DejaVuSans-20" x="707.080078"/>
     <use xlink:href="#DejaVuSans-53" x="738.867188"/>
     <use xlink:href="#DejaVuSans-53" x="802.34375"/>
     <use xlink:href="#DejaVuSans-44" x="865.820312"/>
     <use xlink:href="#DejaVuSans-20" x="942.822266"/>
     <use xlink:href="#DejaVuSans-44" x="974.609375"/>
     <use xlink:href="#DejaVuSans-72" x="1051.611328"/>
     <use xlink:href="#DejaVuSans-69" x="1092.724609"/>
     <use xlink:href="#DejaVuSans-76" x="1120.507812"/>
     <use xlink:href="#DejaVuSans-65" x="1179.6875"/>
     <use xlink:href="#DejaVuSans-73" x="1241.210938"/>
    </g>
   </g>
   <g id="legend_1">
    <g id="patch_111">
     <path d="M 753.8655 167.703125 
L 850.670187 167.703125 
Q 852.670187 167.703125 852.670187 165.703125 
L 852.670187 34.6 
Q 852.670187 32.6 850.670187 32.6 
L 753.8655 32.6 
Q 751.8655 32.6 751.8655 34.6 
L 751.8655 165.703125 
Q 751.8655 167.703125 753.8655 167.703125 
z
" style="fill: #ffffff; opacity: 0.8; stroke: #cccccc; stroke-linejoin: miter"/>
    </g>
    <g id="text_25">
     <!-- Hash Size -->
     <g transform="translate(777.817062 44.198438) scale(0.1 -0.1)">
      <defs>
       <path id="DejaVuSans-48" d="M 628 4666 
L 1259 4666 
L 1259 2753 
L 3553 2753 
L 3553 4666 
L 4184 4666 
L 4184 0 
L 3553 0 
L 3553 2222 
L 1259 2222 
L 1259 0 
L 628 0 
L 628 4666 
z
" transform="scale(0.015625)"/>
       <path id="DejaVuSans-68" d="M 3513 2113 
L 3513 0 
L 2938 0 
L 2938 2094 
Q 2938 2591 2744 2837 
Q 2550 3084 2163 3084 
Q 1697 3084 1428 2787 
Q 1159 2491 1159 1978 
L 1159 0 
L 581 0 
L 581 4863 
L 1159 4863 
L 1159 2956 
Q 1366 3272 1645 3428 
Q 1925 3584 2291 3584 
Q 2894 3584 3203 3211 
Q 3513 2838 3513 2113 
z
" transform="scale(0.015625)"/>
       <path id="DejaVuSans-7a" d="M 353 3500 
L 3084 3500 
L 3084 2975 
L 922 459 
L 3084 459 
L 3084 0 
L 275 0 
L 275 525 
L 2438 3041 
L 353 3041 
L 353 3500 
z
" transform="scale(0.015625)"/>
      </defs>
      <use xlink:href="#DejaVuSans-48"/>
      <use xlink:href="#DejaVuSans-61" x="75.195312"/>
      <use xlink:href="#DejaVuSans-73" x="136.474609"/>
      <use xlink:href="#DejaVuSans-68" x="188.574219"/>
      <use xlink:href="#DejaVuSans-20" x="251.953125"/>
      <use xlink:href="#DejaVuSans-53" x="283.740234"/>
      <use xlink:href="#DejaVuSans-69" x="347.216797"/>
      <use xlink:href="#DejaVuSans-7a" x="375"/>
      <use xlink:href="#DejaVuSans-65" x="427.490234"/>
     </g>
    </g>
    <g id="patch_112">
     <path d="M 755.8655 58.876563 
L 775.8655 58.876563 
L 775.8655 51.876563 
L 755.8655 51.876563 
z
" style="fill: #1f77b4"/>
    </g>
    <g id="text_26">
     <!-- Hash Size 3 -->
     <g transform="translate(783.8655 58.876563) scale(0.1 -0.1)">
      <use xlink:href="#DejaVuSans-48"/>
      <use xlink:href="#DejaVuSans-61" x="75.195312"/>
      <use xlink:href="#DejaVuSans-73" x="136.474609"/>
      <use xlink:href="#DejaVuSans-68" x="188.574219"/>
      <use xlink:href="#DejaVuSans-20" x="251.953125"/>
      <use xlink:href="#DejaVuSans-53" x="283.740234"/>
      <use xlink:href="#DejaVuSans-69" x="347.216797"/>
      <use xlink:href="#DejaVuSans-7a" x="375"/>
      <use xlink:href="#DejaVuSans-65" x="427.490234"/>
      <use xlink:href="#DejaVuSans-20" x="489.013672"/>
      <use xlink:href="#DejaVuSans-33" x="520.800781"/>
     </g>
    </g>
    <g id="patch_113">
     <path d="M 755.8655 73.554688 
L 775.8655 73.554688 
L 775.8655 66.554688 
L 755.8655 66.554688 
z
" style="fill: #ff7f0e"/>
    </g>
    <g id="text_27">
     <!-- Hash Size 4 -->
     <g transform="translate(783.8655 73.554688) scale(0.1 -0.1)">
      <use xlink:href="#DejaVuSans-48"/>
      <use xlink:href="#DejaVuSans-61" x="75.195312"/>
      <use xlink:href="#DejaVuSans-73" x="136.474609"/>
      <use xlink:href="#DejaVuSans-68" x="188.574219"/>
      <use xlink:href="#DejaVuSans-20" x="251.953125"/>
      <use xlink:href="#DejaVuSans-53" x="283.740234"/>
      <use xlink:href="#DejaVuSans-69" x="347.216797"/>
      <use xlink:href="#DejaVuSans-7a" x="375"/>
      <use xlink:href="#DejaVuSans-65" x="427.490234"/>
      <use xlink:href="#DejaVuSans-20" x="489.013672"/>
      <use xlink:href="#DejaVuSans-34" x="520.800781"/>
     </g>
    </g>
    <g id="patch_114">
     <path d="M 755.8655 88.232813 
L 775.8655 88.232813 
L 775.8655 81.232813 
L 755.8655 81.232813 
z
" style="fill: #2ca02c"/>
    </g>
    <g id="text_28">
     <!-- Hash Size 5 -->
     <g transform="translate(783.8655 88.232813) scale(0.1 -0.1)">
      <use xlink:href="#DejaVuSans-48"/>
      <use xlink:href="#DejaVuSans-61" x="75.195312"/>
      <use xlink:href="#DejaVuSans-73" x="136.474609"/>
      <use xlink:href="#DejaVuSans-68" x="188.574219"/>
      <use xlink:href="#DejaVuSans-20" x="251.953125"/>
      <use xlink:href="#DejaVuSans-53" x="283.740234"/>
      <use xlink:href="#DejaVuSans-69" x="347.216797"/>
      <use xlink:href="#DejaVuSans-7a" x="375"/>
      <use xlink:href="#DejaVuSans-65" x="427.490234"/>
      <use xlink:href="#DejaVuSans-20" x="489.013672"/>
      <use xlink:href="#DejaVuSans-35" x="520.800781"/>
     </g>
    </g>
    <g id="patch_115">
     <path d="M 755.8655 102.910938 
L 775.8655 102.910938 
L 775.8655 95.910938 
L 755.8655 95.910938 
z
" style="fill: #d62728"/>
    </g>
    <g id="text_29">
     <!-- Hash Size 6 -->
     <g transform="translate(783.8655 102.910938) scale(0.1 -0.1)">
      <use xlink:href="#DejaVuSans-48"/>
      <use xlink:href="#DejaVuSans-61" x="75.195312"/>
      <use xlink:href="#DejaVuSans-73" x="136.474609"/>
      <use xlink:href="#DejaVuSans-68" x="188.574219"/>
      <use xlink:href="#DejaVuSans-20" x="251.953125"/>
      <use xlink:href="#DejaVuSans-53" x="283.740234"/>
      <use xlink:href="#DejaVuSans-69" x="347.216797"/>
      <use xlink:href="#DejaVuSans-7a" x="375"/>
      <use xlink:href="#DejaVuSans-65" x="427.490234"/>
      <use xlink:href="#DejaVuSans-20" x="489.013672"/>
      <use xlink:href="#DejaVuSans-36" x="520.800781"/>
     </g>
    </g>
    <g id="patch_116">
     <path d="M 755.8655 117.589063 
L 775.8655 117.589063 
L 775.8655 110.589063 
L 755.8655 110.589063 
z
" style="fill: #9467bd"/>
    </g>
    <g id="text_30">
     <!-- Hash Size 7 -->
     <g transform="translate(783.8655 117.589063) scale(0.1 -0.1)">
      <use xlink:href="#DejaVuSans-48"/>
      <use xlink:href="#DejaVuSans-61" x="75.195312"/>
      <use xlink:href="#DejaVuSans-73" x="136.474609"/>
      <use xlink:href="#DejaVuSans-68" x="188.574219"/>
      <use xlink:href="#DejaVuSans-20" x="251.953125"/>
      <use xlink:href="#DejaVuSans-53" x="283.740234"/>
      <use xlink:href="#DejaVuSans-69" x="347.216797"/>
      <use xlink:href="#DejaVuSans-7a" x="375"/>
      <use xlink:href="#DejaVuSans-65" x="427.490234"/>
      <use xlink:href="#DejaVuSans-20" x="489.013672"/>
      <use xlink:href="#DejaVuSans-37" x="520.800781"/>
     </g>
    </g>
    <g id="patch_117">
     <path d="M 755.8655 132.267188 
L 775.8655 132.267188 
L 775.8655 125.267188 
L 755.8655 125.267188 
z
" style="fill: #8c564b"/>
    </g>
    <g id="text_31">
     <!-- Hash Size 8 -->
     <g transform="translate(783.8655 132.267188) scale(0.1 -0.1)">
      <use xlink:href="#DejaVuSans-48"/>
      <use xlink:href="#DejaVuSans-61" x="75.195312"/>
      <use xlink:href="#DejaVuSans-73" x="136.474609"/>
      <use xlink:href="#DejaVuSans-68" x="188.574219"/>
      <use xlink:href="#DejaVuSans-20" x="251.953125"/>
      <use xlink:href="#DejaVuSans-53" x="283.740234"/>
      <use xlink:href="#DejaVuSans-69" x="347.216797"/>
      <use xlink:href="#DejaVuSans-7a" x="375"/>
      <use xlink:href="#DejaVuSans-65" x="427.490234"/>
      <use xlink:href="#DejaVuSans-20" x="489.013672"/>
      <use xlink:href="#DejaVuSans-38" x="520.800781"/>
     </g>
    </g>
    <g id="patch_118">
     <path d="M 755.8655 146.945312 
L 775.8655 146.945312 
L 775.8655 139.945312 
L 755.8655 139.945312 
z
" style="fill: #e377c2"/>
    </g>
    <g id="text_32">
     <!-- Hash Size 16 -->
     <g transform="translate(783.8655 146.945312) scale(0.1 -0.1)">
      <use xlink:href="#DejaVuSans-48"/>
      <use xlink:href="#DejaVuSans-61" x="75.195312"/>
      <use xlink:href="#DejaVuSans-73" x="136.474609"/>
      <use xlink:href="#DejaVuSans-68" x="188.574219"/>
      <use xlink:href="#DejaVuSans-20" x="251.953125"/>
      <use xlink:href="#DejaVuSans-53" x="283.740234"/>
      <use xlink:href="#DejaVuSans-69" x="347.216797"/>
      <use xlink:href="#DejaVuSans-7a" x="375"/>
      <use xlink:href="#DejaVuSans-65" x="427.490234"/>
      <use xlink:href="#DejaVuSans-20" x="489.013672"/>
      <use xlink:href="#DejaVuSans-31" x="520.800781"/>
      <use xlink:href="#DejaVuSans-36" x="584.423828"/>
     </g>
    </g>
    <g id="patch_119">
     <path d="M 755.8655 161.623438 
L 775.8655 161.623438 
L 775.8655 154.623438 
L 755.8655 154.623438 
z
" style="fill: #7f7f7f"/>
    </g>
    <g id="text_33">
     <!-- Hash Size 32 -->
     <g transform="translate(783.8655 161.623438) scale(0.1 -0.1)">
      <use xlink:href="#DejaVuSans-48"/>
      <use xlink:href="#DejaVuSans-61" x="75.195312"/>
      <use xlink:href="#DejaVuSans-73" x="136.474609"/>
      <use xlink:href="#DejaVuSans-68" x="188.574219"/>
      <use xlink:href="#DejaVuSans-20" x="251.953125"/>
      <use xlink:href="#DejaVuSans-53" x="283.740234"/>
      <use xlink:href="#DejaVuSans-69" x="347.216797"/>
      <use xlink:href="#DejaVuSans-7a" x="375"/>
      <use xlink:href="#DejaVuSans-65" x="427.490234"/>
      <use xlink:href="#DejaVuSans-20" x="489.013672"/>
      <use xlink:href="#DejaVuSans-33" x="520.800781"/>
      <use xlink:href="#DejaVuSans-32" x="584.423828"/>
     </g>
    </g>
   </g>
  </g>
 </g>
 <defs>
  <clipPath id="p1b4d7ae58d">
   <rect x="56.9" y="27.6" width="657.11" height="359.56"/>
  </clipPath>
 </defs>
</svg>
